G75*
G70*
%OFA0B0*%
%FSLAX24Y24*%
%IPPOS*%
%LPD*%
%AMOC8*
5,1,8,0,0,1.08239X$1,22.5*
%
%ADD10C,0.0780*%
%ADD11C,0.0640*%
%ADD12R,0.0749X0.0591*%
%ADD13R,0.0591X0.0788*%
%ADD14R,0.0355X0.0631*%
%ADD15R,0.0640X0.0640*%
%ADD16OC8,0.0640*%
%ADD17C,0.1340*%
D10*
X016780Y013390D03*
X016780Y014390D03*
X016780Y015390D03*
X016780Y016390D03*
X016780Y017390D03*
X016780Y018390D03*
D11*
X006780Y018090D02*
X006780Y017490D01*
X005780Y017490D02*
X005780Y018090D01*
X002580Y012490D02*
X001980Y012490D01*
X001980Y011490D02*
X002580Y011490D01*
X002580Y010490D02*
X001980Y010490D01*
X001980Y009490D02*
X002580Y009490D01*
X002580Y008490D02*
X001980Y008490D01*
X001980Y007490D02*
X002580Y007490D01*
X002580Y006490D02*
X001980Y006490D01*
X001980Y005490D02*
X002580Y005490D01*
X002580Y004490D02*
X001980Y004490D01*
X015780Y004190D02*
X016380Y004190D01*
X016380Y005190D02*
X015780Y005190D01*
X015780Y006190D02*
X016380Y006190D01*
X016380Y007190D02*
X015780Y007190D01*
X015780Y003190D02*
X016380Y003190D01*
X016380Y002190D02*
X015780Y002190D01*
D12*
X008873Y008132D03*
X006629Y008132D03*
D13*
X009503Y002955D03*
X004326Y002561D03*
D14*
X006160Y004077D03*
X006593Y004234D03*
X007026Y004077D03*
X007460Y003998D03*
X007893Y004077D03*
X008326Y003998D03*
X008759Y004077D03*
X009192Y004077D03*
D15*
X003680Y002990D03*
D16*
X001680Y001990D03*
X002680Y001990D03*
X003680Y001990D03*
X002680Y002990D03*
X001680Y002990D03*
D17*
X002280Y017890D03*
M02*
