G75*
G70*
%OFA0B0*%
%FSLAX24Y24*%
%IPPOS*%
%LPD*%
%AMOC8*
5,1,8,0,0,1.08239X$1,22.5*
%
%ADD10R,0.0045X0.0005*%
%ADD11R,0.0100X0.0005*%
%ADD12R,0.0065X0.0005*%
%ADD13R,0.0080X0.0005*%
%ADD14R,0.0125X0.0005*%
%ADD15R,0.0135X0.0005*%
%ADD16R,0.0145X0.0005*%
%ADD17R,0.0155X0.0005*%
%ADD18R,0.0165X0.0005*%
%ADD19R,0.0170X0.0005*%
%ADD20R,0.0175X0.0005*%
%ADD21R,0.0180X0.0005*%
%ADD22R,0.0185X0.0005*%
%ADD23R,0.0015X0.0005*%
%ADD24R,0.0110X0.0005*%
%ADD25R,0.0085X0.0005*%
%ADD26R,0.0075X0.0005*%
%ADD27R,0.0070X0.0005*%
%ADD28R,0.0050X0.0005*%
%ADD29R,0.0025X0.0005*%
%ADD30R,0.0020X0.0005*%
%ADD31R,0.0055X0.0005*%
%ADD32R,0.0105X0.0005*%
%ADD33R,0.0140X0.0005*%
%ADD34R,0.0095X0.0005*%
%ADD35R,0.0090X0.0005*%
%ADD36R,0.0160X0.0005*%
%ADD37R,0.0150X0.0005*%
%ADD38R,0.0200X0.0005*%
%ADD39R,0.0230X0.0005*%
%ADD40R,0.0225X0.0005*%
%ADD41R,0.0250X0.0005*%
%ADD42R,0.0205X0.0005*%
%ADD43R,0.0195X0.0005*%
%ADD44R,0.0235X0.0005*%
%ADD45R,0.0210X0.0005*%
%ADD46R,0.0265X0.0005*%
%ADD47R,0.0255X0.0005*%
%ADD48R,0.0290X0.0005*%
%ADD49R,0.0215X0.0005*%
%ADD50R,0.0280X0.0005*%
%ADD51R,0.0320X0.0005*%
%ADD52R,0.0220X0.0005*%
%ADD53R,0.0285X0.0005*%
%ADD54R,0.0245X0.0005*%
%ADD55R,0.0310X0.0005*%
%ADD56R,0.0300X0.0005*%
%ADD57R,0.0340X0.0005*%
%ADD58R,0.0270X0.0005*%
%ADD59R,0.0240X0.0005*%
%ADD60R,0.0260X0.0005*%
%ADD61R,0.0325X0.0005*%
%ADD62R,0.0315X0.0005*%
%ADD63R,0.0350X0.0005*%
%ADD64R,0.0295X0.0005*%
%ADD65R,0.0305X0.0005*%
%ADD66R,0.0375X0.0005*%
%ADD67R,0.0330X0.0005*%
%ADD68R,0.0360X0.0005*%
%ADD69R,0.0380X0.0005*%
%ADD70R,0.0335X0.0005*%
%ADD71R,0.0365X0.0005*%
%ADD72R,0.0390X0.0005*%
%ADD73R,0.0370X0.0005*%
%ADD74R,0.0395X0.0005*%
%ADD75R,0.0345X0.0005*%
%ADD76R,0.0400X0.0005*%
%ADD77R,0.0385X0.0005*%
%ADD78R,0.0130X0.0005*%
%ADD79R,0.0115X0.0005*%
%ADD80R,0.0405X0.0005*%
%ADD81R,0.0355X0.0005*%
%ADD82R,0.0060X0.0005*%
%ADD83R,0.0410X0.0005*%
%ADD84R,0.0120X0.0005*%
%ADD85R,0.0415X0.0005*%
%ADD86R,0.0030X0.0005*%
%ADD87R,0.0035X0.0005*%
%ADD88R,0.0420X0.0005*%
%ADD89R,0.0425X0.0005*%
%ADD90R,0.0005X0.0005*%
%ADD91R,0.0010X0.0005*%
%ADD92R,0.0190X0.0005*%
%ADD93R,0.0475X0.0005*%
%ADD94R,0.0460X0.0005*%
%ADD95R,0.0455X0.0005*%
%ADD96R,0.0040X0.0005*%
%ADD97R,0.0275X0.0005*%
%ADD98R,0.0695X0.0005*%
%ADD99R,0.0700X0.0005*%
%ADD100R,0.0465X0.0005*%
%ADD101R,0.0500X0.0005*%
%ADD102R,0.0545X0.0005*%
%ADD103R,0.0590X0.0005*%
%ADD104R,0.0630X0.0005*%
%ADD105R,0.0675X0.0005*%
%ADD106R,0.0710X0.0005*%
%ADD107R,0.0750X0.0005*%
%ADD108R,0.0795X0.0005*%
%ADD109R,0.0835X0.0005*%
%ADD110R,0.0875X0.0005*%
%ADD111R,0.0690X0.0005*%
%ADD112R,0.0910X0.0005*%
%ADD113R,0.0685X0.0005*%
%ADD114R,0.0950X0.0005*%
%ADD115R,0.0980X0.0005*%
%ADD116R,0.1020X0.0005*%
%ADD117R,0.0680X0.0005*%
%ADD118R,0.1055X0.0005*%
%ADD119R,0.1080X0.0005*%
%ADD120R,0.1115X0.0005*%
%ADD121R,0.1145X0.0005*%
%ADD122R,0.1180X0.0005*%
%ADD123R,0.1205X0.0005*%
%ADD124R,0.1230X0.0005*%
%ADD125R,0.0670X0.0005*%
%ADD126R,0.1265X0.0005*%
%ADD127R,0.1290X0.0005*%
%ADD128R,0.1315X0.0005*%
%ADD129R,0.1340X0.0005*%
%ADD130R,0.1360X0.0005*%
%ADD131R,0.1385X0.0005*%
%ADD132R,0.1405X0.0005*%
%ADD133R,0.0435X0.0005*%
%ADD134R,0.1430X0.0005*%
%ADD135R,0.0610X0.0005*%
%ADD136R,0.1450X0.0005*%
%ADD137R,0.1470X0.0005*%
%ADD138R,0.0615X0.0005*%
%ADD139R,0.1485X0.0005*%
%ADD140R,0.1510X0.0005*%
%ADD141R,0.0625X0.0005*%
%ADD142R,0.1530X0.0005*%
%ADD143R,0.0720X0.0005*%
%ADD144R,0.1545X0.0005*%
%ADD145R,0.0740X0.0005*%
%ADD146R,0.0635X0.0005*%
%ADD147R,0.1560X0.0005*%
%ADD148R,0.0765X0.0005*%
%ADD149R,0.1575X0.0005*%
%ADD150R,0.0790X0.0005*%
%ADD151R,0.0640X0.0005*%
%ADD152R,0.1590X0.0005*%
%ADD153R,0.0825X0.0005*%
%ADD154R,0.1605X0.0005*%
%ADD155R,0.0860X0.0005*%
%ADD156R,0.0650X0.0005*%
%ADD157R,0.1620X0.0005*%
%ADD158R,0.0895X0.0005*%
%ADD159R,0.0660X0.0005*%
%ADD160R,0.1635X0.0005*%
%ADD161R,0.0945X0.0005*%
%ADD162R,0.1645X0.0005*%
%ADD163R,0.1735X0.0005*%
%ADD164R,0.1660X0.0005*%
%ADD165R,0.1740X0.0005*%
%ADD166R,0.1670X0.0005*%
%ADD167R,0.1755X0.0005*%
%ADD168R,0.1680X0.0005*%
%ADD169R,0.1765X0.0005*%
%ADD170R,0.1690X0.0005*%
%ADD171R,0.1780X0.0005*%
%ADD172R,0.1700X0.0005*%
%ADD173R,0.1795X0.0005*%
%ADD174R,0.1710X0.0005*%
%ADD175R,0.1805X0.0005*%
%ADD176R,0.1720X0.0005*%
%ADD177R,0.1820X0.0005*%
%ADD178R,0.1725X0.0005*%
%ADD179R,0.1835X0.0005*%
%ADD180R,0.1850X0.0005*%
%ADD181R,0.1745X0.0005*%
%ADD182R,0.1860X0.0005*%
%ADD183R,0.1750X0.0005*%
%ADD184R,0.1875X0.0005*%
%ADD185R,0.1760X0.0005*%
%ADD186R,0.1890X0.0005*%
%ADD187R,0.1905X0.0005*%
%ADD188R,0.1775X0.0005*%
%ADD189R,0.1920X0.0005*%
%ADD190R,0.1935X0.0005*%
%ADD191R,0.1945X0.0005*%
%ADD192R,0.1790X0.0005*%
%ADD193R,0.1960X0.0005*%
%ADD194R,0.1970X0.0005*%
%ADD195R,0.1800X0.0005*%
%ADD196R,0.1980X0.0005*%
%ADD197R,0.1985X0.0005*%
%ADD198R,0.1810X0.0005*%
%ADD199R,0.1995X0.0005*%
%ADD200R,0.1815X0.0005*%
%ADD201R,0.2000X0.0005*%
%ADD202R,0.1825X0.0005*%
%ADD203R,0.1830X0.0005*%
%ADD204R,0.1990X0.0005*%
%ADD205R,0.1845X0.0005*%
%ADD206R,0.1855X0.0005*%
%ADD207R,0.0745X0.0005*%
%ADD208R,0.0705X0.0005*%
%ADD209R,0.0885X0.0005*%
%ADD210R,0.0620X0.0005*%
%ADD211R,0.0645X0.0005*%
%ADD212R,0.0865X0.0005*%
%ADD213R,0.2010X0.0005*%
%ADD214R,0.0845X0.0005*%
%ADD215R,0.2015X0.0005*%
%ADD216R,0.0600X0.0005*%
%ADD217R,0.0830X0.0005*%
%ADD218R,0.2025X0.0005*%
%ADD219R,0.0605X0.0005*%
%ADD220R,0.0580X0.0005*%
%ADD221R,0.0815X0.0005*%
%ADD222R,0.2030X0.0005*%
%ADD223R,0.0560X0.0005*%
%ADD224R,0.0805X0.0005*%
%ADD225R,0.2045X0.0005*%
%ADD226R,0.0530X0.0005*%
%ADD227R,0.2060X0.0005*%
%ADD228R,0.0480X0.0005*%
%ADD229R,0.0525X0.0005*%
%ADD230R,0.0780X0.0005*%
%ADD231R,0.2075X0.0005*%
%ADD232R,0.0510X0.0005*%
%ADD233R,0.0775X0.0005*%
%ADD234R,0.2085X0.0005*%
%ADD235R,0.0495X0.0005*%
%ADD236R,0.0770X0.0005*%
%ADD237R,0.1275X0.0005*%
%ADD238R,0.0440X0.0005*%
%ADD239R,0.0755X0.0005*%
%ADD240R,0.0430X0.0005*%
%ADD241R,0.1255X0.0005*%
%ADD242R,0.0735X0.0005*%
%ADD243R,0.0730X0.0005*%
%ADD244R,0.0725X0.0005*%
%ADD245R,0.1135X0.0005*%
%ADD246R,0.0715X0.0005*%
%ADD247R,0.1130X0.0005*%
%ADD248R,0.1260X0.0005*%
%ADD249R,0.1125X0.0005*%
%ADD250R,0.1120X0.0005*%
%ADD251R,0.1270X0.0005*%
%ADD252R,0.1110X0.0005*%
%ADD253R,0.1285X0.0005*%
%ADD254R,0.0555X0.0005*%
%ADD255R,0.1105X0.0005*%
%ADD256R,0.0585X0.0005*%
%ADD257R,0.1295X0.0005*%
%ADD258R,0.1100X0.0005*%
%ADD259R,0.1300X0.0005*%
%ADD260R,0.1305X0.0005*%
%ADD261R,0.0665X0.0005*%
%ADD262R,0.1095X0.0005*%
%ADD263R,0.1310X0.0005*%
%ADD264R,0.1090X0.0005*%
%ADD265R,0.1320X0.0005*%
%ADD266R,0.0655X0.0005*%
%ADD267R,0.1330X0.0005*%
%ADD268R,0.1335X0.0005*%
%ADD269R,0.1085X0.0005*%
%ADD270R,0.1350X0.0005*%
%ADD271R,0.1370X0.0005*%
%ADD272R,0.1375X0.0005*%
%ADD273R,0.0920X0.0005*%
%ADD274R,0.1075X0.0005*%
%ADD275R,0.0870X0.0005*%
%ADD276R,0.0855X0.0005*%
%ADD277R,0.0850X0.0005*%
%ADD278R,0.0840X0.0005*%
%ADD279R,0.0595X0.0005*%
%ADD280R,0.0445X0.0005*%
%ADD281R,0.0505X0.0005*%
%ADD282R,0.0515X0.0005*%
%ADD283R,0.0540X0.0005*%
%ADD284R,0.0575X0.0005*%
%ADD285R,0.0550X0.0005*%
%ADD286R,0.0880X0.0005*%
%ADD287R,0.0535X0.0005*%
%ADD288R,0.0570X0.0005*%
%ADD289R,0.0520X0.0005*%
%ADD290R,0.0565X0.0005*%
%ADD291R,0.0470X0.0005*%
%ADD292R,0.0490X0.0005*%
%ADD293R,0.1280X0.0005*%
%ADD294R,0.0485X0.0005*%
%ADD295R,0.1070X0.0005*%
%ADD296R,0.1045X0.0005*%
%ADD297R,0.1040X0.0005*%
%ADD298R,0.1035X0.0005*%
%ADD299R,0.1030X0.0005*%
%ADD300R,0.1025X0.0005*%
%ADD301R,0.1015X0.0005*%
%ADD302R,0.1010X0.0005*%
%ADD303R,0.1005X0.0005*%
%ADD304R,0.1000X0.0005*%
%ADD305R,0.0450X0.0005*%
%ADD306R,0.0995X0.0005*%
%ADD307R,0.0990X0.0005*%
%ADD308R,0.0760X0.0005*%
%ADD309R,0.0800X0.0005*%
%ADD310R,0.0810X0.0005*%
%ADD311R,0.0820X0.0005*%
%ADD312R,0.0975X0.0005*%
%ADD313R,0.0960X0.0005*%
%ADD314R,0.0930X0.0005*%
%ADD315R,0.0905X0.0005*%
%ADD316R,0.0890X0.0005*%
%ADD317R,0.0970X0.0005*%
%ADD318R,0.0925X0.0005*%
%ADD319R,0.1190X0.0005*%
%ADD320R,0.1160X0.0005*%
%ADD321R,0.1050X0.0005*%
%ADD322R,0.0785X0.0005*%
%ADD323R,0.1475X0.0005*%
%ADD324R,0.1455X0.0005*%
%ADD325R,0.1355X0.0005*%
%ADD326R,0.1225X0.0005*%
%ADD327R,0.1195X0.0005*%
%ADD328R,0.1165X0.0005*%
%ADD329C,0.0050*%
%ADD330C,0.0080*%
D10*
X003595Y012920D03*
X003465Y013780D03*
X002345Y013605D03*
X002330Y013180D03*
X001915Y013180D03*
X005135Y015820D03*
X007430Y013890D03*
X008545Y013205D03*
X011330Y013180D03*
X010955Y015525D03*
X010130Y015680D03*
D11*
X010833Y015850D03*
X010833Y015855D03*
X010838Y015885D03*
X010838Y015890D03*
X010838Y015895D03*
X010838Y015900D03*
X010838Y015905D03*
X010838Y015910D03*
X010838Y015915D03*
X010838Y015920D03*
X010838Y015925D03*
X010838Y015930D03*
X010838Y015935D03*
X010838Y015940D03*
X010838Y015945D03*
X010838Y015950D03*
X010838Y015955D03*
X010838Y015960D03*
X010838Y015965D03*
X010838Y015970D03*
X010838Y015975D03*
X010838Y015980D03*
X010838Y015985D03*
X010838Y015990D03*
X010838Y015995D03*
X010838Y016000D03*
X010838Y016005D03*
X010838Y016010D03*
X010833Y016035D03*
X010833Y016040D03*
X010833Y016045D03*
X010913Y015460D03*
X010908Y015455D03*
X009413Y015760D03*
X009408Y015775D03*
X009408Y015780D03*
X009403Y015795D03*
X009403Y015800D03*
X009398Y015815D03*
X009398Y015820D03*
X009398Y015825D03*
X009393Y015840D03*
X009393Y015845D03*
X009393Y015850D03*
X009393Y015855D03*
X009388Y015865D03*
X009388Y015870D03*
X009388Y015875D03*
X009388Y015880D03*
X009388Y015885D03*
X009388Y015890D03*
X009388Y015895D03*
X009388Y015900D03*
X009388Y015905D03*
X009383Y015915D03*
X009383Y015920D03*
X009383Y015925D03*
X009383Y015930D03*
X009383Y015935D03*
X009383Y015940D03*
X009383Y015945D03*
X009383Y015950D03*
X009383Y015955D03*
X009383Y015960D03*
X009383Y015965D03*
X009383Y015970D03*
X009383Y015975D03*
X009383Y015980D03*
X009383Y015985D03*
X009383Y015990D03*
X009383Y015995D03*
X009383Y016000D03*
X009383Y016005D03*
X009383Y016010D03*
X009388Y016030D03*
X009388Y016035D03*
X009388Y016040D03*
X009388Y016045D03*
X009388Y016050D03*
X009388Y016055D03*
X009393Y016080D03*
X009503Y016535D03*
X008503Y015095D03*
X008518Y013560D03*
X008518Y013555D03*
X008523Y013550D03*
X008523Y013545D03*
X008523Y013540D03*
X008523Y013535D03*
X008523Y013530D03*
X008523Y013525D03*
X008523Y013520D03*
X008523Y013515D03*
X008523Y013510D03*
X008733Y013455D03*
X008733Y013450D03*
X008733Y013445D03*
X008738Y013475D03*
X008728Y013415D03*
X008728Y013410D03*
X008728Y013405D03*
X008728Y013400D03*
X008728Y013395D03*
X008728Y013390D03*
X008728Y013385D03*
X008728Y013380D03*
X008728Y013375D03*
X008728Y013370D03*
X008733Y013335D03*
X008733Y013330D03*
X008738Y013310D03*
X009133Y013315D03*
X009133Y013320D03*
X009138Y013340D03*
X009138Y013345D03*
X009138Y013350D03*
X009138Y013355D03*
X009138Y013360D03*
X009138Y013425D03*
X009138Y013430D03*
X009138Y013435D03*
X009138Y013440D03*
X009133Y013465D03*
X009353Y013440D03*
X009353Y013435D03*
X009353Y013430D03*
X009353Y013425D03*
X009358Y013465D03*
X009353Y013355D03*
X009353Y013350D03*
X009353Y013345D03*
X009353Y013340D03*
X009358Y013315D03*
X009358Y013310D03*
X009733Y013310D03*
X009733Y013315D03*
X009733Y013320D03*
X009733Y013325D03*
X009733Y013330D03*
X009733Y013335D03*
X009733Y013340D03*
X009733Y013345D03*
X009733Y013350D03*
X009733Y013355D03*
X009733Y013360D03*
X009733Y013365D03*
X009733Y013370D03*
X009733Y013375D03*
X009733Y013380D03*
X009733Y013385D03*
X009733Y013390D03*
X009733Y013395D03*
X009733Y013400D03*
X009733Y013405D03*
X009733Y013410D03*
X009733Y013415D03*
X009733Y013420D03*
X009733Y013425D03*
X009733Y013430D03*
X009733Y013435D03*
X009733Y013440D03*
X009733Y013445D03*
X009733Y013450D03*
X009733Y013455D03*
X009733Y013460D03*
X009733Y013465D03*
X009733Y013470D03*
X009733Y013475D03*
X009733Y013480D03*
X009733Y013485D03*
X009733Y013490D03*
X009733Y013495D03*
X009733Y013500D03*
X009733Y013505D03*
X009733Y013510D03*
X009733Y013515D03*
X009733Y013520D03*
X009733Y013525D03*
X009733Y013530D03*
X009733Y013535D03*
X009733Y013540D03*
X009733Y013545D03*
X009733Y013550D03*
X009733Y013555D03*
X009733Y013560D03*
X009733Y013565D03*
X009733Y013570D03*
X009733Y013575D03*
X009733Y013580D03*
X009733Y013305D03*
X009733Y013300D03*
X009733Y013295D03*
X009733Y013290D03*
X009733Y013285D03*
X009733Y013280D03*
X009733Y013275D03*
X009733Y013270D03*
X009733Y013265D03*
X009733Y013260D03*
X009733Y013255D03*
X009733Y013250D03*
X009733Y013245D03*
X009733Y013240D03*
X009733Y013235D03*
X009733Y013140D03*
X009733Y013135D03*
X009733Y013130D03*
X009733Y013125D03*
X009733Y013120D03*
X009733Y013115D03*
X009733Y013110D03*
X009733Y013105D03*
X009733Y013100D03*
X009733Y013095D03*
X009733Y013090D03*
X009733Y013085D03*
X009733Y013080D03*
X009733Y013075D03*
X009733Y013070D03*
X009733Y013065D03*
X009733Y013060D03*
X009733Y013055D03*
X009733Y013050D03*
X009733Y013045D03*
X009733Y013040D03*
X009733Y013035D03*
X009733Y013030D03*
X009733Y013025D03*
X009733Y013020D03*
X009733Y013015D03*
X009733Y013010D03*
X009733Y013005D03*
X009733Y013000D03*
X009733Y012995D03*
X009733Y012990D03*
X009733Y012985D03*
X009733Y012980D03*
X009733Y012975D03*
X009733Y012970D03*
X009733Y012965D03*
X009733Y012960D03*
X009733Y012955D03*
X009733Y012950D03*
X009733Y012945D03*
X009733Y012940D03*
X009733Y012935D03*
X009733Y012930D03*
X009733Y012925D03*
X010358Y013110D03*
X010508Y013595D03*
X010853Y013590D03*
X010858Y013595D03*
X010988Y013670D03*
X011353Y013170D03*
X008248Y013230D03*
X008248Y013235D03*
X008243Y013240D03*
X008243Y013245D03*
X008243Y013250D03*
X008243Y013255D03*
X008243Y013260D03*
X008243Y013265D03*
X008243Y013270D03*
X008248Y013285D03*
X008043Y013320D03*
X008043Y013325D03*
X008048Y013345D03*
X008048Y013350D03*
X008048Y013355D03*
X008048Y013360D03*
X008048Y013365D03*
X008043Y013460D03*
X008043Y013465D03*
X008043Y013470D03*
X008038Y013485D03*
X008038Y013490D03*
X008028Y013515D03*
X007688Y013525D03*
X007683Y013515D03*
X007683Y013510D03*
X007683Y013505D03*
X007678Y013500D03*
X007678Y013495D03*
X007678Y013490D03*
X007678Y013485D03*
X007678Y013480D03*
X007673Y013470D03*
X007673Y013465D03*
X007673Y013460D03*
X007673Y013455D03*
X007673Y013450D03*
X007673Y013445D03*
X007193Y013410D03*
X007193Y013405D03*
X007193Y013400D03*
X007193Y013395D03*
X007193Y013390D03*
X007193Y013385D03*
X007193Y013380D03*
X007193Y013375D03*
X007188Y013340D03*
X007188Y013335D03*
X007188Y013445D03*
X007188Y013450D03*
X007188Y013455D03*
X007183Y013480D03*
X006998Y013675D03*
X006813Y013555D03*
X006563Y013470D03*
X006568Y013450D03*
X006568Y013445D03*
X006568Y013440D03*
X006568Y013435D03*
X006568Y013345D03*
X006568Y013340D03*
X006568Y013335D03*
X006563Y013310D03*
X006168Y013315D03*
X006163Y013340D03*
X006163Y013345D03*
X006163Y013350D03*
X006163Y013435D03*
X006163Y013440D03*
X006163Y013445D03*
X006168Y013470D03*
X005923Y013470D03*
X005923Y013475D03*
X005923Y013480D03*
X005923Y013485D03*
X005923Y013490D03*
X005923Y013495D03*
X005923Y013500D03*
X005923Y013505D03*
X005923Y013510D03*
X005923Y013515D03*
X005923Y013520D03*
X005923Y013525D03*
X005923Y013530D03*
X005923Y013535D03*
X005923Y013540D03*
X005923Y013545D03*
X005923Y013550D03*
X005923Y013555D03*
X005923Y013560D03*
X005923Y013565D03*
X005923Y013570D03*
X005923Y013575D03*
X005923Y013580D03*
X005923Y013465D03*
X005923Y013460D03*
X005923Y013455D03*
X005923Y013450D03*
X005923Y013445D03*
X005923Y013440D03*
X005923Y013435D03*
X005923Y013430D03*
X005923Y013425D03*
X005923Y013420D03*
X005923Y013415D03*
X005923Y013410D03*
X005923Y013405D03*
X005923Y013400D03*
X005923Y013395D03*
X005923Y013390D03*
X005923Y013385D03*
X005923Y013380D03*
X005923Y013375D03*
X005923Y013370D03*
X005923Y013365D03*
X005923Y013360D03*
X005923Y013355D03*
X005923Y013350D03*
X005923Y013345D03*
X005923Y013340D03*
X005923Y013335D03*
X005923Y013330D03*
X005923Y013325D03*
X005923Y013320D03*
X005923Y013315D03*
X005923Y013310D03*
X005923Y013305D03*
X005923Y013300D03*
X005923Y013295D03*
X005923Y013290D03*
X005923Y013285D03*
X005923Y013280D03*
X005923Y013275D03*
X005923Y013270D03*
X005923Y013265D03*
X005923Y013260D03*
X005923Y013255D03*
X005923Y013250D03*
X005923Y013245D03*
X005923Y013240D03*
X005923Y013235D03*
X005923Y013230D03*
X005923Y013225D03*
X005923Y013220D03*
X005923Y013215D03*
X005923Y013210D03*
X005923Y013205D03*
X005923Y013200D03*
X005923Y013195D03*
X005923Y013190D03*
X005923Y013185D03*
X005923Y013180D03*
X005923Y013175D03*
X005923Y013170D03*
X005923Y013165D03*
X005923Y013160D03*
X005923Y013155D03*
X005923Y013150D03*
X005923Y013145D03*
X005923Y013140D03*
X005923Y013135D03*
X005923Y013130D03*
X005923Y013125D03*
X005578Y013125D03*
X005578Y013130D03*
X005578Y013135D03*
X005578Y013140D03*
X005578Y013145D03*
X005578Y013150D03*
X005578Y013155D03*
X005578Y013160D03*
X005578Y013165D03*
X005578Y013170D03*
X005578Y013175D03*
X005578Y013180D03*
X005578Y013185D03*
X005578Y013190D03*
X005578Y013195D03*
X005578Y013200D03*
X005578Y013205D03*
X005578Y013210D03*
X005578Y013215D03*
X005578Y013220D03*
X005578Y013225D03*
X005578Y013230D03*
X005578Y013235D03*
X005578Y013240D03*
X005578Y013245D03*
X005578Y013250D03*
X005578Y013255D03*
X005578Y013260D03*
X005578Y013265D03*
X005578Y013270D03*
X005578Y013275D03*
X005578Y013280D03*
X005578Y013285D03*
X005578Y013290D03*
X005578Y013295D03*
X005578Y013300D03*
X005578Y013305D03*
X005578Y013310D03*
X005578Y013315D03*
X005578Y013320D03*
X005578Y013325D03*
X005578Y013330D03*
X005578Y013335D03*
X005578Y013340D03*
X005578Y013345D03*
X005578Y013350D03*
X005578Y013355D03*
X005578Y013360D03*
X005578Y013365D03*
X005578Y013370D03*
X005578Y013375D03*
X005578Y013380D03*
X005578Y013385D03*
X005578Y013390D03*
X005578Y013395D03*
X005578Y013400D03*
X005578Y013405D03*
X005578Y013410D03*
X005578Y013415D03*
X005578Y013420D03*
X005578Y013425D03*
X005578Y013430D03*
X005578Y013435D03*
X005578Y013440D03*
X005578Y013445D03*
X005578Y013450D03*
X005578Y013455D03*
X005578Y013460D03*
X005578Y013465D03*
X005578Y013470D03*
X005578Y013475D03*
X005583Y013485D03*
X005583Y013490D03*
X005583Y013495D03*
X005583Y013500D03*
X005578Y013120D03*
X005068Y013195D03*
X004903Y013110D03*
X004763Y013190D03*
X004763Y013580D03*
X004768Y013585D03*
X004453Y013605D03*
X004028Y013590D03*
X004023Y013595D03*
X003758Y013590D03*
X003463Y013815D03*
X003463Y013820D03*
X003463Y013825D03*
X003463Y013830D03*
X003463Y013835D03*
X003463Y013840D03*
X003463Y013845D03*
X003163Y013595D03*
X002923Y013600D03*
X002918Y013595D03*
X002588Y013590D03*
X002598Y013200D03*
X002593Y013195D03*
X002358Y013170D03*
X001938Y013170D03*
X003173Y013195D03*
X003503Y012990D03*
X003758Y013190D03*
X004028Y013190D03*
X006183Y014845D03*
X006188Y014840D03*
X006193Y014835D03*
X006198Y014830D03*
X006203Y014825D03*
X006208Y014820D03*
X006213Y014815D03*
X006218Y014810D03*
X006238Y014795D03*
X006243Y014790D03*
X006258Y014780D03*
X006263Y014775D03*
X006278Y014765D03*
X006178Y014855D03*
X006173Y014860D03*
X006168Y014865D03*
X006163Y014875D03*
X005728Y015250D03*
X005543Y015335D03*
X005488Y015380D03*
X004228Y016175D03*
X004223Y016180D03*
X004218Y016190D03*
X004218Y016195D03*
D12*
X005135Y015825D03*
X006795Y013925D03*
X007430Y013885D03*
X008500Y015085D03*
X010935Y014895D03*
X010940Y015500D03*
X011570Y013820D03*
X011570Y013815D03*
X011570Y013810D03*
X011570Y013805D03*
X011570Y013800D03*
X011570Y013795D03*
X011570Y013790D03*
X011570Y013785D03*
X011570Y013780D03*
X011570Y013775D03*
X011570Y013770D03*
X011570Y013765D03*
X011570Y013760D03*
X011570Y013755D03*
X011570Y013750D03*
X011570Y013745D03*
X011570Y013740D03*
X011570Y013735D03*
X011570Y013730D03*
X011570Y013725D03*
X011570Y013720D03*
X011570Y013715D03*
X011570Y013710D03*
X011570Y013705D03*
X011570Y013700D03*
X011570Y013695D03*
X011570Y013690D03*
X011570Y013685D03*
X011570Y013680D03*
X011570Y013675D03*
X011570Y013670D03*
X011570Y013665D03*
X011570Y013600D03*
X011570Y013595D03*
X011570Y013590D03*
X011570Y013585D03*
X011570Y013580D03*
X011570Y013575D03*
X011570Y013570D03*
X011570Y013565D03*
X011570Y013560D03*
X011570Y013555D03*
X011570Y013550D03*
X011570Y013545D03*
X011570Y013540D03*
X011570Y013535D03*
X011570Y013530D03*
X011570Y013525D03*
X011570Y013520D03*
X011570Y013515D03*
X011570Y013510D03*
X011570Y013505D03*
X011570Y013500D03*
X011570Y013495D03*
X011570Y013490D03*
X011570Y013485D03*
X011570Y013480D03*
X011570Y013475D03*
X011570Y013470D03*
X011570Y013465D03*
X011570Y013460D03*
X011570Y013455D03*
X011570Y013450D03*
X011570Y013445D03*
X011570Y013440D03*
X011570Y013435D03*
X011570Y013430D03*
X011570Y013425D03*
X011570Y013420D03*
X011570Y013415D03*
X011570Y013410D03*
X011570Y013405D03*
X011570Y013400D03*
X011570Y013395D03*
X011570Y013390D03*
X011570Y013385D03*
X011570Y013380D03*
X011570Y013375D03*
X011570Y013370D03*
X011570Y013365D03*
X011570Y013360D03*
X011570Y013355D03*
X011570Y013350D03*
X011570Y013345D03*
X011570Y013340D03*
X011570Y013335D03*
X011570Y013330D03*
X011570Y013325D03*
X011570Y013320D03*
X011570Y013315D03*
X011570Y013310D03*
X011570Y013305D03*
X011570Y013300D03*
X011570Y013295D03*
X005085Y013295D03*
X005085Y013300D03*
X005085Y013305D03*
X005085Y013310D03*
X005085Y013315D03*
X005085Y013320D03*
X005085Y013325D03*
X005085Y013330D03*
X005085Y013335D03*
X005085Y013340D03*
X005085Y013345D03*
X005085Y013350D03*
X005085Y013355D03*
X005085Y013360D03*
X005085Y013365D03*
X005085Y013370D03*
X005085Y013375D03*
X005085Y013380D03*
X005085Y013385D03*
X005085Y013390D03*
X005085Y013395D03*
X005085Y013400D03*
X005085Y013405D03*
X005085Y013410D03*
X005085Y013415D03*
X005085Y013420D03*
X005085Y013425D03*
X005085Y013430D03*
X005085Y013435D03*
X005085Y013440D03*
X005085Y013445D03*
X005085Y013450D03*
X005085Y013455D03*
X005085Y013460D03*
X005085Y013465D03*
X005085Y013470D03*
X005085Y013475D03*
X005085Y013480D03*
X005085Y013485D03*
X005085Y013490D03*
X005085Y013495D03*
X005085Y013500D03*
X005085Y013505D03*
X005085Y013510D03*
X005085Y013515D03*
X005085Y013520D03*
X005085Y013525D03*
X005085Y013530D03*
X005085Y013535D03*
X005085Y013540D03*
X005085Y013545D03*
X005085Y013550D03*
X005085Y013555D03*
X005085Y013560D03*
X005085Y013565D03*
X005085Y013570D03*
X005085Y013575D03*
X005085Y013580D03*
X005085Y013585D03*
X005085Y013590D03*
X005085Y013290D03*
X005085Y013285D03*
X005085Y013280D03*
X005085Y013275D03*
X005085Y013270D03*
X005085Y013265D03*
X005085Y013260D03*
X005085Y013255D03*
X005085Y013250D03*
X005085Y013245D03*
X005085Y013240D03*
X005085Y013235D03*
X005085Y013230D03*
X005085Y013225D03*
X005085Y013220D03*
X005085Y013145D03*
X005085Y013140D03*
X005085Y013135D03*
X005085Y013130D03*
X005085Y013125D03*
X005085Y013120D03*
X005085Y013115D03*
X005085Y013110D03*
X005085Y013105D03*
X005085Y013100D03*
X005085Y013095D03*
X005085Y013090D03*
X005085Y013085D03*
X005085Y013080D03*
X005085Y013075D03*
X005085Y013070D03*
X005085Y013065D03*
X005085Y013060D03*
X005085Y013055D03*
X005085Y013050D03*
X005085Y013045D03*
X005085Y013040D03*
X005085Y013035D03*
X005085Y013030D03*
X005085Y013025D03*
X005085Y013020D03*
X005085Y013015D03*
X005085Y013010D03*
X005085Y013005D03*
X005085Y013000D03*
X005085Y012995D03*
X005085Y012990D03*
X005085Y012985D03*
X005085Y012980D03*
X005085Y012975D03*
X005085Y012970D03*
X005085Y012965D03*
X005085Y012960D03*
X005085Y012955D03*
X005085Y012950D03*
X005085Y012945D03*
X005085Y012940D03*
X005085Y012935D03*
X005085Y012930D03*
X005085Y012925D03*
X004470Y013120D03*
X004470Y013125D03*
X004470Y013130D03*
X004470Y013135D03*
X004470Y013140D03*
X004470Y013145D03*
X004470Y013150D03*
X004470Y013155D03*
X004470Y013160D03*
X004470Y013165D03*
X004470Y013170D03*
X004470Y013175D03*
X004470Y013180D03*
X004470Y013185D03*
X004470Y013190D03*
X004470Y013195D03*
X004470Y013200D03*
X004470Y013205D03*
X004470Y013210D03*
X004470Y013215D03*
X004470Y013220D03*
X004470Y013225D03*
X004470Y013230D03*
X004470Y013235D03*
X004470Y013240D03*
X004470Y013245D03*
X004470Y013250D03*
X004470Y013255D03*
X004470Y013260D03*
X004470Y013265D03*
X004470Y013270D03*
X004470Y013275D03*
X004470Y013280D03*
X004470Y013285D03*
X004470Y013290D03*
X004470Y013295D03*
X004470Y013300D03*
X004470Y013305D03*
X004470Y013310D03*
X004470Y013315D03*
X004470Y013320D03*
X004470Y013325D03*
X004470Y013330D03*
X004470Y013335D03*
X004470Y013340D03*
X004470Y013345D03*
X004470Y013350D03*
X004470Y013355D03*
X004470Y013360D03*
X004470Y013365D03*
X004470Y013370D03*
X004470Y013375D03*
X004470Y013380D03*
X004470Y013385D03*
X004470Y013390D03*
X004470Y013395D03*
X004470Y013400D03*
X004470Y013405D03*
X004470Y013410D03*
X004470Y013415D03*
X004470Y013420D03*
X004470Y013425D03*
X004470Y013430D03*
X004470Y013435D03*
X004470Y013440D03*
X004470Y013445D03*
X004470Y013450D03*
X004470Y013455D03*
X004470Y013460D03*
X004470Y013465D03*
X004470Y013470D03*
X004470Y013475D03*
X004470Y013480D03*
X004470Y013485D03*
X004470Y013490D03*
X004470Y013495D03*
X004470Y013500D03*
X004470Y013505D03*
X004470Y013510D03*
X004470Y013515D03*
X004470Y013520D03*
X004470Y013525D03*
X004470Y013530D03*
X004470Y013535D03*
X004470Y013540D03*
X004470Y013545D03*
X004470Y013550D03*
X004470Y013555D03*
X004470Y013560D03*
X004470Y013565D03*
X004470Y013570D03*
X004470Y013575D03*
X004470Y013580D03*
X004470Y013585D03*
X004470Y013590D03*
X004255Y013610D03*
X003465Y013870D03*
X002860Y013465D03*
X002340Y013175D03*
X001920Y013175D03*
X003465Y013080D03*
X003465Y013075D03*
D13*
X003488Y013005D03*
X003593Y012925D03*
X003723Y013230D03*
X003718Y013235D03*
X003718Y013240D03*
X003713Y013245D03*
X003708Y013255D03*
X004058Y013220D03*
X004068Y013235D03*
X004073Y013240D03*
X004073Y013245D03*
X004078Y013255D03*
X004083Y013265D03*
X004083Y013515D03*
X004078Y013525D03*
X004073Y013535D03*
X004073Y013540D03*
X004068Y013545D03*
X004063Y013550D03*
X004058Y013560D03*
X003723Y013550D03*
X003718Y013545D03*
X003718Y013540D03*
X003713Y013535D03*
X003708Y013525D03*
X003463Y013795D03*
X003463Y013860D03*
X003198Y013560D03*
X003203Y013555D03*
X003203Y013550D03*
X003208Y013545D03*
X003213Y013535D03*
X003228Y013280D03*
X003223Y013265D03*
X003218Y013255D03*
X003218Y013250D03*
X003213Y013245D03*
X003213Y013240D03*
X003208Y013235D03*
X002883Y013550D03*
X002888Y013560D03*
X002893Y013565D03*
X002638Y013530D03*
X002633Y013535D03*
X002633Y013540D03*
X002628Y013545D03*
X002623Y013555D03*
X002358Y013610D03*
X002648Y013275D03*
X002643Y013260D03*
X002638Y013250D03*
X002633Y013245D03*
X002633Y013240D03*
X002628Y013235D03*
X002138Y013210D03*
X002133Y013200D03*
X004463Y013600D03*
X004713Y013515D03*
X004718Y013520D03*
X004718Y013525D03*
X004723Y013530D03*
X004723Y013535D03*
X004728Y013540D03*
X004708Y013500D03*
X004713Y013260D03*
X004718Y013250D03*
X004723Y013240D03*
X004723Y013235D03*
X004728Y013230D03*
X004168Y015435D03*
X005133Y015830D03*
X007433Y013880D03*
X010233Y013560D03*
X010233Y013555D03*
X010238Y013565D03*
X010543Y013560D03*
X010548Y013555D03*
X010553Y013545D03*
X010823Y013545D03*
X010828Y013555D03*
X010828Y013560D03*
X010833Y013565D03*
X011153Y013590D03*
X011548Y013200D03*
X010573Y013275D03*
X010568Y013265D03*
X010568Y013260D03*
X010563Y013255D03*
X010563Y013250D03*
X010558Y013245D03*
X010558Y013240D03*
X010283Y016785D03*
D14*
X010720Y016325D03*
X010730Y016310D03*
X010735Y016305D03*
X010735Y016300D03*
X010740Y016295D03*
X010750Y016280D03*
X010755Y016270D03*
X010780Y015675D03*
X010775Y015665D03*
X010770Y015660D03*
X010770Y015655D03*
X010765Y015645D03*
X010975Y014920D03*
X011560Y015765D03*
X011555Y015775D03*
X011540Y015835D03*
X011605Y016115D03*
X011605Y016120D03*
X011605Y016125D03*
X011605Y016130D03*
X011600Y016140D03*
X011600Y016145D03*
X011600Y016150D03*
X011530Y016435D03*
X011525Y016450D03*
X011525Y016455D03*
X011520Y016465D03*
X011520Y016470D03*
X011520Y016475D03*
X011515Y016480D03*
X011515Y016485D03*
X011510Y016495D03*
X011510Y016500D03*
X011505Y016515D03*
X010045Y016110D03*
X009495Y016320D03*
X009490Y016315D03*
X009485Y016305D03*
X009480Y016300D03*
X009475Y016290D03*
X009125Y016140D03*
X009160Y015985D03*
X009165Y015975D03*
X009165Y015970D03*
X009170Y015955D03*
X009175Y015935D03*
X009205Y015820D03*
X009215Y015785D03*
X009215Y015780D03*
X009220Y015770D03*
X009220Y015765D03*
X009220Y015760D03*
X009220Y015755D03*
X009225Y015750D03*
X009225Y015745D03*
X009225Y015740D03*
X009230Y015725D03*
X008970Y015995D03*
X008655Y015905D03*
X008635Y015820D03*
X008630Y015810D03*
X009550Y015510D03*
X009555Y015505D03*
X009560Y015500D03*
X009565Y015495D03*
X009570Y015490D03*
X007430Y013845D03*
X007430Y013840D03*
X007430Y013835D03*
X007430Y013830D03*
X007430Y013825D03*
X007430Y013820D03*
X007430Y013815D03*
X007145Y013560D03*
X007140Y013565D03*
X007145Y013235D03*
X007140Y013230D03*
X006515Y013220D03*
X006510Y013215D03*
X006220Y013215D03*
X006215Y013220D03*
X006210Y013225D03*
X006210Y013560D03*
X006215Y013565D03*
X006220Y013570D03*
X006510Y013570D03*
X006515Y013565D03*
X006520Y013560D03*
X005910Y013585D03*
X005615Y013570D03*
X005055Y013185D03*
X004790Y013600D03*
X004935Y013670D03*
X003590Y012930D03*
X003150Y013180D03*
X003140Y013610D03*
X002565Y013605D03*
X002570Y013180D03*
X003185Y015115D03*
X004175Y015765D03*
X004180Y015770D03*
X004185Y015775D03*
X004190Y015780D03*
X004195Y015785D03*
X004040Y015940D03*
X004225Y016260D03*
X004230Y016265D03*
X004230Y016270D03*
X004390Y016505D03*
X004740Y016235D03*
X005495Y016100D03*
X005380Y015755D03*
X005390Y015740D03*
X005400Y015725D03*
X005405Y015720D03*
X006600Y014745D03*
X007985Y013575D03*
X008265Y013315D03*
X008505Y013190D03*
X008785Y013220D03*
X009080Y013215D03*
X009085Y013220D03*
X009085Y013565D03*
X008785Y013565D03*
X008780Y013560D03*
X008500Y013585D03*
X008370Y013675D03*
X007820Y013110D03*
X009400Y013550D03*
X009720Y013585D03*
X010290Y013610D03*
X010485Y013610D03*
X010875Y013605D03*
X004950Y017255D03*
X003505Y016140D03*
X003500Y016135D03*
X003495Y016130D03*
X003485Y016115D03*
X003480Y016110D03*
X003475Y016105D03*
X003470Y016100D03*
X003465Y016095D03*
X003460Y016085D03*
X003455Y016080D03*
X003450Y016075D03*
X003445Y016070D03*
X003295Y015900D03*
X003275Y015875D03*
X003270Y015870D03*
X003265Y015865D03*
X003260Y015860D03*
X003255Y015855D03*
D15*
X003540Y016185D03*
X003545Y016190D03*
X003560Y016210D03*
X003565Y016215D03*
X003570Y016220D03*
X003570Y016225D03*
X003575Y016230D03*
X003580Y016235D03*
X003585Y016240D03*
X003585Y016245D03*
X003590Y016250D03*
X003595Y016255D03*
X003600Y016260D03*
X003605Y016270D03*
X003610Y016275D03*
X003615Y016280D03*
X003620Y016290D03*
X003625Y016295D03*
X003630Y016305D03*
X003635Y016310D03*
X003645Y016325D03*
X003655Y016340D03*
X003665Y016355D03*
X003675Y016370D03*
X003680Y016380D03*
X003685Y016385D03*
X003690Y016395D03*
X003695Y016400D03*
X003700Y016410D03*
X003705Y016415D03*
X003705Y016420D03*
X003710Y016425D03*
X003715Y016435D03*
X003720Y016440D03*
X003720Y016445D03*
X003725Y016450D03*
X003730Y016455D03*
X003730Y016460D03*
X003735Y016465D03*
X003735Y016470D03*
X003740Y016475D03*
X003745Y016480D03*
X003745Y016485D03*
X003750Y016490D03*
X003755Y016500D03*
X003760Y016505D03*
X003760Y016510D03*
X003765Y016515D03*
X003770Y016520D03*
X003770Y016525D03*
X003775Y016530D03*
X003775Y016535D03*
X003780Y016540D03*
X003785Y016545D03*
X003785Y016550D03*
X003790Y016555D03*
X003795Y016560D03*
X003795Y016565D03*
X003800Y016570D03*
X003800Y016575D03*
X003805Y016580D03*
X003810Y016585D03*
X003810Y016590D03*
X003815Y016595D03*
X003820Y016605D03*
X003825Y016610D03*
X003825Y016615D03*
X003830Y016620D03*
X003835Y016625D03*
X003835Y016630D03*
X003840Y016635D03*
X003845Y016645D03*
X003850Y016650D03*
X003855Y016660D03*
X003860Y016665D03*
X003865Y016675D03*
X003870Y016680D03*
X003875Y016690D03*
X003880Y016695D03*
X003890Y016710D03*
X003900Y016725D03*
X004395Y016500D03*
X004240Y016285D03*
X004165Y015760D03*
X005135Y015845D03*
X005360Y015785D03*
X005365Y015780D03*
X005370Y015770D03*
X005420Y015700D03*
X005425Y015695D03*
X005430Y015690D03*
X006155Y014910D03*
X006600Y014755D03*
X007190Y014675D03*
X007730Y013585D03*
X007975Y013585D03*
X008275Y013325D03*
X007985Y013215D03*
X008490Y013590D03*
X008795Y013575D03*
X008795Y013210D03*
X008800Y013205D03*
X010485Y013175D03*
X011430Y013115D03*
X010990Y014930D03*
X011000Y014935D03*
X011175Y015080D03*
X011180Y015085D03*
X010875Y015415D03*
X010735Y015595D03*
X010740Y015605D03*
X010745Y015610D03*
X010750Y015620D03*
X011515Y015510D03*
X011520Y015515D03*
X011525Y015520D03*
X011530Y015525D03*
X011530Y015530D03*
X011535Y015535D03*
X011540Y015540D03*
X011545Y015550D03*
X011550Y015560D03*
X011560Y015580D03*
X011575Y015635D03*
X011575Y015695D03*
X011575Y015700D03*
X011575Y015705D03*
X011575Y015710D03*
X011575Y015715D03*
X011575Y015720D03*
X011570Y015735D03*
X011570Y015740D03*
X011570Y015745D03*
X011565Y015750D03*
X011565Y015755D03*
X011545Y015845D03*
X011610Y016065D03*
X011610Y016070D03*
X011610Y016075D03*
X011610Y016080D03*
X011610Y016085D03*
X011495Y016545D03*
X011490Y016560D03*
X011485Y016570D03*
X011485Y016575D03*
X011480Y016585D03*
X011480Y016590D03*
X011475Y016600D03*
X011475Y016605D03*
X011470Y016615D03*
X010705Y016345D03*
X010700Y016350D03*
X010695Y016355D03*
X010045Y016105D03*
X009530Y016365D03*
X009525Y016360D03*
X009520Y016355D03*
X009510Y016340D03*
X009120Y016135D03*
X009150Y016005D03*
X009155Y016000D03*
X008960Y015980D03*
X008960Y015975D03*
X008955Y015970D03*
X008650Y015920D03*
X008620Y015795D03*
X009235Y015710D03*
X009235Y015705D03*
X009240Y015695D03*
X009240Y015690D03*
X009240Y015685D03*
X009245Y015675D03*
X009245Y015670D03*
X009610Y015450D03*
X009615Y015445D03*
X009620Y015440D03*
X009625Y015435D03*
X008505Y015105D03*
X006505Y013575D03*
X006225Y013575D03*
X006225Y013210D03*
X006230Y013205D03*
X006500Y013205D03*
X006505Y013210D03*
X007125Y013215D03*
X005625Y013580D03*
X004800Y013605D03*
X004435Y013610D03*
X003990Y013170D03*
X003585Y012935D03*
X003140Y013175D03*
X002560Y013175D03*
X003795Y013610D03*
D16*
X003895Y013665D03*
X003580Y012940D03*
X004805Y013170D03*
X004900Y013115D03*
X006240Y013200D03*
X006490Y013200D03*
X006835Y013195D03*
X007120Y013210D03*
X007120Y013580D03*
X006995Y013670D03*
X006490Y013585D03*
X006365Y013670D03*
X006240Y013585D03*
X007170Y014695D03*
X007510Y015825D03*
X008335Y016245D03*
X008645Y015930D03*
X008610Y015780D03*
X008950Y015955D03*
X009115Y016130D03*
X009555Y016395D03*
X009560Y016400D03*
X010045Y016100D03*
X010655Y016400D03*
X010660Y016395D03*
X010665Y016390D03*
X010670Y016385D03*
X011440Y016690D03*
X011440Y016695D03*
X011435Y016705D03*
X011435Y016710D03*
X011430Y016720D03*
X011425Y016730D03*
X011445Y016685D03*
X011445Y016680D03*
X011450Y016670D03*
X011455Y016655D03*
X011615Y016020D03*
X011615Y016015D03*
X011615Y016010D03*
X011615Y016005D03*
X011615Y016000D03*
X011615Y015995D03*
X011550Y015855D03*
X011480Y015475D03*
X011475Y015470D03*
X011470Y015465D03*
X011465Y015460D03*
X011220Y015160D03*
X011215Y015150D03*
X011210Y015140D03*
X011205Y015130D03*
X011160Y015060D03*
X011145Y015045D03*
X011140Y015040D03*
X011135Y015035D03*
X011015Y014945D03*
X010865Y015405D03*
X010710Y015560D03*
X010715Y015565D03*
X010720Y015570D03*
X010725Y015580D03*
X009665Y015405D03*
X009255Y015635D03*
X009255Y015640D03*
X009250Y015650D03*
X009250Y015655D03*
X008505Y015110D03*
X008935Y013670D03*
X008810Y013585D03*
X009060Y013585D03*
X009425Y013575D03*
X009420Y013205D03*
X009545Y013115D03*
X009060Y013200D03*
X008805Y013200D03*
X008485Y013455D03*
X008280Y013330D03*
X007980Y013210D03*
X007965Y013590D03*
X007845Y013670D03*
X007735Y013590D03*
X005445Y015675D03*
X005355Y015795D03*
X005350Y015800D03*
X005350Y015805D03*
X004735Y016240D03*
X004255Y016300D03*
X003925Y016760D03*
X003940Y016780D03*
X003945Y016785D03*
X003950Y016795D03*
X003955Y016800D03*
X003960Y016805D03*
X003965Y016810D03*
X003965Y016815D03*
X003970Y016820D03*
X003975Y016825D03*
X003980Y016830D03*
X004215Y015810D03*
X004155Y015450D03*
X003205Y015800D03*
X003200Y015795D03*
X003195Y015790D03*
X003190Y015785D03*
X003185Y015780D03*
X001955Y015340D03*
D17*
X003160Y015755D03*
X003165Y015760D03*
X003170Y015765D03*
X003175Y015770D03*
X003180Y015775D03*
X004045Y015930D03*
X004220Y015815D03*
X004155Y015455D03*
X004450Y016200D03*
X004455Y016210D03*
X004470Y016230D03*
X004265Y016310D03*
X004000Y016855D03*
X004005Y016860D03*
X004010Y016865D03*
X004025Y016885D03*
X004030Y016890D03*
X005345Y015815D03*
X005460Y015665D03*
X005710Y015260D03*
X006490Y014690D03*
X007665Y014715D03*
X008240Y015735D03*
X008600Y015770D03*
X008945Y015940D03*
X008945Y015945D03*
X009115Y016125D03*
X009595Y016430D03*
X010040Y016090D03*
X010130Y015690D03*
X009710Y015375D03*
X009700Y015380D03*
X009695Y015385D03*
X010685Y015525D03*
X010690Y015535D03*
X010695Y015540D03*
X010860Y015395D03*
X011250Y015235D03*
X011255Y015245D03*
X011245Y015220D03*
X011240Y015210D03*
X011240Y015205D03*
X011235Y015200D03*
X011235Y015195D03*
X011230Y015185D03*
X011115Y015015D03*
X011110Y015010D03*
X011095Y015000D03*
X011090Y014995D03*
X011055Y014970D03*
X011040Y014960D03*
X011420Y015425D03*
X011435Y015435D03*
X011440Y015440D03*
X011555Y015860D03*
X011610Y015945D03*
X011610Y015950D03*
X011615Y015960D03*
X011615Y015965D03*
X011615Y015970D03*
X011615Y015975D03*
X011615Y015980D03*
X011615Y015985D03*
X010640Y016415D03*
X010635Y016420D03*
X011395Y016795D03*
X011395Y016800D03*
X011390Y016805D03*
X011385Y016815D03*
X011400Y016790D03*
X011400Y016785D03*
X011405Y016775D03*
X011410Y016765D03*
X009370Y016745D03*
X009365Y016730D03*
X009435Y013580D03*
X009050Y013195D03*
X006365Y013115D03*
X006250Y013195D03*
X005040Y013175D03*
X003575Y012945D03*
D18*
X003570Y012950D03*
X003010Y013115D03*
X005035Y013610D03*
X006845Y013585D03*
X007750Y013595D03*
X007950Y013595D03*
X008300Y013345D03*
X008820Y013590D03*
X009440Y013195D03*
X009700Y013200D03*
X007675Y014725D03*
X007675Y014730D03*
X007650Y014705D03*
X007225Y014660D03*
X006600Y014780D03*
X005470Y015660D03*
X006230Y015940D03*
X007620Y016875D03*
X007640Y016890D03*
X007660Y016905D03*
X007680Y016920D03*
X008905Y016855D03*
X009375Y016760D03*
X009380Y016770D03*
X009365Y016705D03*
X009635Y016690D03*
X009645Y016705D03*
X009660Y016730D03*
X009665Y016735D03*
X009615Y016450D03*
X009610Y016445D03*
X010040Y016085D03*
X010605Y016445D03*
X010610Y016440D03*
X011365Y016850D03*
X011370Y016845D03*
X011375Y016835D03*
X011360Y016860D03*
X011605Y015935D03*
X011395Y015405D03*
X011380Y015395D03*
X011375Y015390D03*
X011370Y015385D03*
X011365Y015380D03*
X011350Y015370D03*
X011345Y015365D03*
X011340Y015360D03*
X011335Y015355D03*
X011330Y015350D03*
X011315Y015335D03*
X011310Y015330D03*
X011305Y015325D03*
X011300Y015320D03*
X011290Y015305D03*
X011285Y015300D03*
X011280Y015295D03*
X011280Y015290D03*
X011275Y015285D03*
X011270Y015275D03*
X010850Y015385D03*
X010670Y015510D03*
X010665Y015505D03*
X010660Y015500D03*
X010655Y015495D03*
X009735Y015360D03*
X009255Y015615D03*
X008595Y015760D03*
X008255Y015720D03*
X008250Y015725D03*
X008225Y015755D03*
X008220Y015760D03*
X008220Y015765D03*
X008895Y016255D03*
X009110Y016120D03*
X004485Y016240D03*
X004275Y016315D03*
X004405Y016485D03*
X004060Y016920D03*
X004065Y016925D03*
X004070Y016930D03*
X004075Y016935D03*
X004045Y015925D03*
X003995Y015830D03*
X003995Y015825D03*
X003990Y015820D03*
X003990Y015815D03*
X003985Y015805D03*
X003985Y015800D03*
X004225Y015820D03*
X004155Y015465D03*
X003150Y015745D03*
X003145Y015740D03*
X003140Y015735D03*
D19*
X003133Y015730D03*
X003128Y015725D03*
X003123Y015720D03*
X003983Y015785D03*
X003983Y015790D03*
X003983Y015795D03*
X003988Y015810D03*
X003998Y015835D03*
X004003Y015840D03*
X004228Y015825D03*
X004153Y015470D03*
X004443Y016190D03*
X004083Y016940D03*
X004088Y016945D03*
X004093Y016950D03*
X004098Y016955D03*
X005338Y015825D03*
X005703Y015265D03*
X006598Y014785D03*
X007173Y014715D03*
X007633Y014695D03*
X007643Y014700D03*
X008508Y015120D03*
X008218Y015770D03*
X008633Y015945D03*
X008938Y015920D03*
X009108Y016115D03*
X009623Y016455D03*
X009628Y016460D03*
X009628Y016685D03*
X009668Y016740D03*
X009383Y016775D03*
X009363Y016700D03*
X009363Y016695D03*
X009363Y016690D03*
X009368Y016680D03*
X009163Y017020D03*
X010038Y016080D03*
X010593Y016455D03*
X010598Y016450D03*
X011338Y016895D03*
X011348Y016880D03*
X011353Y016875D03*
X011353Y016870D03*
X011358Y016865D03*
X011363Y016855D03*
X011603Y015930D03*
X011598Y015925D03*
X011563Y015870D03*
X011358Y015375D03*
X011323Y015345D03*
X011318Y015340D03*
X011298Y015315D03*
X011293Y015310D03*
X010843Y015380D03*
X010653Y015490D03*
X010648Y015485D03*
X010643Y015480D03*
X010638Y015475D03*
X009443Y013585D03*
X008463Y013440D03*
X010463Y013170D03*
X011428Y013120D03*
X007558Y016830D03*
X007563Y016835D03*
X007573Y016840D03*
X007578Y016845D03*
X007588Y016850D03*
X007593Y016855D03*
X007598Y016860D03*
X007608Y016865D03*
X007613Y016870D03*
X007628Y016880D03*
X007633Y016885D03*
X007648Y016895D03*
X007653Y016900D03*
X007668Y016910D03*
X007673Y016915D03*
X007688Y016925D03*
X007693Y016930D03*
X007698Y016935D03*
X007708Y016940D03*
X007713Y016945D03*
X007718Y016950D03*
X007733Y016960D03*
X007738Y016965D03*
X007758Y016980D03*
X007763Y016985D03*
X007783Y017000D03*
X007553Y016825D03*
X007543Y016820D03*
X007538Y016815D03*
X007523Y016805D03*
X004823Y013610D03*
X004328Y013665D03*
X003893Y013120D03*
X003568Y012955D03*
X003563Y012960D03*
X003118Y013170D03*
X003038Y013660D03*
X002538Y013170D03*
X002013Y013120D03*
D20*
X002440Y013665D03*
X003560Y012965D03*
X003895Y013660D03*
X005650Y013590D03*
X006365Y013665D03*
X006995Y013665D03*
X007100Y013590D03*
X007845Y013665D03*
X008365Y013670D03*
X008305Y013350D03*
X008295Y013190D03*
X008935Y013665D03*
X009545Y013120D03*
X010385Y013660D03*
X010840Y015375D03*
X010630Y015470D03*
X010035Y016075D03*
X009645Y016470D03*
X009650Y016475D03*
X009635Y016465D03*
X009625Y016680D03*
X009670Y016745D03*
X009370Y016675D03*
X009365Y016685D03*
X008935Y015915D03*
X008590Y015755D03*
X008585Y015750D03*
X008215Y015775D03*
X007675Y014735D03*
X007620Y014690D03*
X006595Y014790D03*
X005335Y015830D03*
X005500Y016090D03*
X004440Y016185D03*
X004410Y016480D03*
X004105Y016960D03*
X004110Y016965D03*
X004115Y016970D03*
X004135Y016985D03*
X004010Y015850D03*
X004005Y015845D03*
X003980Y015780D03*
X003980Y015775D03*
X004155Y015475D03*
X003115Y015715D03*
X003110Y015710D03*
X003105Y015705D03*
X002770Y015135D03*
X001975Y015345D03*
X007495Y016785D03*
X007500Y016790D03*
X007510Y016795D03*
X007515Y016800D03*
X007530Y016810D03*
X007725Y016955D03*
X007745Y016970D03*
X007750Y016975D03*
X007770Y016990D03*
X007775Y016995D03*
X007790Y017005D03*
X007795Y017010D03*
X007800Y017015D03*
X007810Y017020D03*
X007815Y017025D03*
X007820Y017030D03*
X007840Y017045D03*
X009745Y015355D03*
X009755Y015350D03*
X010585Y016460D03*
X010580Y016465D03*
X011330Y016905D03*
X011335Y016900D03*
X011340Y016890D03*
X011345Y016885D03*
X011595Y015920D03*
X011565Y015875D03*
D21*
X011593Y015915D03*
X010628Y015465D03*
X010623Y015460D03*
X010033Y016070D03*
X009658Y016480D03*
X009503Y016545D03*
X009623Y016675D03*
X009673Y016750D03*
X009388Y016780D03*
X009373Y016670D03*
X009103Y016110D03*
X008933Y015910D03*
X008933Y015905D03*
X008628Y015950D03*
X008263Y015715D03*
X008213Y015780D03*
X008208Y015785D03*
X007508Y015820D03*
X006843Y016505D03*
X007458Y016760D03*
X007463Y016765D03*
X007473Y016770D03*
X007478Y016775D03*
X007488Y016780D03*
X007828Y017035D03*
X007833Y017040D03*
X007848Y017050D03*
X007853Y017055D03*
X007858Y017060D03*
X007868Y017065D03*
X007873Y017070D03*
X007878Y017075D03*
X007898Y017090D03*
X009248Y015610D03*
X010123Y014745D03*
X011103Y013610D03*
X008453Y013435D03*
X008313Y013355D03*
X007818Y013115D03*
X007093Y013195D03*
X005883Y013590D03*
X004903Y013120D03*
X003558Y012970D03*
X004153Y015480D03*
X004153Y015485D03*
X004233Y015830D03*
X004048Y015920D03*
X004438Y016180D03*
X004493Y016245D03*
X004413Y016475D03*
X004123Y016975D03*
X004128Y016980D03*
X004143Y016990D03*
X004148Y016995D03*
X005333Y015835D03*
X003098Y015700D03*
X003093Y015695D03*
X010233Y016795D03*
X010573Y016470D03*
X011308Y016935D03*
X011313Y016930D03*
X011318Y016925D03*
X011318Y016920D03*
X011323Y016915D03*
X011328Y016910D03*
D22*
X011305Y016940D03*
X011300Y016945D03*
X011295Y016950D03*
X011290Y016955D03*
X011285Y016965D03*
X011280Y016970D03*
X011275Y016975D03*
X010565Y016475D03*
X010555Y016480D03*
X010035Y016065D03*
X009665Y016485D03*
X009615Y016670D03*
X009375Y016665D03*
X009390Y016785D03*
X008930Y015900D03*
X008580Y015745D03*
X008205Y015790D03*
X008335Y016240D03*
X007450Y016755D03*
X007440Y016750D03*
X007435Y016745D03*
X007425Y016740D03*
X007885Y017080D03*
X007890Y017085D03*
X007905Y017095D03*
X007910Y017100D03*
X007915Y017105D03*
X007930Y017115D03*
X007935Y017120D03*
X009765Y015345D03*
X009775Y015340D03*
X010605Y015445D03*
X010610Y015450D03*
X010615Y015455D03*
X010830Y015365D03*
X010835Y015370D03*
X011570Y015880D03*
X011575Y015885D03*
X011590Y015910D03*
X008510Y015125D03*
X007610Y014685D03*
X007175Y014720D03*
X006595Y014795D03*
X004940Y013665D03*
X005025Y013170D03*
X003555Y012980D03*
X003555Y012975D03*
X006365Y013120D03*
X007950Y013195D03*
X008935Y013120D03*
X009590Y013670D03*
X004415Y016470D03*
X004155Y017000D03*
X004160Y017005D03*
X004170Y017010D03*
X003980Y015770D03*
X004150Y015495D03*
X004150Y015490D03*
D23*
X003465Y013880D03*
X003640Y012985D03*
X002320Y013190D03*
X002330Y013595D03*
X006365Y013680D03*
X007430Y013765D03*
X007850Y013680D03*
X008555Y013215D03*
X008935Y013680D03*
X009545Y013105D03*
D24*
X009383Y013245D03*
X009378Y013255D03*
X009378Y013260D03*
X009373Y013265D03*
X009368Y013275D03*
X009363Y013485D03*
X009368Y013495D03*
X009368Y013500D03*
X009373Y013505D03*
X009373Y013510D03*
X009378Y013520D03*
X009123Y013500D03*
X009118Y013510D03*
X009118Y013515D03*
X009113Y013520D03*
X009113Y013525D03*
X009108Y013530D03*
X009103Y013540D03*
X008933Y013675D03*
X008763Y013535D03*
X008758Y013530D03*
X008758Y013525D03*
X008753Y013520D03*
X008753Y013515D03*
X008748Y013505D03*
X008513Y013485D03*
X008513Y013570D03*
X008508Y013575D03*
X008253Y013300D03*
X008253Y013215D03*
X008258Y013210D03*
X008033Y013285D03*
X008028Y013275D03*
X008028Y013270D03*
X008023Y013265D03*
X008023Y013260D03*
X008018Y013535D03*
X008013Y013545D03*
X008008Y013550D03*
X007848Y013675D03*
X007703Y013555D03*
X007698Y013550D03*
X007698Y013545D03*
X007433Y013795D03*
X007158Y013540D03*
X007163Y013530D03*
X007168Y013525D03*
X007168Y013520D03*
X007173Y013515D03*
X007173Y013510D03*
X007178Y013295D03*
X007173Y013280D03*
X007173Y013275D03*
X007168Y013270D03*
X007163Y013260D03*
X006818Y013200D03*
X006553Y013280D03*
X006548Y013270D03*
X006543Y013260D03*
X006543Y013255D03*
X006538Y013250D03*
X006193Y013250D03*
X006188Y013255D03*
X006188Y013260D03*
X006183Y013265D03*
X006183Y013270D03*
X006178Y013280D03*
X006178Y013505D03*
X006183Y013515D03*
X006188Y013525D03*
X006193Y013535D03*
X006538Y013535D03*
X006543Y013525D03*
X006548Y013515D03*
X006553Y013505D03*
X006818Y013560D03*
X005603Y013555D03*
X005598Y013545D03*
X005593Y013535D03*
X005063Y013605D03*
X004778Y013180D03*
X004013Y013180D03*
X003773Y013180D03*
X003513Y012985D03*
X003168Y013190D03*
X002933Y013605D03*
X002583Y013595D03*
X002588Y013190D03*
X003773Y013600D03*
X003893Y013670D03*
X004163Y015440D03*
X004038Y015945D03*
X004238Y016165D03*
X004218Y016230D03*
X004218Y016235D03*
X004218Y016240D03*
X005133Y015840D03*
X006153Y014895D03*
X006158Y014885D03*
X006553Y014705D03*
X006588Y014725D03*
X008653Y015865D03*
X009128Y016145D03*
X009398Y016105D03*
X009403Y016125D03*
X009408Y016140D03*
X009408Y016145D03*
X009413Y016155D03*
X009413Y016160D03*
X009413Y016165D03*
X009418Y016170D03*
X009418Y016175D03*
X009423Y016185D03*
X009423Y016190D03*
X009428Y016200D03*
X009433Y016210D03*
X009423Y015730D03*
X009438Y015690D03*
X009443Y015680D03*
X009443Y015675D03*
X009448Y015670D03*
X009448Y015665D03*
X009453Y015660D03*
X009453Y015655D03*
X009458Y015650D03*
X009458Y015645D03*
X009463Y015640D03*
X009463Y015635D03*
X009468Y015630D03*
X009473Y015620D03*
X009478Y015610D03*
X009488Y015595D03*
X010133Y015215D03*
X010898Y015445D03*
X010808Y015750D03*
X010813Y015760D03*
X010813Y015765D03*
X010813Y015770D03*
X010818Y015775D03*
X010818Y015780D03*
X010818Y015785D03*
X010823Y015800D03*
X010823Y015805D03*
X010828Y015825D03*
X010828Y016070D03*
X010823Y016095D03*
X010818Y016110D03*
X010818Y016115D03*
X010813Y016130D03*
X010813Y016135D03*
X010808Y016145D03*
X010808Y016150D03*
X010803Y016160D03*
X010803Y016165D03*
X010798Y016175D03*
X010798Y016180D03*
X010793Y016190D03*
X011563Y016315D03*
X011568Y016295D03*
X011573Y016275D03*
X010958Y014910D03*
X010868Y013600D03*
X010503Y013600D03*
X010278Y013605D03*
X010513Y013190D03*
X009728Y013225D03*
X009123Y013285D03*
X009118Y013270D03*
X009113Y013260D03*
X009108Y013255D03*
X009108Y013250D03*
X008933Y013110D03*
X008768Y013240D03*
X008763Y013250D03*
X008758Y013255D03*
X008758Y013260D03*
X008753Y013265D03*
X008753Y013270D03*
X008748Y013275D03*
X008748Y013280D03*
X008903Y016860D03*
D25*
X010925Y015480D03*
X010940Y014900D03*
X010835Y013570D03*
X010540Y013565D03*
X010535Y013570D03*
X010530Y013575D03*
X010245Y013575D03*
X010240Y013570D03*
X010555Y013235D03*
X010550Y013230D03*
X010545Y013220D03*
X010540Y013215D03*
X011430Y013110D03*
X011540Y013190D03*
X011545Y013195D03*
X008525Y013195D03*
X007430Y013780D03*
X008500Y015090D03*
X005075Y013600D03*
X004735Y013550D03*
X004730Y013545D03*
X004730Y013225D03*
X004735Y013220D03*
X004740Y013215D03*
X005075Y013205D03*
X004065Y013230D03*
X004060Y013225D03*
X004055Y013215D03*
X004050Y013210D03*
X003735Y013215D03*
X003730Y013220D03*
X003725Y013225D03*
X003495Y012995D03*
X003490Y013000D03*
X003205Y013230D03*
X003200Y013225D03*
X003195Y013565D03*
X003190Y013570D03*
X003185Y013575D03*
X002900Y013575D03*
X002895Y013570D03*
X002625Y013550D03*
X002620Y013560D03*
X002615Y013565D03*
X002610Y013570D03*
X002625Y013230D03*
X002620Y013225D03*
X002130Y013195D03*
X002125Y013190D03*
X003725Y013555D03*
X003730Y013560D03*
X003735Y013565D03*
X004045Y013575D03*
X004050Y013570D03*
X004055Y013565D03*
X004060Y013555D03*
X004755Y016220D03*
D26*
X004760Y016215D03*
X005495Y016105D03*
X007370Y014615D03*
X005080Y013210D03*
X004720Y013245D03*
X004715Y013255D03*
X004710Y013265D03*
X004710Y013270D03*
X004705Y013275D03*
X004705Y013280D03*
X004705Y013285D03*
X004700Y013290D03*
X004700Y013295D03*
X004700Y013300D03*
X004695Y013315D03*
X004695Y013320D03*
X004695Y013325D03*
X004695Y013330D03*
X004690Y013350D03*
X004690Y013355D03*
X004690Y013360D03*
X004690Y013365D03*
X004690Y013370D03*
X004690Y013375D03*
X004690Y013380D03*
X004690Y013385D03*
X004690Y013390D03*
X004690Y013395D03*
X004690Y013400D03*
X004690Y013405D03*
X004690Y013410D03*
X004690Y013415D03*
X004690Y013420D03*
X004690Y013425D03*
X004695Y013445D03*
X004695Y013450D03*
X004695Y013455D03*
X004695Y013460D03*
X004700Y013470D03*
X004700Y013475D03*
X004700Y013480D03*
X004700Y013485D03*
X004705Y013490D03*
X004705Y013495D03*
X004710Y013505D03*
X004710Y013510D03*
X004105Y013430D03*
X004105Y013425D03*
X004105Y013420D03*
X004105Y013415D03*
X004105Y013410D03*
X004105Y013405D03*
X004105Y013400D03*
X004105Y013395D03*
X004105Y013390D03*
X004105Y013385D03*
X004105Y013380D03*
X004105Y013375D03*
X004105Y013370D03*
X004105Y013365D03*
X004105Y013360D03*
X004105Y013355D03*
X004105Y013350D03*
X004100Y013330D03*
X004100Y013325D03*
X004100Y013320D03*
X004100Y013315D03*
X004095Y013305D03*
X004095Y013300D03*
X004095Y013295D03*
X004090Y013290D03*
X004090Y013285D03*
X004090Y013280D03*
X004085Y013275D03*
X004085Y013270D03*
X004080Y013260D03*
X004075Y013250D03*
X004100Y013450D03*
X004100Y013455D03*
X004100Y013460D03*
X004100Y013465D03*
X004095Y013475D03*
X004095Y013480D03*
X004095Y013485D03*
X004090Y013490D03*
X004090Y013495D03*
X004090Y013500D03*
X004085Y013505D03*
X004085Y013510D03*
X004080Y013520D03*
X004075Y013530D03*
X003710Y013530D03*
X003705Y013520D03*
X003705Y013515D03*
X003700Y013510D03*
X003700Y013505D03*
X003700Y013500D03*
X003695Y013495D03*
X003695Y013490D03*
X003695Y013485D03*
X003690Y013480D03*
X003690Y013475D03*
X003690Y013470D03*
X003685Y013455D03*
X003685Y013450D03*
X003685Y013445D03*
X003685Y013440D03*
X003685Y013435D03*
X003680Y013405D03*
X003680Y013400D03*
X003680Y013395D03*
X003680Y013390D03*
X003680Y013385D03*
X003680Y013380D03*
X003680Y013375D03*
X003685Y013345D03*
X003685Y013340D03*
X003685Y013335D03*
X003685Y013330D03*
X003685Y013325D03*
X003690Y013310D03*
X003690Y013305D03*
X003690Y013300D03*
X003695Y013295D03*
X003695Y013290D03*
X003695Y013285D03*
X003700Y013280D03*
X003700Y013275D03*
X003700Y013270D03*
X003705Y013265D03*
X003705Y013260D03*
X003710Y013250D03*
X003475Y013030D03*
X003480Y013020D03*
X003480Y013015D03*
X003485Y013010D03*
X003220Y013260D03*
X003225Y013270D03*
X003225Y013275D03*
X003230Y013285D03*
X003230Y013290D03*
X003235Y013300D03*
X003235Y013305D03*
X003235Y013310D03*
X003240Y013325D03*
X003240Y013330D03*
X003240Y013335D03*
X003240Y013340D03*
X003240Y013345D03*
X003240Y013435D03*
X003240Y013440D03*
X003240Y013445D03*
X003240Y013450D03*
X003240Y013455D03*
X003235Y013475D03*
X003235Y013480D03*
X003230Y013495D03*
X003225Y013505D03*
X003225Y013510D03*
X003220Y013520D03*
X003220Y013525D03*
X003215Y013530D03*
X003210Y013540D03*
X003465Y013790D03*
X003465Y013865D03*
X002885Y013555D03*
X002880Y013545D03*
X002880Y013540D03*
X002875Y013535D03*
X002875Y013530D03*
X002870Y013520D03*
X002870Y013515D03*
X002865Y013495D03*
X002860Y013435D03*
X002665Y013430D03*
X002665Y013425D03*
X002665Y013420D03*
X002665Y013415D03*
X002665Y013410D03*
X002665Y013405D03*
X002665Y013400D03*
X002665Y013395D03*
X002665Y013390D03*
X002665Y013385D03*
X002665Y013380D03*
X002665Y013375D03*
X002665Y013370D03*
X002665Y013365D03*
X002665Y013360D03*
X002665Y013355D03*
X002665Y013350D03*
X002660Y013330D03*
X002660Y013325D03*
X002660Y013320D03*
X002660Y013315D03*
X002655Y013305D03*
X002655Y013300D03*
X002655Y013295D03*
X002650Y013290D03*
X002650Y013285D03*
X002650Y013280D03*
X002645Y013270D03*
X002645Y013265D03*
X002640Y013255D03*
X002660Y013450D03*
X002660Y013455D03*
X002660Y013460D03*
X002655Y013475D03*
X002655Y013480D03*
X002655Y013485D03*
X002650Y013490D03*
X002650Y013495D03*
X002650Y013500D03*
X002645Y013505D03*
X002645Y013510D03*
X002645Y013515D03*
X002640Y013520D03*
X002640Y013525D03*
X002145Y013230D03*
X002145Y013225D03*
X002140Y013215D03*
X002135Y013205D03*
X001930Y015330D03*
X010050Y016130D03*
X010930Y015485D03*
X010935Y015490D03*
X010825Y013550D03*
X010820Y013540D03*
X010820Y013535D03*
X010815Y013530D03*
X010815Y013525D03*
X010810Y013510D03*
X010810Y013505D03*
X010805Y013470D03*
X010585Y013460D03*
X010585Y013455D03*
X010585Y013450D03*
X010585Y013445D03*
X010585Y013435D03*
X010580Y013475D03*
X010580Y013480D03*
X010575Y013495D03*
X010575Y013500D03*
X010570Y013510D03*
X010570Y013515D03*
X010565Y013520D03*
X010565Y013525D03*
X010560Y013530D03*
X010560Y013535D03*
X010555Y013540D03*
X010550Y013550D03*
X010590Y013375D03*
X010585Y013340D03*
X010585Y013335D03*
X010585Y013330D03*
X010585Y013325D03*
X010585Y013320D03*
X010580Y013310D03*
X010580Y013305D03*
X010580Y013300D03*
X010580Y013295D03*
X010575Y013290D03*
X010575Y013285D03*
X010575Y013280D03*
X010570Y013270D03*
X010205Y013435D03*
X010205Y013455D03*
X010210Y013495D03*
X010215Y013515D03*
X010220Y013530D03*
X010220Y013535D03*
X010225Y013540D03*
X010225Y013545D03*
X010230Y013550D03*
X011550Y013205D03*
X011555Y013210D03*
X011555Y013215D03*
X011560Y013225D03*
X011560Y013230D03*
D27*
X011563Y013235D03*
X011563Y013240D03*
X011563Y013245D03*
X011568Y013250D03*
X011568Y013255D03*
X011568Y013260D03*
X011568Y013265D03*
X011568Y013270D03*
X011568Y013275D03*
X011568Y013280D03*
X011568Y013285D03*
X011568Y013290D03*
X011558Y013220D03*
X011158Y013220D03*
X011158Y013225D03*
X011158Y013230D03*
X011158Y013235D03*
X011158Y013240D03*
X011158Y013245D03*
X011158Y013250D03*
X011158Y013255D03*
X011158Y013260D03*
X011158Y013265D03*
X011158Y013270D03*
X011158Y013275D03*
X011158Y013280D03*
X011158Y013285D03*
X011158Y013290D03*
X011158Y013295D03*
X011158Y013300D03*
X011158Y013305D03*
X011158Y013310D03*
X011158Y013315D03*
X011158Y013320D03*
X011158Y013325D03*
X011158Y013330D03*
X011158Y013335D03*
X011158Y013340D03*
X011158Y013345D03*
X011158Y013350D03*
X011158Y013355D03*
X011158Y013360D03*
X011158Y013365D03*
X011158Y013370D03*
X011158Y013375D03*
X011158Y013380D03*
X011158Y013385D03*
X011158Y013390D03*
X011158Y013395D03*
X011158Y013400D03*
X011158Y013405D03*
X011158Y013410D03*
X011158Y013415D03*
X011158Y013420D03*
X011158Y013425D03*
X011158Y013430D03*
X011158Y013435D03*
X011158Y013440D03*
X011158Y013445D03*
X011158Y013450D03*
X011158Y013455D03*
X011158Y013460D03*
X011158Y013465D03*
X011158Y013470D03*
X011158Y013475D03*
X011158Y013480D03*
X011158Y013485D03*
X011158Y013490D03*
X011158Y013495D03*
X011158Y013500D03*
X011158Y013505D03*
X011158Y013510D03*
X011158Y013515D03*
X011158Y013520D03*
X011158Y013525D03*
X011158Y013530D03*
X011158Y013535D03*
X011158Y013540D03*
X011158Y013545D03*
X011158Y013550D03*
X011158Y013555D03*
X011158Y013560D03*
X011158Y013565D03*
X011158Y013570D03*
X011158Y013575D03*
X011158Y013580D03*
X011158Y013585D03*
X011158Y013650D03*
X011158Y013655D03*
X011158Y013660D03*
X011158Y013665D03*
X011158Y013670D03*
X011158Y013675D03*
X011158Y013680D03*
X011158Y013685D03*
X011158Y013690D03*
X011158Y013695D03*
X011158Y013700D03*
X011158Y013705D03*
X011158Y013710D03*
X011158Y013715D03*
X011158Y013720D03*
X011158Y013725D03*
X011158Y013730D03*
X011158Y013735D03*
X011158Y013740D03*
X011158Y013745D03*
X011158Y013750D03*
X011158Y013755D03*
X011158Y013760D03*
X011158Y013765D03*
X011158Y013770D03*
X011158Y013775D03*
X011158Y013780D03*
X011158Y013785D03*
X011158Y013790D03*
X011158Y013795D03*
X011158Y013800D03*
X011158Y013805D03*
X011158Y013810D03*
X011158Y013815D03*
X011158Y013820D03*
X011158Y013825D03*
X011158Y013830D03*
X011158Y013835D03*
X011158Y013840D03*
X011158Y013845D03*
X011158Y013850D03*
X011158Y013855D03*
X011158Y013860D03*
X011158Y013865D03*
X011158Y013870D03*
X011158Y013875D03*
X011158Y013880D03*
X011158Y013885D03*
X011158Y013890D03*
X011158Y013895D03*
X011158Y013900D03*
X011158Y013905D03*
X011158Y013910D03*
X011158Y013915D03*
X011158Y013920D03*
X010813Y013520D03*
X010813Y013515D03*
X010808Y013500D03*
X010808Y013495D03*
X010808Y013490D03*
X010808Y013485D03*
X010808Y013480D03*
X010808Y013475D03*
X010803Y013465D03*
X010803Y013460D03*
X010803Y013455D03*
X010803Y013450D03*
X010803Y013445D03*
X010803Y013440D03*
X010803Y013435D03*
X010803Y013430D03*
X010803Y013425D03*
X010803Y013420D03*
X010803Y013415D03*
X010803Y013410D03*
X010803Y013405D03*
X010803Y013400D03*
X010803Y013395D03*
X010803Y013390D03*
X010803Y013385D03*
X010803Y013380D03*
X010803Y013375D03*
X010803Y013370D03*
X010803Y013365D03*
X010803Y013360D03*
X010803Y013355D03*
X010803Y013350D03*
X010803Y013345D03*
X010803Y013340D03*
X010803Y013335D03*
X010803Y013330D03*
X010803Y013325D03*
X010803Y013320D03*
X010803Y013315D03*
X010803Y013310D03*
X010803Y013305D03*
X010803Y013300D03*
X010803Y013295D03*
X010803Y013290D03*
X010803Y013285D03*
X010803Y013280D03*
X010803Y013275D03*
X010803Y013270D03*
X010803Y013265D03*
X010803Y013260D03*
X010803Y013255D03*
X010803Y013250D03*
X010803Y013245D03*
X010803Y013240D03*
X010803Y013235D03*
X010803Y013230D03*
X010803Y013225D03*
X010803Y013220D03*
X010803Y013215D03*
X010803Y013210D03*
X010803Y013205D03*
X010803Y013200D03*
X010803Y013195D03*
X010803Y013190D03*
X010803Y013185D03*
X010803Y013180D03*
X010803Y013175D03*
X010803Y013170D03*
X010803Y013165D03*
X010803Y013160D03*
X010803Y013155D03*
X010803Y013150D03*
X010803Y013145D03*
X010803Y013140D03*
X010803Y013135D03*
X010803Y013130D03*
X010803Y013125D03*
X010803Y013120D03*
X010583Y013315D03*
X010588Y013345D03*
X010588Y013350D03*
X010588Y013355D03*
X010588Y013360D03*
X010588Y013365D03*
X010588Y013370D03*
X010588Y013440D03*
X010583Y013465D03*
X010583Y013470D03*
X010578Y013485D03*
X010578Y013490D03*
X010573Y013505D03*
X010218Y013520D03*
X010218Y013525D03*
X010213Y013510D03*
X010213Y013505D03*
X010213Y013500D03*
X010208Y013490D03*
X010208Y013485D03*
X010208Y013480D03*
X010208Y013475D03*
X010208Y013470D03*
X010208Y013465D03*
X010208Y013460D03*
X010203Y013450D03*
X010203Y013445D03*
X010203Y013440D03*
X010248Y013175D03*
X011158Y013175D03*
X011158Y013180D03*
X011158Y013185D03*
X011158Y013190D03*
X011158Y013195D03*
X011158Y013200D03*
X011158Y013205D03*
X011158Y013210D03*
X011158Y013215D03*
X011158Y013170D03*
X011158Y013165D03*
X011158Y013160D03*
X011158Y013155D03*
X011158Y013150D03*
X011158Y013145D03*
X011158Y013140D03*
X011158Y013135D03*
X011158Y013130D03*
X011158Y013125D03*
X011158Y013120D03*
X010938Y015495D03*
X009133Y016155D03*
X007433Y013775D03*
X005083Y013595D03*
X005083Y013215D03*
X004698Y013305D03*
X004698Y013310D03*
X004693Y013335D03*
X004693Y013340D03*
X004693Y013345D03*
X004693Y013430D03*
X004693Y013435D03*
X004693Y013440D03*
X004698Y013465D03*
X004468Y013595D03*
X004098Y013470D03*
X004103Y013445D03*
X004103Y013440D03*
X004103Y013435D03*
X004103Y013345D03*
X004103Y013340D03*
X004103Y013335D03*
X004098Y013310D03*
X003688Y013315D03*
X003688Y013320D03*
X003683Y013350D03*
X003683Y013355D03*
X003683Y013360D03*
X003683Y013365D03*
X003683Y013370D03*
X003683Y013410D03*
X003683Y013415D03*
X003683Y013420D03*
X003683Y013425D03*
X003683Y013430D03*
X003688Y013460D03*
X003688Y013465D03*
X003463Y013465D03*
X003463Y013470D03*
X003463Y013475D03*
X003463Y013480D03*
X003463Y013485D03*
X003463Y013490D03*
X003463Y013495D03*
X003463Y013500D03*
X003463Y013505D03*
X003463Y013510D03*
X003463Y013515D03*
X003463Y013520D03*
X003463Y013525D03*
X003463Y013530D03*
X003463Y013535D03*
X003463Y013540D03*
X003463Y013545D03*
X003463Y013550D03*
X003463Y013555D03*
X003463Y013560D03*
X003463Y013565D03*
X003463Y013570D03*
X003463Y013575D03*
X003463Y013580D03*
X003463Y013585D03*
X003463Y013590D03*
X003463Y013595D03*
X003463Y013600D03*
X003463Y013605D03*
X003463Y013610D03*
X003463Y013615D03*
X003463Y013620D03*
X003463Y013625D03*
X003463Y013630D03*
X003463Y013635D03*
X003463Y013640D03*
X003463Y013645D03*
X003463Y013650D03*
X003463Y013655D03*
X003463Y013660D03*
X003463Y013460D03*
X003463Y013455D03*
X003463Y013450D03*
X003463Y013445D03*
X003463Y013440D03*
X003463Y013435D03*
X003463Y013430D03*
X003463Y013425D03*
X003463Y013420D03*
X003463Y013415D03*
X003463Y013410D03*
X003463Y013405D03*
X003463Y013400D03*
X003463Y013395D03*
X003463Y013390D03*
X003463Y013385D03*
X003463Y013380D03*
X003463Y013375D03*
X003463Y013370D03*
X003463Y013365D03*
X003463Y013360D03*
X003463Y013355D03*
X003463Y013350D03*
X003463Y013345D03*
X003463Y013340D03*
X003463Y013335D03*
X003463Y013330D03*
X003463Y013325D03*
X003463Y013320D03*
X003463Y013315D03*
X003463Y013310D03*
X003463Y013305D03*
X003463Y013300D03*
X003463Y013295D03*
X003463Y013290D03*
X003463Y013285D03*
X003463Y013280D03*
X003463Y013275D03*
X003463Y013270D03*
X003463Y013265D03*
X003463Y013260D03*
X003463Y013255D03*
X003463Y013250D03*
X003463Y013245D03*
X003463Y013240D03*
X003463Y013235D03*
X003463Y013230D03*
X003463Y013225D03*
X003463Y013220D03*
X003463Y013215D03*
X003463Y013210D03*
X003463Y013205D03*
X003463Y013200D03*
X003463Y013195D03*
X003463Y013190D03*
X003463Y013185D03*
X003463Y013180D03*
X003463Y013175D03*
X003463Y013170D03*
X003463Y013165D03*
X003463Y013160D03*
X003463Y013155D03*
X003463Y013150D03*
X003463Y013145D03*
X003463Y013140D03*
X003463Y013135D03*
X003463Y013130D03*
X003463Y013125D03*
X003463Y013120D03*
X003463Y013115D03*
X003463Y013110D03*
X003463Y013105D03*
X003463Y013100D03*
X003463Y013095D03*
X003463Y013090D03*
X003463Y013085D03*
X003468Y013070D03*
X003468Y013065D03*
X003468Y013060D03*
X003468Y013055D03*
X003468Y013050D03*
X003473Y013045D03*
X003473Y013040D03*
X003473Y013035D03*
X003478Y013025D03*
X003233Y013295D03*
X003238Y013315D03*
X003238Y013320D03*
X003243Y013350D03*
X003243Y013355D03*
X003243Y013360D03*
X003243Y013365D03*
X003243Y013370D03*
X003243Y013375D03*
X003238Y013460D03*
X003238Y013465D03*
X003238Y013470D03*
X003233Y013485D03*
X003233Y013490D03*
X003228Y013500D03*
X003223Y013515D03*
X002873Y013525D03*
X002868Y013510D03*
X002868Y013505D03*
X002868Y013500D03*
X002863Y013490D03*
X002863Y013485D03*
X002863Y013480D03*
X002863Y013475D03*
X002863Y013470D03*
X002858Y013460D03*
X002858Y013455D03*
X002858Y013450D03*
X002858Y013445D03*
X002858Y013440D03*
X002663Y013440D03*
X002663Y013445D03*
X002663Y013435D03*
X002658Y013465D03*
X002658Y013470D03*
X002663Y013345D03*
X002663Y013340D03*
X002663Y013335D03*
X002658Y013310D03*
X002903Y013175D03*
X002153Y013255D03*
X002153Y013260D03*
X002153Y013265D03*
X002153Y013270D03*
X002153Y013275D03*
X002153Y013280D03*
X002153Y013285D03*
X002153Y013290D03*
X002153Y013295D03*
X002153Y013300D03*
X002153Y013305D03*
X002153Y013310D03*
X002153Y013315D03*
X002153Y013320D03*
X002153Y013325D03*
X002153Y013330D03*
X002153Y013335D03*
X002153Y013340D03*
X002153Y013345D03*
X002153Y013350D03*
X002153Y013355D03*
X002153Y013360D03*
X002153Y013365D03*
X002153Y013370D03*
X002153Y013375D03*
X002153Y013380D03*
X002153Y013385D03*
X002153Y013390D03*
X002153Y013395D03*
X002153Y013400D03*
X002153Y013405D03*
X002153Y013410D03*
X002153Y013415D03*
X002153Y013420D03*
X002153Y013425D03*
X002153Y013430D03*
X002153Y013435D03*
X002153Y013440D03*
X002153Y013445D03*
X002153Y013450D03*
X002153Y013455D03*
X002153Y013460D03*
X002153Y013465D03*
X002153Y013470D03*
X002153Y013475D03*
X002153Y013480D03*
X002153Y013485D03*
X002153Y013490D03*
X002153Y013495D03*
X002153Y013500D03*
X002153Y013505D03*
X002153Y013510D03*
X002153Y013515D03*
X002153Y013520D03*
X002153Y013525D03*
X002153Y013530D03*
X002153Y013535D03*
X002153Y013540D03*
X002153Y013545D03*
X002153Y013550D03*
X002153Y013555D03*
X002153Y013560D03*
X002153Y013565D03*
X002153Y013570D03*
X002153Y013575D03*
X002153Y013580D03*
X002153Y013585D03*
X002153Y013590D03*
X002153Y013595D03*
X002153Y013600D03*
X002153Y013665D03*
X002153Y013670D03*
X002153Y013675D03*
X002153Y013680D03*
X002153Y013685D03*
X002153Y013690D03*
X002153Y013695D03*
X002153Y013700D03*
X002153Y013705D03*
X002153Y013710D03*
X002153Y013715D03*
X002153Y013720D03*
X002153Y013725D03*
X002153Y013730D03*
X002153Y013735D03*
X002153Y013740D03*
X002153Y013745D03*
X002153Y013750D03*
X002153Y013755D03*
X002153Y013760D03*
X002153Y013765D03*
X002153Y013770D03*
X002153Y013775D03*
X002153Y013780D03*
X002153Y013785D03*
X002153Y013790D03*
X002153Y013795D03*
X002153Y013800D03*
X002153Y013805D03*
X002153Y013810D03*
X002153Y013815D03*
X002153Y013820D03*
X002148Y013250D03*
X002148Y013245D03*
X002148Y013240D03*
X002148Y013235D03*
X002143Y013220D03*
X003188Y015110D03*
X004768Y016210D03*
X004908Y016090D03*
X004383Y016515D03*
D28*
X004783Y016195D03*
X004888Y016100D03*
X004038Y015955D03*
X003463Y013875D03*
X002448Y013675D03*
X008933Y013105D03*
X010243Y013180D03*
X010953Y015520D03*
X010053Y016135D03*
D29*
X010965Y015540D03*
X008250Y013580D03*
X007685Y013210D03*
X008415Y013105D03*
X006965Y013105D03*
X005135Y015815D03*
X004860Y016125D03*
X004830Y016150D03*
X004825Y016155D03*
X004820Y016160D03*
X004815Y016165D03*
D30*
X004838Y016145D03*
X004843Y016140D03*
X004848Y016135D03*
X004853Y016130D03*
X008373Y013680D03*
X007823Y013105D03*
X010228Y013190D03*
X011318Y013190D03*
X008498Y015080D03*
X010968Y015545D03*
X002883Y013190D03*
X001903Y013190D03*
D31*
X002895Y013180D03*
X003615Y015225D03*
X004775Y016200D03*
X007430Y013770D03*
X006365Y013105D03*
X010950Y015515D03*
X009520Y017905D03*
D32*
X008895Y016250D03*
X009400Y016120D03*
X009400Y016115D03*
X009400Y016110D03*
X009395Y016100D03*
X009395Y016095D03*
X009395Y016090D03*
X009395Y016085D03*
X009390Y016075D03*
X009390Y016070D03*
X009390Y016065D03*
X009390Y016060D03*
X009385Y016025D03*
X009385Y016020D03*
X009385Y016015D03*
X009385Y015910D03*
X009390Y015860D03*
X009395Y015835D03*
X009395Y015830D03*
X009400Y015810D03*
X009400Y015805D03*
X009405Y015790D03*
X009405Y015785D03*
X009410Y015770D03*
X009410Y015765D03*
X009415Y015755D03*
X009415Y015750D03*
X009415Y015745D03*
X009420Y015740D03*
X009420Y015735D03*
X009425Y015725D03*
X009425Y015720D03*
X009430Y015715D03*
X009430Y015710D03*
X009430Y015705D03*
X009435Y015700D03*
X009435Y015695D03*
X009440Y015685D03*
X009405Y016130D03*
X009405Y016135D03*
X009410Y016150D03*
X010050Y016120D03*
X010810Y016140D03*
X010815Y016125D03*
X010815Y016120D03*
X010820Y016105D03*
X010820Y016100D03*
X010825Y016090D03*
X010825Y016085D03*
X010825Y016080D03*
X010825Y016075D03*
X010830Y016065D03*
X010830Y016060D03*
X010830Y016055D03*
X010830Y016050D03*
X010835Y016030D03*
X010835Y016025D03*
X010835Y016020D03*
X010835Y016015D03*
X010835Y015880D03*
X010835Y015875D03*
X010835Y015870D03*
X010835Y015865D03*
X010835Y015860D03*
X010830Y015845D03*
X010830Y015840D03*
X010830Y015835D03*
X010830Y015830D03*
X010825Y015820D03*
X010825Y015815D03*
X010825Y015810D03*
X010820Y015795D03*
X010820Y015790D03*
X010905Y015450D03*
X010385Y013670D03*
X010270Y013600D03*
X010520Y013195D03*
X009730Y013230D03*
X009545Y013110D03*
X009370Y013270D03*
X009365Y013280D03*
X009365Y013285D03*
X009365Y013290D03*
X009360Y013295D03*
X009360Y013300D03*
X009360Y013305D03*
X009355Y013320D03*
X009355Y013325D03*
X009355Y013330D03*
X009355Y013335D03*
X009350Y013360D03*
X009350Y013365D03*
X009350Y013370D03*
X009350Y013375D03*
X009350Y013380D03*
X009350Y013385D03*
X009350Y013390D03*
X009350Y013395D03*
X009350Y013400D03*
X009350Y013405D03*
X009350Y013410D03*
X009350Y013415D03*
X009350Y013420D03*
X009355Y013445D03*
X009355Y013450D03*
X009355Y013455D03*
X009355Y013460D03*
X009360Y013470D03*
X009360Y013475D03*
X009360Y013480D03*
X009365Y013490D03*
X009135Y013460D03*
X009135Y013455D03*
X009135Y013450D03*
X009135Y013445D03*
X009130Y013470D03*
X009130Y013475D03*
X009130Y013480D03*
X009130Y013485D03*
X009125Y013490D03*
X009125Y013495D03*
X009120Y013505D03*
X009140Y013420D03*
X009140Y013415D03*
X009140Y013410D03*
X009140Y013405D03*
X009140Y013400D03*
X009140Y013395D03*
X009140Y013390D03*
X009140Y013385D03*
X009140Y013380D03*
X009140Y013375D03*
X009140Y013370D03*
X009140Y013365D03*
X009135Y013335D03*
X009135Y013330D03*
X009135Y013325D03*
X009130Y013310D03*
X009130Y013305D03*
X009130Y013300D03*
X009125Y013295D03*
X009125Y013290D03*
X009120Y013280D03*
X009120Y013275D03*
X009115Y013265D03*
X008745Y013285D03*
X008745Y013290D03*
X008740Y013295D03*
X008740Y013300D03*
X008740Y013305D03*
X008735Y013315D03*
X008735Y013320D03*
X008735Y013325D03*
X008730Y013340D03*
X008730Y013345D03*
X008730Y013350D03*
X008730Y013355D03*
X008730Y013360D03*
X008730Y013365D03*
X008730Y013420D03*
X008730Y013425D03*
X008730Y013430D03*
X008730Y013435D03*
X008730Y013440D03*
X008735Y013460D03*
X008735Y013465D03*
X008735Y013470D03*
X008740Y013480D03*
X008740Y013485D03*
X008740Y013490D03*
X008745Y013495D03*
X008745Y013500D03*
X008750Y013510D03*
X008520Y013505D03*
X008520Y013500D03*
X008520Y013495D03*
X008515Y013490D03*
X008515Y013565D03*
X008250Y013295D03*
X008250Y013290D03*
X008245Y013280D03*
X008245Y013275D03*
X008250Y013225D03*
X008250Y013220D03*
X008035Y013290D03*
X008035Y013295D03*
X008035Y013300D03*
X008040Y013305D03*
X008040Y013310D03*
X008040Y013315D03*
X008045Y013330D03*
X008045Y013335D03*
X008045Y013340D03*
X008030Y013280D03*
X008045Y013445D03*
X008045Y013450D03*
X008045Y013455D03*
X008040Y013475D03*
X008040Y013480D03*
X008035Y013495D03*
X008035Y013500D03*
X008030Y013505D03*
X008030Y013510D03*
X008025Y013520D03*
X008025Y013525D03*
X008020Y013530D03*
X008015Y013540D03*
X007695Y013540D03*
X007690Y013535D03*
X007690Y013530D03*
X007685Y013520D03*
X007430Y013790D03*
X007430Y013865D03*
X007430Y013870D03*
X007175Y013505D03*
X007175Y013500D03*
X007180Y013495D03*
X007180Y013490D03*
X007180Y013485D03*
X007185Y013475D03*
X007185Y013470D03*
X007185Y013465D03*
X007185Y013460D03*
X007190Y013440D03*
X007190Y013435D03*
X007190Y013430D03*
X007190Y013425D03*
X007190Y013420D03*
X007190Y013415D03*
X007190Y013370D03*
X007190Y013365D03*
X007190Y013360D03*
X007190Y013355D03*
X007190Y013350D03*
X007190Y013345D03*
X007185Y013330D03*
X007185Y013325D03*
X007185Y013320D03*
X007185Y013315D03*
X007180Y013310D03*
X007180Y013305D03*
X007180Y013300D03*
X007175Y013290D03*
X007175Y013285D03*
X006570Y013350D03*
X006570Y013355D03*
X006570Y013360D03*
X006570Y013365D03*
X006570Y013370D03*
X006570Y013375D03*
X006570Y013380D03*
X006570Y013385D03*
X006570Y013390D03*
X006570Y013395D03*
X006570Y013400D03*
X006570Y013405D03*
X006570Y013410D03*
X006570Y013415D03*
X006570Y013420D03*
X006570Y013425D03*
X006570Y013430D03*
X006565Y013455D03*
X006565Y013460D03*
X006565Y013465D03*
X006560Y013475D03*
X006560Y013480D03*
X006560Y013485D03*
X006555Y013490D03*
X006555Y013495D03*
X006555Y013500D03*
X006550Y013510D03*
X006545Y013520D03*
X006565Y013330D03*
X006565Y013325D03*
X006565Y013320D03*
X006565Y013315D03*
X006560Y013305D03*
X006560Y013300D03*
X006560Y013295D03*
X006555Y013290D03*
X006555Y013285D03*
X006550Y013275D03*
X006545Y013265D03*
X006365Y013110D03*
X006180Y013275D03*
X006175Y013285D03*
X006175Y013290D03*
X006175Y013295D03*
X006170Y013300D03*
X006170Y013305D03*
X006170Y013310D03*
X006165Y013320D03*
X006165Y013325D03*
X006165Y013330D03*
X006165Y013335D03*
X006160Y013355D03*
X006160Y013360D03*
X006160Y013365D03*
X006160Y013370D03*
X006160Y013375D03*
X006160Y013380D03*
X006160Y013385D03*
X006160Y013390D03*
X006160Y013395D03*
X006160Y013400D03*
X006160Y013405D03*
X006160Y013410D03*
X006160Y013415D03*
X006160Y013420D03*
X006160Y013425D03*
X006160Y013430D03*
X006165Y013450D03*
X006165Y013455D03*
X006165Y013460D03*
X006165Y013465D03*
X006170Y013475D03*
X006170Y013480D03*
X006170Y013485D03*
X006175Y013490D03*
X006175Y013495D03*
X006175Y013500D03*
X006180Y013510D03*
X006185Y013520D03*
X006365Y013675D03*
X005595Y013540D03*
X005590Y013530D03*
X005590Y013525D03*
X005590Y013520D03*
X005585Y013515D03*
X005585Y013510D03*
X005585Y013505D03*
X005580Y013480D03*
X004775Y013590D03*
X004770Y013185D03*
X004020Y013185D03*
X003765Y013185D03*
X003765Y013595D03*
X004015Y013600D03*
X003155Y013600D03*
X003040Y013670D03*
X003010Y013110D03*
X002110Y013175D03*
X004230Y016170D03*
X004215Y016210D03*
X004215Y016215D03*
X004215Y016220D03*
X004215Y016225D03*
X004385Y016510D03*
X004745Y016230D03*
X006155Y014890D03*
X006160Y014880D03*
X006165Y014870D03*
X006410Y014705D03*
X006495Y014685D03*
X006565Y014710D03*
X006575Y014715D03*
X006580Y014720D03*
X007510Y015830D03*
X011525Y013175D03*
D33*
X011123Y013605D03*
X010383Y013665D03*
X009713Y013210D03*
X009413Y013210D03*
X009068Y013205D03*
X009068Y013580D03*
X008803Y013580D03*
X008493Y013460D03*
X008278Y013195D03*
X008418Y013110D03*
X009413Y013565D03*
X009418Y013570D03*
X011008Y014940D03*
X011153Y015050D03*
X011158Y015055D03*
X011163Y015065D03*
X011168Y015070D03*
X011173Y015075D03*
X011183Y015090D03*
X011188Y015095D03*
X011188Y015100D03*
X011193Y015105D03*
X011193Y015110D03*
X011198Y015115D03*
X011203Y015120D03*
X011203Y015125D03*
X011208Y015135D03*
X010873Y015410D03*
X010723Y015575D03*
X010728Y015585D03*
X010733Y015590D03*
X010738Y015600D03*
X011488Y015480D03*
X011493Y015485D03*
X011498Y015490D03*
X011503Y015495D03*
X011508Y015500D03*
X011513Y015505D03*
X011573Y015725D03*
X011573Y015730D03*
X011548Y015850D03*
X011613Y016025D03*
X011613Y016030D03*
X011613Y016035D03*
X011613Y016040D03*
X011613Y016045D03*
X011613Y016050D03*
X011613Y016055D03*
X011613Y016060D03*
X011483Y016580D03*
X011478Y016595D03*
X011473Y016610D03*
X011468Y016620D03*
X011468Y016625D03*
X011463Y016630D03*
X011463Y016635D03*
X011463Y016640D03*
X011458Y016645D03*
X011458Y016650D03*
X011453Y016660D03*
X011453Y016665D03*
X011448Y016675D03*
X010693Y016360D03*
X010688Y016365D03*
X010683Y016370D03*
X010678Y016375D03*
X010673Y016380D03*
X009553Y016390D03*
X009548Y016385D03*
X009543Y016380D03*
X009538Y016375D03*
X009533Y016370D03*
X008953Y015965D03*
X008953Y015960D03*
X008648Y015925D03*
X008618Y015790D03*
X008613Y015785D03*
X009243Y015680D03*
X009248Y015665D03*
X009248Y015660D03*
X009253Y015645D03*
X009633Y015430D03*
X009638Y015425D03*
X009648Y015420D03*
X009653Y015415D03*
X009658Y015410D03*
X007198Y014670D03*
X007183Y014680D03*
X007178Y014685D03*
X007173Y014690D03*
X006603Y014760D03*
X005443Y015680D03*
X005438Y015685D03*
X005358Y015790D03*
X004843Y016400D03*
X004248Y016295D03*
X004243Y016290D03*
X004043Y015935D03*
X004208Y015800D03*
X004213Y015805D03*
X003603Y016265D03*
X003618Y016285D03*
X003628Y016300D03*
X003638Y016315D03*
X003643Y016320D03*
X003648Y016330D03*
X003653Y016335D03*
X003658Y016345D03*
X003663Y016350D03*
X003668Y016360D03*
X003673Y016365D03*
X003678Y016375D03*
X003688Y016390D03*
X003698Y016405D03*
X003713Y016430D03*
X003753Y016495D03*
X003818Y016600D03*
X003843Y016640D03*
X003853Y016655D03*
X003863Y016670D03*
X003873Y016685D03*
X003883Y016700D03*
X003888Y016705D03*
X003893Y016715D03*
X003898Y016720D03*
X003903Y016730D03*
X003908Y016735D03*
X003913Y016740D03*
X003913Y016745D03*
X003918Y016750D03*
X003923Y016755D03*
X003928Y016765D03*
X003933Y016770D03*
X003938Y016775D03*
X003948Y016790D03*
X003228Y015825D03*
X003223Y015820D03*
X003218Y015815D03*
X003213Y015810D03*
X003208Y015805D03*
X003038Y013665D03*
X002553Y013610D03*
X002013Y013115D03*
X003798Y013170D03*
X003893Y013115D03*
X005048Y013180D03*
X006233Y013580D03*
X006498Y013580D03*
X006833Y013575D03*
X007128Y013575D03*
X006953Y013110D03*
D34*
X006810Y013205D03*
X006810Y013210D03*
X006810Y013215D03*
X006810Y013220D03*
X006810Y013225D03*
X006810Y013230D03*
X006810Y013235D03*
X006810Y013240D03*
X006810Y013245D03*
X006810Y013250D03*
X006810Y013255D03*
X006810Y013260D03*
X006810Y013265D03*
X006810Y013270D03*
X006810Y013275D03*
X006810Y013280D03*
X006810Y013285D03*
X006810Y013290D03*
X006810Y013295D03*
X006810Y013300D03*
X006810Y013305D03*
X006810Y013310D03*
X006810Y013315D03*
X006810Y013320D03*
X006810Y013325D03*
X006810Y013330D03*
X006810Y013335D03*
X006810Y013340D03*
X006810Y013345D03*
X006810Y013350D03*
X006810Y013355D03*
X006810Y013360D03*
X006810Y013365D03*
X006810Y013370D03*
X006810Y013375D03*
X006810Y013380D03*
X006810Y013385D03*
X006810Y013390D03*
X006810Y013395D03*
X006810Y013400D03*
X006810Y013405D03*
X006810Y013410D03*
X006810Y013415D03*
X006810Y013420D03*
X006810Y013425D03*
X006810Y013430D03*
X006810Y013435D03*
X006810Y013440D03*
X006810Y013445D03*
X006810Y013450D03*
X006810Y013455D03*
X006810Y013460D03*
X006810Y013465D03*
X006810Y013470D03*
X006810Y013475D03*
X006810Y013480D03*
X006810Y013485D03*
X006810Y013490D03*
X006810Y013495D03*
X006810Y013500D03*
X006810Y013505D03*
X006810Y013510D03*
X006810Y013515D03*
X006810Y013520D03*
X006810Y013525D03*
X006810Y013530D03*
X006810Y013535D03*
X006810Y013540D03*
X006810Y013545D03*
X006810Y013550D03*
X006810Y013645D03*
X006810Y013650D03*
X006810Y013655D03*
X006810Y013660D03*
X006810Y013665D03*
X006810Y013670D03*
X006810Y013675D03*
X006810Y013680D03*
X006810Y013685D03*
X006810Y013690D03*
X006810Y013695D03*
X006810Y013700D03*
X006810Y013705D03*
X006810Y013710D03*
X006810Y013715D03*
X006810Y013720D03*
X006810Y013725D03*
X006810Y013730D03*
X006810Y013735D03*
X006810Y013740D03*
X006810Y013745D03*
X006810Y013750D03*
X006810Y013755D03*
X006810Y013760D03*
X006810Y013765D03*
X006810Y013770D03*
X006810Y013775D03*
X006810Y013780D03*
X006810Y013785D03*
X006810Y013790D03*
X006810Y013795D03*
X006810Y013800D03*
X006810Y013805D03*
X006810Y013810D03*
X006810Y013815D03*
X006810Y013820D03*
X006810Y013825D03*
X006810Y013830D03*
X006810Y013835D03*
X006810Y013840D03*
X006810Y013845D03*
X006810Y013850D03*
X006810Y013855D03*
X006810Y013860D03*
X006810Y013865D03*
X006810Y013870D03*
X006810Y013875D03*
X006810Y013880D03*
X006810Y013885D03*
X006810Y013890D03*
X006810Y013895D03*
X006810Y013900D03*
X006810Y013905D03*
X006810Y013910D03*
X006810Y013915D03*
X006810Y013920D03*
X007430Y013875D03*
X007430Y013785D03*
X007430Y013665D03*
X007430Y013660D03*
X007430Y013655D03*
X007430Y013650D03*
X007430Y013645D03*
X007430Y013640D03*
X007430Y013635D03*
X007430Y013630D03*
X007430Y013625D03*
X007430Y013620D03*
X007430Y013615D03*
X007430Y013610D03*
X007430Y013605D03*
X007430Y013600D03*
X007430Y013595D03*
X007430Y013590D03*
X007430Y013585D03*
X007430Y013580D03*
X007430Y013575D03*
X007430Y013570D03*
X007430Y013565D03*
X007430Y013560D03*
X007430Y013555D03*
X007430Y013550D03*
X007430Y013545D03*
X007430Y013540D03*
X007430Y013535D03*
X007430Y013530D03*
X007430Y013525D03*
X007430Y013520D03*
X007430Y013515D03*
X007430Y013510D03*
X007430Y013505D03*
X007430Y013500D03*
X007430Y013495D03*
X007430Y013490D03*
X007430Y013485D03*
X007430Y013480D03*
X007430Y013475D03*
X007430Y013470D03*
X007430Y013465D03*
X007430Y013460D03*
X007430Y013455D03*
X007430Y013450D03*
X007430Y013445D03*
X007430Y013440D03*
X007430Y013435D03*
X007430Y013430D03*
X007430Y013425D03*
X007430Y013420D03*
X007430Y013415D03*
X007430Y013410D03*
X007430Y013405D03*
X007430Y013400D03*
X007430Y013395D03*
X007430Y013390D03*
X007430Y013385D03*
X007430Y013380D03*
X007430Y013375D03*
X007430Y013370D03*
X007430Y013365D03*
X007430Y013360D03*
X007430Y013355D03*
X007430Y013350D03*
X007430Y013345D03*
X007430Y013340D03*
X007430Y013335D03*
X007430Y013330D03*
X007430Y013325D03*
X007430Y013320D03*
X007430Y013315D03*
X007430Y013310D03*
X007430Y013305D03*
X007430Y013300D03*
X007430Y013295D03*
X007430Y013290D03*
X007430Y013285D03*
X007430Y013280D03*
X007430Y013275D03*
X007430Y013270D03*
X007430Y013265D03*
X007430Y013260D03*
X007430Y013255D03*
X007430Y013250D03*
X007430Y013245D03*
X007430Y013240D03*
X007430Y013235D03*
X007430Y013230D03*
X007430Y013225D03*
X007430Y013220D03*
X007430Y013215D03*
X007430Y013210D03*
X007430Y013205D03*
X007430Y013200D03*
X007430Y013195D03*
X007430Y013190D03*
X007430Y013185D03*
X007430Y013180D03*
X007430Y013175D03*
X007430Y013170D03*
X007430Y013165D03*
X007430Y013160D03*
X007430Y013155D03*
X007430Y013150D03*
X007430Y013145D03*
X007430Y013140D03*
X007430Y013135D03*
X007430Y013130D03*
X007430Y013125D03*
X007430Y013120D03*
X007675Y013475D03*
X008285Y013595D03*
X010265Y013595D03*
X010515Y013590D03*
X010520Y013585D03*
X010530Y013205D03*
X010525Y013200D03*
X011145Y013595D03*
X011530Y013180D03*
X010950Y014905D03*
X010915Y015465D03*
X010050Y016125D03*
X009130Y016150D03*
X006390Y014710D03*
X006375Y014715D03*
X006360Y014720D03*
X006350Y014725D03*
X006340Y014730D03*
X006330Y014735D03*
X006320Y014740D03*
X006310Y014745D03*
X006300Y014750D03*
X006295Y014755D03*
X006285Y014760D03*
X006270Y014770D03*
X006250Y014785D03*
X006230Y014800D03*
X006225Y014805D03*
X006180Y014850D03*
X005535Y015340D03*
X005525Y015345D03*
X005495Y015370D03*
X005490Y015375D03*
X005135Y015835D03*
X004750Y016225D03*
X004220Y016185D03*
X004215Y016200D03*
X004215Y016205D03*
X002750Y015130D03*
X003465Y013810D03*
X003750Y013585D03*
X004035Y013585D03*
X004040Y013580D03*
X004040Y013200D03*
X004035Y013195D03*
X003895Y013110D03*
X003750Y013195D03*
X003185Y013205D03*
X003180Y013200D03*
X003175Y013585D03*
X003170Y013590D03*
X002595Y013585D03*
X002610Y013210D03*
X002605Y013205D03*
X002445Y013110D03*
X002115Y013180D03*
X004755Y013195D03*
X004750Y013570D03*
X004755Y013575D03*
X005920Y013120D03*
D35*
X005073Y013200D03*
X004753Y013200D03*
X004748Y013205D03*
X004743Y013210D03*
X004738Y013555D03*
X004743Y013560D03*
X004748Y013565D03*
X004043Y013205D03*
X003748Y013200D03*
X003743Y013205D03*
X003738Y013210D03*
X003738Y013570D03*
X003743Y013575D03*
X003748Y013580D03*
X003463Y013800D03*
X003463Y013805D03*
X003463Y013850D03*
X003463Y013855D03*
X003183Y013580D03*
X002913Y013590D03*
X002908Y013585D03*
X002903Y013580D03*
X002608Y013575D03*
X002603Y013580D03*
X002618Y013220D03*
X002613Y013215D03*
X002123Y013185D03*
X002013Y013110D03*
X003188Y013210D03*
X003193Y013215D03*
X003198Y013220D03*
X005498Y015365D03*
X005503Y015360D03*
X005513Y015355D03*
X005518Y015350D03*
X004038Y015950D03*
X007713Y013195D03*
X010248Y013580D03*
X010253Y013585D03*
X010258Y013590D03*
X010528Y013580D03*
X010838Y013575D03*
X010843Y013580D03*
X010848Y013585D03*
X010548Y013225D03*
X010538Y013210D03*
X011538Y013185D03*
X010918Y015470D03*
X010923Y015475D03*
D36*
X010853Y015390D03*
X010678Y015520D03*
X010673Y015515D03*
X011258Y015255D03*
X011258Y015250D03*
X011263Y015260D03*
X011263Y015265D03*
X011268Y015270D03*
X011273Y015280D03*
X011253Y015240D03*
X011248Y015230D03*
X011248Y015225D03*
X011243Y015215D03*
X011388Y015400D03*
X011403Y015410D03*
X011408Y015415D03*
X011413Y015420D03*
X011428Y015430D03*
X011083Y014990D03*
X011078Y014985D03*
X011068Y014980D03*
X011063Y014975D03*
X011048Y014965D03*
X011558Y015865D03*
X011608Y015940D03*
X011613Y015955D03*
X010628Y016425D03*
X010623Y016430D03*
X010618Y016435D03*
X010093Y016675D03*
X009658Y016725D03*
X009653Y016720D03*
X009653Y016715D03*
X009648Y016710D03*
X009643Y016700D03*
X009638Y016695D03*
X009603Y016440D03*
X009598Y016435D03*
X009363Y016710D03*
X009363Y016715D03*
X009363Y016720D03*
X009363Y016725D03*
X009368Y016735D03*
X009368Y016740D03*
X009373Y016750D03*
X009373Y016755D03*
X009378Y016765D03*
X008943Y015935D03*
X008938Y015930D03*
X008938Y015925D03*
X008638Y015940D03*
X008598Y015765D03*
X008243Y015730D03*
X008238Y015740D03*
X008233Y015745D03*
X008228Y015750D03*
X008508Y015115D03*
X009258Y015620D03*
X009718Y015370D03*
X009728Y015365D03*
X011388Y016810D03*
X011383Y016820D03*
X011383Y016825D03*
X011378Y016830D03*
X011373Y016840D03*
X007673Y014720D03*
X007658Y014710D03*
X007168Y014710D03*
X006603Y014775D03*
X005343Y015820D03*
X004478Y016235D03*
X004448Y016195D03*
X004403Y016490D03*
X004038Y016895D03*
X004043Y016900D03*
X004048Y016905D03*
X004053Y016910D03*
X004058Y016915D03*
X003153Y015750D03*
X003183Y015120D03*
X004158Y015460D03*
X006253Y013590D03*
X006478Y013590D03*
X006483Y013195D03*
X007103Y013200D03*
X007963Y013200D03*
X008293Y013340D03*
X008473Y013445D03*
X008478Y013595D03*
X008818Y013195D03*
X009048Y013590D03*
X010358Y013115D03*
X010898Y013610D03*
D37*
X010988Y013665D03*
X009708Y013205D03*
X009428Y013200D03*
X008933Y013115D03*
X008478Y013450D03*
X008288Y013335D03*
X007973Y013205D03*
X007113Y013205D03*
X007113Y013585D03*
X006838Y013580D03*
X005633Y013585D03*
X006603Y014765D03*
X006603Y014770D03*
X007168Y014705D03*
X007168Y014700D03*
X007208Y014665D03*
X008608Y015775D03*
X008643Y015935D03*
X008948Y015950D03*
X009258Y015630D03*
X009258Y015625D03*
X009673Y015400D03*
X009678Y015395D03*
X009688Y015390D03*
X010043Y016095D03*
X009588Y016425D03*
X009583Y016420D03*
X009578Y016415D03*
X009573Y016410D03*
X009568Y016405D03*
X009503Y016540D03*
X010643Y016410D03*
X010648Y016405D03*
X011413Y016755D03*
X011413Y016760D03*
X011408Y016770D03*
X011403Y016780D03*
X011418Y016750D03*
X011418Y016745D03*
X011423Y016740D03*
X011423Y016735D03*
X011428Y016725D03*
X011433Y016715D03*
X011438Y016700D03*
X011618Y015990D03*
X011458Y015455D03*
X011453Y015450D03*
X011448Y015445D03*
X011233Y015190D03*
X011228Y015180D03*
X011228Y015175D03*
X011223Y015170D03*
X011223Y015165D03*
X011218Y015155D03*
X011213Y015145D03*
X011133Y015030D03*
X011128Y015025D03*
X011123Y015020D03*
X011103Y015005D03*
X011033Y014955D03*
X011023Y014950D03*
X010863Y015400D03*
X010688Y015530D03*
X010698Y015545D03*
X010703Y015550D03*
X010708Y015555D03*
X005498Y016095D03*
X005348Y015810D03*
X005453Y015670D03*
X004468Y016225D03*
X004463Y016220D03*
X004458Y016215D03*
X004453Y016205D03*
X004258Y016305D03*
X004398Y016495D03*
X003998Y016850D03*
X003993Y016845D03*
X003988Y016840D03*
X003983Y016835D03*
X004013Y016870D03*
X004018Y016875D03*
X004023Y016880D03*
X003603Y015230D03*
X002443Y013115D03*
D38*
X003893Y013125D03*
X003893Y013655D03*
X004143Y015515D03*
X004143Y015520D03*
X003988Y015760D03*
X004428Y016170D03*
X004508Y016250D03*
X004418Y016460D03*
X004208Y017035D03*
X004218Y017040D03*
X005063Y016165D03*
X005093Y016115D03*
X005093Y016110D03*
X006058Y016860D03*
X006063Y016855D03*
X006073Y016850D03*
X006078Y016845D03*
X006093Y016835D03*
X006113Y016820D03*
X006298Y016700D03*
X006308Y016695D03*
X006318Y016690D03*
X006323Y016685D03*
X006333Y016680D03*
X006343Y016675D03*
X006353Y016670D03*
X007368Y016705D03*
X007378Y016710D03*
X008018Y017185D03*
X008033Y017195D03*
X008038Y017200D03*
X008043Y017205D03*
X008053Y017210D03*
X008058Y017215D03*
X008063Y017220D03*
X008678Y016610D03*
X008678Y016605D03*
X008683Y016615D03*
X008678Y016470D03*
X008683Y016460D03*
X008683Y016455D03*
X009133Y016485D03*
X009133Y016490D03*
X009133Y016495D03*
X009138Y016505D03*
X009138Y016510D03*
X009138Y016515D03*
X009133Y016590D03*
X009133Y016595D03*
X009133Y016600D03*
X009128Y016610D03*
X009398Y016790D03*
X009608Y016665D03*
X009678Y016760D03*
X009698Y016505D03*
X009688Y016500D03*
X010028Y016050D03*
X010028Y016045D03*
X009798Y015330D03*
X010568Y015415D03*
X010573Y015420D03*
X008923Y015875D03*
X008923Y015880D03*
X008198Y015810D03*
X008513Y015135D03*
X007668Y014740D03*
X007183Y014725D03*
X006488Y014695D03*
X006998Y013660D03*
X006948Y013115D03*
X007848Y013660D03*
X008438Y013425D03*
X008418Y013115D03*
X010358Y013120D03*
X008903Y016850D03*
X011128Y017120D03*
X011133Y017115D03*
X011158Y017095D03*
X011163Y017090D03*
X011168Y017085D03*
X011173Y017080D03*
X011178Y017075D03*
X011183Y017070D03*
X011188Y017065D03*
X011193Y017060D03*
X003063Y015670D03*
X003053Y015665D03*
D39*
X003008Y015635D03*
X003203Y015310D03*
X004413Y015965D03*
X004428Y016440D03*
X004303Y017085D03*
X005508Y016075D03*
X005683Y015820D03*
X005688Y015815D03*
X005693Y015810D03*
X005698Y015800D03*
X005683Y015285D03*
X006438Y016630D03*
X006448Y016625D03*
X005908Y016960D03*
X005893Y016970D03*
X005883Y016975D03*
X008193Y015835D03*
X008913Y015840D03*
X009088Y016075D03*
X009098Y016420D03*
X009108Y016645D03*
X008903Y016845D03*
X008708Y016655D03*
X008713Y016410D03*
X009743Y016530D03*
X010023Y016015D03*
X010023Y016010D03*
X010468Y016530D03*
X010843Y017330D03*
X010828Y017340D03*
X010818Y017345D03*
X010813Y017350D03*
X008343Y017420D03*
X008328Y017410D03*
X008323Y017405D03*
X008313Y017400D03*
X008298Y017390D03*
X009843Y015315D03*
X010498Y015370D03*
X010798Y015330D03*
X008513Y015150D03*
X010388Y013645D03*
X009548Y013130D03*
X008933Y013130D03*
X008418Y013120D03*
X004903Y013130D03*
X004943Y013660D03*
X002438Y013655D03*
D40*
X002440Y013125D03*
X003015Y015640D03*
X004060Y015905D03*
X004410Y015955D03*
X004410Y015960D03*
X005025Y016205D03*
X005030Y016200D03*
X005090Y016095D03*
X005695Y015805D03*
X005725Y015350D03*
X006575Y014825D03*
X006485Y014700D03*
X006365Y013655D03*
X006365Y013130D03*
X006995Y013655D03*
X007815Y013120D03*
X008375Y013390D03*
X008385Y013395D03*
X008935Y013655D03*
X009595Y013665D03*
X010990Y013655D03*
X010505Y015375D03*
X010515Y015380D03*
X010130Y015700D03*
X010480Y016525D03*
X009685Y016770D03*
X009110Y016640D03*
X009105Y016430D03*
X009100Y016425D03*
X009090Y016080D03*
X008915Y015850D03*
X008915Y015845D03*
X008560Y015725D03*
X008335Y016235D03*
X008710Y016415D03*
X008705Y016650D03*
X008255Y017360D03*
X008270Y017370D03*
X008275Y017375D03*
X008285Y017380D03*
X008290Y017385D03*
X008305Y017395D03*
X007305Y016670D03*
X007295Y016665D03*
X005915Y016955D03*
X005900Y016965D03*
X004425Y016445D03*
X004290Y017080D03*
X009520Y017900D03*
X010835Y017335D03*
X010850Y017325D03*
X010860Y017320D03*
X010865Y017315D03*
X010875Y017310D03*
X010880Y017305D03*
X010895Y017295D03*
D41*
X010723Y017405D03*
X010713Y017410D03*
X010708Y017415D03*
X010698Y017420D03*
X009093Y016660D03*
X008728Y016400D03*
X009083Y016060D03*
X008908Y015815D03*
X008518Y015160D03*
X010023Y015985D03*
X010023Y015990D03*
X010783Y015315D03*
X010993Y013650D03*
X011423Y013140D03*
X009548Y013135D03*
X006943Y013120D03*
X006568Y014835D03*
X005678Y015295D03*
X005668Y015840D03*
X004998Y016230D03*
X004418Y016000D03*
X004418Y015995D03*
X002978Y015620D03*
X004348Y017105D03*
X005803Y017020D03*
X005813Y017015D03*
X005823Y017010D03*
X006488Y016610D03*
X007243Y016640D03*
X008443Y017485D03*
X008453Y017490D03*
X008458Y017495D03*
X004903Y013135D03*
X003893Y013140D03*
X002438Y013130D03*
X002008Y013140D03*
D42*
X002440Y013660D03*
X003010Y013120D03*
X004900Y013125D03*
X006365Y013125D03*
X006365Y013660D03*
X007580Y014675D03*
X006585Y014810D03*
X005690Y015275D03*
X005720Y015340D03*
X005095Y016105D03*
X005055Y016170D03*
X004420Y016455D03*
X004225Y017045D03*
X004235Y017050D03*
X006005Y016895D03*
X006020Y016885D03*
X006035Y016875D03*
X006040Y016870D03*
X006050Y016865D03*
X007350Y016695D03*
X007360Y016700D03*
X008070Y017225D03*
X008075Y017230D03*
X008085Y017235D03*
X008090Y017240D03*
X008095Y017245D03*
X008105Y017250D03*
X008110Y017255D03*
X008130Y017270D03*
X008685Y016625D03*
X008685Y016620D03*
X008685Y016450D03*
X008690Y016445D03*
X008690Y016440D03*
X009125Y016465D03*
X009125Y016470D03*
X009130Y016475D03*
X009130Y016480D03*
X009130Y016605D03*
X009125Y016615D03*
X009095Y016095D03*
X008920Y015870D03*
X008570Y015735D03*
X009705Y016510D03*
X010515Y016505D03*
X010525Y016500D03*
X011090Y017150D03*
X011085Y017155D03*
X011080Y017160D03*
X011060Y017175D03*
X011055Y017180D03*
X011035Y017195D03*
X011105Y017140D03*
X011110Y017135D03*
X011115Y017130D03*
X011120Y017125D03*
X011140Y017110D03*
X011145Y017105D03*
X011150Y017100D03*
X010815Y015350D03*
X010560Y015410D03*
X008935Y013660D03*
X008430Y013420D03*
X008340Y013370D03*
X009545Y013125D03*
X004240Y015840D03*
X003225Y015335D03*
X003220Y015330D03*
X003045Y015660D03*
X001990Y015350D03*
D43*
X003070Y015675D03*
X003075Y015680D03*
X004050Y015915D03*
X004145Y015510D03*
X005090Y016120D03*
X005085Y016130D03*
X005080Y016140D03*
X005075Y016145D03*
X005070Y016150D03*
X005070Y016155D03*
X005065Y016160D03*
X005505Y016085D03*
X006105Y016825D03*
X006100Y016830D03*
X006085Y016840D03*
X006120Y016815D03*
X006130Y016810D03*
X006135Y016805D03*
X006140Y016800D03*
X006150Y016795D03*
X006155Y016790D03*
X006165Y016785D03*
X006170Y016780D03*
X006180Y016775D03*
X006185Y016770D03*
X006195Y016765D03*
X006200Y016760D03*
X006210Y016755D03*
X006215Y016750D03*
X006225Y016745D03*
X006240Y016735D03*
X006255Y016725D03*
X006265Y016720D03*
X006275Y016715D03*
X006280Y016710D03*
X006290Y016705D03*
X007385Y016715D03*
X007395Y016720D03*
X007410Y016730D03*
X007980Y017155D03*
X007985Y017160D03*
X008000Y017170D03*
X008005Y017175D03*
X008010Y017180D03*
X008025Y017190D03*
X008675Y016600D03*
X008675Y016595D03*
X008675Y016590D03*
X008670Y016585D03*
X008670Y016580D03*
X008670Y016575D03*
X008670Y016500D03*
X008670Y016495D03*
X008675Y016480D03*
X008675Y016475D03*
X008680Y016465D03*
X009135Y016500D03*
X009140Y016520D03*
X009140Y016525D03*
X009140Y016530D03*
X009140Y016535D03*
X009140Y016540D03*
X009140Y016545D03*
X009140Y016550D03*
X009140Y016555D03*
X009140Y016560D03*
X009140Y016565D03*
X009140Y016570D03*
X009135Y016575D03*
X009135Y016580D03*
X009135Y016585D03*
X009100Y016100D03*
X008925Y015885D03*
X008620Y015955D03*
X008575Y015740D03*
X008200Y015800D03*
X008200Y015805D03*
X007595Y014680D03*
X007375Y014620D03*
X006590Y014805D03*
X005775Y013670D03*
X008330Y013365D03*
X010385Y013655D03*
X011425Y013125D03*
X010820Y015355D03*
X010825Y015360D03*
X010585Y015430D03*
X010580Y015425D03*
X010130Y015695D03*
X010030Y016055D03*
X009680Y016495D03*
X010535Y016495D03*
X011200Y017055D03*
X011205Y017050D03*
X011210Y017045D03*
X011215Y017040D03*
X011220Y017035D03*
X011225Y017030D03*
X011230Y017025D03*
X011235Y017020D03*
X011240Y017015D03*
X011245Y017010D03*
X004415Y016465D03*
X004185Y017020D03*
X004200Y017030D03*
X003040Y013655D03*
X002440Y013120D03*
X002010Y013125D03*
D44*
X003010Y013125D03*
X003040Y013645D03*
X003895Y013135D03*
X003260Y015350D03*
X004245Y015850D03*
X004350Y015905D03*
X004415Y015970D03*
X004415Y015975D03*
X005015Y016215D03*
X005020Y016210D03*
X005680Y015825D03*
X005705Y015795D03*
X005680Y015290D03*
X007540Y014665D03*
X008190Y015840D03*
X008720Y016405D03*
X009090Y016415D03*
X009085Y016070D03*
X009500Y016555D03*
X009755Y016535D03*
X009100Y016650D03*
X008335Y017415D03*
X008350Y017425D03*
X008365Y017435D03*
X008380Y017445D03*
X007285Y016660D03*
X007275Y016655D03*
X005875Y016980D03*
X005865Y016985D03*
X004325Y017095D03*
X004315Y017090D03*
X002010Y015355D03*
X010020Y016005D03*
X010790Y015325D03*
X010805Y017355D03*
X010795Y017360D03*
X010790Y017365D03*
X010780Y017370D03*
X010355Y013125D03*
X011425Y013135D03*
D45*
X010133Y015220D03*
X009813Y015325D03*
X010538Y015395D03*
X010548Y015400D03*
X010553Y015405D03*
X010813Y015345D03*
X010028Y016035D03*
X010028Y016040D03*
X009713Y016515D03*
X009503Y016550D03*
X009683Y016765D03*
X009123Y016620D03*
X009123Y016460D03*
X009118Y016450D03*
X009093Y016090D03*
X008698Y016430D03*
X008693Y016435D03*
X008688Y016630D03*
X008693Y016635D03*
X008193Y017315D03*
X008173Y017300D03*
X008158Y017290D03*
X008153Y017285D03*
X008143Y017280D03*
X008138Y017275D03*
X008123Y017265D03*
X008118Y017260D03*
X007343Y016690D03*
X007333Y016685D03*
X006393Y016650D03*
X006383Y016655D03*
X006373Y016660D03*
X006363Y016665D03*
X006028Y016880D03*
X006013Y016890D03*
X005998Y016900D03*
X005993Y016905D03*
X005983Y016910D03*
X005053Y016175D03*
X005048Y016180D03*
X005043Y016185D03*
X004423Y016165D03*
X004053Y015910D03*
X004138Y015525D03*
X003233Y015340D03*
X003213Y015325D03*
X003038Y015655D03*
X004243Y017055D03*
X004253Y017060D03*
X005713Y015335D03*
X006583Y014815D03*
X007508Y015815D03*
X008198Y015815D03*
X008513Y015140D03*
X010508Y016510D03*
X011028Y017200D03*
X011023Y017205D03*
X011008Y017215D03*
X011003Y017220D03*
X010988Y017230D03*
X010968Y017245D03*
X011043Y017190D03*
X011048Y017185D03*
X011068Y017170D03*
X011073Y017165D03*
X011098Y017145D03*
X008363Y013665D03*
X008418Y013415D03*
X008348Y013375D03*
X008933Y013125D03*
D46*
X008935Y013140D03*
X008420Y013125D03*
X009600Y013660D03*
X010385Y013635D03*
X010355Y013130D03*
X011430Y013155D03*
X011435Y013160D03*
X010120Y014750D03*
X010435Y015340D03*
X010130Y015710D03*
X010025Y015975D03*
X009790Y016550D03*
X009690Y016780D03*
X010420Y016550D03*
X010655Y017445D03*
X010645Y017450D03*
X008740Y016395D03*
X008730Y016670D03*
X009075Y016045D03*
X008905Y015800D03*
X008190Y015865D03*
X007220Y016630D03*
X008515Y017530D03*
X008525Y017535D03*
X008530Y017540D03*
X008540Y017545D03*
X008550Y017550D03*
X005760Y017040D03*
X004985Y016240D03*
X004430Y016420D03*
X004415Y016025D03*
X004415Y016020D03*
X005655Y015855D03*
X006560Y014845D03*
X007510Y014660D03*
X008520Y015170D03*
X006995Y013645D03*
X006365Y013645D03*
X006365Y013140D03*
X004900Y013140D03*
X004350Y013645D03*
X003040Y013635D03*
X003010Y013130D03*
X002440Y013645D03*
X002020Y013160D03*
X002015Y013155D03*
X002810Y015145D03*
X002960Y015610D03*
D47*
X004415Y016005D03*
X004415Y016010D03*
X004415Y016015D03*
X004430Y016425D03*
X005665Y015845D03*
X006505Y016605D03*
X008190Y015860D03*
X008190Y015855D03*
X009080Y016055D03*
X009500Y016560D03*
X009775Y016545D03*
X010435Y016545D03*
X010690Y017425D03*
X010680Y017430D03*
X008900Y016840D03*
X008475Y017505D03*
X008465Y017500D03*
X008490Y017515D03*
X009860Y015310D03*
X010460Y015350D03*
X011425Y013145D03*
X007815Y013125D03*
X007205Y014735D03*
X006565Y014840D03*
X003895Y013640D03*
X002440Y013650D03*
X002010Y013145D03*
D48*
X002448Y013145D03*
X004403Y016065D03*
X004398Y016070D03*
X004398Y016075D03*
X004423Y017130D03*
X005688Y017070D03*
X005703Y017065D03*
X006543Y016595D03*
X007183Y016615D03*
X008193Y015885D03*
X008903Y015770D03*
X009693Y016785D03*
X010573Y017490D03*
X010583Y017485D03*
X008668Y017615D03*
X008658Y017610D03*
X008648Y017605D03*
X006623Y015550D03*
X006628Y015545D03*
X007848Y013635D03*
X008423Y013130D03*
X006938Y013125D03*
X010758Y015290D03*
D49*
X010805Y015340D03*
X010530Y015390D03*
X010025Y016030D03*
X009720Y016520D03*
X009120Y016455D03*
X009115Y016445D03*
X009110Y016440D03*
X009120Y016625D03*
X009120Y016630D03*
X009115Y016635D03*
X008695Y016640D03*
X008700Y016425D03*
X008895Y016260D03*
X008920Y015865D03*
X008920Y015860D03*
X008565Y015730D03*
X008195Y015820D03*
X007325Y016680D03*
X006415Y016640D03*
X006405Y016645D03*
X005975Y016915D03*
X005970Y016920D03*
X005960Y016925D03*
X005955Y016930D03*
X005505Y016080D03*
X005095Y016100D03*
X005040Y016190D03*
X004830Y016395D03*
X004400Y015940D03*
X004395Y015935D03*
X004390Y015930D03*
X004385Y015925D03*
X004380Y015920D03*
X004370Y015915D03*
X005320Y015845D03*
X005720Y015345D03*
X004330Y013660D03*
X003040Y013650D03*
X002010Y013130D03*
X003210Y015320D03*
X003245Y015345D03*
X003030Y015650D03*
X004260Y017065D03*
X004270Y017070D03*
X008165Y017295D03*
X008180Y017305D03*
X008185Y017310D03*
X008200Y017320D03*
X008205Y017325D03*
X008220Y017335D03*
X010500Y016515D03*
X011015Y017210D03*
X010995Y017225D03*
X010980Y017235D03*
X010975Y017240D03*
X010960Y017250D03*
X010955Y017255D03*
X010945Y017260D03*
X010940Y017265D03*
X010925Y017275D03*
X010385Y013650D03*
X011425Y013130D03*
X008410Y013410D03*
X008355Y013380D03*
D50*
X008368Y013645D03*
X008363Y013650D03*
X008933Y013640D03*
X008933Y013145D03*
X007813Y013130D03*
X010133Y015225D03*
X010413Y015330D03*
X010763Y015295D03*
X010028Y015965D03*
X009073Y016030D03*
X008903Y015785D03*
X008903Y015780D03*
X008193Y015880D03*
X007508Y015800D03*
X007193Y016620D03*
X006588Y015590D03*
X006593Y015585D03*
X006598Y015580D03*
X006603Y015575D03*
X006608Y015570D03*
X005668Y015310D03*
X005648Y015860D03*
X004408Y016045D03*
X004408Y016050D03*
X004408Y017125D03*
X005728Y017055D03*
X002938Y015600D03*
X003153Y015145D03*
X002453Y013635D03*
X004358Y013640D03*
X004363Y013625D03*
X004363Y013620D03*
X004363Y013615D03*
X004903Y013145D03*
X008903Y016835D03*
X008603Y017580D03*
X008613Y017585D03*
X010593Y017480D03*
X010603Y017475D03*
X011463Y013605D03*
D51*
X010368Y013155D03*
X008933Y013160D03*
X008933Y013625D03*
X006933Y013130D03*
X005793Y013655D03*
X004953Y013645D03*
X003893Y013615D03*
X003893Y013165D03*
X003028Y013160D03*
X003023Y013155D03*
X005658Y015330D03*
X006653Y015515D03*
X008203Y015910D03*
X008903Y015730D03*
X008903Y015725D03*
X008903Y015720D03*
X008518Y015200D03*
X010043Y015950D03*
X010368Y015315D03*
X008903Y016825D03*
X008753Y017655D03*
X010498Y017530D03*
X010508Y017525D03*
X004378Y016120D03*
D52*
X004408Y015950D03*
X004403Y015945D03*
X004363Y015910D03*
X004243Y015845D03*
X005033Y016195D03*
X004423Y016450D03*
X004283Y017075D03*
X005923Y016950D03*
X005933Y016945D03*
X005938Y016940D03*
X005948Y016935D03*
X006428Y016635D03*
X007318Y016675D03*
X008213Y017330D03*
X008228Y017340D03*
X008233Y017345D03*
X008243Y017350D03*
X008248Y017355D03*
X008263Y017365D03*
X008698Y016645D03*
X008703Y016420D03*
X009108Y016435D03*
X009093Y016085D03*
X008918Y015855D03*
X008193Y015830D03*
X008193Y015825D03*
X008513Y015145D03*
X007563Y014670D03*
X007193Y014730D03*
X006578Y014820D03*
X005688Y015280D03*
X003588Y015235D03*
X003208Y015315D03*
X003173Y015130D03*
X002788Y015140D03*
X003023Y015645D03*
X003893Y013650D03*
X003893Y013130D03*
X007848Y013655D03*
X008368Y013385D03*
X008393Y013400D03*
X008403Y013405D03*
X009828Y015320D03*
X010523Y015385D03*
X010803Y015335D03*
X010023Y016020D03*
X010023Y016025D03*
X009733Y016525D03*
X010488Y016520D03*
X010933Y017270D03*
X010918Y017280D03*
X010913Y017285D03*
X010903Y017290D03*
X010888Y017300D03*
D53*
X009500Y016570D03*
X009070Y016670D03*
X008340Y016225D03*
X008900Y015775D03*
X009070Y016025D03*
X010030Y015960D03*
X010130Y015715D03*
X009885Y015305D03*
X008520Y015180D03*
X006620Y015555D03*
X006615Y015560D03*
X006610Y015565D03*
X006580Y015595D03*
X006575Y015600D03*
X005665Y015315D03*
X006550Y014855D03*
X005785Y013660D03*
X006365Y013145D03*
X008370Y013640D03*
X010385Y013625D03*
X010355Y013135D03*
X011460Y013610D03*
X011460Y013615D03*
X011460Y013620D03*
X011460Y013625D03*
X011460Y013630D03*
X011460Y013635D03*
X011460Y013640D03*
X011460Y013645D03*
X011460Y013650D03*
X011460Y013655D03*
X011460Y013660D03*
X006845Y016510D03*
X005715Y017060D03*
X005515Y016055D03*
X004405Y016055D03*
X004405Y016060D03*
X004435Y016410D03*
X002925Y015595D03*
X002045Y015365D03*
X002045Y013660D03*
X002045Y013655D03*
X002045Y013650D03*
X002045Y013645D03*
X002045Y013640D03*
X002045Y013635D03*
X002045Y013630D03*
X002045Y013625D03*
X002045Y013620D03*
X002045Y013615D03*
X002045Y013610D03*
X002045Y013605D03*
X002455Y013630D03*
X002460Y013625D03*
X002440Y013140D03*
X003010Y013135D03*
X003040Y013625D03*
X003895Y013630D03*
X004360Y013630D03*
X004360Y013635D03*
X003895Y013150D03*
X008620Y017590D03*
X008630Y017595D03*
X008640Y017600D03*
D54*
X008435Y017480D03*
X008425Y017475D03*
X008420Y017470D03*
X008410Y017465D03*
X008395Y017455D03*
X008720Y016665D03*
X008895Y016265D03*
X009080Y016405D03*
X009085Y016065D03*
X008910Y015825D03*
X008910Y015820D03*
X008190Y015850D03*
X007255Y016645D03*
X005840Y017000D03*
X005830Y017005D03*
X005510Y016070D03*
X005085Y016090D03*
X005005Y016225D03*
X004430Y016430D03*
X004415Y015990D03*
X003165Y015135D03*
X003040Y013640D03*
X006365Y013650D03*
X006365Y013135D03*
X006995Y013650D03*
X008360Y013660D03*
X008935Y013650D03*
X008935Y013135D03*
X010385Y013640D03*
X010470Y015355D03*
X010130Y015705D03*
X010445Y016540D03*
X010095Y016670D03*
X009765Y016540D03*
X010730Y017400D03*
X010740Y017395D03*
D55*
X010528Y017515D03*
X010518Y017520D03*
X010373Y016565D03*
X009838Y016565D03*
X008903Y015745D03*
X008518Y015195D03*
X008198Y015900D03*
X007153Y016605D03*
X006568Y016590D03*
X006643Y015525D03*
X007378Y014630D03*
X007848Y013625D03*
X008388Y013615D03*
X008423Y013135D03*
X008933Y013155D03*
X010388Y013615D03*
X010748Y015280D03*
X010383Y015320D03*
X008738Y017650D03*
X008728Y017645D03*
X004458Y017140D03*
X004443Y016400D03*
X004383Y016110D03*
X004383Y016105D03*
X004388Y016100D03*
X002888Y015580D03*
X002068Y015370D03*
X003043Y013615D03*
X002463Y013165D03*
X002458Y013160D03*
X003893Y013160D03*
X003893Y013620D03*
D56*
X003893Y013625D03*
X003893Y013155D03*
X002468Y013615D03*
X002913Y015590D03*
X004393Y016085D03*
X004393Y016090D03*
X004438Y016405D03*
X004438Y017135D03*
X005663Y017080D03*
X006238Y015930D03*
X006563Y015610D03*
X006638Y015535D03*
X005663Y015320D03*
X007168Y016610D03*
X008198Y015895D03*
X008898Y016275D03*
X009068Y016010D03*
X009498Y016575D03*
X008903Y016830D03*
X008688Y017625D03*
X008698Y017630D03*
X008708Y017635D03*
X010548Y017505D03*
X010753Y015285D03*
X008518Y015190D03*
X008378Y013630D03*
X007848Y013630D03*
X007813Y013135D03*
X010358Y013140D03*
X010388Y013620D03*
D57*
X011023Y013640D03*
X010728Y015260D03*
X010133Y015230D03*
X008923Y015660D03*
X008918Y015670D03*
X008208Y015920D03*
X007828Y015505D03*
X007778Y015525D03*
X008518Y015210D03*
X009498Y016590D03*
X010458Y017550D03*
X006663Y015505D03*
X006523Y014880D03*
X005043Y016080D03*
X005043Y016085D03*
X004363Y016150D03*
X004363Y016155D03*
X004358Y016160D03*
X005573Y017110D03*
X006933Y013135D03*
X007833Y013160D03*
X008408Y013155D03*
D58*
X008358Y013655D03*
X007848Y013640D03*
X005673Y015305D03*
X005513Y016060D03*
X004413Y016035D03*
X004413Y016030D03*
X002948Y015605D03*
X004393Y017120D03*
X005748Y017045D03*
X006523Y016600D03*
X007208Y016625D03*
X008193Y015870D03*
X008903Y015795D03*
X009078Y016040D03*
X010028Y015970D03*
X010768Y015300D03*
X010638Y017455D03*
X010628Y017460D03*
X008568Y017560D03*
X008558Y017555D03*
X004948Y013655D03*
X003893Y013635D03*
X003893Y013145D03*
X002438Y013135D03*
X002023Y013165D03*
X002448Y013640D03*
X011438Y013165D03*
D59*
X010788Y015320D03*
X010488Y015365D03*
X010478Y015360D03*
X010023Y015995D03*
X010023Y016000D03*
X010458Y016535D03*
X010198Y016800D03*
X009688Y016775D03*
X009098Y016655D03*
X009088Y016410D03*
X008713Y016660D03*
X008358Y017430D03*
X008373Y017440D03*
X008388Y017450D03*
X008403Y017460D03*
X007268Y016650D03*
X006478Y016615D03*
X006463Y016620D03*
X005858Y016990D03*
X005848Y016995D03*
X005008Y016220D03*
X004428Y016435D03*
X004418Y015985D03*
X004418Y015980D03*
X003203Y015305D03*
X002998Y015630D03*
X002988Y015625D03*
X004338Y017100D03*
X005673Y015835D03*
X005678Y015830D03*
X005713Y015790D03*
X006233Y015935D03*
X007508Y015810D03*
X008193Y015845D03*
X008553Y015720D03*
X008913Y015830D03*
X008913Y015835D03*
X008518Y015155D03*
X007848Y013650D03*
X006573Y014830D03*
X005778Y013665D03*
X004333Y013655D03*
X003893Y013645D03*
X002008Y013135D03*
X010748Y017390D03*
X010758Y017385D03*
X010763Y017380D03*
X010773Y017375D03*
D60*
X010673Y017435D03*
X010663Y017440D03*
X009083Y016665D03*
X009073Y016400D03*
X009078Y016050D03*
X008908Y015810D03*
X008908Y015805D03*
X008543Y015715D03*
X008338Y016230D03*
X007508Y015805D03*
X008518Y015165D03*
X007378Y014625D03*
X007848Y013645D03*
X008933Y013645D03*
X009548Y013140D03*
X011428Y013150D03*
X010773Y015305D03*
X010778Y015310D03*
X010448Y015345D03*
X010023Y015980D03*
X008508Y017525D03*
X008498Y017520D03*
X008483Y017510D03*
X007233Y016635D03*
X005793Y017025D03*
X005783Y017030D03*
X005773Y017035D03*
X005513Y016065D03*
X005663Y015850D03*
X005673Y015300D03*
X004993Y016235D03*
X004378Y017115D03*
X004363Y017110D03*
X002968Y015615D03*
X003163Y015140D03*
X002028Y015360D03*
X004343Y013650D03*
X002013Y013150D03*
D61*
X002875Y015575D03*
X004370Y016135D03*
X004375Y016125D03*
X004445Y016395D03*
X005515Y016040D03*
X006530Y014875D03*
X007850Y013620D03*
X007820Y013145D03*
X008420Y013140D03*
X006365Y013160D03*
X008905Y015710D03*
X008905Y015715D03*
X008895Y016280D03*
X010485Y017535D03*
X008765Y017660D03*
X007135Y016600D03*
X005605Y017100D03*
X010735Y015270D03*
X010375Y013160D03*
D62*
X010365Y013150D03*
X010115Y014755D03*
X010740Y015275D03*
X010130Y015725D03*
X009500Y016580D03*
X008900Y015740D03*
X008900Y015735D03*
X008340Y016220D03*
X008200Y015905D03*
X007505Y015790D03*
X006650Y015520D03*
X006545Y015620D03*
X006535Y014870D03*
X006365Y013625D03*
X007815Y013140D03*
X008390Y013605D03*
X008390Y013610D03*
X008395Y013600D03*
X005515Y016045D03*
X004380Y016115D03*
X005620Y017095D03*
X005635Y017090D03*
X003020Y013150D03*
D63*
X004943Y013630D03*
X006518Y014885D03*
X006668Y015500D03*
X006848Y016515D03*
X005558Y017115D03*
X005048Y016070D03*
X004453Y016390D03*
X004058Y015755D03*
X004043Y015725D03*
X004038Y015715D03*
X004038Y015710D03*
X007383Y014635D03*
X008518Y015215D03*
X008938Y015635D03*
X008933Y015640D03*
X008213Y015930D03*
X008343Y016210D03*
X008898Y016285D03*
X010433Y017560D03*
X011018Y013635D03*
X009608Y013645D03*
X008398Y013170D03*
X007838Y013165D03*
X006938Y013140D03*
D64*
X006365Y013150D03*
X006365Y013635D03*
X006545Y014860D03*
X006630Y015540D03*
X006570Y015605D03*
X007505Y015795D03*
X008195Y015890D03*
X008900Y015765D03*
X008900Y015760D03*
X009070Y016015D03*
X009070Y016020D03*
X009820Y016560D03*
X010390Y016560D03*
X010035Y015955D03*
X010400Y015325D03*
X008520Y015185D03*
X008375Y013635D03*
X008935Y013635D03*
X008935Y013150D03*
X004950Y013650D03*
X003040Y013620D03*
X003010Y013140D03*
X002450Y013150D03*
X002465Y013620D03*
X004395Y016080D03*
X005515Y016050D03*
X005675Y017075D03*
X008675Y017620D03*
X010555Y017500D03*
X010565Y017495D03*
D65*
X010535Y017510D03*
X010095Y016665D03*
X010130Y015720D03*
X008900Y015750D03*
X008900Y015755D03*
X007230Y014740D03*
X006540Y014865D03*
X005660Y015325D03*
X006555Y015615D03*
X006640Y015530D03*
X005650Y017085D03*
X004390Y016095D03*
X002900Y015585D03*
X003015Y013145D03*
X002455Y013155D03*
X006365Y013155D03*
X006365Y013630D03*
X008380Y013625D03*
X008385Y013620D03*
X008935Y013630D03*
X009605Y013655D03*
X010360Y013145D03*
X008715Y017640D03*
D66*
X008825Y017680D03*
X009495Y016615D03*
X009495Y016610D03*
X008960Y015610D03*
X010110Y014760D03*
X010710Y015245D03*
X009595Y013630D03*
X009595Y013145D03*
X008935Y013185D03*
X006950Y013155D03*
X006365Y013185D03*
X006365Y013600D03*
X005785Y013630D03*
X004930Y013160D03*
X006685Y015490D03*
X006510Y015630D03*
X007090Y016590D03*
X005055Y016045D03*
X004025Y015675D03*
X002800Y015550D03*
X010390Y017580D03*
D67*
X010468Y017545D03*
X010478Y017540D03*
X009693Y016790D03*
X009498Y016585D03*
X008908Y015705D03*
X008908Y015700D03*
X008908Y015695D03*
X008343Y016215D03*
X008203Y015915D03*
X007818Y015510D03*
X007508Y015785D03*
X006658Y015510D03*
X008518Y015205D03*
X010128Y015730D03*
X010733Y015265D03*
X011028Y013645D03*
X010378Y013165D03*
X008933Y013620D03*
X008413Y013145D03*
X007828Y013150D03*
X004373Y016130D03*
X004368Y016140D03*
X004478Y017145D03*
X004953Y017250D03*
X008778Y017665D03*
X003033Y013165D03*
D68*
X004938Y013625D03*
X006943Y013145D03*
X007843Y013175D03*
X007848Y013180D03*
X007853Y013600D03*
X008393Y013185D03*
X009603Y013640D03*
X011013Y013625D03*
X008948Y015620D03*
X008943Y015625D03*
X008218Y015935D03*
X007258Y015510D03*
X007248Y015505D03*
X006678Y015495D03*
X005053Y016055D03*
X004028Y015690D03*
X005538Y017120D03*
X008808Y017675D03*
X010413Y017570D03*
X002108Y015380D03*
D69*
X002128Y015385D03*
X005243Y015855D03*
X006503Y014895D03*
X007213Y015490D03*
X007508Y015765D03*
X008898Y016295D03*
X010128Y015750D03*
X010323Y015305D03*
X009593Y013625D03*
X009593Y013150D03*
X008933Y013190D03*
X008933Y013595D03*
X006953Y013635D03*
X006953Y013160D03*
X004928Y013165D03*
X005503Y017130D03*
X010378Y017585D03*
D70*
X008900Y016820D03*
X008910Y015690D03*
X008910Y015685D03*
X008915Y015680D03*
X008915Y015675D03*
X007805Y015515D03*
X007790Y015520D03*
X006530Y015625D03*
X005515Y016035D03*
X004365Y016145D03*
X005590Y017105D03*
X002860Y015570D03*
X002085Y015375D03*
X004950Y013640D03*
X006365Y013620D03*
X006365Y013165D03*
X007830Y013155D03*
X007850Y013615D03*
X008410Y013150D03*
X008935Y013165D03*
X009610Y013650D03*
D71*
X008935Y013605D03*
X008935Y013180D03*
X007850Y013185D03*
X006945Y013150D03*
X006365Y013180D03*
X006365Y013605D03*
X005790Y013640D03*
X004935Y013620D03*
X004935Y013150D03*
X006510Y014890D03*
X007235Y015500D03*
X007265Y015515D03*
X007275Y015520D03*
X007750Y015535D03*
X008515Y015220D03*
X008950Y015615D03*
X008895Y016290D03*
X009495Y016605D03*
X010065Y015945D03*
X010715Y015250D03*
X011010Y013620D03*
X010400Y017575D03*
X005520Y017125D03*
X005055Y016050D03*
X005245Y015850D03*
X004025Y015685D03*
X002815Y015555D03*
D72*
X004018Y015665D03*
X005063Y016035D03*
X005508Y016020D03*
X006498Y014900D03*
X006958Y013625D03*
X005778Y013620D03*
X005778Y013615D03*
X008343Y016200D03*
X009493Y016625D03*
X010128Y015755D03*
X008843Y017685D03*
X009588Y013620D03*
X009588Y013155D03*
D73*
X009598Y013635D03*
X008933Y013600D03*
X007853Y013190D03*
X006948Y013640D03*
X005788Y013635D03*
X004933Y013615D03*
X004933Y013155D03*
X007228Y015495D03*
X007288Y015525D03*
X007508Y015770D03*
X008223Y015940D03*
X008343Y016205D03*
X008903Y016810D03*
X010128Y015745D03*
X011008Y013615D03*
X006243Y015920D03*
X005513Y016025D03*
X004023Y015680D03*
X004523Y017155D03*
D74*
X005480Y017135D03*
X005065Y016030D03*
X005245Y015860D03*
X006245Y015915D03*
X006695Y015485D03*
X007200Y015485D03*
X007505Y015760D03*
X007385Y014640D03*
X006960Y013620D03*
X006960Y013170D03*
X005775Y013610D03*
X003600Y015335D03*
X004015Y015660D03*
X009495Y016630D03*
X010095Y016655D03*
X010355Y017595D03*
X010700Y015235D03*
X009585Y013615D03*
X009585Y013160D03*
D75*
X008935Y013170D03*
X008935Y013615D03*
X008405Y013160D03*
X008400Y013165D03*
X007850Y013610D03*
X006365Y013615D03*
X006365Y013170D03*
X005795Y013650D03*
X004945Y013635D03*
X002845Y015565D03*
X004040Y015720D03*
X004045Y015730D03*
X004045Y015735D03*
X004050Y015740D03*
X004050Y015745D03*
X004055Y015750D03*
X005045Y016075D03*
X006240Y015925D03*
X007115Y016595D03*
X007505Y015780D03*
X007765Y015530D03*
X008210Y015925D03*
X008920Y015665D03*
X008925Y015655D03*
X008925Y015650D03*
X008930Y015645D03*
X009495Y016595D03*
X009860Y016570D03*
X010345Y016570D03*
X010130Y015735D03*
X010350Y015310D03*
X009155Y017015D03*
X008790Y017670D03*
X010445Y017555D03*
X004500Y017150D03*
D76*
X004013Y015655D03*
X003603Y015340D03*
X003598Y015330D03*
X003593Y015325D03*
X003588Y015320D03*
X002763Y015540D03*
X005773Y013605D03*
X006963Y013615D03*
X006963Y013175D03*
X009583Y013165D03*
X009583Y013610D03*
X010128Y015760D03*
X009493Y016635D03*
X008903Y016800D03*
X008898Y016300D03*
X008233Y015950D03*
X010343Y017600D03*
D77*
X010365Y017590D03*
X009495Y016620D03*
X008900Y016805D03*
X008225Y015945D03*
X007300Y015530D03*
X005060Y016040D03*
X004020Y015670D03*
X002780Y015545D03*
X005780Y013625D03*
X006365Y013595D03*
X006365Y013190D03*
X006955Y013165D03*
X006955Y013630D03*
X010130Y015235D03*
X010705Y015240D03*
D78*
X010878Y015420D03*
X010883Y015425D03*
X010748Y015615D03*
X010753Y015625D03*
X010758Y015630D03*
X010758Y015635D03*
X010763Y015640D03*
X010768Y015650D03*
X010983Y014925D03*
X011543Y015545D03*
X011548Y015555D03*
X011553Y015565D03*
X011558Y015570D03*
X011558Y015575D03*
X011563Y015585D03*
X011563Y015590D03*
X011568Y015595D03*
X011568Y015600D03*
X011568Y015605D03*
X011573Y015610D03*
X011573Y015615D03*
X011573Y015620D03*
X011573Y015625D03*
X011573Y015630D03*
X011578Y015640D03*
X011578Y015645D03*
X011578Y015650D03*
X011578Y015655D03*
X011578Y015660D03*
X011578Y015665D03*
X011578Y015670D03*
X011578Y015675D03*
X011578Y015680D03*
X011578Y015685D03*
X011578Y015690D03*
X011563Y015760D03*
X011558Y015770D03*
X011543Y015840D03*
X011608Y016090D03*
X011608Y016095D03*
X011608Y016100D03*
X011608Y016105D03*
X011608Y016110D03*
X011513Y016490D03*
X011508Y016505D03*
X011508Y016510D03*
X011503Y016520D03*
X011503Y016525D03*
X011498Y016530D03*
X011498Y016535D03*
X011498Y016540D03*
X011493Y016550D03*
X011493Y016555D03*
X011488Y016565D03*
X010728Y016315D03*
X010723Y016320D03*
X010718Y016330D03*
X010713Y016335D03*
X010708Y016340D03*
X010258Y016790D03*
X009518Y016350D03*
X009513Y016345D03*
X009508Y016335D03*
X009503Y016330D03*
X009498Y016325D03*
X009488Y016310D03*
X009158Y015995D03*
X009158Y015990D03*
X009163Y015980D03*
X008978Y016005D03*
X008973Y016000D03*
X008968Y015990D03*
X008963Y015985D03*
X008653Y015915D03*
X008653Y015910D03*
X008628Y015805D03*
X008623Y015800D03*
X009228Y015735D03*
X009228Y015730D03*
X009233Y015720D03*
X009233Y015715D03*
X009238Y015700D03*
X009573Y015485D03*
X009578Y015480D03*
X009583Y015475D03*
X009588Y015470D03*
X009593Y015465D03*
X009598Y015460D03*
X009603Y015455D03*
X009408Y013560D03*
X009403Y013555D03*
X009078Y013570D03*
X009073Y013575D03*
X008788Y013570D03*
X008498Y013465D03*
X008268Y013320D03*
X008268Y013200D03*
X007998Y013225D03*
X007993Y013220D03*
X007983Y013580D03*
X007723Y013580D03*
X007133Y013570D03*
X006828Y013570D03*
X007138Y013225D03*
X007133Y013220D03*
X005768Y013675D03*
X005618Y013575D03*
X006603Y014750D03*
X005718Y015255D03*
X005418Y015705D03*
X005413Y015710D03*
X005408Y015715D03*
X005398Y015730D03*
X005393Y015735D03*
X005388Y015745D03*
X005383Y015750D03*
X005378Y015760D03*
X005373Y015765D03*
X005368Y015775D03*
X004238Y016280D03*
X004233Y016275D03*
X003558Y016205D03*
X003553Y016200D03*
X003548Y016195D03*
X003538Y016180D03*
X003533Y016175D03*
X003528Y016170D03*
X003523Y016165D03*
X003523Y016160D03*
X003518Y016155D03*
X003513Y016150D03*
X003508Y016145D03*
X003493Y016125D03*
X003488Y016120D03*
X003253Y015850D03*
X003248Y015845D03*
X003243Y015840D03*
X003238Y015835D03*
X003233Y015830D03*
X004198Y015790D03*
X004203Y015795D03*
X004158Y015445D03*
X003993Y013610D03*
X002443Y013670D03*
X002093Y013170D03*
X008788Y013215D03*
X009073Y013210D03*
X009403Y013220D03*
X009408Y013215D03*
X009718Y013215D03*
X011508Y013170D03*
D79*
X011135Y013600D03*
X010495Y013605D03*
X010505Y013185D03*
X010270Y013170D03*
X009390Y013235D03*
X009385Y013240D03*
X009380Y013250D03*
X009105Y013245D03*
X009100Y013240D03*
X008775Y013230D03*
X008770Y013235D03*
X008765Y013245D03*
X008510Y013480D03*
X008505Y013580D03*
X008765Y013540D03*
X008770Y013545D03*
X008775Y013555D03*
X009095Y013550D03*
X009100Y013545D03*
X009105Y013535D03*
X009375Y013515D03*
X009380Y013525D03*
X009385Y013530D03*
X009390Y013540D03*
X008255Y013305D03*
X008020Y013255D03*
X008015Y013250D03*
X008015Y013245D03*
X008010Y013240D03*
X008005Y013555D03*
X008000Y013560D03*
X007710Y013565D03*
X007705Y013560D03*
X007430Y013800D03*
X007430Y013855D03*
X007430Y013860D03*
X007155Y013545D03*
X007160Y013535D03*
X007165Y013265D03*
X007160Y013255D03*
X007155Y013250D03*
X006535Y013245D03*
X006530Y013240D03*
X006525Y013230D03*
X006200Y013240D03*
X006195Y013245D03*
X006190Y013530D03*
X006195Y013540D03*
X006200Y013545D03*
X006530Y013545D03*
X006535Y013540D03*
X006540Y013530D03*
X005605Y013560D03*
X005600Y013550D03*
X005060Y013190D03*
X004780Y013595D03*
X004325Y013670D03*
X004005Y013605D03*
X003780Y013605D03*
X003150Y013605D03*
X003160Y013185D03*
X002925Y013170D03*
X002580Y013185D03*
X002575Y013600D03*
X001945Y015335D03*
X003330Y015940D03*
X003335Y015945D03*
X003340Y015950D03*
X003345Y015955D03*
X003350Y015960D03*
X003370Y015985D03*
X003375Y015990D03*
X003380Y015995D03*
X003385Y016000D03*
X004220Y016245D03*
X006155Y014900D03*
X006590Y014730D03*
X006595Y014735D03*
X008505Y015100D03*
X008640Y015830D03*
X008645Y015840D03*
X008645Y015845D03*
X008650Y015850D03*
X008650Y015855D03*
X008650Y015860D03*
X008655Y015870D03*
X008655Y015875D03*
X008655Y015880D03*
X008655Y015885D03*
X008655Y015890D03*
X008655Y015895D03*
X009190Y015880D03*
X009195Y015860D03*
X009420Y016180D03*
X009425Y016195D03*
X009430Y016205D03*
X009435Y016215D03*
X009435Y016220D03*
X009440Y016225D03*
X009440Y016230D03*
X009445Y016235D03*
X009445Y016240D03*
X009450Y016245D03*
X009450Y016250D03*
X009460Y016265D03*
X010130Y015685D03*
X010790Y015700D03*
X010795Y015710D03*
X010795Y015715D03*
X010800Y015725D03*
X010800Y015730D03*
X010805Y015735D03*
X010805Y015740D03*
X010805Y015745D03*
X010810Y015755D03*
X010895Y015440D03*
X010965Y014915D03*
X011545Y015795D03*
X011545Y015800D03*
X011540Y015805D03*
X011540Y015810D03*
X011540Y015815D03*
X011540Y015820D03*
X011540Y015825D03*
X011590Y016200D03*
X011590Y016205D03*
X011585Y016215D03*
X011585Y016220D03*
X011585Y016225D03*
X011585Y016230D03*
X011580Y016235D03*
X011580Y016240D03*
X011580Y016245D03*
X011580Y016250D03*
X011575Y016255D03*
X011575Y016260D03*
X011575Y016265D03*
X011575Y016270D03*
X011570Y016280D03*
X011570Y016285D03*
X011570Y016290D03*
X011565Y016300D03*
X011565Y016305D03*
X011565Y016310D03*
X011560Y016320D03*
X011560Y016325D03*
X011560Y016330D03*
X011555Y016335D03*
X011555Y016340D03*
X011555Y016345D03*
X011555Y016350D03*
X011550Y016360D03*
X011550Y016365D03*
X011545Y016380D03*
X011540Y016400D03*
X010805Y016155D03*
X010800Y016170D03*
X010795Y016185D03*
X010790Y016195D03*
X010790Y016200D03*
X010785Y016205D03*
X010785Y016210D03*
X010780Y016220D03*
X010775Y016230D03*
X010770Y016240D03*
X010765Y016250D03*
X010760Y016260D03*
X009515Y015555D03*
X009510Y015560D03*
X009505Y015570D03*
X009500Y015575D03*
X009495Y015580D03*
X009495Y015585D03*
X009490Y015590D03*
X009485Y015600D03*
X009480Y015605D03*
X009475Y015615D03*
X009470Y015625D03*
D80*
X008345Y016195D03*
X007505Y015755D03*
X007315Y015535D03*
X006490Y014905D03*
X006080Y015345D03*
X006065Y015350D03*
X004010Y015650D03*
X003605Y015345D03*
X003585Y015315D03*
X003150Y015225D03*
X003140Y015220D03*
X003130Y015215D03*
X003120Y015210D03*
X002145Y015390D03*
X004555Y017160D03*
X008860Y017690D03*
X009495Y016640D03*
X010330Y017605D03*
X009580Y013605D03*
X009580Y013170D03*
X006965Y013180D03*
X006965Y013610D03*
X005770Y013600D03*
X005770Y013595D03*
D81*
X005795Y013645D03*
X006365Y013610D03*
X006365Y013175D03*
X007840Y013170D03*
X007850Y013605D03*
X008395Y013180D03*
X008395Y013175D03*
X008935Y013175D03*
X008935Y013610D03*
X011015Y013630D03*
X010720Y015255D03*
X010130Y015740D03*
X009495Y016600D03*
X008900Y016815D03*
X010095Y016660D03*
X010425Y017565D03*
X009520Y017895D03*
X007505Y015775D03*
X007845Y015500D03*
X008940Y015630D03*
X006600Y016585D03*
X005515Y016030D03*
X005050Y016060D03*
X005050Y016065D03*
X004035Y015705D03*
X004030Y015700D03*
X004030Y015695D03*
X002830Y015560D03*
D82*
X004773Y016205D03*
X004898Y016095D03*
X005733Y015245D03*
X003463Y013785D03*
X002148Y013825D03*
X007698Y013200D03*
X008268Y013590D03*
X008538Y013200D03*
X011153Y013925D03*
X011568Y013825D03*
X011338Y013175D03*
X010943Y015505D03*
X010948Y015510D03*
X008333Y016250D03*
D83*
X008903Y016795D03*
X009493Y016645D03*
X010318Y017610D03*
X010128Y015765D03*
X010693Y015230D03*
X009578Y013600D03*
X009578Y013175D03*
X006968Y013185D03*
X006968Y013605D03*
X006093Y015340D03*
X005068Y016025D03*
X005458Y017140D03*
X003578Y015310D03*
X003163Y015230D03*
X002743Y015535D03*
D84*
X003278Y015880D03*
X003283Y015885D03*
X003288Y015890D03*
X003293Y015895D03*
X003298Y015905D03*
X003303Y015910D03*
X003308Y015915D03*
X003313Y015920D03*
X003318Y015925D03*
X003323Y015930D03*
X003328Y015935D03*
X003353Y015965D03*
X003358Y015970D03*
X003363Y015975D03*
X003368Y015980D03*
X003388Y016005D03*
X003393Y016010D03*
X003398Y016015D03*
X003403Y016020D03*
X003408Y016025D03*
X003413Y016030D03*
X003418Y016035D03*
X003418Y016040D03*
X003423Y016045D03*
X003428Y016050D03*
X003433Y016055D03*
X003438Y016060D03*
X003443Y016065D03*
X003463Y016090D03*
X004223Y016250D03*
X004223Y016255D03*
X006153Y014905D03*
X006598Y014740D03*
X007433Y013850D03*
X007433Y013810D03*
X007433Y013805D03*
X007713Y013570D03*
X007718Y013575D03*
X007993Y013570D03*
X007998Y013565D03*
X008258Y013310D03*
X008263Y013205D03*
X008008Y013235D03*
X008003Y013230D03*
X008503Y013470D03*
X008508Y013475D03*
X008773Y013550D03*
X009088Y013560D03*
X009093Y013555D03*
X009388Y013535D03*
X009393Y013545D03*
X009588Y013675D03*
X009723Y013220D03*
X009398Y013225D03*
X009393Y013230D03*
X009098Y013235D03*
X009093Y013230D03*
X009088Y013225D03*
X008778Y013225D03*
X007153Y013245D03*
X007148Y013240D03*
X007153Y013550D03*
X007148Y013555D03*
X006823Y013565D03*
X006528Y013550D03*
X006523Y013555D03*
X006208Y013555D03*
X006203Y013550D03*
X006203Y013235D03*
X006208Y013230D03*
X006523Y013225D03*
X006528Y013235D03*
X005608Y013565D03*
X004788Y013175D03*
X004003Y013175D03*
X003783Y013175D03*
X002943Y013610D03*
X008633Y015815D03*
X008638Y015825D03*
X008643Y015835D03*
X008653Y015900D03*
X009168Y015960D03*
X009168Y015965D03*
X009173Y015950D03*
X009173Y015945D03*
X009173Y015940D03*
X009178Y015930D03*
X009178Y015925D03*
X009178Y015920D03*
X009183Y015915D03*
X009183Y015910D03*
X009183Y015905D03*
X009183Y015900D03*
X009188Y015895D03*
X009188Y015890D03*
X009188Y015885D03*
X009193Y015875D03*
X009193Y015870D03*
X009193Y015865D03*
X009198Y015855D03*
X009198Y015850D03*
X009198Y015845D03*
X009198Y015840D03*
X009203Y015835D03*
X009203Y015830D03*
X009203Y015825D03*
X009208Y015815D03*
X009208Y015810D03*
X009208Y015805D03*
X009213Y015800D03*
X009213Y015795D03*
X009213Y015790D03*
X009218Y015775D03*
X009508Y015565D03*
X009518Y015550D03*
X009523Y015545D03*
X009528Y015540D03*
X009528Y015535D03*
X009533Y015530D03*
X009538Y015525D03*
X009543Y015520D03*
X009548Y015515D03*
X010048Y016115D03*
X009478Y016295D03*
X009473Y016285D03*
X009468Y016280D03*
X009468Y016275D03*
X009463Y016270D03*
X009458Y016260D03*
X009453Y016255D03*
X010743Y016290D03*
X010748Y016285D03*
X010753Y016275D03*
X010758Y016265D03*
X010763Y016255D03*
X010768Y016245D03*
X010773Y016235D03*
X010778Y016225D03*
X010783Y016215D03*
X010798Y015720D03*
X010793Y015705D03*
X010788Y015695D03*
X010788Y015690D03*
X010783Y015685D03*
X010783Y015680D03*
X010778Y015670D03*
X010893Y015435D03*
X010888Y015430D03*
X011548Y015785D03*
X011548Y015790D03*
X011553Y015780D03*
X011543Y015830D03*
X011603Y016135D03*
X011598Y016155D03*
X011598Y016160D03*
X011598Y016165D03*
X011598Y016170D03*
X011598Y016175D03*
X011593Y016180D03*
X011593Y016185D03*
X011593Y016190D03*
X011593Y016195D03*
X011588Y016210D03*
X011553Y016355D03*
X011548Y016370D03*
X011548Y016375D03*
X011543Y016385D03*
X011543Y016390D03*
X011543Y016395D03*
X011538Y016405D03*
X011538Y016410D03*
X011538Y016415D03*
X011533Y016420D03*
X011533Y016425D03*
X011533Y016430D03*
X011528Y016440D03*
X011528Y016445D03*
X011523Y016460D03*
X010498Y013180D03*
D85*
X009575Y013180D03*
X009575Y013595D03*
X006970Y013600D03*
X006970Y013190D03*
X006110Y015335D03*
X006245Y015910D03*
X006850Y016520D03*
X008240Y015955D03*
X008900Y016305D03*
X009495Y016650D03*
X009495Y016655D03*
X010130Y015770D03*
X010310Y017615D03*
X003605Y015350D03*
X003570Y015305D03*
X003110Y015205D03*
D86*
X004808Y016170D03*
X004863Y016120D03*
X004868Y016115D03*
X006778Y013930D03*
X004238Y013605D03*
X002338Y013600D03*
X002328Y013185D03*
X001908Y013185D03*
X011138Y013930D03*
X011553Y013830D03*
X011323Y013185D03*
D87*
X010235Y013185D03*
X008550Y013210D03*
X007690Y013205D03*
X009135Y016160D03*
X004875Y016110D03*
X004805Y016175D03*
X004800Y016180D03*
X002135Y013830D03*
X003040Y013675D03*
X002890Y013185D03*
D88*
X002728Y015530D03*
X004008Y015645D03*
X007058Y016585D03*
X007508Y015750D03*
X008348Y016190D03*
X009493Y016660D03*
X010298Y017620D03*
X010688Y015225D03*
X010108Y014765D03*
X009573Y013590D03*
X009573Y013185D03*
X006973Y013595D03*
D89*
X007385Y014645D03*
X005075Y016020D03*
X004005Y015640D03*
X002170Y015395D03*
X005435Y017145D03*
X008900Y016790D03*
X010130Y015775D03*
X010130Y015240D03*
X009570Y013190D03*
X010285Y017625D03*
D90*
X006765Y013935D03*
X008245Y013575D03*
X011315Y013195D03*
X004230Y013600D03*
X002875Y013195D03*
X002315Y013195D03*
X001900Y013195D03*
D91*
X007678Y013215D03*
X010223Y013195D03*
D92*
X009688Y013195D03*
X008448Y013430D03*
X008323Y013360D03*
X006858Y013590D03*
X006593Y014800D03*
X005698Y015270D03*
X005328Y015840D03*
X005088Y016125D03*
X005083Y016135D03*
X004433Y016175D03*
X004238Y015835D03*
X003983Y015765D03*
X004148Y015505D03*
X004148Y015500D03*
X003178Y015125D03*
X003083Y015685D03*
X003088Y015690D03*
X004178Y017015D03*
X004193Y017025D03*
X006233Y016740D03*
X006248Y016730D03*
X007403Y016725D03*
X007418Y016735D03*
X007923Y017110D03*
X007943Y017125D03*
X007948Y017130D03*
X007953Y017135D03*
X007963Y017140D03*
X007968Y017145D03*
X007973Y017150D03*
X007993Y017165D03*
X008668Y016570D03*
X008668Y016565D03*
X008668Y016560D03*
X008668Y016555D03*
X008668Y016550D03*
X008668Y016545D03*
X008668Y016540D03*
X008668Y016535D03*
X008668Y016530D03*
X008668Y016525D03*
X008668Y016520D03*
X008668Y016515D03*
X008668Y016510D03*
X008668Y016505D03*
X008673Y016490D03*
X008673Y016485D03*
X009103Y016105D03*
X008928Y015895D03*
X008928Y015890D03*
X008203Y015795D03*
X008513Y015130D03*
X009788Y015335D03*
X010033Y016060D03*
X009673Y016490D03*
X009678Y016755D03*
X010543Y016490D03*
X010548Y016485D03*
X011248Y017005D03*
X011253Y017000D03*
X011258Y016995D03*
X011263Y016990D03*
X011268Y016985D03*
X011273Y016980D03*
X011288Y016960D03*
X011588Y015905D03*
X011583Y015900D03*
X011583Y015895D03*
X011578Y015890D03*
X010598Y015440D03*
X010593Y015435D03*
X010988Y013660D03*
D93*
X010130Y015820D03*
X008350Y016170D03*
X007510Y015720D03*
X007390Y014655D03*
X007860Y013440D03*
X007860Y013435D03*
X007860Y013430D03*
X007860Y013425D03*
X007860Y013420D03*
X007860Y013415D03*
X007860Y013410D03*
X007860Y013405D03*
X007860Y013400D03*
X007860Y013395D03*
X007860Y013390D03*
X007860Y013385D03*
X007860Y013380D03*
X007860Y013375D03*
X007860Y013370D03*
X004165Y015870D03*
X003985Y015615D03*
D94*
X004153Y015860D03*
X002668Y015515D03*
X004598Y017165D03*
X007508Y015730D03*
X008903Y016775D03*
X010113Y015935D03*
X010128Y015805D03*
X010128Y015800D03*
X010133Y015245D03*
X010398Y013405D03*
X010398Y013400D03*
X010398Y013395D03*
X010398Y013390D03*
X010398Y013385D03*
X010398Y013380D03*
X010213Y017655D03*
D95*
X010225Y017650D03*
X009160Y017010D03*
X008900Y016320D03*
X008905Y017700D03*
X010665Y015210D03*
X010395Y013430D03*
X010395Y013425D03*
X010395Y013420D03*
X010395Y013415D03*
X010395Y013410D03*
X007390Y014650D03*
X003995Y015625D03*
X003085Y015190D03*
X003050Y013430D03*
X003050Y013425D03*
X003050Y013420D03*
X003050Y013415D03*
X003050Y013410D03*
X003050Y013405D03*
X003050Y013400D03*
X003050Y013395D03*
X003050Y013390D03*
X003050Y013385D03*
X003050Y013380D03*
D96*
X003893Y013675D03*
X004173Y015430D03*
X004793Y016185D03*
X004788Y016190D03*
X004883Y016105D03*
X008258Y013585D03*
X010388Y013675D03*
X010928Y014890D03*
X010958Y015530D03*
X010963Y015535D03*
D97*
X010425Y015335D03*
X009075Y016035D03*
X008905Y015790D03*
X008895Y016270D03*
X009060Y016395D03*
X009500Y016565D03*
X009805Y016555D03*
X010405Y016555D03*
X010620Y017465D03*
X010610Y017470D03*
X008595Y017575D03*
X008585Y017570D03*
X008575Y017565D03*
X008190Y015875D03*
X008520Y015175D03*
X006555Y014850D03*
X006365Y013640D03*
X004410Y016040D03*
X004435Y016415D03*
X004815Y016390D03*
X005740Y017050D03*
X003040Y013630D03*
X010385Y013630D03*
D98*
X009315Y015245D03*
X009310Y015250D03*
X007430Y014815D03*
X007430Y014810D03*
X007430Y014805D03*
X007430Y014800D03*
X007430Y014795D03*
X007430Y014790D03*
X007430Y014785D03*
X007430Y014780D03*
X007425Y014755D03*
X007425Y014750D03*
X007425Y014745D03*
X007410Y014935D03*
X006850Y016555D03*
X004620Y016385D03*
X003890Y015550D03*
X009520Y017870D03*
D99*
X009918Y017740D03*
X008438Y015500D03*
X007518Y015590D03*
X007428Y014775D03*
X007428Y014770D03*
X007428Y014765D03*
X007428Y014760D03*
X004758Y016255D03*
X004758Y016260D03*
X003423Y015300D03*
D100*
X003075Y015185D03*
X002210Y015405D03*
X003990Y015620D03*
X004160Y015865D03*
X006250Y015895D03*
X008350Y016175D03*
X010100Y014770D03*
X010660Y015205D03*
X010200Y017660D03*
D101*
X010133Y017685D03*
X008903Y016755D03*
X008353Y016160D03*
X008458Y015630D03*
X008458Y015625D03*
X010128Y015850D03*
X010128Y015855D03*
X010128Y015860D03*
X010128Y015905D03*
X010128Y015910D03*
X010098Y014775D03*
D102*
X010095Y014780D03*
X010620Y015180D03*
X008470Y015575D03*
X008355Y016135D03*
X007510Y015680D03*
X006250Y015865D03*
X003955Y015590D03*
X002460Y015465D03*
X002400Y015450D03*
X002380Y015445D03*
D103*
X003678Y015495D03*
X006248Y015845D03*
X007513Y015655D03*
X007513Y015650D03*
X008468Y015545D03*
X008363Y016105D03*
X009168Y015420D03*
X009173Y015415D03*
X009173Y015410D03*
X009178Y015405D03*
X010088Y014785D03*
D104*
X010083Y014790D03*
X009233Y015335D03*
X006853Y016545D03*
X006243Y015825D03*
X003608Y015450D03*
X003598Y015445D03*
X003593Y015440D03*
D105*
X003900Y015555D03*
X004745Y016295D03*
X007515Y015600D03*
X007420Y014915D03*
X007425Y014870D03*
X007425Y014865D03*
X007425Y014860D03*
X008375Y015990D03*
X009285Y015275D03*
X009290Y015270D03*
X010080Y014795D03*
D106*
X010073Y014800D03*
X009328Y015235D03*
X010103Y016600D03*
X007518Y015585D03*
X003413Y015290D03*
X003408Y015285D03*
X003403Y015280D03*
D107*
X005413Y015865D03*
X005798Y015605D03*
X007873Y015200D03*
X009363Y015205D03*
X010068Y014805D03*
D108*
X010060Y014810D03*
X009400Y015180D03*
X006845Y016575D03*
X005385Y015900D03*
D109*
X005355Y015935D03*
X005350Y015940D03*
X010055Y014815D03*
D110*
X010050Y014820D03*
X006935Y015465D03*
D111*
X007428Y014820D03*
X010103Y016605D03*
X004758Y016270D03*
X004758Y016265D03*
X004723Y016315D03*
D112*
X009483Y015145D03*
X010048Y014825D03*
X009518Y017845D03*
D113*
X008375Y015960D03*
X007515Y015595D03*
X007415Y014930D03*
X007430Y014835D03*
X007430Y014830D03*
X007430Y014825D03*
X006235Y015800D03*
X004755Y016275D03*
X009300Y015260D03*
X009305Y015255D03*
X010130Y015285D03*
D114*
X010043Y014830D03*
X009503Y015140D03*
X009708Y016875D03*
X009518Y017840D03*
D115*
X009518Y017835D03*
X009748Y016860D03*
X010038Y014835D03*
D116*
X010033Y014840D03*
X009808Y016805D03*
X009808Y016810D03*
X009803Y016820D03*
X009363Y016935D03*
X006138Y015705D03*
X006138Y015700D03*
D117*
X006238Y015805D03*
X007418Y014925D03*
X007418Y014920D03*
X007428Y014855D03*
X007428Y014850D03*
X007428Y014845D03*
X007428Y014840D03*
X008373Y015965D03*
X008373Y015970D03*
X008373Y015975D03*
X008373Y015980D03*
X008373Y015985D03*
X009293Y015265D03*
X004753Y016280D03*
X004753Y016285D03*
X004748Y016290D03*
X004743Y016300D03*
X004738Y016305D03*
X004733Y016310D03*
D118*
X006140Y015670D03*
X010030Y014845D03*
D119*
X010028Y014850D03*
X008263Y015400D03*
X008263Y015405D03*
X008263Y015410D03*
X008263Y015415D03*
X008263Y015420D03*
X008258Y015385D03*
X008253Y015370D03*
X008248Y015360D03*
X008243Y015350D03*
X008238Y015340D03*
X008233Y015330D03*
X008228Y015325D03*
X006133Y015660D03*
X009518Y017820D03*
D120*
X009515Y017815D03*
X008235Y015495D03*
X010025Y014855D03*
D121*
X010020Y014860D03*
X009515Y017810D03*
D122*
X010018Y014865D03*
D123*
X010015Y014870D03*
D124*
X010013Y014875D03*
D125*
X010553Y015150D03*
X010103Y016610D03*
X009098Y017740D03*
X008373Y016010D03*
X008373Y016005D03*
X008373Y016000D03*
X008373Y015995D03*
X008453Y015505D03*
X007518Y015605D03*
X007418Y014910D03*
X007423Y014905D03*
X007423Y014900D03*
X007423Y014895D03*
X007423Y014890D03*
X007423Y014885D03*
X007423Y014880D03*
X007423Y014875D03*
X006403Y014975D03*
X004958Y017230D03*
D126*
X006760Y015200D03*
X010010Y014880D03*
D127*
X010008Y014885D03*
D128*
X010005Y014890D03*
D129*
X010003Y014895D03*
X006638Y015300D03*
D130*
X006628Y015310D03*
X010003Y014900D03*
D131*
X010000Y014905D03*
X006615Y015325D03*
X009515Y017765D03*
D132*
X009515Y017760D03*
X010000Y014910D03*
D133*
X008900Y016785D03*
X010260Y017635D03*
X006480Y014910D03*
X004000Y015635D03*
X002710Y015525D03*
D134*
X009513Y017755D03*
X009998Y014915D03*
D135*
X010128Y015270D03*
X009208Y015365D03*
X009203Y015370D03*
X008463Y015535D03*
X008363Y016090D03*
X007513Y015640D03*
X006393Y014920D03*
X006393Y014915D03*
X006248Y015835D03*
X003643Y015475D03*
X002993Y015160D03*
D136*
X009998Y014920D03*
D137*
X009998Y014925D03*
D138*
X009215Y015355D03*
X009210Y015360D03*
X008365Y016085D03*
X006390Y014930D03*
X006390Y014925D03*
X003925Y015570D03*
X003635Y015470D03*
D139*
X009995Y014930D03*
D140*
X009993Y014935D03*
D141*
X009225Y015340D03*
X008460Y015525D03*
X008365Y016070D03*
X008365Y016075D03*
X007515Y015630D03*
X006390Y014940D03*
X006390Y014935D03*
X003615Y015455D03*
X009610Y016800D03*
X009975Y017730D03*
D142*
X009993Y014940D03*
D143*
X009338Y015225D03*
X007403Y014940D03*
X006848Y016560D03*
X003388Y015270D03*
D144*
X009995Y014945D03*
D145*
X009358Y015210D03*
X007888Y015205D03*
X007393Y014945D03*
D146*
X007515Y015625D03*
X008365Y016065D03*
X009235Y015330D03*
X009240Y015325D03*
X009245Y015320D03*
X010130Y015275D03*
X006390Y014950D03*
X006390Y014945D03*
X003585Y015435D03*
X003570Y015425D03*
X003555Y015415D03*
D147*
X009993Y014950D03*
D148*
X007855Y015195D03*
X007520Y015555D03*
X007385Y014950D03*
X005810Y015615D03*
X005775Y015595D03*
X005770Y015590D03*
X005400Y015880D03*
X004630Y016365D03*
D149*
X009990Y014955D03*
D150*
X010103Y016580D03*
X009218Y016980D03*
X009518Y017860D03*
X007523Y015545D03*
X007373Y014955D03*
X005388Y015895D03*
X004633Y016355D03*
D151*
X003918Y015565D03*
X003578Y015430D03*
X003563Y015420D03*
X003548Y015410D03*
X003543Y015405D03*
X005898Y015375D03*
X005908Y015370D03*
X006243Y015820D03*
X006393Y014960D03*
X006393Y014955D03*
X008458Y015520D03*
X008368Y016055D03*
X008368Y016060D03*
X009248Y015315D03*
X009253Y015310D03*
X009523Y017875D03*
D152*
X009993Y014960D03*
D153*
X007360Y014960D03*
X005365Y015925D03*
X005360Y015930D03*
X006845Y016580D03*
D154*
X009990Y014965D03*
D155*
X009243Y016970D03*
X006923Y015445D03*
X007348Y014965D03*
X004633Y016325D03*
D156*
X003523Y015390D03*
X003518Y015385D03*
X003513Y015380D03*
X005923Y015360D03*
X005933Y015355D03*
X006243Y015815D03*
X006393Y014965D03*
X008458Y015515D03*
X008368Y016040D03*
X008368Y016045D03*
X009258Y015305D03*
X009263Y015300D03*
X009183Y016995D03*
X009953Y017735D03*
D157*
X009993Y014970D03*
D158*
X007335Y014970D03*
X006860Y015335D03*
D159*
X006398Y014970D03*
X007518Y015610D03*
X008453Y015510D03*
X008368Y016025D03*
X010128Y015280D03*
X003908Y015560D03*
X003493Y015365D03*
X003488Y015360D03*
X003483Y015355D03*
D160*
X009990Y014975D03*
D161*
X009695Y016880D03*
X009285Y016955D03*
X007320Y014975D03*
D162*
X009990Y014980D03*
D163*
X009985Y015025D03*
X006935Y014980D03*
D164*
X009988Y014985D03*
D165*
X006938Y014985D03*
D166*
X009988Y014990D03*
D167*
X006945Y014990D03*
D168*
X009988Y014995D03*
D169*
X009980Y015045D03*
X006950Y014995D03*
D170*
X009988Y015000D03*
D171*
X009978Y015060D03*
X006953Y015000D03*
D172*
X009988Y015005D03*
D173*
X009975Y015070D03*
X006960Y015005D03*
D174*
X009988Y015010D03*
D175*
X009975Y015080D03*
X006965Y015010D03*
D176*
X009988Y015015D03*
D177*
X009973Y015095D03*
X006973Y015015D03*
D178*
X009985Y015020D03*
D179*
X009965Y015110D03*
X009965Y015115D03*
X006980Y015020D03*
D180*
X006988Y015025D03*
X009963Y015125D03*
X009963Y015130D03*
D181*
X009985Y015030D03*
D182*
X006998Y015030D03*
D183*
X009983Y015035D03*
D184*
X007005Y015035D03*
D185*
X009983Y015040D03*
D186*
X007013Y015040D03*
D187*
X007020Y015045D03*
D188*
X009980Y015050D03*
X009980Y015055D03*
D189*
X007028Y015050D03*
D190*
X007035Y015055D03*
D191*
X007045Y015060D03*
D192*
X009978Y015065D03*
D193*
X007053Y015065D03*
D194*
X007058Y015070D03*
D195*
X009973Y015075D03*
D196*
X007148Y015130D03*
X007133Y015120D03*
X007063Y015075D03*
D197*
X007070Y015080D03*
X007140Y015125D03*
X007155Y015135D03*
D198*
X009973Y015085D03*
D199*
X007165Y015145D03*
X007115Y015110D03*
X007080Y015090D03*
X007075Y015085D03*
D200*
X009970Y015090D03*
D201*
X007168Y015150D03*
X007103Y015105D03*
X007093Y015100D03*
X007088Y015095D03*
D202*
X009970Y015100D03*
D203*
X009968Y015105D03*
D204*
X007158Y015140D03*
X007123Y015115D03*
D205*
X009965Y015120D03*
D206*
X009960Y015135D03*
D207*
X010130Y015300D03*
X010515Y015140D03*
X007520Y015565D03*
X006850Y016565D03*
X004630Y016370D03*
X009520Y017865D03*
D208*
X009195Y016990D03*
X010130Y015290D03*
X010535Y015145D03*
X009320Y015240D03*
X006230Y015795D03*
X003420Y015295D03*
D209*
X006865Y015340D03*
X006940Y015475D03*
X009465Y015150D03*
D210*
X009223Y015345D03*
X009218Y015350D03*
X008463Y015530D03*
X008363Y016080D03*
X007513Y015635D03*
X006248Y015830D03*
X003628Y015465D03*
X003623Y015460D03*
X002988Y015155D03*
X002988Y015150D03*
X009063Y017735D03*
X010103Y016620D03*
X010583Y015160D03*
D211*
X010570Y015155D03*
X010100Y016615D03*
X008365Y016050D03*
X007515Y015620D03*
X005915Y015365D03*
X005890Y015380D03*
X003535Y015400D03*
X003530Y015395D03*
D212*
X006875Y015350D03*
X006925Y015450D03*
X006930Y015455D03*
X009450Y015155D03*
D213*
X007173Y015155D03*
D214*
X006890Y015370D03*
X006890Y015375D03*
X006895Y015380D03*
X006905Y015405D03*
X006910Y015415D03*
X006910Y015420D03*
X006915Y015425D03*
X005290Y016010D03*
X009440Y015160D03*
X009540Y016920D03*
D215*
X007175Y015160D03*
D216*
X007513Y015645D03*
X008468Y015540D03*
X008363Y016095D03*
X009188Y015390D03*
X009193Y015385D03*
X010593Y015165D03*
X009173Y017000D03*
X006248Y015840D03*
X004958Y017235D03*
X003668Y015490D03*
D217*
X004633Y016340D03*
X004963Y017215D03*
X009488Y016930D03*
X009513Y016925D03*
X009518Y017855D03*
X009428Y015165D03*
D218*
X007180Y015165D03*
D219*
X009195Y015380D03*
X009200Y015375D03*
X008905Y016675D03*
X008905Y016680D03*
X003660Y015485D03*
X003650Y015480D03*
X003000Y015165D03*
D220*
X003013Y015170D03*
X003698Y015505D03*
X003943Y015580D03*
X007513Y015660D03*
X008468Y015550D03*
X009148Y015450D03*
X009153Y015445D03*
X009153Y015440D03*
X009158Y015435D03*
X008903Y016385D03*
X010023Y017720D03*
X009523Y017880D03*
X010603Y015170D03*
D221*
X009420Y015170D03*
D222*
X007183Y015170D03*
D223*
X007513Y015670D03*
X008358Y016125D03*
X008468Y015565D03*
X006853Y016535D03*
X005303Y017165D03*
X003738Y015525D03*
X010613Y015175D03*
D224*
X009410Y015175D03*
X007520Y015540D03*
X005825Y015625D03*
X005375Y015910D03*
D225*
X007185Y015175D03*
D226*
X008468Y015585D03*
X008903Y016735D03*
X008973Y017715D03*
X010088Y017700D03*
X003963Y015595D03*
X003043Y015175D03*
X002528Y015480D03*
X002338Y015435D03*
X002318Y015430D03*
D227*
X007183Y015180D03*
D228*
X006248Y015890D03*
X004173Y015875D03*
X003068Y015180D03*
X002633Y015505D03*
X002233Y015410D03*
X008903Y016765D03*
X008928Y017705D03*
X010173Y017670D03*
X010118Y015930D03*
X010128Y015825D03*
X010653Y015200D03*
D229*
X010630Y015185D03*
X010130Y015255D03*
X008900Y016350D03*
X008905Y016740D03*
X008355Y016145D03*
X008470Y015590D03*
X007510Y015690D03*
X006250Y015870D03*
D230*
X005818Y015620D03*
X005738Y015540D03*
X005738Y015500D03*
X005738Y015495D03*
X005393Y015890D03*
X009393Y015185D03*
D231*
X007185Y015185D03*
D232*
X008463Y015610D03*
X008353Y016155D03*
X008903Y016750D03*
X010098Y016640D03*
X010118Y017690D03*
X010638Y015190D03*
D233*
X009385Y015190D03*
X010105Y016585D03*
X007520Y015550D03*
X005820Y015385D03*
X005805Y015395D03*
X005800Y015400D03*
X005795Y015405D03*
X005790Y015410D03*
X005765Y015440D03*
X005755Y015455D03*
X005750Y015465D03*
X005745Y015470D03*
X005745Y015475D03*
X005745Y015480D03*
X005740Y015485D03*
X005740Y015490D03*
X005735Y015505D03*
X005735Y015510D03*
X005735Y015515D03*
X005735Y015520D03*
X005735Y015525D03*
X005735Y015530D03*
X005735Y015535D03*
X005740Y015545D03*
X005740Y015550D03*
X005745Y015560D03*
X005750Y015570D03*
X005395Y015885D03*
X004630Y016360D03*
D234*
X007185Y015190D03*
D235*
X007510Y015710D03*
X008425Y015710D03*
X008430Y015705D03*
X008430Y015700D03*
X008455Y015635D03*
X008900Y016335D03*
X010125Y015920D03*
X010125Y015915D03*
X010130Y015845D03*
X010130Y015250D03*
X010645Y015195D03*
X010145Y017680D03*
X006250Y015885D03*
X004865Y016250D03*
X004185Y015885D03*
X002610Y015500D03*
X002250Y015415D03*
D236*
X003858Y015530D03*
X005743Y015555D03*
X005748Y015565D03*
X005753Y015575D03*
X005758Y015580D03*
X005763Y015585D03*
X005753Y015460D03*
X005758Y015450D03*
X005763Y015445D03*
X005768Y015435D03*
X005773Y015430D03*
X005778Y015425D03*
X005783Y015420D03*
X005788Y015415D03*
X005813Y015390D03*
X006848Y016570D03*
X009378Y015195D03*
D237*
X006775Y015195D03*
X006690Y015250D03*
D238*
X007173Y015480D03*
X007508Y015740D03*
X008348Y016185D03*
X010098Y016650D03*
X010128Y015785D03*
X010673Y015215D03*
X003093Y015195D03*
D239*
X003865Y015535D03*
X005785Y015600D03*
X005805Y015610D03*
X007520Y015560D03*
X009370Y015200D03*
X010105Y016590D03*
X009205Y016985D03*
D240*
X008898Y016310D03*
X010098Y015940D03*
X010128Y015780D03*
X010678Y015220D03*
X007508Y015745D03*
X006248Y015905D03*
X006128Y015330D03*
X004953Y017245D03*
X003183Y015235D03*
X003103Y015200D03*
X008883Y017695D03*
X010273Y017630D03*
D241*
X009515Y017790D03*
X006750Y015205D03*
X006740Y015210D03*
X006735Y015215D03*
X006725Y015220D03*
X006720Y015225D03*
D242*
X007520Y015570D03*
X007900Y015210D03*
X007920Y015220D03*
X009350Y015215D03*
X010105Y016595D03*
X004960Y017225D03*
X003875Y015540D03*
D243*
X003368Y015255D03*
X003363Y015250D03*
X003353Y015245D03*
X003343Y015240D03*
X004628Y016375D03*
X007908Y015215D03*
D244*
X007520Y015575D03*
X006225Y015790D03*
X003385Y015265D03*
X003375Y015260D03*
X009345Y015220D03*
X010130Y015295D03*
D245*
X008130Y015225D03*
D246*
X007520Y015580D03*
X009330Y015230D03*
X004625Y016380D03*
X003880Y015545D03*
X003395Y015275D03*
D247*
X008138Y015230D03*
D248*
X006713Y015230D03*
X006708Y015235D03*
D249*
X008145Y015235D03*
X004970Y017180D03*
D250*
X008153Y015240D03*
X008158Y015245D03*
D251*
X006703Y015240D03*
X006698Y015245D03*
D252*
X008163Y015250D03*
X008168Y015255D03*
X008238Y015490D03*
D253*
X006685Y015255D03*
X006680Y015260D03*
X006045Y015645D03*
X006040Y015650D03*
X006035Y015655D03*
X009515Y017785D03*
D254*
X010055Y017710D03*
X008905Y016720D03*
X008900Y016370D03*
X008355Y016130D03*
X008470Y015570D03*
X007510Y015675D03*
X006250Y015860D03*
X010130Y015260D03*
D255*
X008245Y015480D03*
X008240Y015485D03*
X008180Y015265D03*
X008175Y015260D03*
D256*
X009160Y015430D03*
X009165Y015425D03*
X010130Y015265D03*
X008900Y016390D03*
X008905Y016695D03*
X008905Y016700D03*
X009590Y016795D03*
X008360Y016110D03*
X003685Y015500D03*
D257*
X006675Y015265D03*
D258*
X008183Y015270D03*
X008188Y015275D03*
X008248Y015475D03*
D259*
X006668Y015270D03*
D260*
X006665Y015275D03*
X009515Y017780D03*
D261*
X008370Y016020D03*
X008370Y016015D03*
X009275Y015285D03*
X009280Y015280D03*
X006850Y016550D03*
X006240Y015810D03*
D262*
X008195Y015280D03*
X008255Y015465D03*
X008250Y015470D03*
D263*
X006658Y015280D03*
D264*
X008198Y015285D03*
X008203Y015290D03*
X008208Y015295D03*
X008258Y015455D03*
X008258Y015460D03*
D265*
X006653Y015285D03*
D266*
X007515Y015615D03*
X008370Y016030D03*
X008370Y016035D03*
X009265Y015295D03*
X009270Y015290D03*
X003505Y015375D03*
X003500Y015370D03*
D267*
X006648Y015290D03*
D268*
X006645Y015295D03*
X009515Y017775D03*
D269*
X008260Y015450D03*
X008260Y015445D03*
X008265Y015440D03*
X008265Y015435D03*
X008265Y015430D03*
X008265Y015425D03*
X008225Y015320D03*
X008220Y015315D03*
X008220Y015310D03*
X008215Y015305D03*
X008210Y015300D03*
X004970Y017185D03*
D270*
X006633Y015305D03*
D271*
X006623Y015315D03*
D272*
X006620Y015320D03*
D273*
X006848Y015330D03*
X009663Y016890D03*
D274*
X008260Y015395D03*
X008260Y015390D03*
X008255Y015380D03*
X008255Y015375D03*
X008250Y015365D03*
X008245Y015355D03*
X008240Y015345D03*
X008235Y015335D03*
D275*
X006933Y015460D03*
X006873Y015345D03*
X004633Y016320D03*
X009518Y017850D03*
X009588Y016910D03*
D276*
X009565Y016915D03*
X006920Y015440D03*
X006920Y015435D03*
X006880Y015355D03*
X005320Y015975D03*
X005315Y015980D03*
X005310Y015985D03*
X005305Y015990D03*
D277*
X005303Y015995D03*
X005298Y016000D03*
X005293Y016005D03*
X005323Y015970D03*
X005328Y015965D03*
X005333Y015960D03*
X005843Y015630D03*
X006883Y015360D03*
X006888Y015365D03*
X006918Y015430D03*
X004633Y016330D03*
D278*
X004633Y016335D03*
X005288Y016015D03*
X005338Y015955D03*
X005343Y015950D03*
X005348Y015945D03*
X006898Y015390D03*
X006898Y015385D03*
X006903Y015395D03*
X006903Y015400D03*
X006908Y015410D03*
D279*
X008360Y016100D03*
X008905Y016685D03*
X008905Y016690D03*
X009040Y017730D03*
X010000Y017725D03*
X010100Y016625D03*
X009180Y015400D03*
X009185Y015395D03*
X006850Y016540D03*
X003935Y015575D03*
D280*
X003995Y015630D03*
X002690Y015520D03*
X002190Y015400D03*
X005410Y017150D03*
X006720Y015480D03*
X008900Y016315D03*
X010130Y015790D03*
X010250Y017640D03*
D281*
X008955Y017710D03*
X008900Y016340D03*
X008460Y015620D03*
X008460Y015615D03*
X007510Y015705D03*
X006250Y015880D03*
X005350Y017160D03*
X004195Y015895D03*
X004190Y015890D03*
X003975Y015605D03*
X002590Y015495D03*
X002275Y015420D03*
X010130Y015865D03*
X010130Y015870D03*
X010130Y015875D03*
X010130Y015880D03*
X010130Y015885D03*
X010130Y015890D03*
X010130Y015895D03*
X010130Y015900D03*
D282*
X008900Y016345D03*
X008465Y015605D03*
X008465Y015600D03*
X007510Y015700D03*
X006250Y015875D03*
X004200Y015900D03*
X003970Y015600D03*
X002565Y015490D03*
X002295Y015425D03*
D283*
X002358Y015440D03*
X002483Y015470D03*
X008903Y016360D03*
X008903Y016730D03*
X010098Y016635D03*
X010073Y017705D03*
D284*
X008905Y016705D03*
X008360Y016115D03*
X008470Y015555D03*
X009125Y015485D03*
X009130Y015475D03*
X009135Y015470D03*
X009140Y015465D03*
X009140Y015460D03*
X009145Y015455D03*
X006250Y015850D03*
X003715Y015515D03*
X003705Y015510D03*
D285*
X002443Y015460D03*
X002423Y015455D03*
X008903Y016365D03*
X008903Y016725D03*
X008998Y017720D03*
D286*
X009608Y016905D03*
X006938Y015470D03*
X004963Y017210D03*
D287*
X002505Y015475D03*
X007510Y015685D03*
X008355Y016140D03*
X008900Y016355D03*
X009165Y017005D03*
X008470Y015580D03*
D288*
X009058Y015605D03*
X009063Y015595D03*
X009068Y015585D03*
X009073Y015575D03*
X009078Y015565D03*
X009083Y015555D03*
X009088Y015550D03*
X009093Y015540D03*
X009098Y015530D03*
X009103Y015520D03*
X009108Y015515D03*
X009113Y015505D03*
X009118Y015500D03*
X009118Y015495D03*
X009123Y015490D03*
X009128Y015480D03*
X008358Y016120D03*
X008903Y016380D03*
X008903Y016710D03*
X009018Y017725D03*
X007513Y015665D03*
D289*
X007508Y015695D03*
X008353Y016150D03*
X008468Y015595D03*
X008903Y016745D03*
X010103Y017695D03*
X009523Y017885D03*
X006853Y016530D03*
X004953Y017240D03*
X002548Y015485D03*
D290*
X003725Y015520D03*
X003950Y015585D03*
X006250Y015855D03*
X008470Y015560D03*
X009060Y015600D03*
X009065Y015590D03*
X009070Y015580D03*
X009075Y015570D03*
X009080Y015560D03*
X009090Y015545D03*
X009095Y015535D03*
X009100Y015525D03*
X009110Y015510D03*
X008900Y016375D03*
X008905Y016715D03*
X010100Y016630D03*
X010040Y017715D03*
D291*
X010188Y017665D03*
X010098Y016645D03*
X010128Y015815D03*
X010128Y015810D03*
X008898Y016325D03*
X008903Y016770D03*
X007508Y015725D03*
X006853Y016525D03*
X005383Y017155D03*
X004883Y016245D03*
X002648Y015510D03*
D292*
X003978Y015610D03*
X004178Y015880D03*
X008433Y015695D03*
X008433Y015690D03*
X008438Y015685D03*
X008438Y015680D03*
X008443Y015670D03*
X008443Y015665D03*
X008448Y015655D03*
X008448Y015650D03*
X008453Y015645D03*
X008453Y015640D03*
X008903Y016760D03*
X010123Y015925D03*
X010128Y015840D03*
X010128Y015835D03*
D293*
X006053Y015635D03*
X006048Y015640D03*
D294*
X007510Y015715D03*
X008440Y015675D03*
X008445Y015660D03*
X008350Y016165D03*
X008900Y016330D03*
X010130Y015830D03*
X010160Y017675D03*
D295*
X006138Y015665D03*
D296*
X006140Y015675D03*
X009515Y017825D03*
D297*
X006143Y015680D03*
D298*
X006140Y015685D03*
D299*
X006143Y015690D03*
D300*
X006140Y015695D03*
X009800Y016825D03*
X009805Y016815D03*
D301*
X009795Y016830D03*
X009790Y016835D03*
X006135Y015710D03*
D302*
X006133Y015715D03*
X006133Y015720D03*
X004968Y017195D03*
X009338Y016940D03*
X009783Y016840D03*
X009518Y017830D03*
D303*
X009775Y016845D03*
X006130Y015725D03*
X006125Y015735D03*
D304*
X006123Y015740D03*
X006118Y015750D03*
X006128Y015730D03*
X009768Y016850D03*
D305*
X008903Y016780D03*
X008348Y016180D03*
X007508Y015735D03*
X006248Y015900D03*
X004148Y015855D03*
X009523Y017890D03*
X010238Y017645D03*
X010128Y015795D03*
D306*
X006120Y015745D03*
X006115Y015755D03*
X006110Y015760D03*
X006110Y015765D03*
X006105Y015770D03*
X006100Y015775D03*
X006095Y015785D03*
D307*
X006098Y015780D03*
X009318Y016945D03*
X009758Y016855D03*
D308*
X005408Y015870D03*
X005403Y015875D03*
D309*
X005378Y015905D03*
X004633Y016350D03*
D310*
X005373Y015915D03*
X010103Y016575D03*
D311*
X009228Y016975D03*
X005368Y015920D03*
X004633Y016345D03*
D312*
X004965Y017200D03*
X009735Y016865D03*
D313*
X009723Y016870D03*
D314*
X009678Y016885D03*
X004963Y017205D03*
D315*
X009645Y016895D03*
D316*
X009628Y016900D03*
X009258Y016965D03*
D317*
X009298Y016950D03*
D318*
X009270Y016960D03*
D319*
X004973Y017170D03*
D320*
X004973Y017175D03*
D321*
X004968Y017190D03*
D322*
X004960Y017220D03*
D323*
X009515Y017745D03*
D324*
X009515Y017750D03*
D325*
X009515Y017770D03*
D326*
X009515Y017795D03*
D327*
X009515Y017800D03*
D328*
X009515Y017805D03*
D329*
X015105Y012258D02*
X015105Y011077D01*
X015050Y011075D01*
X014995Y011069D01*
X014941Y011060D01*
X014888Y011047D01*
X014836Y011030D01*
X014785Y011009D01*
X014736Y010985D01*
X014688Y010957D01*
X014642Y010927D01*
X014599Y010893D01*
X014558Y010856D01*
X014520Y010817D01*
X014485Y010775D01*
X014453Y010730D01*
X014423Y010683D01*
X014398Y010635D01*
X014375Y010585D01*
X014357Y010533D01*
X014341Y010480D01*
X014330Y010427D01*
X014322Y010372D01*
X014318Y010317D01*
X014318Y010263D01*
X014322Y010208D01*
X014330Y010153D01*
X014341Y010100D01*
X014357Y010047D01*
X014375Y009995D01*
X014398Y009945D01*
X014423Y009896D01*
X014453Y009850D01*
X014485Y009805D01*
X014520Y009763D01*
X014558Y009724D01*
X014599Y009687D01*
X014642Y009653D01*
X014688Y009623D01*
X014736Y009595D01*
X014785Y009571D01*
X014836Y009550D01*
X014888Y009533D01*
X014941Y009520D01*
X014995Y009511D01*
X015050Y009505D01*
X015105Y009503D01*
X015105Y009502D02*
X015105Y008321D01*
X017680Y008321D01*
X017680Y012258D02*
X015105Y012258D01*
D330*
X004168Y008290D02*
X004168Y003093D01*
X004759Y002266D02*
X005074Y002266D01*
X005073Y002266D02*
X005105Y002265D01*
X005136Y002269D01*
X005167Y002276D01*
X005197Y002287D01*
X005225Y002301D01*
X005251Y002319D01*
X005275Y002340D01*
X005296Y002364D01*
X005314Y002390D01*
X005328Y002418D01*
X005339Y002448D01*
X005346Y002479D01*
X005350Y002510D01*
X005349Y002542D01*
X005352Y002580D01*
X005358Y002618D01*
X005368Y002655D01*
X005382Y002691D01*
X005398Y002726D01*
X005418Y002758D01*
X005441Y002789D01*
X005467Y002818D01*
X005496Y002844D01*
X005527Y002867D01*
X005559Y002887D01*
X005594Y002903D01*
X005630Y002917D01*
X005667Y002927D01*
X005705Y002933D01*
X005743Y002936D01*
X005743Y002935D02*
X009050Y002935D01*
X009680Y003526D02*
X009680Y008290D01*
X009404Y008290D01*
X008341Y008290D02*
X007160Y008290D01*
X006097Y008290D02*
X004168Y008290D01*
M02*
