G75*
G70*
%OFA0B0*%
%FSLAX24Y24*%
%IPPOS*%
%LPD*%
%AMOC8*
5,1,8,0,0,1.08239X$1,22.5*
%
%ADD10C,0.0000*%
%ADD11C,0.0030*%
%ADD12R,0.0037X0.0003*%
%ADD13R,0.0098X0.0003*%
%ADD14R,0.0130X0.0003*%
%ADD15R,0.0155X0.0003*%
%ADD16R,0.0175X0.0003*%
%ADD17R,0.0198X0.0003*%
%ADD18R,0.0213X0.0003*%
%ADD19R,0.0227X0.0003*%
%ADD20R,0.0238X0.0003*%
%ADD21R,0.0133X0.0003*%
%ADD22R,0.0083X0.0003*%
%ADD23R,0.0118X0.0003*%
%ADD24R,0.0075X0.0003*%
%ADD25R,0.0110X0.0003*%
%ADD26R,0.0070X0.0003*%
%ADD27R,0.0103X0.0003*%
%ADD28R,0.0067X0.0003*%
%ADD29R,0.0092X0.0003*%
%ADD30R,0.0053X0.0003*%
%ADD31R,0.0088X0.0003*%
%ADD32R,0.0077X0.0003*%
%ADD33R,0.0085X0.0003*%
%ADD34R,0.0073X0.0003*%
%ADD35R,0.0100X0.0003*%
%ADD36R,0.0113X0.0003*%
%ADD37R,0.0055X0.0003*%
%ADD38R,0.0080X0.0003*%
%ADD39R,0.0047X0.0003*%
%ADD40R,0.0057X0.0003*%
%ADD41R,0.0127X0.0003*%
%ADD42R,0.0153X0.0003*%
%ADD43R,0.0060X0.0003*%
%ADD44R,0.0090X0.0003*%
%ADD45R,0.0348X0.0003*%
%ADD46R,0.0063X0.0003*%
%ADD47R,0.0065X0.0003*%
%ADD48R,0.0158X0.0003*%
%ADD49R,0.0187X0.0003*%
%ADD50R,0.0350X0.0003*%
%ADD51R,0.0210X0.0003*%
%ADD52R,0.0050X0.0003*%
%ADD53R,0.0233X0.0003*%
%ADD54R,0.0250X0.0003*%
%ADD55R,0.0273X0.0003*%
%ADD56R,0.0295X0.0003*%
%ADD57R,0.0315X0.0003*%
%ADD58R,0.0338X0.0003*%
%ADD59R,0.0355X0.0003*%
%ADD60R,0.0095X0.0003*%
%ADD61R,0.0375X0.0003*%
%ADD62R,0.0398X0.0003*%
%ADD63R,0.0418X0.0003*%
%ADD64R,0.0105X0.0003*%
%ADD65R,0.0437X0.0003*%
%ADD66R,0.0345X0.0003*%
%ADD67R,0.0455X0.0003*%
%ADD68R,0.0343X0.0003*%
%ADD69R,0.0475X0.0003*%
%ADD70R,0.0120X0.0003*%
%ADD71R,0.0490X0.0003*%
%ADD72R,0.0125X0.0003*%
%ADD73R,0.0510X0.0003*%
%ADD74R,0.0340X0.0003*%
%ADD75R,0.0527X0.0003*%
%ADD76R,0.0540X0.0003*%
%ADD77R,0.0138X0.0003*%
%ADD78R,0.0558X0.0003*%
%ADD79R,0.0143X0.0003*%
%ADD80R,0.0573X0.0003*%
%ADD81R,0.0147X0.0003*%
%ADD82R,0.0590X0.0003*%
%ADD83R,0.0602X0.0003*%
%ADD84R,0.0615X0.0003*%
%ADD85R,0.0335X0.0003*%
%ADD86R,0.0163X0.0003*%
%ADD87R,0.0633X0.0003*%
%ADD88R,0.0170X0.0003*%
%ADD89R,0.0645X0.0003*%
%ADD90R,0.0020X0.0003*%
%ADD91R,0.0658X0.0003*%
%ADD92R,0.0182X0.0003*%
%ADD93R,0.0032X0.0003*%
%ADD94R,0.0670X0.0003*%
%ADD95R,0.0190X0.0003*%
%ADD96R,0.0043X0.0003*%
%ADD97R,0.0680X0.0003*%
%ADD98R,0.0195X0.0003*%
%ADD99R,0.0693X0.0003*%
%ADD100R,0.0203X0.0003*%
%ADD101R,0.0703X0.0003*%
%ADD102R,0.0217X0.0003*%
%ADD103R,0.0715X0.0003*%
%ADD104R,0.0305X0.0003*%
%ADD105R,0.0725X0.0003*%
%ADD106R,0.0735X0.0003*%
%ADD107R,0.0308X0.0003*%
%ADD108R,0.0742X0.0003*%
%ADD109R,0.0755X0.0003*%
%ADD110R,0.0313X0.0003*%
%ADD111R,0.0765X0.0003*%
%ADD112R,0.0360X0.0003*%
%ADD113R,0.0772X0.0003*%
%ADD114R,0.0370X0.0003*%
%ADD115R,0.0318X0.0003*%
%ADD116R,0.0780X0.0003*%
%ADD117R,0.0382X0.0003*%
%ADD118R,0.0788X0.0003*%
%ADD119R,0.0395X0.0003*%
%ADD120R,0.0320X0.0003*%
%ADD121R,0.0795X0.0003*%
%ADD122R,0.0413X0.0003*%
%ADD123R,0.0803X0.0003*%
%ADD124R,0.0430X0.0003*%
%ADD125R,0.0325X0.0003*%
%ADD126R,0.0810X0.0003*%
%ADD127R,0.0447X0.0003*%
%ADD128R,0.0330X0.0003*%
%ADD129R,0.0818X0.0003*%
%ADD130R,0.0473X0.0003*%
%ADD131R,0.0823X0.0003*%
%ADD132R,0.0867X0.0003*%
%ADD133R,0.0830X0.0003*%
%ADD134R,0.0870X0.0003*%
%ADD135R,0.0835X0.0003*%
%ADD136R,0.0877X0.0003*%
%ADD137R,0.0840X0.0003*%
%ADD138R,0.0882X0.0003*%
%ADD139R,0.0845X0.0003*%
%ADD140R,0.0890X0.0003*%
%ADD141R,0.0850X0.0003*%
%ADD142R,0.0897X0.0003*%
%ADD143R,0.0855X0.0003*%
%ADD144R,0.0902X0.0003*%
%ADD145R,0.0860X0.0003*%
%ADD146R,0.0910X0.0003*%
%ADD147R,0.0862X0.0003*%
%ADD148R,0.0917X0.0003*%
%ADD149R,0.0925X0.0003*%
%ADD150R,0.0872X0.0003*%
%ADD151R,0.0930X0.0003*%
%ADD152R,0.0875X0.0003*%
%ADD153R,0.0938X0.0003*%
%ADD154R,0.0880X0.0003*%
%ADD155R,0.0945X0.0003*%
%ADD156R,0.0953X0.0003*%
%ADD157R,0.0887X0.0003*%
%ADD158R,0.0960X0.0003*%
%ADD159R,0.0968X0.0003*%
%ADD160R,0.0973X0.0003*%
%ADD161R,0.0895X0.0003*%
%ADD162R,0.0980X0.0003*%
%ADD163R,0.0985X0.0003*%
%ADD164R,0.0900X0.0003*%
%ADD165R,0.0990X0.0003*%
%ADD166R,0.0010X0.0003*%
%ADD167R,0.0993X0.0003*%
%ADD168R,0.0905X0.0003*%
%ADD169R,0.0998X0.0003*%
%ADD170R,0.0907X0.0003*%
%ADD171R,0.1000X0.0003*%
%ADD172R,0.0912X0.0003*%
%ADD173R,0.0915X0.0003*%
%ADD174R,0.0035X0.0003*%
%ADD175R,0.0995X0.0003*%
%ADD176R,0.0922X0.0003*%
%ADD177R,0.0927X0.0003*%
%ADD178R,0.0123X0.0003*%
%ADD179R,0.0372X0.0003*%
%ADD180R,0.0352X0.0003*%
%ADD181R,0.0140X0.0003*%
%ADD182R,0.0442X0.0003*%
%ADD183R,0.0115X0.0003*%
%ADD184R,0.0310X0.0003*%
%ADD185R,0.0323X0.0003*%
%ADD186R,0.0432X0.0003*%
%ADD187R,0.1005X0.0003*%
%ADD188R,0.0423X0.0003*%
%ADD189R,0.1008X0.0003*%
%ADD190R,0.0300X0.0003*%
%ADD191R,0.0415X0.0003*%
%ADD192R,0.1013X0.0003*%
%ADD193R,0.0302X0.0003*%
%ADD194R,0.0290X0.0003*%
%ADD195R,0.0408X0.0003*%
%ADD196R,0.1015X0.0003*%
%ADD197R,0.0280X0.0003*%
%ADD198R,0.0403X0.0003*%
%ADD199R,0.1022X0.0003*%
%ADD200R,0.0265X0.0003*%
%ADD201R,0.1030X0.0003*%
%ADD202R,0.0240X0.0003*%
%ADD203R,0.0262X0.0003*%
%ADD204R,0.0390X0.0003*%
%ADD205R,0.1038X0.0003*%
%ADD206R,0.0255X0.0003*%
%ADD207R,0.0388X0.0003*%
%ADD208R,0.0150X0.0003*%
%ADD209R,0.1043X0.0003*%
%ADD210R,0.0248X0.0003*%
%ADD211R,0.0385X0.0003*%
%ADD212R,0.0638X0.0003*%
%ADD213R,0.0220X0.0003*%
%ADD214R,0.0377X0.0003*%
%ADD215R,0.0160X0.0003*%
%ADD216R,0.0215X0.0003*%
%ADD217R,0.0165X0.0003*%
%ADD218R,0.0628X0.0003*%
%ADD219R,0.0208X0.0003*%
%ADD220R,0.0367X0.0003*%
%ADD221R,0.0365X0.0003*%
%ADD222R,0.0362X0.0003*%
%ADD223R,0.0568X0.0003*%
%ADD224R,0.0027X0.0003*%
%ADD225R,0.0205X0.0003*%
%ADD226R,0.0357X0.0003*%
%ADD227R,0.0565X0.0003*%
%ADD228R,0.0630X0.0003*%
%ADD229R,0.0193X0.0003*%
%ADD230R,0.0563X0.0003*%
%ADD231R,0.0560X0.0003*%
%ADD232R,0.0635X0.0003*%
%ADD233R,0.0230X0.0003*%
%ADD234R,0.0030X0.0003*%
%ADD235R,0.0555X0.0003*%
%ADD236R,0.0177X0.0003*%
%ADD237R,0.0643X0.0003*%
%ADD238R,0.0278X0.0003*%
%ADD239R,0.0553X0.0003*%
%ADD240R,0.0293X0.0003*%
%ADD241R,0.0648X0.0003*%
%ADD242R,0.0550X0.0003*%
%ADD243R,0.0650X0.0003*%
%ADD244R,0.0653X0.0003*%
%ADD245R,0.0333X0.0003*%
%ADD246R,0.0548X0.0003*%
%ADD247R,0.0655X0.0003*%
%ADD248R,0.0545X0.0003*%
%ADD249R,0.0660X0.0003*%
%ADD250R,0.0145X0.0003*%
%ADD251R,0.0328X0.0003*%
%ADD252R,0.0665X0.0003*%
%ADD253R,0.0668X0.0003*%
%ADD254R,0.0135X0.0003*%
%ADD255R,0.0543X0.0003*%
%ADD256R,0.0675X0.0003*%
%ADD257R,0.0173X0.0003*%
%ADD258R,0.0685X0.0003*%
%ADD259R,0.0688X0.0003*%
%ADD260R,0.0200X0.0003*%
%ADD261R,0.0107X0.0003*%
%ADD262R,0.0460X0.0003*%
%ADD263R,0.0537X0.0003*%
%ADD264R,0.0435X0.0003*%
%ADD265R,0.0045X0.0003*%
%ADD266R,0.0428X0.0003*%
%ADD267R,0.0425X0.0003*%
%ADD268R,0.0168X0.0003*%
%ADD269R,0.0180X0.0003*%
%ADD270R,0.0420X0.0003*%
%ADD271R,0.0297X0.0003*%
%ADD272R,0.0222X0.0003*%
%ADD273R,0.0253X0.0003*%
%ADD274R,0.0257X0.0003*%
%ADD275R,0.0040X0.0003*%
%ADD276R,0.0270X0.0003*%
%ADD277R,0.0288X0.0003*%
%ADD278R,0.0275X0.0003*%
%ADD279R,0.0440X0.0003*%
%ADD280R,0.0267X0.0003*%
%ADD281R,0.0285X0.0003*%
%ADD282R,0.0260X0.0003*%
%ADD283R,0.0185X0.0003*%
%ADD284R,0.0283X0.0003*%
%ADD285R,0.0235X0.0003*%
%ADD286R,0.0025X0.0003*%
%ADD287R,0.0022X0.0003*%
%ADD288R,0.0013X0.0003*%
%ADD289R,0.0245X0.0003*%
%ADD290R,0.0640X0.0003*%
%ADD291R,0.0243X0.0003*%
%ADD292R,0.0535X0.0003*%
%ADD293R,0.0522X0.0003*%
%ADD294R,0.0520X0.0003*%
%ADD295R,0.0517X0.0003*%
%ADD296R,0.0515X0.0003*%
%ADD297R,0.0512X0.0003*%
%ADD298R,0.0508X0.0003*%
%ADD299R,0.0505X0.0003*%
%ADD300R,0.0503X0.0003*%
%ADD301R,0.0500X0.0003*%
%ADD302R,0.0225X0.0003*%
%ADD303R,0.0498X0.0003*%
%ADD304R,0.0495X0.0003*%
%ADD305R,0.0380X0.0003*%
%ADD306R,0.0400X0.0003*%
%ADD307R,0.0405X0.0003*%
%ADD308R,0.0410X0.0003*%
%ADD309R,0.0018X0.0003*%
%ADD310R,0.0015X0.0003*%
%ADD311R,0.0488X0.0003*%
%ADD312R,0.0480X0.0003*%
%ADD313R,0.0465X0.0003*%
%ADD314R,0.0452X0.0003*%
%ADD315R,0.0445X0.0003*%
%ADD316R,0.0485X0.0003*%
%ADD317R,0.0462X0.0003*%
%ADD318R,0.0595X0.0003*%
%ADD319R,0.0580X0.0003*%
%ADD320R,0.0525X0.0003*%
%ADD321R,0.0393X0.0003*%
%ADD322R,0.0737X0.0003*%
%ADD323R,0.0727X0.0003*%
%ADD324R,0.0678X0.0003*%
%ADD325R,0.0612X0.0003*%
%ADD326R,0.0597X0.0003*%
%ADD327R,0.0583X0.0003*%
%ADD328C,0.0060*%
%ADD329C,0.0110*%
%ADD330R,0.0098X0.0098*%
%ADD331C,0.0080*%
%ADD332C,0.0020*%
%ADD333C,0.0050*%
%ADD334C,0.0039*%
%ADD335C,0.0100*%
D10*
X000880Y001190D02*
X000880Y019286D01*
X017750Y019286D01*
X017750Y001190D01*
X000880Y001190D01*
X000980Y001266D02*
X000982Y001265D01*
X000985Y001265D01*
X000987Y001266D01*
X000987Y001270D01*
X000983Y001270D01*
X000984Y001270D02*
X000985Y001271D01*
X000985Y001274D01*
X000983Y001274D01*
X000982Y001275D02*
X000980Y001273D01*
X000980Y001266D01*
X000981Y001270D02*
X000984Y001270D01*
X000981Y001270D02*
X000980Y001271D01*
X000980Y001276D01*
X000981Y001278D01*
X000984Y001278D01*
X000985Y001276D01*
X000985Y001277D02*
X000985Y001278D01*
X000985Y001278D01*
X000985Y001277D01*
X000985Y001277D01*
X000985Y001277D01*
X000985Y001278D01*
X000985Y001278D01*
X000985Y001277D01*
X000987Y001277D02*
X000990Y001282D01*
X000987Y001277D01*
X000987Y001275D02*
X000987Y001274D01*
X000989Y001274D01*
X000989Y001275D01*
X000987Y001275D01*
X000985Y001275D02*
X000982Y001275D01*
X000983Y001277D02*
X000983Y001278D01*
X000983Y001280D01*
X000982Y001280D01*
X000983Y001280D01*
X000983Y001278D01*
X000983Y001277D01*
X000981Y001277D01*
X000980Y001278D01*
X000980Y001281D01*
X000981Y001282D01*
X000983Y001282D01*
X000983Y001281D01*
X000983Y001282D01*
X000981Y001282D01*
X000980Y001281D01*
X000980Y001278D01*
X000981Y001277D01*
X000983Y001277D01*
X000985Y001280D02*
X000985Y001280D01*
X000985Y001280D01*
X000985Y001280D01*
X000985Y001280D01*
X000985Y001280D01*
X000985Y001280D01*
X000985Y001280D01*
X000985Y001280D01*
X000984Y001283D02*
X000986Y001285D01*
X000987Y001285D01*
X000987Y001285D01*
X000986Y001286D02*
X000986Y001285D01*
X000985Y001285D01*
X000985Y001287D01*
X000986Y001287D01*
X000986Y001286D01*
X000986Y001286D01*
X000986Y001285D01*
X000988Y001285D01*
X000988Y001286D01*
X000987Y001286D01*
X000986Y001286D01*
X000986Y001285D02*
X000986Y001283D01*
X000986Y001284D02*
X000988Y001284D01*
X000988Y001284D01*
X000988Y001285D01*
X000987Y001285D01*
X000988Y001285D02*
X000988Y001285D01*
X000989Y001285D01*
X000989Y001285D01*
X000990Y001285D01*
X000990Y001286D01*
X000989Y001286D01*
X000988Y001286D01*
X000989Y001285D01*
X000990Y001285D01*
X000990Y001285D01*
X000991Y001285D01*
X000990Y001285D01*
X000990Y001286D02*
X000990Y001286D01*
X000991Y001286D01*
X000991Y001286D01*
X000991Y001285D01*
X000990Y001284D02*
X000989Y001284D01*
X000989Y001283D01*
X000989Y001283D01*
X000990Y001283D01*
X000991Y001283D01*
X000991Y001284D01*
X000990Y001284D01*
X000989Y001284D02*
X000989Y001284D01*
X000987Y001286D02*
X000987Y001286D01*
X000984Y001287D02*
X000983Y001285D01*
X000983Y001284D02*
X000983Y001284D01*
X000983Y001284D01*
X000983Y001284D01*
X000983Y001284D01*
X000983Y001283D02*
X000983Y001283D01*
X000983Y001283D01*
X000983Y001283D01*
X000983Y001283D01*
X000982Y001283D02*
X000982Y001284D01*
X000981Y001284D01*
X000981Y001285D02*
X000981Y001285D01*
X000981Y001286D01*
X000981Y001287D01*
X000980Y001287D01*
X000980Y001286D01*
X000980Y001285D01*
X000980Y001283D01*
X000980Y001283D01*
X000981Y001283D01*
X000982Y001283D01*
X000982Y001285D02*
X000982Y001285D01*
X000981Y001285D01*
X000980Y001285D01*
X000980Y001285D01*
X000980Y001285D01*
X000981Y001285D01*
X000981Y001286D02*
X000981Y001286D01*
X000982Y001286D02*
X000982Y001286D01*
X000982Y001286D01*
X000982Y001286D01*
X000982Y001286D01*
X000982Y001285D02*
X000982Y001285D01*
X000982Y001285D01*
X000982Y001285D01*
X000992Y001284D02*
X000992Y001284D01*
X000992Y001284D01*
X000993Y001284D01*
X000993Y001283D01*
X000993Y001283D01*
X000992Y001283D01*
X000992Y001282D02*
X000994Y001282D01*
X000995Y001281D01*
X000995Y001280D01*
X000994Y001279D01*
X000992Y001279D01*
X000994Y001279D01*
X000995Y001280D01*
X000995Y001281D01*
X000994Y001282D01*
X000992Y001282D01*
X000992Y001277D01*
X000992Y001282D01*
X000994Y001283D02*
X000994Y001284D01*
X000995Y001284D01*
X000996Y001284D01*
X000996Y001284D01*
X000996Y001284D01*
X000994Y001284D01*
X000993Y001284D02*
X000992Y001284D01*
X000992Y001285D02*
X000993Y001285D01*
X000993Y001286D01*
X000994Y001286D01*
X000995Y001286D01*
X000995Y001286D01*
X000996Y001286D01*
X000996Y001286D01*
X000996Y001285D01*
X000996Y001285D01*
X000995Y001285D01*
X000995Y001285D01*
X000995Y001286D01*
X000995Y001287D02*
X000995Y001285D01*
X000994Y001285D01*
X000993Y001285D01*
X000992Y001286D02*
X000992Y001285D01*
X000992Y001286D02*
X000992Y001286D01*
X000992Y001287D02*
X000992Y001287D01*
X000994Y001283D02*
X000995Y001283D01*
X000996Y001283D01*
X000997Y001283D02*
X000998Y001283D01*
X000998Y001284D01*
X000999Y001284D01*
X001000Y001284D01*
X001001Y001285D02*
X001001Y001287D01*
X001002Y001287D01*
X001002Y001286D01*
X001002Y001286D01*
X001002Y001285D01*
X001003Y001285D01*
X001003Y001285D01*
X001004Y001285D01*
X001004Y001286D01*
X001005Y001286D01*
X001006Y001286D01*
X001006Y001286D01*
X001006Y001285D01*
X001006Y001285D01*
X001007Y001285D01*
X001006Y001285D01*
X001005Y001285D01*
X001005Y001285D01*
X001006Y001285D01*
X001005Y001285D02*
X001004Y001285D01*
X001005Y001285D02*
X001004Y001286D01*
X001003Y001286D01*
X001002Y001286D01*
X001002Y001285D01*
X001001Y001285D01*
X001002Y001284D02*
X001001Y001284D01*
X001001Y001283D01*
X001002Y001283D01*
X001003Y001283D01*
X001003Y001284D01*
X001002Y001284D01*
X001002Y001284D01*
X001002Y001283D02*
X001002Y001283D01*
X001004Y001283D02*
X001004Y001284D01*
X001005Y001284D01*
X001005Y001284D01*
X001005Y001283D01*
X001006Y001283D02*
X001008Y001285D01*
X001009Y001285D01*
X001009Y001286D01*
X001009Y001286D01*
X001010Y001286D01*
X001010Y001285D02*
X001011Y001285D01*
X001011Y001285D01*
X001011Y001286D01*
X001011Y001286D01*
X001012Y001286D01*
X001012Y001286D01*
X001012Y001285D01*
X001012Y001285D01*
X001011Y001285D01*
X001011Y001284D01*
X001010Y001284D01*
X001009Y001284D01*
X001009Y001285D02*
X001009Y001285D01*
X001010Y001285D01*
X001009Y001285D01*
X001009Y001283D01*
X001011Y001283D02*
X001011Y001282D01*
X001011Y001283D01*
X001012Y001283D01*
X001013Y001283D01*
X001013Y001284D01*
X001013Y001284D01*
X001012Y001284D01*
X001011Y001284D01*
X001011Y001283D01*
X001010Y001285D02*
X001010Y001287D01*
X001008Y001287D02*
X001008Y001287D01*
X001008Y001286D02*
X001008Y001286D01*
X001008Y001285D01*
X001007Y001286D02*
X001007Y001285D01*
X001007Y001286D02*
X001007Y001286D01*
X001006Y001286D01*
X001003Y001286D02*
X001003Y001286D01*
X001000Y001285D02*
X001000Y001283D01*
X000999Y001283D01*
X000998Y001283D01*
X000997Y001284D02*
X000997Y001283D01*
X000997Y001284D02*
X000997Y001284D01*
X000997Y001285D02*
X000997Y001286D01*
X000998Y001286D01*
X000998Y001286D01*
X000998Y001285D01*
X000999Y001285D02*
X001000Y001287D01*
X000997Y001286D02*
X000997Y001285D01*
X000997Y001280D02*
X000996Y001280D01*
X000996Y001278D01*
X000997Y001277D01*
X000999Y001277D01*
X000999Y001278D01*
X000999Y001280D01*
X000997Y001280D01*
X000996Y001280D01*
X000996Y001278D01*
X000997Y001277D01*
X000999Y001277D01*
X000999Y001278D01*
X000999Y001280D01*
X000999Y001280D01*
X000997Y001280D01*
X000999Y001280D02*
X000999Y001280D01*
X001001Y001280D02*
X001002Y001280D01*
X001004Y001280D01*
X001002Y001280D01*
X001001Y001280D01*
X001002Y001279D01*
X001003Y001279D01*
X001004Y001278D01*
X001003Y001277D01*
X001001Y001277D01*
X001003Y001277D01*
X001004Y001278D01*
X001003Y001279D01*
X001002Y001279D01*
X001001Y001280D01*
X001002Y001278D02*
X001004Y001276D01*
X001004Y001274D01*
X001002Y001272D01*
X000998Y001272D01*
X000998Y001270D02*
X000998Y001278D01*
X001002Y001278D01*
X001005Y001278D02*
X001005Y001280D01*
X001006Y001280D01*
X001008Y001280D01*
X001009Y001280D01*
X001009Y001279D01*
X001005Y001279D01*
X001009Y001279D01*
X001009Y001280D01*
X001008Y001280D01*
X001006Y001280D01*
X001005Y001280D01*
X001005Y001278D01*
X001006Y001277D01*
X001008Y001277D01*
X001006Y001277D01*
X001005Y001278D01*
X001007Y001275D02*
X001006Y001274D01*
X001006Y001271D01*
X001007Y001270D01*
X001010Y001270D01*
X001011Y001271D01*
X001011Y001274D01*
X001010Y001275D01*
X001007Y001275D01*
X001008Y001275D02*
X001010Y001273D01*
X001010Y001270D01*
X001008Y001268D01*
X001003Y001268D01*
X001003Y001265D02*
X001003Y001275D01*
X001008Y001275D01*
X001010Y001277D02*
X001012Y001277D01*
X001010Y001277D01*
X001011Y001277D02*
X001011Y001280D01*
X001010Y001280D01*
X001011Y001280D01*
X001011Y001277D01*
X001013Y001278D02*
X001013Y001280D01*
X001014Y001280D01*
X001016Y001280D01*
X001014Y001280D01*
X001013Y001280D01*
X001013Y001278D01*
X001014Y001277D01*
X001016Y001277D01*
X001016Y001282D01*
X001016Y001277D01*
X001014Y001277D01*
X001013Y001278D01*
X001014Y001275D02*
X001018Y001275D01*
X001018Y001277D02*
X001018Y001278D01*
X001018Y001280D01*
X001018Y001280D01*
X001018Y001278D01*
X001018Y001277D01*
X001020Y001277D01*
X001021Y001278D01*
X001021Y001280D01*
X001020Y001280D01*
X001018Y001280D01*
X001018Y001280D01*
X001020Y001280D01*
X001021Y001280D01*
X001021Y001278D01*
X001020Y001277D01*
X001018Y001277D01*
X001014Y001275D02*
X001013Y001274D01*
X001014Y001272D01*
X001017Y001272D01*
X001018Y001271D01*
X001017Y001270D01*
X001013Y001270D01*
X001012Y001270D02*
X001012Y001266D01*
X001014Y001265D01*
X001017Y001265D01*
X001019Y001266D01*
X001019Y001270D01*
X001017Y001271D01*
X001014Y001271D01*
X001012Y001270D01*
X001021Y001271D02*
X001021Y001274D01*
X001022Y001275D01*
X001025Y001275D01*
X001026Y001274D01*
X001026Y001272D01*
X001021Y001272D01*
X001021Y001271D02*
X001022Y001270D01*
X001025Y001270D01*
X001023Y001271D02*
X001028Y001271D01*
X001028Y001270D02*
X001031Y001270D01*
X001032Y001271D01*
X001036Y001271D01*
X001037Y001270D01*
X001037Y001268D01*
X001031Y001268D01*
X001031Y001266D02*
X001031Y001270D01*
X001029Y001270D02*
X001029Y001275D01*
X001028Y001275D01*
X001027Y001277D02*
X001030Y001282D01*
X001027Y001277D01*
X001026Y001277D02*
X001026Y001280D01*
X001025Y001280D01*
X001022Y001280D01*
X001022Y001277D01*
X001022Y001280D01*
X001025Y001280D01*
X001026Y001280D01*
X001026Y001277D01*
X001029Y001279D02*
X001029Y001278D01*
X001031Y001279D02*
X001034Y001279D01*
X001035Y001280D01*
X001035Y001281D01*
X001034Y001282D01*
X001031Y001282D01*
X001031Y001277D01*
X001031Y001282D01*
X001034Y001282D01*
X001035Y001281D01*
X001035Y001280D01*
X001034Y001279D01*
X001031Y001279D01*
X001032Y001283D02*
X001031Y001283D01*
X001032Y001284D01*
X001033Y001284D01*
X001033Y001283D01*
X001032Y001283D01*
X001033Y001284D02*
X001033Y001284D01*
X001032Y001284D01*
X001034Y001284D02*
X001034Y001283D01*
X001034Y001283D01*
X001036Y001283D01*
X001037Y001283D01*
X001037Y001285D01*
X001036Y001285D01*
X001036Y001284D02*
X001034Y001284D01*
X001034Y001284D01*
X001036Y001282D02*
X001036Y001284D01*
X001035Y001282D02*
X001036Y001282D01*
X001035Y001282D02*
X001035Y001282D01*
X001037Y001280D02*
X001036Y001280D01*
X001036Y001278D01*
X001037Y001277D01*
X001039Y001277D01*
X001039Y001278D01*
X001039Y001280D01*
X001039Y001280D01*
X001039Y001280D01*
X001039Y001278D01*
X001039Y001277D01*
X001037Y001277D01*
X001036Y001278D01*
X001036Y001280D01*
X001037Y001280D01*
X001039Y001280D01*
X001037Y001280D01*
X001038Y001278D02*
X001038Y001270D01*
X001034Y001270D01*
X001033Y001271D01*
X001033Y001274D01*
X001034Y001275D01*
X001038Y001275D01*
X001040Y001274D02*
X001040Y001271D01*
X001041Y001270D01*
X001044Y001270D01*
X001045Y001271D01*
X001045Y001274D01*
X001044Y001275D01*
X001041Y001275D01*
X001040Y001274D01*
X001042Y001276D02*
X001042Y001275D01*
X001043Y001277D02*
X001044Y001278D01*
X001043Y001279D01*
X001041Y001279D01*
X001041Y001280D01*
X001041Y001280D01*
X001041Y001280D01*
X001041Y001279D01*
X001043Y001279D01*
X001044Y001278D01*
X001043Y001277D01*
X001041Y001277D01*
X001043Y001277D01*
X001045Y001278D02*
X001045Y001280D01*
X001046Y001280D01*
X001048Y001280D01*
X001049Y001280D01*
X001049Y001279D01*
X001045Y001279D01*
X001049Y001279D01*
X001049Y001280D01*
X001048Y001280D01*
X001046Y001280D01*
X001045Y001280D01*
X001045Y001278D01*
X001046Y001277D01*
X001048Y001277D01*
X001046Y001277D01*
X001045Y001278D01*
X001044Y001280D02*
X001041Y001280D01*
X001044Y001280D01*
X001044Y001283D02*
X001044Y001284D01*
X001043Y001284D01*
X001042Y001284D01*
X001041Y001283D02*
X001041Y001283D01*
X001041Y001283D01*
X001041Y001283D01*
X001041Y001283D01*
X001042Y001283D02*
X001043Y001283D01*
X001044Y001283D01*
X001044Y001284D01*
X001045Y001284D01*
X001046Y001284D01*
X001046Y001283D01*
X001045Y001284D02*
X001045Y001283D01*
X001045Y001284D02*
X001045Y001284D01*
X001046Y001284D02*
X001046Y001284D01*
X001047Y001284D02*
X001048Y001284D01*
X001049Y001284D01*
X001049Y001283D01*
X001048Y001283D01*
X001047Y001283D01*
X001047Y001282D02*
X001047Y001284D01*
X001051Y001283D02*
X001051Y001282D01*
X001051Y001283D01*
X001051Y001280D02*
X001051Y001277D01*
X001051Y001280D01*
X001050Y001280D01*
X001051Y001280D01*
X001053Y001280D02*
X001054Y001280D01*
X001056Y001280D01*
X001054Y001280D01*
X001053Y001280D01*
X001053Y001278D01*
X001054Y001277D01*
X001056Y001277D01*
X001056Y001282D01*
X001056Y001277D01*
X001054Y001277D01*
X001053Y001278D01*
X001053Y001280D01*
X001051Y001277D02*
X001050Y001277D01*
X001051Y001277D01*
X001052Y001275D02*
X001053Y001274D01*
X001053Y001270D01*
X001053Y001271D02*
X001048Y001271D01*
X001046Y001270D01*
X001046Y001266D01*
X001048Y001265D01*
X001053Y001265D01*
X001053Y001275D01*
X001052Y001275D02*
X001048Y001275D01*
X001048Y001270D01*
X001042Y001271D02*
X001042Y001265D01*
X001043Y001265D02*
X001040Y001265D01*
X001036Y001265D02*
X001032Y001265D01*
X001031Y001266D01*
X001028Y001266D02*
X001026Y001268D01*
X001023Y001268D01*
X001021Y001270D01*
X001023Y001271D01*
X001021Y001265D02*
X001026Y001265D01*
X001028Y001266D01*
X001040Y001271D02*
X001042Y001271D01*
X001042Y001283D02*
X001042Y001285D01*
X001040Y001284D02*
X001040Y001284D01*
X001039Y001284D01*
X001038Y001284D01*
X001038Y001284D01*
X001038Y001283D01*
X001038Y001283D01*
X001038Y001284D02*
X001040Y001284D01*
X001039Y001283D02*
X001038Y001283D01*
X001030Y001283D02*
X001029Y001283D01*
X001029Y001285D01*
X001029Y001285D01*
X001029Y001286D01*
X001029Y001286D01*
X001028Y001286D01*
X001028Y001284D01*
X001028Y001283D01*
X001027Y001284D02*
X001028Y001284D01*
X001029Y001284D02*
X001029Y001284D01*
X001029Y001285D02*
X001028Y001285D01*
X001029Y001285D02*
X001030Y001285D01*
X001027Y001286D02*
X001027Y001285D01*
X001027Y001286D01*
X001027Y001286D01*
X001027Y001286D01*
X001026Y001286D01*
X001026Y001286D01*
X001026Y001285D01*
X001026Y001286D01*
X001025Y001286D01*
X001024Y001286D01*
X001024Y001287D02*
X001024Y001285D01*
X001024Y001285D01*
X001023Y001285D01*
X001023Y001285D01*
X001021Y001285D01*
X001020Y001285D01*
X001019Y001285D01*
X001018Y001285D01*
X001017Y001285D01*
X001017Y001285D01*
X001017Y001285D01*
X001018Y001285D01*
X001018Y001286D01*
X001018Y001285D01*
X001018Y001284D02*
X001018Y001284D01*
X001018Y001284D01*
X001017Y001284D01*
X001017Y001284D01*
X001017Y001283D01*
X001017Y001283D01*
X001018Y001283D01*
X001018Y001284D02*
X001017Y001284D01*
X001016Y001285D02*
X001015Y001285D01*
X001015Y001287D01*
X001016Y001287D01*
X001017Y001286D02*
X001018Y001286D01*
X001018Y001286D01*
X001019Y001286D01*
X001020Y001286D01*
X001020Y001284D01*
X001019Y001284D01*
X001019Y001284D01*
X001020Y001284D01*
X001020Y001283D01*
X001019Y001283D01*
X001021Y001283D02*
X001021Y001284D01*
X001021Y001284D01*
X001023Y001284D01*
X001023Y001283D01*
X001024Y001283D01*
X001025Y001283D01*
X001025Y001284D01*
X001025Y001284D01*
X001024Y001284D01*
X001023Y001284D01*
X001024Y001285D02*
X001023Y001285D01*
X001023Y001286D01*
X001022Y001286D01*
X001022Y001286D01*
X001021Y001286D01*
X001021Y001285D01*
X001022Y001285D01*
X001022Y001285D01*
X001023Y001285D02*
X001023Y001283D01*
X001021Y001283D01*
X001021Y001283D01*
X001021Y001285D02*
X001021Y001287D01*
X001020Y001287D01*
X001020Y001286D02*
X001020Y001285D01*
X001024Y001285D02*
X001025Y001285D01*
X001026Y001285D01*
X001026Y001284D02*
X001027Y001284D01*
X001026Y001283D02*
X001026Y001284D01*
X001025Y001283D02*
X001025Y001283D01*
X001016Y001283D02*
X001015Y001284D01*
X001014Y001284D01*
X001014Y001284D01*
X001014Y001284D01*
X001016Y001284D01*
X001015Y001283D02*
X001016Y001283D01*
X001015Y001283D02*
X001014Y001283D01*
X001013Y001283D02*
X001013Y001283D01*
X001013Y001285D02*
X001013Y001286D01*
X001014Y001286D01*
X001014Y001286D01*
X001014Y001285D01*
X001015Y001286D02*
X001015Y001286D01*
X001000Y001275D02*
X000994Y001265D01*
X000991Y001265D02*
X000989Y001265D01*
X000989Y001266D01*
X000991Y001266D01*
X000991Y001265D01*
X000991Y001270D02*
X000996Y001278D01*
X000991Y001271D02*
X000991Y001270D01*
X000989Y001270D01*
X000989Y001271D01*
X000989Y001270D01*
X000987Y001270D01*
X000987Y001271D01*
X000989Y001271D01*
X000991Y001271D01*
X000987Y001273D02*
X000985Y001275D01*
X001055Y001270D02*
X001060Y001278D01*
X001061Y001278D02*
X001061Y001280D01*
X001060Y001280D01*
X001058Y001280D01*
X001057Y001280D01*
X001057Y001278D01*
X001058Y001277D01*
X001060Y001277D01*
X001061Y001278D01*
X001061Y001280D01*
X001060Y001280D01*
X001058Y001280D01*
X001057Y001280D01*
X001057Y001278D01*
X001058Y001277D01*
X001060Y001277D01*
X001061Y001278D01*
X001062Y001278D02*
X001066Y001278D01*
X001068Y001276D01*
X001068Y001274D01*
X001066Y001272D01*
X001062Y001272D01*
X001060Y001271D02*
X001057Y001271D01*
X001055Y001270D01*
X001055Y001266D01*
X001057Y001265D01*
X001060Y001265D01*
X001062Y001266D01*
X001062Y001270D01*
X001060Y001271D01*
X001062Y001270D02*
X001062Y001278D01*
X001062Y001277D02*
X001062Y001280D01*
X001065Y001280D01*
X001065Y001277D01*
X001065Y001280D01*
X001065Y001280D01*
X001065Y001280D01*
X001062Y001280D01*
X001062Y001277D01*
X001067Y001277D02*
X001070Y001277D01*
X001067Y001277D01*
X001067Y001282D01*
X001070Y001282D01*
X001067Y001282D01*
X001067Y001277D01*
X001067Y001280D02*
X001068Y001280D01*
X001067Y001280D01*
X001071Y001278D02*
X001072Y001279D01*
X001075Y001279D01*
X001072Y001279D01*
X001071Y001278D01*
X001072Y001277D01*
X001075Y001277D01*
X001075Y001280D01*
X001074Y001280D01*
X001072Y001280D01*
X001074Y001280D01*
X001075Y001280D01*
X001075Y001277D01*
X001072Y001277D01*
X001071Y001278D01*
X001071Y001275D02*
X001070Y001274D01*
X001070Y001271D01*
X001071Y001270D01*
X001071Y001265D01*
X001074Y001265D02*
X001080Y001275D01*
X001079Y001276D02*
X001079Y001280D01*
X001077Y001280D01*
X001076Y001280D01*
X001076Y001278D01*
X001077Y001277D01*
X001079Y001277D01*
X001077Y001277D01*
X001076Y001278D01*
X001076Y001280D01*
X001077Y001280D01*
X001079Y001280D01*
X001079Y001276D01*
X001078Y001275D01*
X001082Y001275D01*
X001083Y001275D02*
X001088Y001275D01*
X001090Y001274D01*
X001090Y001272D01*
X001084Y001272D01*
X001084Y001271D02*
X001084Y001274D01*
X001086Y001275D01*
X001088Y001275D01*
X001089Y001273D01*
X001089Y001270D01*
X001088Y001268D01*
X001083Y001268D01*
X001081Y001270D02*
X001082Y001271D01*
X001081Y001272D01*
X001078Y001272D01*
X001077Y001274D01*
X001078Y001275D01*
X001078Y001275D01*
X001079Y001276D01*
X001078Y001275D02*
X001078Y001275D01*
X001081Y001277D02*
X001082Y001277D01*
X001081Y001277D01*
X001081Y001282D01*
X001081Y001282D01*
X001081Y001277D01*
X001084Y001278D02*
X001084Y001280D01*
X001084Y001280D01*
X001084Y001280D01*
X001084Y001278D01*
X001084Y001277D01*
X001086Y001277D01*
X001084Y001277D01*
X001084Y001278D01*
X001084Y001279D02*
X001087Y001279D01*
X001087Y001280D01*
X001086Y001280D01*
X001084Y001280D01*
X001086Y001280D01*
X001087Y001280D01*
X001087Y001279D01*
X001084Y001279D01*
X001081Y001282D02*
X001081Y001282D01*
X001083Y001275D02*
X001083Y001265D01*
X001081Y001270D02*
X001077Y001270D01*
X001075Y001271D02*
X001075Y001274D01*
X001074Y001275D01*
X001071Y001275D01*
X001069Y001271D02*
X001071Y001270D01*
X001074Y001270D01*
X001075Y001271D01*
X001069Y001271D02*
X001064Y001271D01*
X001064Y001265D01*
X001084Y001271D02*
X001086Y001270D01*
X001088Y001270D01*
X001092Y001270D02*
X001094Y001270D01*
X001093Y001270D02*
X001093Y001275D01*
X001092Y001275D01*
X001093Y001277D02*
X001094Y001278D01*
X001094Y001280D01*
X001093Y001280D01*
X001090Y001280D01*
X001093Y001280D01*
X001094Y001280D01*
X001094Y001278D01*
X001093Y001277D01*
X001090Y001277D01*
X001090Y001282D01*
X001090Y001277D01*
X001093Y001277D01*
X001093Y001278D02*
X001093Y001279D01*
X001095Y001280D02*
X001096Y001280D01*
X001097Y001280D01*
X001098Y001280D01*
X001098Y001277D01*
X001098Y001280D01*
X001098Y001280D01*
X001098Y001280D01*
X001097Y001280D01*
X001097Y001277D01*
X001097Y001280D01*
X001096Y001280D01*
X001095Y001280D01*
X001095Y001277D01*
X001095Y001280D01*
X001100Y001280D02*
X001102Y001280D01*
X001103Y001280D01*
X001103Y001278D01*
X001102Y001277D01*
X001100Y001277D01*
X001102Y001277D01*
X001103Y001278D01*
X001103Y001280D01*
X001102Y001280D01*
X001100Y001280D01*
X001100Y001275D01*
X001100Y001280D01*
X001102Y001278D02*
X001102Y001270D01*
X001098Y001270D01*
X001097Y001271D01*
X001094Y001271D01*
X001092Y001270D01*
X001092Y001266D01*
X001094Y001265D01*
X001097Y001265D01*
X001099Y001266D01*
X001099Y001270D01*
X001097Y001271D01*
X001097Y001274D01*
X001098Y001275D01*
X001102Y001275D01*
X001104Y001274D02*
X001104Y001271D01*
X001105Y001270D01*
X001108Y001270D01*
X001109Y001271D01*
X001109Y001274D01*
X001108Y001275D01*
X001105Y001275D01*
X001104Y001274D01*
X001103Y001271D02*
X001108Y001271D01*
X001110Y001270D02*
X001112Y001271D01*
X001115Y001271D01*
X001117Y001270D01*
X001117Y001268D01*
X001110Y001268D01*
X001110Y001266D02*
X001110Y001270D01*
X001111Y001270D02*
X001111Y001275D01*
X001115Y001275D01*
X001117Y001274D01*
X001117Y001270D01*
X001119Y001270D02*
X001124Y001270D01*
X001126Y001270D02*
X001127Y001271D01*
X001132Y001271D01*
X001131Y001272D02*
X001127Y001272D01*
X001126Y001271D01*
X001127Y001270D01*
X001131Y001270D01*
X001131Y001274D01*
X001130Y001275D01*
X001127Y001275D01*
X001124Y001278D02*
X001119Y001278D01*
X001119Y001270D01*
X001120Y001271D02*
X001121Y001271D01*
X001121Y001265D01*
X001120Y001265D02*
X001123Y001265D01*
X001126Y001266D02*
X001126Y001270D01*
X001126Y001266D02*
X001127Y001265D01*
X001132Y001265D01*
X001132Y001275D01*
X001133Y001274D02*
X001133Y001271D01*
X001135Y001270D01*
X001135Y001266D01*
X001137Y001265D01*
X001140Y001265D01*
X001142Y001266D01*
X001142Y001270D01*
X001142Y001278D01*
X001141Y001278D01*
X001139Y001275D02*
X001135Y001275D01*
X001133Y001274D01*
X001135Y001270D02*
X001137Y001271D01*
X001140Y001271D01*
X001142Y001270D01*
X001141Y001270D02*
X001143Y001270D01*
X001144Y001271D02*
X001149Y001271D01*
X001151Y001270D01*
X001151Y001265D01*
X001153Y001265D02*
X001160Y001265D01*
X001163Y001266D02*
X001164Y001268D01*
X001169Y001268D01*
X001169Y001270D02*
X001169Y001265D01*
X001164Y001265D01*
X001163Y001266D01*
X001164Y001270D02*
X001164Y001275D01*
X001165Y001275D01*
X001167Y001274D01*
X001168Y001275D01*
X001169Y001274D01*
X001169Y001270D01*
X001168Y001271D01*
X001164Y001271D01*
X001162Y001271D02*
X001162Y001274D01*
X001161Y001275D01*
X001157Y001275D01*
X001157Y001278D02*
X001157Y001270D01*
X001161Y001270D01*
X001162Y001271D01*
X001160Y001275D02*
X001153Y001275D01*
X001153Y001265D01*
X001154Y001270D02*
X001153Y001270D01*
X001153Y001271D01*
X001154Y001271D01*
X001154Y001270D01*
X001153Y001270D02*
X001157Y001270D01*
X001151Y001272D02*
X001146Y001272D01*
X001146Y001271D02*
X001146Y001274D01*
X001147Y001275D01*
X001150Y001275D01*
X001151Y001274D01*
X001151Y001272D01*
X001150Y001270D02*
X001147Y001270D01*
X001146Y001271D01*
X001144Y001271D02*
X001144Y001265D01*
X001139Y001268D02*
X001139Y001275D01*
X001139Y001270D02*
X001135Y001270D01*
X001136Y001267D02*
X001137Y001267D01*
X001139Y001268D01*
X001121Y001274D02*
X001119Y001274D01*
X001121Y001276D02*
X001121Y001275D01*
X001115Y001265D02*
X001112Y001265D01*
X001110Y001266D01*
X001108Y001266D02*
X001106Y001268D01*
X001103Y001268D01*
X001101Y001270D01*
X001103Y001271D01*
X001101Y001265D02*
X001106Y001265D01*
X001108Y001266D01*
X001089Y001277D02*
X001088Y001277D01*
X001088Y001278D01*
X001089Y001278D01*
X001089Y001277D01*
X001088Y001277D01*
X001088Y001278D01*
X001089Y001278D01*
X001089Y001277D01*
X001167Y001274D02*
X001167Y001270D01*
X001171Y001270D02*
X001175Y001270D01*
X001177Y001271D01*
X001177Y001274D01*
X001175Y001275D01*
X001171Y001275D01*
X001171Y001267D01*
X001172Y001266D02*
X001173Y001265D01*
X001178Y001265D01*
X001178Y001263D02*
X001178Y001271D01*
X001173Y001271D01*
X001172Y001270D01*
X001172Y001266D01*
X001175Y001261D02*
X001177Y001261D01*
X001178Y001263D01*
X001181Y001265D02*
X001184Y001265D01*
X001183Y001265D02*
X001183Y001275D01*
X001181Y001275D01*
X001187Y001270D02*
X001189Y001271D01*
X001192Y001271D01*
X001194Y001270D01*
X001194Y001268D01*
X001187Y001268D01*
X001187Y001266D02*
X001187Y001270D01*
X001187Y001266D02*
X001189Y001265D01*
X001192Y001265D01*
X001196Y001265D02*
X001198Y001265D01*
X001198Y001266D01*
X001196Y001266D01*
X001196Y001265D01*
X001201Y001265D02*
X001206Y001265D01*
X001208Y001266D01*
X001208Y001270D01*
X001206Y001271D01*
X001201Y001271D01*
X001201Y001275D02*
X001201Y001265D01*
X001210Y001265D02*
X001210Y001271D01*
X001212Y001271D01*
X001214Y001270D01*
X001215Y001271D01*
X001217Y001270D01*
X001217Y001265D01*
X001219Y001265D02*
X001224Y001265D01*
X001226Y001266D01*
X001226Y001270D01*
X001224Y001271D01*
X001219Y001271D01*
X001219Y001261D01*
X001214Y001265D02*
X001214Y001270D01*
X001630Y017890D02*
X001632Y017940D01*
X001638Y017990D01*
X001648Y018040D01*
X001661Y018088D01*
X001678Y018136D01*
X001699Y018182D01*
X001723Y018226D01*
X001751Y018268D01*
X001782Y018308D01*
X001816Y018345D01*
X001853Y018380D01*
X001892Y018411D01*
X001933Y018440D01*
X001977Y018465D01*
X002023Y018487D01*
X002070Y018505D01*
X002118Y018519D01*
X002167Y018530D01*
X002217Y018537D01*
X002267Y018540D01*
X002318Y018539D01*
X002368Y018534D01*
X002418Y018525D01*
X002466Y018513D01*
X002514Y018496D01*
X002560Y018476D01*
X002605Y018453D01*
X002648Y018426D01*
X002688Y018396D01*
X002726Y018363D01*
X002761Y018327D01*
X002794Y018288D01*
X002823Y018247D01*
X002849Y018204D01*
X002872Y018159D01*
X002891Y018112D01*
X002906Y018064D01*
X002918Y018015D01*
X002926Y017965D01*
X002930Y017915D01*
X002930Y017865D01*
X002926Y017815D01*
X002918Y017765D01*
X002906Y017716D01*
X002891Y017668D01*
X002872Y017621D01*
X002849Y017576D01*
X002823Y017533D01*
X002794Y017492D01*
X002761Y017453D01*
X002726Y017417D01*
X002688Y017384D01*
X002648Y017354D01*
X002605Y017327D01*
X002560Y017304D01*
X002514Y017284D01*
X002466Y017267D01*
X002418Y017255D01*
X002368Y017246D01*
X002318Y017241D01*
X002267Y017240D01*
X002217Y017243D01*
X002167Y017250D01*
X002118Y017261D01*
X002070Y017275D01*
X002023Y017293D01*
X001977Y017315D01*
X001933Y017340D01*
X001892Y017369D01*
X001853Y017400D01*
X001816Y017435D01*
X001782Y017472D01*
X001751Y017512D01*
X001723Y017554D01*
X001699Y017598D01*
X001678Y017644D01*
X001661Y017692D01*
X001648Y017740D01*
X001638Y017790D01*
X001632Y017840D01*
X001630Y017890D01*
D11*
X010017Y002755D02*
X010211Y002755D01*
X010114Y002755D02*
X010114Y002465D01*
X010163Y002275D02*
X010017Y002275D01*
X010017Y001985D01*
X010163Y001985D01*
X010211Y002033D01*
X010211Y002081D01*
X010163Y002130D01*
X010017Y002130D01*
X010163Y002130D02*
X010211Y002178D01*
X010211Y002226D01*
X010163Y002275D01*
X010312Y002130D02*
X010360Y002178D01*
X010457Y002178D01*
X010506Y002130D01*
X010506Y002081D01*
X010312Y002081D01*
X010312Y002033D02*
X010312Y002130D01*
X010312Y002033D02*
X010360Y001985D01*
X010457Y001985D01*
X010607Y001985D02*
X010607Y002178D01*
X010752Y002178D01*
X010800Y002130D01*
X010800Y001985D01*
X010752Y001698D02*
X010703Y001698D01*
X010607Y001601D01*
X010607Y001505D02*
X010607Y001698D01*
X010506Y001650D02*
X010506Y001505D01*
X010360Y001505D01*
X010312Y001553D01*
X010360Y001601D01*
X010506Y001601D01*
X010506Y001650D02*
X010457Y001698D01*
X010360Y001698D01*
X010211Y001795D02*
X010211Y001505D01*
X010017Y001505D02*
X010017Y001795D01*
X010114Y001698D01*
X010211Y001795D01*
X010852Y001650D02*
X010852Y001553D01*
X010901Y001505D01*
X011046Y001505D01*
X011147Y001505D02*
X011147Y001795D01*
X011195Y001698D02*
X011292Y001698D01*
X011340Y001650D01*
X011340Y001505D01*
X011147Y001650D02*
X011195Y001698D01*
X011046Y001698D02*
X010901Y001698D01*
X010852Y001650D01*
X011196Y001985D02*
X011196Y002275D01*
X011341Y002275D01*
X011390Y002226D01*
X011390Y002130D01*
X011341Y002081D01*
X011196Y002081D01*
X011293Y002081D02*
X011390Y001985D01*
X011491Y002033D02*
X011539Y001985D01*
X011636Y001985D01*
X011684Y002033D01*
X011684Y002130D01*
X011636Y002178D01*
X011539Y002178D01*
X011491Y002130D01*
X011491Y002033D01*
X011785Y002033D02*
X011785Y002178D01*
X011785Y002033D02*
X011834Y001985D01*
X011882Y002033D01*
X011930Y001985D01*
X011979Y002033D01*
X011979Y002178D01*
X012080Y002275D02*
X012128Y002275D01*
X012128Y001985D01*
X012080Y001985D02*
X012177Y001985D01*
X012276Y001985D02*
X012373Y001985D01*
X012325Y001985D02*
X012325Y002178D01*
X012276Y002178D01*
X012325Y002275D02*
X012325Y002323D01*
X012325Y002465D02*
X012276Y002513D01*
X012276Y002610D01*
X012325Y002658D01*
X012422Y002658D01*
X012470Y002610D01*
X012470Y002561D01*
X012276Y002561D01*
X012325Y002465D02*
X012422Y002465D01*
X012571Y002465D02*
X012571Y002658D01*
X012716Y002658D01*
X012765Y002610D01*
X012765Y002465D01*
X012816Y002178D02*
X012961Y002178D01*
X012913Y002081D02*
X012816Y002081D01*
X012767Y002130D01*
X012816Y002178D01*
X012913Y002081D02*
X012961Y002033D01*
X012913Y001985D01*
X012767Y001985D01*
X012666Y001985D02*
X012666Y002130D01*
X012618Y002178D01*
X012473Y002178D01*
X012473Y001985D01*
X012422Y001795D02*
X012422Y001505D01*
X012326Y001505D02*
X012519Y001505D01*
X012620Y001553D02*
X012669Y001505D01*
X012765Y001505D01*
X012814Y001553D01*
X012814Y001601D01*
X012765Y001650D01*
X012717Y001650D01*
X012765Y001650D02*
X012814Y001698D01*
X012814Y001746D01*
X012765Y001795D01*
X012669Y001795D01*
X012620Y001746D01*
X012422Y001795D02*
X012326Y001698D01*
X012224Y001746D02*
X012031Y001553D01*
X012079Y001505D01*
X012176Y001505D01*
X012224Y001553D01*
X012224Y001746D01*
X012176Y001795D01*
X012079Y001795D01*
X012031Y001746D01*
X012031Y001553D01*
X011930Y001505D02*
X011736Y001505D01*
X011930Y001698D01*
X011930Y001746D01*
X011881Y001795D01*
X011785Y001795D01*
X011736Y001746D01*
X011785Y002465D02*
X011736Y002513D01*
X011785Y002561D01*
X011930Y002561D01*
X011930Y002610D02*
X011930Y002465D01*
X011785Y002465D01*
X011785Y002658D02*
X011881Y002658D01*
X011930Y002610D01*
X012031Y002561D02*
X012176Y002658D01*
X012031Y002561D02*
X012176Y002465D01*
X012031Y002465D02*
X012031Y002755D01*
X011636Y002658D02*
X011587Y002658D01*
X011491Y002561D01*
X011491Y002465D02*
X011491Y002658D01*
X011390Y002755D02*
X011196Y002561D01*
X011244Y002610D02*
X011390Y002465D01*
X011196Y002465D02*
X011196Y002755D01*
X010800Y002610D02*
X010800Y002561D01*
X010607Y002561D01*
X010607Y002513D02*
X010607Y002610D01*
X010655Y002658D01*
X010752Y002658D01*
X010800Y002610D01*
X010752Y002465D02*
X010655Y002465D01*
X010607Y002513D01*
X010506Y002465D02*
X010506Y002610D01*
X010457Y002658D01*
X010360Y002658D01*
X010312Y002610D01*
X010312Y002755D02*
X010312Y002465D01*
X013062Y002130D02*
X013062Y002033D01*
X013111Y001985D01*
X013207Y001985D01*
X013256Y002033D01*
X013256Y002130D01*
X013207Y002178D01*
X013111Y002178D01*
X013062Y002130D01*
X013357Y002178D02*
X013502Y002178D01*
X013550Y002130D01*
X013550Y001985D01*
X013357Y001985D02*
X013357Y002178D01*
X013257Y002465D02*
X013354Y002658D01*
X013455Y002610D02*
X013503Y002658D01*
X013600Y002658D01*
X013649Y002610D01*
X013649Y002561D01*
X013455Y002561D01*
X013455Y002513D02*
X013455Y002610D01*
X013455Y002513D02*
X013503Y002465D01*
X013600Y002465D01*
X013750Y002465D02*
X013750Y002658D01*
X013846Y002658D02*
X013750Y002561D01*
X013846Y002658D02*
X013895Y002658D01*
X013995Y002658D02*
X014092Y002755D01*
X014092Y002465D01*
X013995Y002465D02*
X014189Y002465D01*
X014290Y002465D02*
X014338Y002465D01*
X014338Y002513D01*
X014290Y002513D01*
X014290Y002465D01*
X014437Y002610D02*
X014631Y002610D01*
X014582Y002465D02*
X014582Y002755D01*
X014437Y002610D01*
X013257Y002465D02*
X013160Y002658D01*
D12*
X012053Y003005D03*
X012990Y003750D03*
X013358Y003805D03*
X014773Y003362D03*
X010713Y003762D03*
X010273Y003440D03*
X010270Y003442D03*
D13*
X010325Y003377D03*
X010328Y003375D03*
X010445Y003412D03*
X010448Y003410D03*
X010673Y003545D03*
X010723Y003725D03*
X010898Y003945D03*
X011168Y003957D03*
X011168Y003960D03*
X011168Y003962D03*
X011168Y003965D03*
X011168Y003967D03*
X011168Y003970D03*
X011168Y003972D03*
X011168Y003975D03*
X011168Y003977D03*
X011168Y003980D03*
X011168Y003982D03*
X011170Y003985D03*
X011170Y003987D03*
X011170Y003990D03*
X011170Y003947D03*
X011188Y003747D03*
X011275Y003640D03*
X011428Y003675D03*
X011450Y003567D03*
X011638Y003597D03*
X011638Y003600D03*
X011398Y003930D03*
X011400Y003935D03*
X011400Y003937D03*
X011403Y003945D03*
X011403Y003947D03*
X011403Y003985D03*
X011403Y003987D03*
X011403Y003990D03*
X011400Y003992D03*
X011400Y003995D03*
X011400Y003997D03*
X011725Y004292D03*
X011733Y004287D03*
X011735Y004285D03*
X011738Y004282D03*
X011745Y004277D03*
X011748Y004275D03*
X012033Y004062D03*
X012040Y004057D03*
X012045Y004055D03*
X012593Y004050D03*
X012598Y004052D03*
X012600Y004055D03*
X012605Y004057D03*
X012610Y004060D03*
X012618Y004065D03*
X012625Y004070D03*
X012630Y004072D03*
X012633Y004075D03*
X012638Y004077D03*
X012640Y004080D03*
X012645Y004082D03*
X012648Y004085D03*
X012653Y004087D03*
X012655Y004090D03*
X012660Y004092D03*
X012663Y004095D03*
X012668Y004097D03*
X012670Y004100D03*
X012673Y004102D03*
X012678Y004105D03*
X012685Y004110D03*
X012688Y004112D03*
X012695Y004117D03*
X012985Y003740D03*
X013193Y003757D03*
X013195Y003762D03*
X013198Y003767D03*
X013200Y003770D03*
X013203Y003772D03*
X013203Y003775D03*
X013205Y003777D03*
X013530Y003930D03*
X013645Y004207D03*
X013638Y004212D03*
X013713Y003655D03*
X013665Y003452D03*
X014200Y003537D03*
X014203Y003535D03*
X012443Y003100D03*
X012050Y003007D03*
X011940Y003037D03*
X010470Y003945D03*
X010138Y004225D03*
X010135Y004222D03*
X010133Y004220D03*
X010130Y004217D03*
X010128Y004215D03*
X010125Y004212D03*
X010123Y004210D03*
X010120Y004207D03*
X010118Y004205D03*
X010115Y004202D03*
D14*
X010401Y004415D03*
X010406Y004417D03*
X011196Y004030D03*
X011201Y003897D03*
X011199Y003722D03*
X011284Y003602D03*
X011284Y003600D03*
X011466Y003555D03*
X011569Y003812D03*
X011984Y003600D03*
X012121Y004015D03*
X011496Y004452D03*
X011489Y004457D03*
X011484Y004460D03*
X010726Y003687D03*
X010514Y003370D03*
X010351Y003350D03*
X010349Y003352D03*
X011479Y003280D03*
X012049Y003010D03*
X012901Y003347D03*
X012906Y003622D03*
X012981Y003730D03*
X013241Y003815D03*
X013549Y004255D03*
X013556Y004252D03*
X012851Y004215D03*
X012846Y004212D03*
X012841Y004210D03*
X014254Y003505D03*
X014156Y003267D03*
X014724Y003377D03*
D15*
X014704Y003382D03*
X014294Y003487D03*
X013546Y003750D03*
X013546Y003752D03*
X013544Y003747D03*
X013516Y003897D03*
X013509Y004267D03*
X012454Y003992D03*
X012161Y004000D03*
X011639Y003647D03*
X011286Y003570D03*
X011479Y003295D03*
X012049Y003012D03*
X012416Y003460D03*
X011374Y004520D03*
X011369Y004522D03*
X010819Y003980D03*
X010551Y003980D03*
X010474Y004455D03*
X010479Y004457D03*
X010546Y003357D03*
X010364Y003337D03*
D16*
X011269Y003515D03*
X011271Y003517D03*
X011479Y003305D03*
X011631Y003662D03*
X011566Y003802D03*
X011289Y003840D03*
X010521Y004477D03*
X012314Y003955D03*
X012959Y004255D03*
X013214Y003732D03*
X013511Y003892D03*
X013709Y003575D03*
X013716Y003560D03*
X013719Y003555D03*
X013719Y003552D03*
X012479Y003140D03*
X012404Y003447D03*
X012046Y003015D03*
D17*
X012045Y003017D03*
X012138Y003440D03*
X011985Y003577D03*
X012390Y003440D03*
X012615Y003655D03*
X013115Y003627D03*
X013205Y003712D03*
X013730Y003527D03*
X013938Y003365D03*
X012998Y004265D03*
X010990Y004012D03*
X010690Y004025D03*
X010560Y004495D03*
X010388Y003315D03*
D18*
X010673Y003317D03*
X010673Y003585D03*
X011288Y004092D03*
X010595Y004510D03*
X012045Y003020D03*
X013200Y003707D03*
X013735Y003517D03*
X014653Y003395D03*
X013020Y004270D03*
D19*
X013740Y003510D03*
X014195Y003292D03*
X012043Y003022D03*
X011288Y003857D03*
X011158Y004202D03*
X011285Y004547D03*
X010625Y004522D03*
X010405Y003302D03*
D20*
X010673Y003607D03*
X011563Y003782D03*
X011983Y003557D03*
X012043Y003025D03*
X013655Y003632D03*
X013745Y003505D03*
D21*
X013530Y003707D03*
X013530Y003710D03*
X013523Y003907D03*
X013245Y003817D03*
X012910Y003625D03*
X012858Y004217D03*
X012128Y004012D03*
X011643Y003630D03*
X011285Y003597D03*
X011200Y003720D03*
X011368Y003895D03*
X011373Y004032D03*
X010893Y004087D03*
X010843Y003972D03*
X010528Y003972D03*
X010725Y003685D03*
X010673Y003552D03*
X010520Y003367D03*
X010678Y003072D03*
X011478Y003282D03*
X011983Y003027D03*
X012458Y003120D03*
X014258Y003502D03*
X014333Y003270D03*
X011480Y004462D03*
X011475Y004465D03*
X011473Y004467D03*
X011468Y004470D03*
X011463Y004472D03*
X010415Y004422D03*
X010410Y004420D03*
D22*
X010058Y004127D03*
X010055Y004122D03*
X010053Y004120D03*
X010050Y004115D03*
X010433Y003917D03*
X010435Y003920D03*
X010718Y003740D03*
X010930Y003922D03*
X010933Y003920D03*
X010920Y004042D03*
X010915Y004050D03*
X010908Y004062D03*
X010905Y004065D03*
X011048Y004082D03*
X011050Y004077D03*
X011055Y004050D03*
X011285Y004125D03*
X011290Y003825D03*
X011183Y003757D03*
X011440Y003577D03*
X011610Y003557D03*
X011613Y003560D03*
X011625Y003575D03*
X011628Y003577D03*
X011628Y003580D03*
X011110Y003505D03*
X010870Y003377D03*
X010410Y003445D03*
X010408Y003447D03*
X010405Y003450D03*
X010403Y003452D03*
X010313Y003390D03*
X010103Y003335D03*
X010100Y003340D03*
X010098Y003342D03*
X010098Y003345D03*
X010095Y003347D03*
X010093Y003350D03*
X010088Y003357D03*
X010085Y003360D03*
X010083Y003362D03*
X010080Y003365D03*
X010073Y003372D03*
X010070Y003375D03*
X010068Y003377D03*
X010065Y003380D03*
X010063Y003382D03*
X010055Y003387D03*
X010053Y003390D03*
X010050Y003392D03*
X010048Y003395D03*
X010040Y003400D03*
X009935Y003665D03*
X011898Y004157D03*
X011908Y004150D03*
X011918Y004142D03*
X011928Y004135D03*
X012623Y003667D03*
X013003Y003527D03*
X013495Y003817D03*
X013600Y003855D03*
X013535Y003940D03*
X013708Y004157D03*
X013705Y004160D03*
X013703Y004162D03*
X013700Y004165D03*
X013715Y003660D03*
X013740Y003612D03*
X013740Y003610D03*
X013743Y003607D03*
X013743Y003605D03*
X013745Y003600D03*
X013745Y003597D03*
X013625Y003607D03*
X013660Y003430D03*
X014163Y003570D03*
X014165Y003567D03*
X014168Y003565D03*
X012438Y003087D03*
X012125Y003027D03*
X011913Y003050D03*
X011900Y003060D03*
X011900Y003062D03*
D23*
X011968Y003030D03*
X011643Y003617D03*
X011378Y003900D03*
X011193Y003905D03*
X011188Y004022D03*
X010988Y003975D03*
X010860Y003965D03*
X011195Y003732D03*
X010728Y003700D03*
X010343Y003360D03*
X010335Y004375D03*
X010340Y004377D03*
X010343Y004380D03*
X010348Y004382D03*
X011548Y004420D03*
X011555Y004415D03*
X011563Y004410D03*
X011570Y004405D03*
X012095Y004027D03*
X012100Y004025D03*
X012800Y004187D03*
X012805Y004190D03*
X013228Y003802D03*
X013230Y003805D03*
X012898Y003610D03*
X012885Y003595D03*
X012898Y003342D03*
X013530Y003682D03*
X013530Y003685D03*
X013563Y003650D03*
X013615Y003622D03*
X014108Y003372D03*
X014733Y003375D03*
X013580Y004242D03*
X013575Y004245D03*
D24*
X013726Y004137D03*
X013729Y004135D03*
X013731Y004132D03*
X013739Y004122D03*
X013741Y004120D03*
X013744Y004117D03*
X013746Y004115D03*
X013539Y003945D03*
X013609Y003850D03*
X013511Y003800D03*
X013509Y003805D03*
X013506Y003807D03*
X013504Y003810D03*
X013064Y003602D03*
X013011Y003532D03*
X012989Y003745D03*
X013936Y003312D03*
X012436Y003082D03*
X012436Y003080D03*
X012154Y003050D03*
X012154Y003047D03*
X012134Y003030D03*
X011434Y003585D03*
X011416Y003665D03*
X011264Y003672D03*
X011109Y003512D03*
X011109Y003510D03*
X010901Y003397D03*
X010899Y003395D03*
X010894Y003392D03*
X010716Y003745D03*
X010944Y003910D03*
X010946Y003907D03*
X010949Y003905D03*
X010951Y003902D03*
X010954Y003900D03*
X010986Y003967D03*
X010416Y003902D03*
X010414Y003900D03*
X010031Y004075D03*
X010031Y004077D03*
X010029Y004072D03*
X010029Y004070D03*
X010026Y004067D03*
X010026Y004065D03*
X010024Y004060D03*
X010021Y004055D03*
X010019Y004047D03*
X010034Y004082D03*
X010036Y004087D03*
X009929Y003692D03*
X010009Y003425D03*
X010011Y003422D03*
X010014Y003420D03*
X010121Y003292D03*
X010124Y003287D03*
X010124Y003285D03*
X010126Y003282D03*
X010126Y003280D03*
X010129Y003275D03*
X010131Y003270D03*
X010171Y003212D03*
X010174Y003210D03*
X010176Y003207D03*
X010186Y003200D03*
X010221Y003175D03*
X010226Y003172D03*
X010306Y003397D03*
X010394Y003462D03*
X010389Y003470D03*
X010386Y003472D03*
X010384Y003475D03*
D25*
X010336Y003365D03*
X010476Y003390D03*
X010824Y003357D03*
X010726Y003707D03*
X010726Y003710D03*
X010871Y003960D03*
X011184Y003915D03*
X011191Y003740D03*
X011279Y003625D03*
X011386Y003907D03*
X011389Y004020D03*
X011624Y004367D03*
X011621Y004370D03*
X011616Y004372D03*
X011614Y004375D03*
X011606Y004380D03*
X011631Y004362D03*
X012079Y004035D03*
X012524Y004015D03*
X012764Y004165D03*
X012769Y004167D03*
X012771Y004170D03*
X012776Y004172D03*
X013221Y003795D03*
X013526Y003922D03*
X013596Y004235D03*
X013534Y003672D03*
X013536Y003670D03*
X013556Y003652D03*
X013616Y003620D03*
X013944Y003315D03*
X014134Y003355D03*
X014151Y003262D03*
X014344Y003267D03*
X014226Y003520D03*
X012894Y003337D03*
X012449Y003107D03*
X012141Y003062D03*
X011956Y003032D03*
X011481Y003270D03*
X011641Y003610D03*
X011641Y003612D03*
X010494Y003957D03*
X010271Y004332D03*
X010279Y004337D03*
X010281Y004340D03*
X010286Y004342D03*
X010294Y004347D03*
D26*
X010014Y004035D03*
X010011Y004030D03*
X010011Y004027D03*
X010009Y004022D03*
X010009Y004020D03*
X010006Y004017D03*
X010006Y004015D03*
X010006Y004012D03*
X010004Y004010D03*
X010004Y004007D03*
X010001Y004002D03*
X009999Y003995D03*
X009996Y003987D03*
X009931Y003727D03*
X009931Y003725D03*
X009931Y003722D03*
X009931Y003720D03*
X009931Y003717D03*
X009931Y003715D03*
X009931Y003712D03*
X009931Y003710D03*
X009964Y003622D03*
X009951Y003562D03*
X009951Y003560D03*
X009981Y003450D03*
X009984Y003447D03*
X009986Y003445D03*
X009989Y003442D03*
X009991Y003440D03*
X009994Y003437D03*
X010134Y003265D03*
X010136Y003260D03*
X010136Y003257D03*
X010139Y003255D03*
X010141Y003252D03*
X010141Y003250D03*
X010144Y003247D03*
X010144Y003245D03*
X010146Y003242D03*
X010151Y003235D03*
X010154Y003232D03*
X010156Y003230D03*
X010159Y003225D03*
X010161Y003222D03*
X010234Y003167D03*
X010301Y003402D03*
X010376Y003485D03*
X010374Y003490D03*
X010371Y003492D03*
X010369Y003497D03*
X010391Y003877D03*
X010394Y003880D03*
X010396Y003882D03*
X010399Y003885D03*
X010401Y003887D03*
X010961Y003892D03*
X010964Y003890D03*
X010966Y003887D03*
X010969Y003885D03*
X010971Y003882D03*
X011261Y003680D03*
X011261Y003677D03*
X011414Y003660D03*
X011429Y003592D03*
X011431Y003590D03*
X011116Y003537D03*
X011114Y003530D03*
X011114Y003527D03*
X011111Y003520D03*
X010921Y003412D03*
X010919Y003410D03*
X010914Y003407D03*
X010911Y003405D03*
X010909Y003402D03*
X012139Y003032D03*
X012146Y003037D03*
X012149Y003040D03*
X012151Y003042D03*
X012436Y003077D03*
X013016Y003537D03*
X013019Y003540D03*
X013059Y003592D03*
X013316Y003897D03*
X013614Y003845D03*
X013616Y003842D03*
X013716Y003665D03*
X013634Y003597D03*
X013631Y003600D03*
X013936Y003830D03*
X013929Y003840D03*
X013924Y003847D03*
X013919Y003855D03*
X013916Y003857D03*
X013914Y003862D03*
X013911Y003865D03*
X013909Y003870D03*
X013906Y003872D03*
X013904Y003877D03*
X013901Y003880D03*
X013899Y003885D03*
X013894Y003892D03*
X013889Y003900D03*
X013881Y003912D03*
X013861Y003945D03*
X013829Y003997D03*
X013816Y004017D03*
X013811Y004025D03*
X013806Y004032D03*
X013801Y004040D03*
X013796Y004047D03*
X013794Y004050D03*
X013791Y004055D03*
X013789Y004057D03*
X013786Y004062D03*
X013784Y004065D03*
X013781Y004067D03*
X013781Y004070D03*
X013779Y004072D03*
X013776Y004075D03*
X013774Y004080D03*
X013771Y004082D03*
X013769Y004085D03*
X013764Y004092D03*
X014124Y003610D03*
X014126Y003607D03*
X014129Y003605D03*
X014131Y003602D03*
X014134Y003600D03*
D27*
X014215Y003527D03*
X014125Y003365D03*
X014128Y003362D03*
X013618Y003617D03*
X013528Y003925D03*
X013625Y004220D03*
X013620Y004222D03*
X013210Y003782D03*
X013190Y003750D03*
X012878Y003367D03*
X012893Y003335D03*
X012445Y003102D03*
X011948Y003035D03*
X011453Y003565D03*
X011278Y003632D03*
X011190Y003745D03*
X011175Y003930D03*
X011175Y003932D03*
X011173Y003935D03*
X011173Y003937D03*
X011173Y004000D03*
X011175Y004005D03*
X011395Y004007D03*
X011395Y004010D03*
X011395Y003922D03*
X011393Y003920D03*
X011393Y003917D03*
X011695Y004315D03*
X011693Y004317D03*
X011690Y004320D03*
X011685Y004322D03*
X011683Y004325D03*
X011673Y004332D03*
X011700Y004312D03*
X011703Y004310D03*
X012058Y004047D03*
X012063Y004045D03*
X012713Y004130D03*
X012718Y004132D03*
X012720Y004135D03*
X012728Y004140D03*
X012735Y004145D03*
X010885Y003952D03*
X010480Y003950D03*
X010475Y003947D03*
X010193Y004272D03*
X010195Y004275D03*
X010198Y004277D03*
X010208Y004285D03*
X010210Y004287D03*
X010220Y004295D03*
X010185Y004267D03*
X010183Y004265D03*
X010180Y004262D03*
X010178Y004260D03*
X010168Y004252D03*
X010165Y004250D03*
X010163Y004247D03*
X010330Y003372D03*
X010458Y003402D03*
X014743Y003372D03*
D28*
X013968Y003790D03*
X013965Y003792D03*
X013958Y003802D03*
X013955Y003805D03*
X013953Y003807D03*
X013953Y003810D03*
X013950Y003812D03*
X013948Y003815D03*
X013945Y003817D03*
X013945Y003820D03*
X013943Y003822D03*
X013940Y003825D03*
X013938Y003827D03*
X013935Y003832D03*
X013933Y003835D03*
X013930Y003837D03*
X013928Y003842D03*
X013925Y003845D03*
X013923Y003850D03*
X013920Y003852D03*
X013915Y003860D03*
X013910Y003867D03*
X013905Y003875D03*
X013900Y003882D03*
X013898Y003887D03*
X013895Y003890D03*
X013893Y003895D03*
X013890Y003897D03*
X013888Y003902D03*
X013885Y003905D03*
X013885Y003907D03*
X013883Y003910D03*
X013880Y003915D03*
X013878Y003917D03*
X013878Y003920D03*
X013875Y003922D03*
X013873Y003925D03*
X013873Y003927D03*
X013870Y003930D03*
X013870Y003932D03*
X013868Y003935D03*
X013865Y003937D03*
X013865Y003940D03*
X013863Y003942D03*
X013860Y003947D03*
X013858Y003950D03*
X013858Y003952D03*
X013855Y003955D03*
X013853Y003957D03*
X013853Y003960D03*
X013850Y003962D03*
X013850Y003965D03*
X013848Y003967D03*
X013845Y003970D03*
X013845Y003972D03*
X013843Y003975D03*
X013840Y003977D03*
X013840Y003980D03*
X013838Y003982D03*
X013838Y003985D03*
X013835Y003987D03*
X013833Y003990D03*
X013833Y003992D03*
X013830Y003995D03*
X013828Y004000D03*
X013825Y004002D03*
X013825Y004005D03*
X013823Y004007D03*
X013820Y004010D03*
X013820Y004012D03*
X013818Y004015D03*
X013815Y004020D03*
X013813Y004022D03*
X013810Y004027D03*
X013808Y004030D03*
X013805Y004035D03*
X013803Y004037D03*
X013800Y004042D03*
X013798Y004045D03*
X013793Y004052D03*
X013788Y004060D03*
X013540Y003947D03*
X013618Y003840D03*
X013655Y003577D03*
X013170Y003620D03*
X013058Y003590D03*
X013055Y003587D03*
X013053Y003582D03*
X013028Y003547D03*
X013025Y003545D03*
X013023Y003542D03*
X012660Y003152D03*
X012438Y003075D03*
X012143Y003035D03*
X011485Y003250D03*
X011428Y003595D03*
X011413Y003657D03*
X011260Y003682D03*
X011258Y003685D03*
X011258Y003687D03*
X011163Y003700D03*
X011160Y003697D03*
X011178Y003765D03*
X010983Y003867D03*
X010978Y003875D03*
X010975Y003877D03*
X010973Y003880D03*
X010715Y003750D03*
X010390Y003875D03*
X010388Y003872D03*
X010385Y003870D03*
X010363Y003507D03*
X010365Y003502D03*
X010368Y003500D03*
X010370Y003495D03*
X010300Y003405D03*
X010148Y003240D03*
X010150Y003237D03*
X010238Y003165D03*
X010243Y003162D03*
X009980Y003452D03*
X009978Y003455D03*
X009975Y003457D03*
X009973Y003460D03*
X009973Y003462D03*
X009970Y003465D03*
X009968Y003467D03*
X009965Y003472D03*
X009963Y003477D03*
X009958Y003487D03*
X009950Y003515D03*
X009950Y003545D03*
X009950Y003547D03*
X009950Y003550D03*
X009950Y003552D03*
X009950Y003555D03*
X009950Y003557D03*
X009953Y003565D03*
X009953Y003567D03*
X009953Y003570D03*
X009955Y003572D03*
X009955Y003575D03*
X009965Y003620D03*
X009933Y003730D03*
X009933Y003732D03*
X009933Y003735D03*
X009933Y003737D03*
X009933Y003740D03*
X009990Y003970D03*
X009993Y003977D03*
X009995Y003982D03*
X009995Y003985D03*
X009998Y003990D03*
X009998Y003992D03*
X010000Y003997D03*
X010000Y004000D03*
X010003Y004005D03*
X010925Y003415D03*
X010928Y003417D03*
X010930Y003420D03*
X010933Y003422D03*
X011115Y003532D03*
X011115Y003535D03*
X011118Y003540D03*
X011118Y003542D03*
X011118Y003545D03*
X011120Y003550D03*
X011120Y003552D03*
D29*
X011273Y003647D03*
X011448Y003570D03*
X011635Y003592D03*
X011570Y003817D03*
X011795Y004237D03*
X011793Y004240D03*
X011785Y004245D03*
X011783Y004247D03*
X011780Y004250D03*
X011773Y004255D03*
X011770Y004257D03*
X012013Y004075D03*
X012018Y004072D03*
X012020Y004070D03*
X012025Y004067D03*
X011483Y003260D03*
X011933Y003040D03*
X012150Y003057D03*
X012440Y003095D03*
X013663Y003442D03*
X013663Y003445D03*
X013748Y003582D03*
X013530Y003932D03*
X013660Y004197D03*
X013658Y004200D03*
X013653Y004202D03*
X011050Y004030D03*
X011043Y004090D03*
X010930Y004032D03*
X010905Y003940D03*
X010720Y003730D03*
X010460Y003937D03*
X010455Y003935D03*
X010100Y004185D03*
X010098Y004182D03*
X010095Y004180D03*
X010093Y004175D03*
X010090Y004172D03*
X010088Y004170D03*
X010085Y004167D03*
X009943Y003652D03*
X009950Y003640D03*
X009953Y003637D03*
X010320Y003382D03*
X010323Y003380D03*
X010430Y003425D03*
X010433Y003422D03*
X010435Y003420D03*
X010850Y003367D03*
X010855Y003370D03*
D30*
X011018Y003540D03*
X011020Y003545D03*
X011020Y003547D03*
X011023Y003550D03*
X011023Y003552D03*
X011023Y003555D03*
X011025Y003557D03*
X011025Y003560D03*
X011028Y003565D03*
X011028Y003567D03*
X011030Y003570D03*
X011030Y003572D03*
X011030Y003575D03*
X011033Y003580D03*
X011033Y003582D03*
X011035Y003590D03*
X011035Y003592D03*
X011038Y003600D03*
X011038Y003602D03*
X011040Y003612D03*
X011040Y003615D03*
X011043Y003627D03*
X011045Y003652D03*
X011045Y003705D03*
X011045Y003707D03*
X011045Y003710D03*
X011043Y003727D03*
X011043Y003730D03*
X011043Y003732D03*
X011043Y003735D03*
X011040Y003740D03*
X011040Y003742D03*
X011040Y003745D03*
X011040Y003747D03*
X011038Y003752D03*
X011038Y003755D03*
X011038Y003757D03*
X011035Y003762D03*
X011035Y003765D03*
X011033Y003772D03*
X011290Y003822D03*
X010713Y003757D03*
X010333Y003767D03*
X010330Y003760D03*
X010330Y003757D03*
X010328Y003750D03*
X010328Y003747D03*
X010325Y003742D03*
X010325Y003740D03*
X010325Y003737D03*
X010325Y003735D03*
X010323Y003730D03*
X010323Y003727D03*
X010323Y003725D03*
X010323Y003722D03*
X010320Y003712D03*
X010320Y003710D03*
X010320Y003707D03*
X010320Y003705D03*
X010320Y003637D03*
X010320Y003635D03*
X010320Y003632D03*
X010320Y003630D03*
X010320Y003627D03*
X010323Y003620D03*
X010323Y003617D03*
X010323Y003615D03*
X010323Y003612D03*
X010325Y003607D03*
X010325Y003605D03*
X010325Y003602D03*
X010328Y003595D03*
X010328Y003592D03*
X010285Y003422D03*
X011983Y003612D03*
X012660Y003142D03*
X012658Y003137D03*
X012655Y003132D03*
X012533Y003050D03*
X012490Y003040D03*
X012455Y003052D03*
X012450Y003055D03*
X012448Y003057D03*
X013365Y003812D03*
X013545Y003952D03*
X013630Y003810D03*
X013630Y003807D03*
X013630Y003805D03*
X013630Y003802D03*
X013623Y003782D03*
D31*
X013518Y003790D03*
X013533Y003937D03*
X013685Y004177D03*
X013683Y004180D03*
X013680Y004182D03*
X013670Y004190D03*
X012988Y003742D03*
X013070Y003612D03*
X013660Y003435D03*
X013748Y003585D03*
X013748Y003587D03*
X013735Y003620D03*
X013733Y003622D03*
X014180Y003555D03*
X014183Y003552D03*
X014185Y003550D03*
X014353Y003265D03*
X014750Y003370D03*
X012440Y003092D03*
X011928Y003042D03*
X011900Y003065D03*
X011630Y003585D03*
X011445Y003572D03*
X011443Y003575D03*
X011270Y003655D03*
X010865Y003375D03*
X010860Y003372D03*
X010720Y003735D03*
X010915Y003932D03*
X010913Y003935D03*
X010920Y003930D03*
X010925Y004037D03*
X010903Y004070D03*
X011053Y004035D03*
X011055Y004040D03*
X010448Y003930D03*
X010445Y003927D03*
X010073Y004150D03*
X010070Y004147D03*
X010068Y004142D03*
X010065Y004140D03*
X009940Y003657D03*
X009955Y003635D03*
X010318Y003385D03*
X010423Y003432D03*
X011818Y004220D03*
X011828Y004212D03*
X011830Y004210D03*
X011833Y004207D03*
X011838Y004205D03*
X011840Y004202D03*
X011843Y004200D03*
X011850Y004195D03*
X011853Y004192D03*
X011863Y004185D03*
X011865Y004182D03*
X011875Y004175D03*
X011973Y004102D03*
X011980Y004097D03*
X011983Y004095D03*
X011988Y004092D03*
X011990Y004090D03*
D32*
X011618Y003565D03*
X011438Y003582D03*
X011265Y003667D03*
X011265Y003670D03*
X011180Y003760D03*
X010940Y003912D03*
X011055Y004062D03*
X011053Y004070D03*
X010718Y003742D03*
X010673Y003542D03*
X010883Y003385D03*
X010888Y003387D03*
X010890Y003390D03*
X010395Y003460D03*
X010393Y003465D03*
X010390Y003467D03*
X010308Y003395D03*
X010113Y003315D03*
X010110Y003320D03*
X010115Y003307D03*
X010118Y003302D03*
X010118Y003300D03*
X010120Y003297D03*
X010120Y003295D03*
X010123Y003290D03*
X010180Y003205D03*
X010183Y003202D03*
X010190Y003197D03*
X010193Y003195D03*
X010210Y003182D03*
X010218Y003177D03*
X010028Y003410D03*
X010020Y003415D03*
X010018Y003417D03*
X009960Y003627D03*
X009933Y003670D03*
X009933Y003672D03*
X009930Y003677D03*
X009930Y003680D03*
X009930Y003682D03*
X009930Y003685D03*
X009930Y003687D03*
X009930Y003690D03*
X010033Y004080D03*
X010035Y004085D03*
X010038Y004090D03*
X010038Y004092D03*
X010040Y004095D03*
X010040Y004097D03*
X010043Y004100D03*
X010045Y004105D03*
X010418Y003905D03*
X010420Y003907D03*
X011905Y003055D03*
X012493Y003042D03*
X012883Y003327D03*
X013008Y003530D03*
X013065Y003605D03*
X013503Y003812D03*
X013510Y003802D03*
X013513Y003797D03*
X013605Y003852D03*
X013715Y003662D03*
X013628Y003605D03*
X013660Y003425D03*
X014148Y003585D03*
X014150Y003582D03*
X014153Y003580D03*
X014155Y003577D03*
X014158Y003575D03*
X013738Y004125D03*
X013735Y004127D03*
X013733Y004130D03*
X013725Y004140D03*
X013723Y004142D03*
D33*
X013696Y004167D03*
X013694Y004170D03*
X013691Y004172D03*
X013689Y004175D03*
X013516Y003792D03*
X013624Y003610D03*
X013736Y003617D03*
X013739Y003615D03*
X013744Y003602D03*
X013746Y003595D03*
X013746Y003592D03*
X013746Y003590D03*
X013661Y003432D03*
X014171Y003562D03*
X014174Y003560D03*
X014176Y003557D03*
X013069Y003610D03*
X012886Y003330D03*
X012439Y003090D03*
X012151Y003055D03*
X011921Y003045D03*
X011916Y003047D03*
X011484Y003257D03*
X011629Y003582D03*
X011421Y003670D03*
X011269Y003657D03*
X011184Y003755D03*
X010926Y003925D03*
X010924Y003927D03*
X010924Y004040D03*
X010904Y004067D03*
X011046Y004085D03*
X011056Y004047D03*
X011056Y004045D03*
X011056Y004042D03*
X011054Y004037D03*
X011156Y004207D03*
X010719Y003737D03*
X010441Y003925D03*
X010439Y003922D03*
X010069Y004145D03*
X010064Y004137D03*
X010061Y004135D03*
X010061Y004132D03*
X010059Y004130D03*
X010056Y004125D03*
X009936Y003662D03*
X009939Y003660D03*
X009956Y003632D03*
X010059Y003385D03*
X010076Y003370D03*
X010079Y003367D03*
X010089Y003355D03*
X010091Y003352D03*
X010316Y003387D03*
X010411Y003442D03*
X010414Y003440D03*
X010416Y003437D03*
X010419Y003435D03*
X011846Y004197D03*
X011856Y004190D03*
X011859Y004187D03*
X011869Y004180D03*
X011871Y004177D03*
X011879Y004172D03*
X011881Y004170D03*
X011884Y004167D03*
X011889Y004165D03*
X011891Y004162D03*
X011894Y004160D03*
X011901Y004155D03*
X011904Y004152D03*
X011911Y004147D03*
X011914Y004145D03*
X011921Y004140D03*
X011924Y004137D03*
X011931Y004132D03*
X011934Y004130D03*
X011939Y004127D03*
X011941Y004125D03*
X011944Y004122D03*
X011949Y004120D03*
X011951Y004117D03*
X011956Y004115D03*
X011959Y004112D03*
X011961Y004110D03*
X011966Y004107D03*
X011969Y004105D03*
X011976Y004100D03*
D34*
X011983Y003610D03*
X011570Y003820D03*
X011415Y003662D03*
X011433Y003587D03*
X011263Y003675D03*
X011180Y003762D03*
X011113Y003525D03*
X011113Y003522D03*
X011110Y003517D03*
X011110Y003515D03*
X010905Y003400D03*
X010715Y003747D03*
X010958Y003897D03*
X010960Y003895D03*
X010410Y003897D03*
X010408Y003895D03*
X010405Y003892D03*
X010403Y003890D03*
X010375Y003487D03*
X010378Y003482D03*
X010380Y003480D03*
X010383Y003477D03*
X010305Y003400D03*
X010128Y003277D03*
X010130Y003272D03*
X010133Y003267D03*
X010135Y003262D03*
X010158Y003227D03*
X010165Y003220D03*
X010168Y003217D03*
X010170Y003215D03*
X010230Y003170D03*
X010005Y003427D03*
X010003Y003430D03*
X010000Y003432D03*
X009998Y003435D03*
X009963Y003625D03*
X009930Y003695D03*
X009930Y003697D03*
X009930Y003700D03*
X009930Y003702D03*
X009930Y003705D03*
X009930Y003707D03*
X010010Y004025D03*
X010013Y004032D03*
X010015Y004037D03*
X010015Y004040D03*
X010018Y004042D03*
X010018Y004045D03*
X010020Y004050D03*
X010020Y004052D03*
X010023Y004057D03*
X010025Y004062D03*
X011485Y003252D03*
X012153Y003045D03*
X013015Y003535D03*
X013060Y003595D03*
X013063Y003597D03*
X013063Y003600D03*
X013370Y003817D03*
X013610Y003847D03*
X013630Y003602D03*
X013660Y003422D03*
X014135Y003597D03*
X014138Y003595D03*
X014140Y003592D03*
X014143Y003590D03*
X014145Y003587D03*
X013775Y004077D03*
X013768Y004087D03*
X013765Y004090D03*
X013763Y004095D03*
X013760Y004097D03*
X013758Y004100D03*
X013755Y004102D03*
X013755Y004105D03*
X013753Y004107D03*
X013750Y004110D03*
X013748Y004112D03*
X014760Y003367D03*
D35*
X014211Y003530D03*
X014206Y003532D03*
X013744Y003577D03*
X013666Y003457D03*
X013666Y003455D03*
X013524Y003782D03*
X013484Y003822D03*
X013529Y003927D03*
X013634Y004215D03*
X013629Y004217D03*
X013206Y003780D03*
X013191Y003755D03*
X013191Y003752D03*
X012709Y004127D03*
X012706Y004125D03*
X012701Y004122D03*
X012699Y004120D03*
X012691Y004115D03*
X012681Y004107D03*
X012589Y004047D03*
X012584Y004045D03*
X012579Y004042D03*
X012576Y004040D03*
X012571Y004037D03*
X012566Y004035D03*
X012561Y004032D03*
X012054Y004050D03*
X012049Y004052D03*
X011729Y004290D03*
X011721Y004295D03*
X011719Y004297D03*
X011716Y004300D03*
X011711Y004302D03*
X011709Y004305D03*
X011706Y004307D03*
X011399Y004002D03*
X011399Y004000D03*
X011396Y004005D03*
X011399Y003932D03*
X011396Y003927D03*
X011396Y003925D03*
X011171Y003940D03*
X011171Y003942D03*
X011171Y003945D03*
X011169Y003950D03*
X011169Y003952D03*
X011169Y003955D03*
X011171Y003992D03*
X011171Y003995D03*
X011171Y003997D03*
X011174Y004002D03*
X011039Y004092D03*
X010934Y004030D03*
X010899Y004077D03*
X010889Y003950D03*
X010894Y003947D03*
X010724Y003722D03*
X010724Y003720D03*
X010839Y003362D03*
X010454Y003405D03*
X010451Y003407D03*
X011276Y003635D03*
X011276Y003637D03*
X011639Y003602D03*
X011481Y003265D03*
X011904Y003067D03*
X012146Y003060D03*
X012494Y003045D03*
X011286Y004122D03*
X010174Y004257D03*
X010171Y004255D03*
X010159Y004245D03*
X010156Y004242D03*
X010154Y004240D03*
X010151Y004237D03*
X010149Y004235D03*
X010146Y004232D03*
X010144Y004230D03*
X010141Y004227D03*
D36*
X010290Y004345D03*
X010298Y004350D03*
X010300Y004352D03*
X010305Y004355D03*
X010308Y004357D03*
X010313Y004360D03*
X010320Y004365D03*
X010498Y003960D03*
X010895Y004082D03*
X011183Y004017D03*
X011185Y003912D03*
X011188Y003910D03*
X011193Y003737D03*
X011280Y003622D03*
X011280Y003620D03*
X011458Y003560D03*
X011570Y003815D03*
X011383Y003905D03*
X011385Y004022D03*
X011610Y004377D03*
X011603Y004382D03*
X011600Y004385D03*
X011595Y004387D03*
X011593Y004390D03*
X011585Y004395D03*
X012085Y004032D03*
X012090Y004030D03*
X012780Y004175D03*
X012788Y004180D03*
X013223Y003797D03*
X013225Y003800D03*
X013193Y003745D03*
X012890Y003600D03*
X012875Y003372D03*
X012450Y003110D03*
X012495Y003047D03*
X013533Y003675D03*
X013533Y003677D03*
X013708Y003650D03*
X013525Y003920D03*
X013593Y004237D03*
X014230Y003517D03*
X010978Y004647D03*
X010673Y003547D03*
X010485Y003385D03*
X010480Y003387D03*
D37*
X010289Y003420D03*
X010334Y003572D03*
X010331Y003577D03*
X010331Y003580D03*
X010331Y003582D03*
X010329Y003585D03*
X010329Y003587D03*
X010329Y003590D03*
X010326Y003597D03*
X010326Y003600D03*
X010324Y003610D03*
X010324Y003732D03*
X010326Y003745D03*
X010329Y003752D03*
X010329Y003755D03*
X010331Y003762D03*
X010331Y003765D03*
X010334Y003770D03*
X010334Y003772D03*
X010336Y003777D03*
X010336Y003780D03*
X010339Y003785D03*
X010339Y003787D03*
X010341Y003792D03*
X009956Y003855D03*
X009954Y003845D03*
X009951Y003835D03*
X010259Y003152D03*
X010671Y003305D03*
X010994Y003495D03*
X010999Y003502D03*
X011001Y003507D03*
X011004Y003512D03*
X011006Y003515D03*
X011006Y003517D03*
X011009Y003520D03*
X011009Y003522D03*
X011011Y003525D03*
X011011Y003527D03*
X011014Y003530D03*
X011014Y003532D03*
X011016Y003535D03*
X011016Y003537D03*
X011019Y003542D03*
X011026Y003562D03*
X011039Y003750D03*
X011036Y003760D03*
X011034Y003767D03*
X011034Y003770D03*
X011031Y003775D03*
X011031Y003777D03*
X011031Y003780D03*
X011029Y003782D03*
X011029Y003785D03*
X011026Y003790D03*
X011026Y003792D03*
X011024Y003797D03*
X011021Y003802D03*
X011174Y003770D03*
X011411Y003630D03*
X011286Y004127D03*
X012661Y003145D03*
X012659Y003140D03*
X012461Y003050D03*
X012444Y003060D03*
X013171Y003617D03*
X013619Y003780D03*
X013629Y003812D03*
X013629Y003815D03*
X013629Y003817D03*
X013719Y003670D03*
X013656Y003417D03*
D38*
X013659Y003427D03*
X013514Y003795D03*
X013499Y003815D03*
X013536Y003942D03*
X013719Y004145D03*
X013716Y004147D03*
X013714Y004150D03*
X013711Y004152D03*
X013709Y004155D03*
X014161Y003572D03*
X014146Y003257D03*
X013066Y003607D03*
X012436Y003085D03*
X012154Y003052D03*
X011909Y003052D03*
X011901Y003057D03*
X011484Y003255D03*
X011439Y003580D03*
X011419Y003667D03*
X011269Y003662D03*
X011269Y003660D03*
X011266Y003665D03*
X011109Y003507D03*
X010879Y003382D03*
X010874Y003380D03*
X010401Y003455D03*
X010399Y003457D03*
X010311Y003392D03*
X010114Y003312D03*
X010114Y003310D03*
X010116Y003305D03*
X010111Y003317D03*
X010109Y003322D03*
X010109Y003325D03*
X010106Y003327D03*
X010106Y003330D03*
X010104Y003332D03*
X010101Y003337D03*
X010044Y003397D03*
X010036Y003402D03*
X010034Y003405D03*
X010031Y003407D03*
X010024Y003412D03*
X009959Y003630D03*
X009934Y003667D03*
X009931Y003675D03*
X010044Y004102D03*
X010046Y004107D03*
X010046Y004110D03*
X010049Y004112D03*
X010051Y004117D03*
X010424Y003910D03*
X010426Y003912D03*
X010429Y003915D03*
X010691Y004035D03*
X010909Y004060D03*
X010911Y004057D03*
X010911Y004055D03*
X010914Y004052D03*
X010916Y004047D03*
X010919Y004045D03*
X010936Y003917D03*
X010939Y003915D03*
X011056Y004052D03*
X011056Y004055D03*
X011056Y004057D03*
X011056Y004060D03*
X011054Y004065D03*
X011054Y004067D03*
X011051Y004072D03*
X011051Y004075D03*
X011049Y004080D03*
X011619Y003567D03*
X011621Y003570D03*
X011624Y003572D03*
X011616Y003562D03*
X010214Y003180D03*
X010206Y003185D03*
X010204Y003187D03*
X010199Y003190D03*
X010196Y003192D03*
D39*
X010263Y003150D03*
X010280Y003430D03*
X010713Y003760D03*
X011173Y003772D03*
X012543Y003052D03*
X012550Y003055D03*
X012558Y003057D03*
X012563Y003060D03*
X012568Y003062D03*
X012573Y003065D03*
X012578Y003067D03*
X012583Y003070D03*
X012588Y003072D03*
X012590Y003075D03*
X012595Y003077D03*
X012603Y003082D03*
X012613Y003090D03*
X012623Y003097D03*
X012625Y003100D03*
X012648Y003122D03*
X012970Y003367D03*
X012975Y003370D03*
X012990Y003382D03*
X012993Y003385D03*
X013170Y003615D03*
X013363Y003810D03*
X013628Y003790D03*
X013630Y003797D03*
X013630Y003800D03*
X014363Y003262D03*
D40*
X014765Y003365D03*
X014073Y003667D03*
X014070Y003670D03*
X014068Y003672D03*
X014065Y003675D03*
X014063Y003677D03*
X014053Y003690D03*
X014050Y003692D03*
X014048Y003695D03*
X014045Y003697D03*
X013628Y003820D03*
X012660Y003147D03*
X012443Y003062D03*
X012440Y003065D03*
X011485Y003247D03*
X011418Y003612D03*
X011415Y003617D03*
X011415Y003620D03*
X011413Y003622D03*
X011413Y003625D03*
X011413Y003627D03*
X011410Y003632D03*
X011410Y003635D03*
X011410Y003637D03*
X011410Y003640D03*
X011410Y003642D03*
X011410Y003645D03*
X011143Y003637D03*
X011140Y003627D03*
X011003Y003510D03*
X011000Y003505D03*
X010998Y003500D03*
X010995Y003497D03*
X010993Y003492D03*
X010990Y003490D03*
X010990Y003487D03*
X010988Y003485D03*
X010985Y003482D03*
X010983Y003477D03*
X010980Y003475D03*
X010673Y003540D03*
X010343Y003547D03*
X010340Y003552D03*
X010340Y003555D03*
X010338Y003560D03*
X010338Y003562D03*
X010335Y003565D03*
X010335Y003567D03*
X010335Y003570D03*
X010333Y003575D03*
X010290Y003417D03*
X010255Y003155D03*
X009965Y003595D03*
X009965Y003597D03*
X009968Y003600D03*
X009968Y003602D03*
X009968Y003605D03*
X009968Y003607D03*
X009968Y003610D03*
X009943Y003797D03*
X009943Y003800D03*
X009945Y003805D03*
X009945Y003807D03*
X009945Y003810D03*
X009945Y003812D03*
X009948Y003815D03*
X009948Y003817D03*
X009948Y003820D03*
X009948Y003822D03*
X009950Y003825D03*
X009950Y003827D03*
X009950Y003830D03*
X009950Y003832D03*
X009953Y003837D03*
X009953Y003840D03*
X009953Y003842D03*
X009955Y003847D03*
X009955Y003850D03*
X009955Y003852D03*
X009958Y003857D03*
X009958Y003860D03*
X009958Y003862D03*
X009960Y003865D03*
X009960Y003867D03*
X009960Y003870D03*
X009960Y003872D03*
X009963Y003877D03*
X009963Y003880D03*
X009965Y003887D03*
X009968Y003897D03*
X010335Y003775D03*
X010338Y003782D03*
X010340Y003790D03*
X010343Y003795D03*
X010343Y003797D03*
X010345Y003800D03*
X010345Y003802D03*
X010348Y003807D03*
X010350Y003812D03*
X010353Y003817D03*
X010355Y003822D03*
X010358Y003827D03*
X011008Y003830D03*
X011013Y003822D03*
X011013Y003820D03*
X011015Y003817D03*
X011015Y003815D03*
X011018Y003812D03*
X011018Y003810D03*
X011020Y003807D03*
X011020Y003805D03*
X011023Y003800D03*
X011025Y003795D03*
X011028Y003787D03*
D41*
X011198Y003725D03*
X010988Y003977D03*
X010850Y003970D03*
X010520Y003970D03*
X010393Y004410D03*
X010398Y004412D03*
X011288Y004117D03*
X011500Y004450D03*
X011505Y004447D03*
X011493Y004455D03*
X011643Y003627D03*
X011643Y003625D03*
X012135Y003065D03*
X012455Y003117D03*
X012905Y003620D03*
X012485Y004000D03*
X013523Y003910D03*
X013530Y003705D03*
X013530Y003702D03*
X013530Y003700D03*
X010808Y003352D03*
X010508Y003372D03*
D42*
X010673Y003557D03*
X010690Y004030D03*
X010470Y004452D03*
X011380Y004517D03*
X011288Y003575D03*
X011288Y003572D03*
X012123Y003067D03*
X012468Y003130D03*
X012418Y003462D03*
X012460Y003505D03*
X012908Y003360D03*
X013543Y003745D03*
X014288Y003490D03*
X012913Y004240D03*
D43*
X013626Y003825D03*
X013626Y003822D03*
X014006Y003742D03*
X014016Y003730D03*
X014019Y003727D03*
X014021Y003725D03*
X014024Y003722D03*
X014026Y003720D03*
X014029Y003717D03*
X014029Y003715D03*
X014031Y003712D03*
X014034Y003710D03*
X014036Y003707D03*
X014039Y003705D03*
X014041Y003702D03*
X014044Y003700D03*
X014054Y003687D03*
X014056Y003685D03*
X014059Y003682D03*
X014061Y003680D03*
X014074Y003665D03*
X014076Y003662D03*
X014079Y003660D03*
X014081Y003657D03*
X014084Y003655D03*
X014086Y003652D03*
X014089Y003650D03*
X014091Y003645D03*
X014094Y003642D03*
X014096Y003640D03*
X014099Y003637D03*
X012661Y003150D03*
X012439Y003067D03*
X011421Y003605D03*
X011419Y003610D03*
X011416Y003615D03*
X011411Y003647D03*
X011154Y003677D03*
X011154Y003680D03*
X011151Y003672D03*
X011151Y003670D03*
X011151Y003667D03*
X011149Y003662D03*
X011149Y003660D03*
X011149Y003657D03*
X011146Y003655D03*
X011146Y003652D03*
X011146Y003650D03*
X011146Y003647D03*
X011144Y003645D03*
X011144Y003642D03*
X011144Y003640D03*
X011141Y003635D03*
X011141Y003632D03*
X011141Y003630D03*
X011139Y003625D03*
X011139Y003622D03*
X011139Y003620D03*
X011139Y003617D03*
X011136Y003615D03*
X011136Y003612D03*
X011136Y003610D03*
X011134Y003605D03*
X011134Y003602D03*
X011134Y003600D03*
X011131Y003597D03*
X011131Y003595D03*
X011131Y003592D03*
X011129Y003585D03*
X010984Y003480D03*
X010979Y003472D03*
X010976Y003470D03*
X010974Y003467D03*
X010974Y003465D03*
X010971Y003462D03*
X010969Y003460D03*
X010966Y003457D03*
X010964Y003455D03*
X011011Y003825D03*
X011009Y003827D03*
X011006Y003832D03*
X011004Y003835D03*
X011004Y003837D03*
X011001Y003840D03*
X010999Y003845D03*
X010714Y003755D03*
X010366Y003842D03*
X010364Y003840D03*
X010361Y003835D03*
X010359Y003830D03*
X010356Y003825D03*
X010354Y003820D03*
X010351Y003815D03*
X010349Y003810D03*
X010346Y003805D03*
X010339Y003557D03*
X010341Y003550D03*
X010344Y003545D03*
X010344Y003542D03*
X010346Y003540D03*
X010346Y003537D03*
X010349Y003532D03*
X010291Y003415D03*
X010294Y003412D03*
X009964Y003590D03*
X009964Y003592D03*
X009961Y003587D03*
X009966Y003612D03*
X009936Y003765D03*
X009939Y003775D03*
X009939Y003777D03*
X009939Y003780D03*
X009939Y003782D03*
X009939Y003785D03*
X009941Y003787D03*
X009941Y003790D03*
X009941Y003792D03*
X009941Y003795D03*
X009944Y003802D03*
X009961Y003875D03*
X009964Y003882D03*
X009964Y003885D03*
X009966Y003890D03*
X009966Y003892D03*
X009966Y003895D03*
X009969Y003900D03*
X009969Y003902D03*
X009969Y003905D03*
X009971Y003907D03*
X009971Y003910D03*
X009971Y003912D03*
X009974Y003917D03*
X009974Y003920D03*
X009976Y003927D03*
D44*
X010074Y004152D03*
X010076Y004155D03*
X010079Y004157D03*
X010079Y004160D03*
X010081Y004162D03*
X010084Y004165D03*
X010451Y003932D03*
X010621Y004095D03*
X010901Y004072D03*
X010926Y004035D03*
X010986Y003970D03*
X010909Y003937D03*
X011051Y004032D03*
X011044Y004087D03*
X011186Y003752D03*
X011271Y003652D03*
X011271Y003650D03*
X011424Y003672D03*
X011606Y003555D03*
X011631Y003587D03*
X011634Y003590D03*
X011984Y003607D03*
X012009Y004077D03*
X012006Y004080D03*
X012001Y004082D03*
X011999Y004085D03*
X011994Y004087D03*
X011824Y004215D03*
X011821Y004217D03*
X011814Y004222D03*
X011811Y004225D03*
X011809Y004227D03*
X011804Y004230D03*
X011801Y004232D03*
X011799Y004235D03*
X011789Y004242D03*
X012316Y003950D03*
X013071Y003615D03*
X013491Y003820D03*
X013519Y003787D03*
X013531Y003935D03*
X013676Y004185D03*
X013674Y004187D03*
X013666Y004192D03*
X013664Y004195D03*
X013714Y003657D03*
X013621Y003612D03*
X013661Y003440D03*
X013661Y003437D03*
X014189Y003547D03*
X014191Y003545D03*
X011114Y003502D03*
X010721Y003732D03*
X010424Y003430D03*
X010426Y003427D03*
X010676Y003070D03*
X009941Y003655D03*
D45*
X011080Y003320D03*
X011083Y003322D03*
X012033Y003165D03*
X012023Y003105D03*
X012023Y003102D03*
X012023Y003100D03*
X012023Y003097D03*
X012023Y003095D03*
X012023Y003092D03*
X012023Y003090D03*
X012023Y003087D03*
X012025Y003075D03*
X012025Y003072D03*
X012025Y003070D03*
X012313Y003975D03*
X013428Y003890D03*
X013793Y003472D03*
X010978Y004632D03*
D46*
X010990Y003857D03*
X010993Y003855D03*
X010995Y003850D03*
X010998Y003847D03*
X011000Y003842D03*
X011175Y003767D03*
X011158Y003690D03*
X011155Y003685D03*
X011155Y003682D03*
X011153Y003675D03*
X011150Y003665D03*
X011135Y003607D03*
X011130Y003590D03*
X011130Y003587D03*
X011128Y003582D03*
X011128Y003580D03*
X011128Y003577D03*
X011128Y003575D03*
X011125Y003572D03*
X011125Y003570D03*
X011125Y003567D03*
X011123Y003560D03*
X011253Y003695D03*
X011410Y003650D03*
X011420Y003607D03*
X011423Y003602D03*
X010963Y003452D03*
X010960Y003450D03*
X010958Y003447D03*
X010955Y003445D03*
X010953Y003442D03*
X010715Y003752D03*
X010378Y003860D03*
X010373Y003852D03*
X010370Y003850D03*
X010370Y003847D03*
X010368Y003845D03*
X010363Y003837D03*
X010360Y003832D03*
X010348Y003535D03*
X010350Y003530D03*
X010353Y003527D03*
X010353Y003525D03*
X010355Y003520D03*
X010250Y003157D03*
X009958Y003580D03*
X009960Y003585D03*
X009968Y003615D03*
X009935Y003755D03*
X009935Y003757D03*
X009935Y003760D03*
X009935Y003762D03*
X009938Y003767D03*
X009938Y003770D03*
X009938Y003772D03*
X009973Y003915D03*
X009975Y003922D03*
X009975Y003925D03*
X009978Y003930D03*
X009978Y003932D03*
X009978Y003935D03*
X009980Y003937D03*
X009980Y003940D03*
X009983Y003945D03*
X009983Y003947D03*
X009985Y003955D03*
X012438Y003070D03*
X013035Y003557D03*
X013038Y003560D03*
X013043Y003567D03*
X013048Y003575D03*
X012990Y003747D03*
X013368Y003815D03*
X013543Y003950D03*
X013623Y003832D03*
X013623Y003830D03*
X013625Y003827D03*
X013718Y003667D03*
X013640Y003590D03*
X013643Y003587D03*
X013645Y003585D03*
X013648Y003582D03*
X013650Y003580D03*
X013985Y003767D03*
X013988Y003765D03*
X013990Y003762D03*
X013995Y003755D03*
X013998Y003752D03*
X014000Y003750D03*
X014003Y003747D03*
X014005Y003745D03*
X014008Y003740D03*
X014010Y003737D03*
X014013Y003735D03*
X014015Y003732D03*
X014090Y003647D03*
X014100Y003635D03*
X014103Y003632D03*
X014105Y003630D03*
X014108Y003627D03*
X014110Y003625D03*
X014145Y003255D03*
X013263Y004325D03*
D47*
X013619Y003837D03*
X013621Y003835D03*
X013636Y003595D03*
X013639Y003592D03*
X013659Y003420D03*
X013994Y003757D03*
X013991Y003760D03*
X013984Y003770D03*
X013981Y003772D03*
X013979Y003775D03*
X013976Y003777D03*
X013976Y003780D03*
X013974Y003782D03*
X013971Y003785D03*
X013969Y003787D03*
X013964Y003795D03*
X013961Y003797D03*
X013959Y003800D03*
X014111Y003622D03*
X014114Y003620D03*
X014116Y003617D03*
X014119Y003615D03*
X014121Y003612D03*
X013054Y003585D03*
X013051Y003580D03*
X013049Y003577D03*
X013046Y003572D03*
X013044Y003570D03*
X013041Y003565D03*
X013039Y003562D03*
X013034Y003555D03*
X013031Y003552D03*
X013029Y003550D03*
X012879Y003325D03*
X012436Y003072D03*
X011426Y003597D03*
X011424Y003600D03*
X011411Y003652D03*
X011411Y003655D03*
X011256Y003690D03*
X011254Y003692D03*
X011251Y003697D03*
X011249Y003700D03*
X011159Y003695D03*
X011159Y003692D03*
X011156Y003687D03*
X011124Y003565D03*
X011124Y003562D03*
X011121Y003557D03*
X011121Y003555D03*
X011119Y003547D03*
X010951Y003440D03*
X010949Y003437D03*
X010946Y003435D03*
X010944Y003432D03*
X010941Y003430D03*
X010939Y003427D03*
X010936Y003425D03*
X010994Y003852D03*
X010989Y003860D03*
X010986Y003862D03*
X010984Y003865D03*
X010981Y003870D03*
X010979Y003872D03*
X010609Y004092D03*
X010384Y003867D03*
X010381Y003865D03*
X010379Y003862D03*
X010376Y003857D03*
X010374Y003855D03*
X010354Y003522D03*
X010356Y003517D03*
X010359Y003515D03*
X010359Y003512D03*
X010361Y003510D03*
X010364Y003505D03*
X010296Y003410D03*
X010299Y003407D03*
X010246Y003160D03*
X009966Y003470D03*
X009964Y003475D03*
X009961Y003480D03*
X009959Y003482D03*
X009959Y003485D03*
X009956Y003490D03*
X009956Y003492D03*
X009954Y003495D03*
X009954Y003497D03*
X009954Y003500D03*
X009951Y003502D03*
X009951Y003505D03*
X009951Y003507D03*
X009951Y003510D03*
X009951Y003512D03*
X009949Y003517D03*
X009949Y003520D03*
X009949Y003522D03*
X009949Y003525D03*
X009949Y003527D03*
X009949Y003530D03*
X009949Y003532D03*
X009949Y003535D03*
X009949Y003537D03*
X009949Y003540D03*
X009949Y003542D03*
X009956Y003577D03*
X009959Y003582D03*
X009966Y003617D03*
X009934Y003742D03*
X009934Y003745D03*
X009934Y003747D03*
X009934Y003750D03*
X009934Y003752D03*
X009981Y003942D03*
X009984Y003950D03*
X009984Y003952D03*
X009986Y003957D03*
X009986Y003960D03*
X009989Y003962D03*
X009989Y003965D03*
X009989Y003967D03*
X009991Y003972D03*
X009991Y003975D03*
X009994Y003980D03*
D48*
X010368Y003335D03*
X010673Y003560D03*
X010988Y003987D03*
X011288Y003567D03*
X011288Y003565D03*
X011638Y003650D03*
X011568Y003807D03*
X011985Y003592D03*
X012413Y003457D03*
X012465Y003507D03*
X012470Y003132D03*
X012980Y003720D03*
X012920Y004242D03*
X012928Y004245D03*
X013548Y003755D03*
X010680Y003075D03*
D49*
X010683Y003077D03*
X010383Y003320D03*
X011258Y003502D03*
X010990Y004002D03*
X010990Y004005D03*
X010543Y004487D03*
X011325Y004537D03*
X012193Y003992D03*
X012483Y003512D03*
X012395Y003442D03*
X013210Y003720D03*
X013725Y003535D03*
X014338Y003472D03*
D50*
X014026Y003347D03*
X013359Y003825D03*
X013359Y003827D03*
X011979Y003492D03*
X012024Y003085D03*
X012024Y003082D03*
X012024Y003080D03*
X012024Y003077D03*
X011519Y003447D03*
X010779Y004567D03*
D51*
X010589Y004507D03*
X010991Y004027D03*
X011564Y003792D03*
X011984Y003572D03*
X012209Y003990D03*
X013734Y003520D03*
X014374Y003462D03*
X010684Y003080D03*
X010394Y003310D03*
D52*
X010284Y003425D03*
X010281Y003427D03*
X010321Y003622D03*
X010321Y003625D03*
X010319Y003640D03*
X010319Y003642D03*
X010319Y003645D03*
X010319Y003647D03*
X010319Y003650D03*
X010319Y003652D03*
X010319Y003655D03*
X010319Y003657D03*
X010319Y003660D03*
X010319Y003662D03*
X010319Y003665D03*
X010319Y003667D03*
X010319Y003670D03*
X010319Y003672D03*
X010319Y003675D03*
X010319Y003677D03*
X010319Y003680D03*
X010319Y003682D03*
X010319Y003685D03*
X010319Y003687D03*
X010319Y003690D03*
X010319Y003692D03*
X010319Y003695D03*
X010319Y003697D03*
X010319Y003700D03*
X010319Y003702D03*
X010321Y003715D03*
X010321Y003717D03*
X010321Y003720D03*
X010986Y003965D03*
X011041Y003737D03*
X011044Y003725D03*
X011044Y003722D03*
X011044Y003720D03*
X011044Y003717D03*
X011044Y003715D03*
X011044Y003712D03*
X011046Y003702D03*
X011046Y003700D03*
X011046Y003697D03*
X011046Y003695D03*
X011046Y003692D03*
X011046Y003690D03*
X011046Y003687D03*
X011046Y003685D03*
X011046Y003682D03*
X011046Y003680D03*
X011046Y003677D03*
X011046Y003675D03*
X011046Y003672D03*
X011046Y003670D03*
X011046Y003667D03*
X011046Y003665D03*
X011046Y003662D03*
X011046Y003660D03*
X011046Y003657D03*
X011046Y003655D03*
X011044Y003650D03*
X011044Y003647D03*
X011044Y003645D03*
X011044Y003642D03*
X011044Y003640D03*
X011044Y003637D03*
X011044Y003635D03*
X011044Y003632D03*
X011044Y003630D03*
X011041Y003625D03*
X011041Y003622D03*
X011041Y003620D03*
X011041Y003617D03*
X011039Y003610D03*
X011039Y003607D03*
X011039Y003605D03*
X011036Y003597D03*
X011036Y003595D03*
X011034Y003587D03*
X011034Y003585D03*
X011031Y003577D03*
X011486Y003245D03*
X012599Y003080D03*
X012606Y003085D03*
X012609Y003087D03*
X012616Y003092D03*
X012619Y003095D03*
X012629Y003102D03*
X012631Y003105D03*
X012634Y003107D03*
X012636Y003110D03*
X012639Y003112D03*
X012641Y003115D03*
X012644Y003117D03*
X012646Y003120D03*
X012649Y003125D03*
X012651Y003127D03*
X012654Y003130D03*
X012656Y003135D03*
X012874Y003322D03*
X012966Y003365D03*
X012994Y003387D03*
X013624Y003785D03*
X013626Y003787D03*
X013629Y003792D03*
X013629Y003795D03*
D53*
X013658Y003630D03*
X013743Y003507D03*
X014200Y003290D03*
X014633Y003400D03*
X012613Y003645D03*
X011563Y003785D03*
X010688Y003082D03*
X010408Y003300D03*
X010638Y004527D03*
D54*
X010671Y004540D03*
X011286Y004075D03*
X011561Y003777D03*
X011509Y003512D03*
X011509Y003510D03*
X010674Y003622D03*
X010674Y003625D03*
X010674Y003627D03*
X010674Y003650D03*
X010674Y003652D03*
X010689Y003085D03*
D55*
X010690Y003087D03*
X010428Y003287D03*
X011503Y003485D03*
X011560Y003765D03*
X011983Y003537D03*
X012613Y003630D03*
X013760Y003492D03*
X014508Y003430D03*
X014538Y003422D03*
X014548Y003420D03*
D56*
X013899Y003445D03*
X012614Y003620D03*
X011981Y003525D03*
X011981Y003522D03*
X011504Y003470D03*
X011154Y003407D03*
X011151Y003405D03*
X011151Y003402D03*
X011149Y003400D03*
X011556Y003750D03*
X010694Y003090D03*
D57*
X010696Y003092D03*
X011121Y003365D03*
X012311Y003970D03*
X012616Y003610D03*
X013934Y003422D03*
X013939Y003420D03*
X013941Y003417D03*
D58*
X013788Y003475D03*
X013365Y003845D03*
X011980Y003497D03*
X012028Y003155D03*
X012025Y003132D03*
X012025Y003130D03*
X012025Y003127D03*
X011550Y003692D03*
X011095Y003335D03*
X011093Y003332D03*
X010698Y003095D03*
D59*
X010701Y003097D03*
X011074Y003315D03*
X010686Y003997D03*
X011979Y003490D03*
X014031Y003342D03*
X014034Y003340D03*
X014036Y003337D03*
D60*
X014149Y003260D03*
X014196Y003540D03*
X014194Y003542D03*
X013746Y003580D03*
X013619Y003615D03*
X013664Y003450D03*
X013664Y003447D03*
X013521Y003785D03*
X013196Y003765D03*
X013194Y003760D03*
X013074Y003617D03*
X012889Y003332D03*
X012441Y003097D03*
X011636Y003595D03*
X011274Y003642D03*
X011274Y003645D03*
X011186Y003750D03*
X011401Y003940D03*
X011401Y003942D03*
X011404Y003950D03*
X011404Y003952D03*
X011404Y003955D03*
X011404Y003957D03*
X011404Y003960D03*
X011404Y003962D03*
X011404Y003965D03*
X011404Y003967D03*
X011404Y003970D03*
X011404Y003972D03*
X011404Y003975D03*
X011404Y003977D03*
X011404Y003980D03*
X011404Y003982D03*
X011741Y004280D03*
X011751Y004272D03*
X011754Y004270D03*
X011756Y004267D03*
X011761Y004265D03*
X011764Y004262D03*
X011766Y004260D03*
X011776Y004252D03*
X012029Y004065D03*
X012036Y004060D03*
X012614Y004062D03*
X012621Y004067D03*
X013641Y004210D03*
X013649Y004205D03*
X011481Y003262D03*
X010844Y003365D03*
X010441Y003415D03*
X010439Y003417D03*
X010721Y003727D03*
X010901Y003942D03*
X010899Y004075D03*
X010466Y003942D03*
X010464Y003940D03*
X010114Y004200D03*
X010111Y004197D03*
X010109Y004195D03*
X010106Y004192D03*
X010104Y004190D03*
X010101Y004187D03*
X010094Y004177D03*
X009944Y003650D03*
X009946Y003647D03*
X009946Y003645D03*
X009949Y003642D03*
D61*
X010704Y003100D03*
X011056Y003300D03*
X011801Y003297D03*
X012839Y003500D03*
X013031Y003630D03*
D62*
X013045Y003647D03*
X012315Y003985D03*
X011038Y003287D03*
X010708Y003102D03*
D63*
X010710Y003105D03*
X013060Y003665D03*
X013063Y003667D03*
D64*
X013211Y003785D03*
X013214Y003787D03*
X013216Y003790D03*
X013526Y003780D03*
X013711Y003652D03*
X013669Y003460D03*
X014121Y003367D03*
X014131Y003360D03*
X014219Y003525D03*
X013616Y004225D03*
X013611Y004227D03*
X012746Y004152D03*
X012741Y004150D03*
X012739Y004147D03*
X012731Y004142D03*
X012724Y004137D03*
X012556Y004030D03*
X012551Y004027D03*
X012546Y004025D03*
X012541Y004022D03*
X012071Y004040D03*
X012066Y004042D03*
X011984Y003605D03*
X011639Y003605D03*
X011389Y003912D03*
X011391Y003915D03*
X011394Y004012D03*
X011391Y004015D03*
X011176Y004007D03*
X011176Y003927D03*
X011179Y003922D03*
X011191Y003742D03*
X010986Y003972D03*
X010881Y003955D03*
X010896Y004080D03*
X010724Y003717D03*
X010724Y003715D03*
X010831Y003360D03*
X010671Y003307D03*
X010469Y003395D03*
X010464Y003397D03*
X010461Y003400D03*
X010331Y003370D03*
X010484Y003952D03*
X010224Y004297D03*
X010226Y004300D03*
X010234Y004305D03*
X010236Y004307D03*
X010244Y004312D03*
X010254Y004320D03*
X010216Y004292D03*
X010214Y004290D03*
X010204Y004282D03*
X010201Y004280D03*
X010189Y004270D03*
X011641Y004355D03*
X011651Y004347D03*
X011659Y004342D03*
X011661Y004340D03*
X011666Y004337D03*
X011669Y004335D03*
X011676Y004330D03*
X011679Y004327D03*
X012881Y003365D03*
X012446Y003105D03*
X011481Y003267D03*
D65*
X010713Y003107D03*
X012270Y003430D03*
D66*
X012024Y003107D03*
X013359Y003830D03*
X013359Y003832D03*
X013376Y003855D03*
X010686Y004000D03*
D67*
X010979Y004620D03*
X010996Y003270D03*
X010714Y003110D03*
D68*
X011085Y003325D03*
X011088Y003327D03*
X010673Y003340D03*
X011550Y003677D03*
X011980Y003495D03*
X012030Y003162D03*
X012023Y003115D03*
X012023Y003112D03*
X012023Y003110D03*
X012620Y003597D03*
X013360Y003835D03*
D69*
X010986Y003267D03*
X010716Y003112D03*
X010884Y004135D03*
X010979Y004617D03*
D70*
X011536Y004427D03*
X011544Y004422D03*
X011551Y004417D03*
X011559Y004412D03*
X011381Y004027D03*
X011189Y004025D03*
X011194Y003902D03*
X011281Y003615D03*
X011281Y003612D03*
X011461Y003557D03*
X011641Y003620D03*
X011984Y003602D03*
X012104Y004022D03*
X012499Y004005D03*
X012506Y004007D03*
X012809Y004192D03*
X012814Y004195D03*
X013234Y003807D03*
X013524Y003915D03*
X013569Y004247D03*
X013529Y003690D03*
X013529Y003687D03*
X014136Y003350D03*
X014239Y003512D03*
X014244Y003510D03*
X012901Y003615D03*
X012899Y003612D03*
X012881Y003592D03*
X012621Y003665D03*
X012451Y003112D03*
X011479Y003275D03*
X010726Y003695D03*
X010726Y003697D03*
X010499Y003377D03*
X010494Y003380D03*
X010344Y003357D03*
X010509Y003965D03*
X010639Y004097D03*
X010894Y004085D03*
X010364Y004392D03*
X010359Y004390D03*
X010356Y004387D03*
X010351Y004385D03*
D71*
X010864Y004127D03*
X010979Y004615D03*
X010719Y003115D03*
D72*
X010346Y003355D03*
X010726Y003690D03*
X010726Y003692D03*
X011196Y003727D03*
X011284Y003605D03*
X011374Y003897D03*
X011191Y004027D03*
X011511Y004442D03*
X011509Y004445D03*
X011516Y004440D03*
X012116Y004017D03*
X012494Y004002D03*
X012826Y004202D03*
X012831Y004205D03*
X012836Y004207D03*
X013239Y003812D03*
X013529Y003697D03*
X013529Y003695D03*
X014249Y003507D03*
X013564Y004250D03*
X012904Y003617D03*
X012899Y003345D03*
X012454Y003115D03*
X011479Y003277D03*
X010389Y004407D03*
X010384Y004405D03*
X010381Y004402D03*
X010376Y004400D03*
D73*
X010836Y004107D03*
X010834Y004102D03*
X010834Y004100D03*
X011056Y004165D03*
X010721Y003117D03*
X012669Y003547D03*
X012669Y003550D03*
D74*
X012619Y003600D03*
X012029Y003160D03*
X012029Y003157D03*
X012024Y003125D03*
X012024Y003122D03*
X012024Y003120D03*
X012024Y003117D03*
X011551Y003680D03*
X011551Y003682D03*
X011551Y003685D03*
X011551Y003687D03*
X011551Y003690D03*
X011091Y003330D03*
X013361Y003837D03*
X013361Y003840D03*
X013364Y003842D03*
X013366Y003847D03*
X013369Y003850D03*
X013371Y003852D03*
D75*
X012668Y003532D03*
X010723Y003120D03*
D76*
X010724Y003122D03*
X011606Y003397D03*
X011606Y003400D03*
X011606Y003402D03*
X011606Y003405D03*
X011606Y003407D03*
X011609Y003390D03*
X011611Y003382D03*
X011614Y003377D03*
X011616Y003372D03*
X011619Y003367D03*
X011621Y003362D03*
X011624Y003360D03*
X012671Y003527D03*
X010979Y004607D03*
D77*
X011440Y004485D03*
X011445Y004482D03*
X011450Y004480D03*
X010988Y003980D03*
X010835Y003975D03*
X010535Y003975D03*
X010428Y004430D03*
X010433Y004432D03*
X011208Y003895D03*
X011290Y003832D03*
X011200Y003715D03*
X011285Y003592D03*
X011643Y003635D03*
X011478Y003285D03*
X010525Y003365D03*
X012460Y003122D03*
X013330Y003892D03*
X013520Y003905D03*
X013533Y003717D03*
X012868Y004222D03*
D78*
X011620Y003445D03*
X010725Y003125D03*
X010980Y004605D03*
D79*
X011418Y004497D03*
X011423Y004495D03*
X011428Y004492D03*
X011203Y004032D03*
X010988Y003982D03*
X011203Y003710D03*
X011288Y003585D03*
X011568Y003810D03*
X011478Y003287D03*
X010795Y003350D03*
X010673Y003555D03*
X010723Y003677D03*
X012315Y003952D03*
X012880Y004227D03*
X012980Y003725D03*
X012905Y003355D03*
X012450Y003497D03*
X012448Y003495D03*
X012433Y003480D03*
X012430Y003477D03*
X012428Y003475D03*
X012463Y003125D03*
X013535Y003725D03*
X013535Y003727D03*
X013520Y003902D03*
X014275Y003495D03*
X014715Y003380D03*
D80*
X010980Y004602D03*
X010728Y003127D03*
D81*
X010538Y003360D03*
X010720Y003675D03*
X010828Y003977D03*
X010543Y003977D03*
X010455Y004445D03*
X010460Y004447D03*
X011400Y004507D03*
X011203Y003707D03*
X011203Y003705D03*
X011288Y003580D03*
X011288Y003577D03*
X011640Y003642D03*
X011985Y003595D03*
X012423Y003467D03*
X012453Y003500D03*
X012465Y003127D03*
X012980Y003722D03*
X012900Y004235D03*
X013540Y003737D03*
X011478Y003290D03*
D82*
X010729Y003130D03*
D83*
X010730Y003132D03*
D84*
X010731Y003135D03*
D85*
X010461Y003272D03*
X010686Y004002D03*
X011189Y004567D03*
X011551Y003702D03*
X011551Y003700D03*
X011551Y003697D03*
X011551Y003695D03*
X011511Y003450D03*
X011979Y003500D03*
X012029Y003152D03*
X012026Y003150D03*
X012026Y003147D03*
X012026Y003145D03*
X012026Y003142D03*
X012026Y003140D03*
X012026Y003137D03*
X012026Y003135D03*
X012536Y003185D03*
X013259Y004312D03*
D86*
X012935Y004247D03*
X012980Y003717D03*
X013515Y003895D03*
X013553Y003765D03*
X013550Y003760D03*
X014300Y003485D03*
X012473Y003135D03*
X012170Y003997D03*
X011290Y003837D03*
X011285Y003555D03*
X011285Y003552D03*
X010370Y003332D03*
X010495Y004465D03*
X011355Y004527D03*
D87*
X010733Y003137D03*
X012358Y003297D03*
D88*
X012406Y003450D03*
X012476Y003137D03*
X011849Y003460D03*
X011824Y003450D03*
X011634Y003657D03*
X011279Y003532D03*
X011276Y003527D03*
X011479Y003302D03*
X010671Y003312D03*
X010374Y003327D03*
X010989Y003992D03*
X010509Y004472D03*
X012951Y004252D03*
X013216Y003740D03*
X013216Y003737D03*
X013556Y003772D03*
X013556Y003775D03*
X013559Y003777D03*
D89*
X010734Y003140D03*
D90*
X010274Y003142D03*
X010259Y003462D03*
X010256Y003465D03*
X013296Y003750D03*
X013341Y003790D03*
X013344Y003792D03*
X013651Y003412D03*
D91*
X010735Y003142D03*
D92*
X010380Y003322D03*
X010705Y003670D03*
X010990Y004000D03*
X011290Y003842D03*
X011263Y003505D03*
X011480Y003307D03*
X011863Y003465D03*
X012100Y003457D03*
X012105Y003455D03*
X012120Y003447D03*
X012483Y003142D03*
X013115Y003622D03*
X013210Y003722D03*
X013725Y003540D03*
X014330Y003475D03*
X012978Y004260D03*
X010538Y004485D03*
D93*
X010268Y003447D03*
X010270Y003145D03*
X011488Y003240D03*
X013170Y003610D03*
D94*
X012419Y003347D03*
X010736Y003145D03*
D95*
X010576Y003350D03*
X010674Y003572D03*
X011289Y003845D03*
X011984Y003580D03*
X012131Y003442D03*
X012486Y003145D03*
X013116Y003625D03*
X012986Y004262D03*
X014674Y003390D03*
X010549Y004490D03*
D96*
X010275Y003437D03*
X010268Y003147D03*
X011488Y003242D03*
X013360Y003807D03*
D97*
X012424Y003352D03*
X010736Y003147D03*
D98*
X010674Y003575D03*
X010991Y004010D03*
X011566Y003797D03*
X011316Y004540D03*
X012489Y003147D03*
X012984Y003707D03*
X013206Y003715D03*
X013729Y003530D03*
D99*
X012430Y003360D03*
X010738Y003150D03*
X010980Y004580D03*
D100*
X011308Y004542D03*
X010990Y004017D03*
X011565Y003795D03*
X011985Y003575D03*
X012080Y003465D03*
X012493Y003150D03*
X012698Y003370D03*
X012705Y003372D03*
X013733Y003522D03*
X013935Y003370D03*
X013945Y003355D03*
X014163Y003310D03*
X014168Y003307D03*
X014173Y003305D03*
X014178Y003302D03*
X014665Y003392D03*
X013460Y004277D03*
X010573Y004500D03*
D101*
X010980Y004577D03*
X010738Y003152D03*
D102*
X011288Y004090D03*
X010608Y004515D03*
X012498Y003152D03*
X013738Y003515D03*
X014383Y003460D03*
D103*
X010981Y004575D03*
X010739Y003155D03*
D104*
X010674Y003332D03*
X011134Y003380D03*
X011136Y003382D03*
X011506Y003465D03*
X011556Y003742D03*
X011981Y003517D03*
X012614Y003615D03*
X012541Y003157D03*
X012541Y003155D03*
X013916Y003435D03*
X014241Y003277D03*
D105*
X010739Y003157D03*
D106*
X010739Y003160D03*
D107*
X011130Y003375D03*
X011133Y003377D03*
X011555Y003740D03*
X012543Y003162D03*
X012543Y003160D03*
X013775Y003482D03*
X013920Y003432D03*
D108*
X010740Y003162D03*
D109*
X010741Y003165D03*
D110*
X011125Y003367D03*
X011508Y003460D03*
X011555Y003732D03*
X011555Y003735D03*
X011980Y003512D03*
X012543Y003167D03*
X012543Y003165D03*
X013930Y003425D03*
X010933Y004097D03*
X010750Y004562D03*
D111*
X010741Y003167D03*
D112*
X011069Y003310D03*
X012036Y003167D03*
X012314Y003977D03*
X014044Y003332D03*
D113*
X010740Y003170D03*
D114*
X011059Y003302D03*
X011794Y003300D03*
X012041Y003170D03*
D115*
X011980Y003510D03*
X011555Y003730D03*
X011120Y003362D03*
X011118Y003360D03*
X011115Y003357D03*
X010673Y003335D03*
X012543Y003172D03*
X012543Y003170D03*
X013945Y003415D03*
X013953Y003410D03*
X013960Y003405D03*
D116*
X010741Y003172D03*
D117*
X011810Y003295D03*
X011978Y003475D03*
X012045Y003172D03*
X012833Y003505D03*
X012850Y003495D03*
X012853Y003492D03*
X013038Y003637D03*
X013423Y003880D03*
D118*
X010743Y003175D03*
D119*
X010686Y003987D03*
X011129Y004187D03*
X010979Y004627D03*
X011976Y003470D03*
X012051Y003175D03*
X013044Y003645D03*
X013421Y003875D03*
D120*
X013779Y003480D03*
X013949Y003412D03*
X013956Y003407D03*
X013964Y003402D03*
X013966Y003400D03*
X012789Y003385D03*
X012784Y003382D03*
X012616Y003607D03*
X012541Y003177D03*
X012541Y003175D03*
X011509Y003457D03*
X011554Y003725D03*
X011554Y003727D03*
X011114Y003355D03*
X011111Y003352D03*
X010976Y004635D03*
D121*
X010741Y003177D03*
D122*
X012058Y003177D03*
X012315Y003987D03*
X013055Y003660D03*
X013058Y003662D03*
D123*
X010743Y003180D03*
D124*
X011116Y004182D03*
X012276Y003420D03*
X012064Y003180D03*
X013421Y003860D03*
D125*
X013976Y003392D03*
X013979Y003390D03*
X013981Y003387D03*
X012776Y003377D03*
X012771Y003375D03*
X012616Y003605D03*
X012541Y003180D03*
X011509Y003455D03*
X011554Y003717D03*
X011554Y003720D03*
X011109Y003350D03*
X011106Y003347D03*
X011146Y004195D03*
X010761Y004565D03*
D126*
X010741Y003182D03*
D127*
X012070Y003182D03*
X012308Y003365D03*
D128*
X012539Y003182D03*
X011979Y003502D03*
X011511Y003452D03*
X011554Y003710D03*
X010674Y003337D03*
X013784Y003477D03*
X013991Y003380D03*
X013994Y003377D03*
X013996Y003375D03*
D129*
X010743Y003185D03*
D130*
X010890Y004137D03*
X011095Y004175D03*
X012078Y003185D03*
D131*
X010743Y003187D03*
D132*
X010745Y003210D03*
X012270Y003187D03*
D133*
X010744Y003190D03*
D134*
X012269Y003190D03*
D135*
X010744Y003192D03*
D136*
X012265Y003192D03*
D137*
X010744Y003195D03*
D138*
X010748Y003220D03*
X012263Y003195D03*
D139*
X010744Y003197D03*
D140*
X010749Y003227D03*
X012261Y003197D03*
D141*
X010744Y003200D03*
D142*
X010750Y003232D03*
X012258Y003200D03*
D143*
X010744Y003202D03*
D144*
X010750Y003237D03*
X012255Y003202D03*
D145*
X010744Y003205D03*
D146*
X010751Y003245D03*
X012251Y003205D03*
D147*
X010745Y003207D03*
D148*
X010755Y003252D03*
X010755Y003255D03*
X012248Y003207D03*
D149*
X012244Y003210D03*
X010756Y003260D03*
X010756Y003262D03*
D150*
X010745Y003212D03*
D151*
X012239Y003212D03*
D152*
X010746Y003215D03*
D153*
X012235Y003215D03*
D154*
X010746Y003217D03*
D155*
X012231Y003217D03*
D156*
X012228Y003220D03*
D157*
X010748Y003222D03*
X010748Y003225D03*
D158*
X012224Y003222D03*
D159*
X012220Y003225D03*
D160*
X012215Y003227D03*
D161*
X010749Y003230D03*
D162*
X012211Y003230D03*
D163*
X012209Y003232D03*
D164*
X010751Y003235D03*
D165*
X012164Y003262D03*
X012171Y003257D03*
X012206Y003235D03*
D166*
X011489Y003237D03*
X010254Y003470D03*
X013311Y003762D03*
X013314Y003765D03*
X013316Y003767D03*
X013319Y003770D03*
D167*
X012203Y003237D03*
X012168Y003260D03*
X012160Y003265D03*
D168*
X010751Y003240D03*
D169*
X012155Y003270D03*
X012180Y003252D03*
X012198Y003242D03*
X012200Y003240D03*
D170*
X010753Y003242D03*
D171*
X012154Y003272D03*
X012186Y003250D03*
X012191Y003247D03*
X012194Y003245D03*
D172*
X010753Y003247D03*
D173*
X010754Y003250D03*
D174*
X010269Y003445D03*
X011171Y003775D03*
X013284Y003742D03*
X013354Y003802D03*
X013546Y003955D03*
X014144Y003252D03*
D175*
X012176Y003255D03*
X012159Y003267D03*
D176*
X010755Y003257D03*
D177*
X010758Y003265D03*
D178*
X010503Y003375D03*
X010673Y003550D03*
X010515Y003967D03*
X010690Y004032D03*
X010855Y003967D03*
X011198Y003900D03*
X011290Y003830D03*
X011195Y003730D03*
X011283Y003610D03*
X011283Y003607D03*
X011643Y003622D03*
X011378Y004030D03*
X011540Y004425D03*
X011533Y004430D03*
X011528Y004432D03*
X011525Y004435D03*
X011520Y004437D03*
X012110Y004020D03*
X012818Y004197D03*
X012823Y004200D03*
X012983Y003732D03*
X013195Y003742D03*
X013235Y003810D03*
X013523Y003912D03*
X013530Y003692D03*
X014155Y003265D03*
X010373Y004397D03*
X010368Y004395D03*
D179*
X010978Y004630D03*
X012313Y003980D03*
X011978Y003480D03*
X010673Y003347D03*
X010480Y003267D03*
X013423Y003882D03*
D180*
X014028Y003345D03*
X012623Y003595D03*
X011140Y004192D03*
X010673Y003342D03*
X010470Y003270D03*
X011078Y003317D03*
D181*
X010671Y003310D03*
X010531Y003362D03*
X010356Y003345D03*
X010724Y003680D03*
X011201Y003712D03*
X011286Y003590D03*
X011286Y003587D03*
X011641Y003637D03*
X011984Y003597D03*
X012434Y003482D03*
X012436Y003485D03*
X012439Y003487D03*
X012441Y003490D03*
X012444Y003492D03*
X012904Y003352D03*
X012914Y003627D03*
X012874Y004225D03*
X013534Y004260D03*
X013534Y003722D03*
X013534Y003720D03*
X014269Y003497D03*
X014161Y003270D03*
X012141Y004007D03*
X011436Y004487D03*
X011431Y004490D03*
X011286Y004115D03*
X010441Y004437D03*
X010436Y004435D03*
D182*
X011005Y003272D03*
X012268Y003435D03*
X012305Y003367D03*
D183*
X012896Y003340D03*
X012889Y003597D03*
X012891Y003602D03*
X012894Y003605D03*
X012896Y003607D03*
X012984Y003735D03*
X012784Y004177D03*
X012791Y004182D03*
X012796Y004185D03*
X012519Y004012D03*
X012514Y004010D03*
X011641Y003615D03*
X011281Y003617D03*
X011194Y003735D03*
X011189Y003907D03*
X011184Y004020D03*
X011286Y004120D03*
X011384Y004025D03*
X011381Y003902D03*
X010866Y003962D03*
X010726Y003705D03*
X010726Y003702D03*
X010816Y003355D03*
X010489Y003382D03*
X010339Y003362D03*
X010504Y003962D03*
X010316Y004362D03*
X010324Y004367D03*
X010329Y004370D03*
X010331Y004372D03*
X011566Y004407D03*
X011574Y004402D03*
X011576Y004400D03*
X011581Y004397D03*
X011589Y004392D03*
X011481Y003272D03*
X013531Y003680D03*
X013524Y003917D03*
X013586Y004240D03*
X014234Y003515D03*
X014136Y003352D03*
D184*
X014244Y003275D03*
X014244Y003272D03*
X013926Y003427D03*
X013924Y003430D03*
X012614Y003612D03*
X011981Y003515D03*
X011506Y003462D03*
X011129Y003372D03*
X011126Y003370D03*
X011556Y003737D03*
X010686Y004007D03*
X011206Y004565D03*
X010446Y003277D03*
D185*
X010453Y003275D03*
X010688Y004005D03*
X011555Y003722D03*
X011980Y003507D03*
X012780Y003380D03*
X012793Y003387D03*
X013970Y003397D03*
X013973Y003395D03*
D186*
X012300Y003372D03*
X012275Y003422D03*
X012273Y003425D03*
X011013Y003275D03*
D187*
X012151Y003275D03*
D188*
X012293Y003382D03*
X012293Y003385D03*
X012290Y003387D03*
X012285Y003400D03*
X012283Y003405D03*
X012283Y003407D03*
X012280Y003410D03*
X013093Y003702D03*
X011018Y003277D03*
X010968Y004157D03*
D189*
X012150Y003277D03*
D190*
X011981Y003520D03*
X011504Y003467D03*
X011144Y003392D03*
X011141Y003390D03*
X011556Y003745D03*
X011151Y004197D03*
X010441Y003280D03*
X012614Y003617D03*
X013259Y004315D03*
X013904Y003442D03*
D191*
X013421Y003867D03*
X013256Y004305D03*
X010994Y004162D03*
X010981Y004160D03*
X010979Y004625D03*
X011024Y003280D03*
D192*
X012148Y003280D03*
D193*
X011140Y003387D03*
X011138Y003385D03*
X011285Y004035D03*
X011285Y004037D03*
X013908Y003440D03*
X013913Y003437D03*
X014238Y003280D03*
D194*
X014231Y003282D03*
X013889Y003450D03*
X013766Y003487D03*
X011981Y003527D03*
X011504Y003472D03*
X011164Y003422D03*
X011161Y003420D03*
X011161Y003417D03*
X011159Y003415D03*
X011286Y003890D03*
X010436Y003282D03*
X010726Y004557D03*
X010976Y004637D03*
D195*
X011028Y003282D03*
D196*
X012146Y003282D03*
D197*
X011981Y003532D03*
X011559Y003760D03*
X011504Y003480D03*
X012311Y003965D03*
X013086Y004280D03*
X013869Y003460D03*
X010431Y003285D03*
D198*
X011033Y003285D03*
X011978Y003467D03*
X012825Y003510D03*
X013050Y003652D03*
D199*
X012145Y003285D03*
D200*
X011504Y003490D03*
X011286Y004065D03*
X011251Y004555D03*
X010694Y004547D03*
X013756Y003495D03*
X014216Y003285D03*
X014474Y003437D03*
X014569Y003415D03*
X014579Y003412D03*
D201*
X012146Y003287D03*
D202*
X012614Y003642D03*
X013651Y003635D03*
X014204Y003287D03*
X014421Y003450D03*
X014621Y003402D03*
X011286Y004080D03*
X010679Y003662D03*
X010674Y003610D03*
X010411Y003297D03*
X010651Y004532D03*
X011274Y004550D03*
D203*
X011285Y004067D03*
X011288Y003872D03*
X011560Y003770D03*
X011503Y003492D03*
X011983Y003542D03*
X012613Y003632D03*
X010673Y003325D03*
X010423Y003290D03*
D204*
X011041Y003290D03*
X012829Y003507D03*
X012869Y003467D03*
X012869Y003447D03*
X012869Y003445D03*
X013041Y003642D03*
D205*
X012145Y003290D03*
D206*
X011506Y003502D03*
X011561Y003775D03*
X011286Y004072D03*
X010689Y004017D03*
X010679Y004542D03*
X010419Y003292D03*
D207*
X011045Y003292D03*
X010685Y003990D03*
X011978Y003472D03*
X012828Y003390D03*
X012835Y003395D03*
X012838Y003397D03*
X012840Y003400D03*
X012843Y003402D03*
X012855Y003417D03*
X012860Y003425D03*
X012863Y003430D03*
X012865Y003432D03*
X012865Y003435D03*
X012865Y003437D03*
X012868Y003440D03*
X012868Y003442D03*
X012870Y003450D03*
X012870Y003452D03*
X012870Y003455D03*
X012870Y003457D03*
X012870Y003460D03*
X012870Y003462D03*
X012870Y003465D03*
X012868Y003470D03*
X012868Y003472D03*
X012865Y003477D03*
X012863Y003482D03*
X013040Y003640D03*
X013423Y003877D03*
D208*
X013519Y003900D03*
X013541Y003742D03*
X013541Y003740D03*
X013519Y004265D03*
X012906Y004237D03*
X012619Y003662D03*
X012456Y003502D03*
X012419Y003465D03*
X012906Y003357D03*
X012154Y004002D03*
X011639Y003645D03*
X011289Y003835D03*
X011204Y003702D03*
X010989Y003985D03*
X011286Y004112D03*
X011394Y004510D03*
X011389Y004512D03*
X011384Y004515D03*
X010464Y004450D03*
X010361Y003340D03*
X011479Y003292D03*
X014281Y003492D03*
D209*
X012145Y003292D03*
D210*
X011983Y003552D03*
X011525Y003552D03*
X011523Y003550D03*
X011523Y003547D03*
X011510Y003515D03*
X011288Y003865D03*
X010675Y003657D03*
X010675Y003655D03*
X010673Y003620D03*
X010673Y003322D03*
X010415Y003295D03*
X010665Y004537D03*
X012613Y003640D03*
X013305Y003822D03*
X013645Y003640D03*
X014433Y003447D03*
X014613Y003405D03*
D211*
X013809Y003462D03*
X012866Y003475D03*
X012864Y003480D03*
X012861Y003485D03*
X012859Y003487D03*
X012856Y003490D03*
X012861Y003427D03*
X012859Y003422D03*
X012856Y003420D03*
X012854Y003415D03*
X012851Y003412D03*
X012849Y003410D03*
X012846Y003407D03*
X012844Y003405D03*
X012831Y003392D03*
X012314Y003982D03*
X011049Y003295D03*
D212*
X012350Y003295D03*
X012393Y003322D03*
D213*
X012151Y003437D03*
X011984Y003567D03*
X011564Y003790D03*
X010689Y004022D03*
X010674Y003590D03*
X010401Y003305D03*
X014191Y003295D03*
D214*
X013805Y003465D03*
X012845Y003497D03*
X012835Y003502D03*
X011978Y003477D03*
X011053Y003297D03*
X010685Y003992D03*
X011135Y004190D03*
D215*
X011286Y004110D03*
X011361Y004525D03*
X010489Y004462D03*
X010484Y004460D03*
X010716Y003672D03*
X010554Y003355D03*
X011286Y003557D03*
X011286Y003560D03*
X011286Y003562D03*
X011636Y003652D03*
X011479Y003297D03*
X012411Y003455D03*
X012909Y003362D03*
X013549Y003757D03*
D216*
X013261Y004320D03*
X012614Y003650D03*
X012674Y003362D03*
X011984Y003570D03*
X011289Y003852D03*
X010689Y003667D03*
X010674Y003587D03*
X010399Y003307D03*
X010601Y004512D03*
X011296Y004545D03*
X014146Y003315D03*
X014186Y003297D03*
D217*
X013551Y003762D03*
X013554Y003767D03*
X013499Y004270D03*
X013261Y004322D03*
X012409Y003452D03*
X011984Y003590D03*
X011829Y003452D03*
X011636Y003655D03*
X011566Y003805D03*
X011284Y003550D03*
X011284Y003547D03*
X011284Y003545D03*
X011479Y003300D03*
X010674Y003562D03*
X010371Y003330D03*
X010989Y003990D03*
X010891Y004092D03*
X010504Y004470D03*
X010499Y004467D03*
X011349Y004530D03*
D218*
X010980Y004592D03*
X012363Y003300D03*
X012368Y003302D03*
X012370Y003305D03*
X012375Y003307D03*
X012378Y003310D03*
D219*
X012683Y003365D03*
X012615Y003652D03*
X012313Y003957D03*
X011618Y003675D03*
X011288Y003850D03*
X010990Y004022D03*
X010990Y004025D03*
X010673Y003582D03*
X010583Y004505D03*
X013935Y003372D03*
X013953Y003350D03*
X014183Y003300D03*
D220*
X013800Y003467D03*
X013258Y004310D03*
X011978Y003482D03*
X011788Y003302D03*
X011778Y003307D03*
X011063Y003305D03*
X010685Y003995D03*
D221*
X011784Y003305D03*
X013424Y003885D03*
X014054Y003325D03*
X014056Y003322D03*
X014061Y003320D03*
X014066Y003317D03*
D222*
X014050Y003327D03*
X014045Y003330D03*
X012625Y003592D03*
X011978Y003485D03*
X011065Y003307D03*
X010673Y003345D03*
D223*
X011673Y003310D03*
D224*
X010263Y003455D03*
X010978Y004650D03*
X013350Y003797D03*
X013930Y003310D03*
D225*
X013949Y003352D03*
X014156Y003312D03*
X014366Y003465D03*
X013204Y003710D03*
X012691Y003367D03*
X013009Y004267D03*
X011286Y004095D03*
X010991Y004020D03*
X010674Y003580D03*
X010391Y003312D03*
X010579Y004502D03*
D226*
X011978Y003487D03*
X011073Y003312D03*
X013425Y003887D03*
X013798Y003470D03*
X014040Y003335D03*
D227*
X011669Y003312D03*
D228*
X012381Y003312D03*
X012384Y003315D03*
D229*
X012088Y003462D03*
X011625Y003670D03*
X011288Y004100D03*
X010990Y004007D03*
X010555Y004492D03*
X010673Y003315D03*
X010385Y003317D03*
X013208Y003717D03*
X013728Y003532D03*
X014348Y003470D03*
D230*
X013253Y004287D03*
X011665Y003315D03*
D231*
X011661Y003317D03*
X011659Y003320D03*
D232*
X012386Y003317D03*
X012389Y003320D03*
D233*
X011984Y003562D03*
X011286Y004085D03*
X010681Y003665D03*
X010674Y003600D03*
X010674Y003597D03*
X010671Y003320D03*
X010631Y004525D03*
X013439Y004280D03*
X013661Y003627D03*
X014404Y003455D03*
D234*
X013351Y003800D03*
X013289Y003745D03*
X012871Y003320D03*
X011571Y003822D03*
X010266Y003450D03*
X010264Y003452D03*
D235*
X011619Y003442D03*
X011654Y003325D03*
X011656Y003322D03*
D236*
X011815Y003447D03*
X011985Y003585D03*
X012438Y003990D03*
X012980Y003712D03*
X013213Y003727D03*
X013213Y003730D03*
X013720Y003550D03*
X013723Y003547D03*
X013723Y003545D03*
X014323Y003477D03*
X011268Y003512D03*
X010673Y003567D03*
X010378Y003325D03*
X010690Y004027D03*
X010990Y003997D03*
X011288Y004105D03*
X010978Y004645D03*
X010525Y004480D03*
D237*
X010980Y004590D03*
X012398Y003327D03*
X012395Y003325D03*
X012715Y003520D03*
X012718Y003522D03*
X012720Y003525D03*
D238*
X012613Y003627D03*
X011983Y003535D03*
X011560Y003762D03*
X011288Y003882D03*
X011285Y004057D03*
X011503Y003482D03*
X010673Y003327D03*
X010710Y004552D03*
D239*
X011618Y003440D03*
X011615Y003437D03*
X011648Y003330D03*
X011650Y003327D03*
D240*
X011558Y003752D03*
X011288Y003892D03*
X011285Y004045D03*
X011285Y004047D03*
X010943Y004095D03*
X011158Y003412D03*
X011155Y003410D03*
X010673Y003330D03*
X013895Y003447D03*
D241*
X012400Y003330D03*
D242*
X011646Y003332D03*
X011644Y003335D03*
X011614Y003435D03*
D243*
X012404Y003332D03*
D244*
X012405Y003335D03*
X010980Y004587D03*
D245*
X011553Y003707D03*
X011553Y003705D03*
X011100Y003340D03*
X011098Y003337D03*
X012313Y003972D03*
X012618Y003602D03*
D246*
X011640Y003337D03*
X011610Y003430D03*
X011613Y003432D03*
D247*
X012409Y003337D03*
D248*
X011639Y003340D03*
X011636Y003342D03*
X011634Y003345D03*
X011609Y003425D03*
X011609Y003427D03*
D249*
X012411Y003340D03*
D250*
X012424Y003470D03*
X012426Y003472D03*
X012466Y003995D03*
X012886Y004230D03*
X012894Y004232D03*
X013526Y004262D03*
X013539Y003735D03*
X013539Y003732D03*
X013536Y003730D03*
X012146Y004005D03*
X011641Y003640D03*
X011286Y003582D03*
X010891Y004090D03*
X010451Y004442D03*
X010446Y004440D03*
X011404Y004505D03*
X011409Y004502D03*
X011414Y004500D03*
X010359Y003342D03*
D251*
X011103Y003342D03*
X011105Y003345D03*
X011553Y003712D03*
X011553Y003715D03*
X011980Y003505D03*
X013985Y003385D03*
X013988Y003382D03*
D252*
X012414Y003342D03*
D253*
X012415Y003345D03*
X010980Y004585D03*
D254*
X011454Y004477D03*
X011459Y004475D03*
X012134Y004010D03*
X012476Y003997D03*
X012864Y004220D03*
X012981Y003727D03*
X012901Y003350D03*
X013531Y003712D03*
X013531Y003715D03*
X014264Y003500D03*
X013541Y004257D03*
X011641Y003632D03*
X011286Y003595D03*
X011199Y003717D03*
X010724Y003682D03*
X010354Y003347D03*
X010419Y004425D03*
X010424Y004427D03*
D255*
X011608Y003422D03*
X011608Y003420D03*
X011605Y003417D03*
X011605Y003415D03*
X011605Y003412D03*
X011605Y003410D03*
X011625Y003357D03*
X011628Y003355D03*
X011628Y003352D03*
X011630Y003350D03*
X011633Y003347D03*
X013253Y004290D03*
D256*
X012421Y003350D03*
D257*
X012618Y003660D03*
X012180Y003995D03*
X011985Y003587D03*
X011855Y003462D03*
X011633Y003660D03*
X011278Y003530D03*
X011275Y003525D03*
X011275Y003522D03*
X011273Y003520D03*
X010673Y003565D03*
X010563Y003352D03*
X010565Y003982D03*
X010808Y003982D03*
X010990Y003995D03*
X011160Y004205D03*
X011343Y004532D03*
X010515Y004475D03*
X013215Y003735D03*
X013710Y003572D03*
X013713Y003570D03*
X013713Y003567D03*
X013715Y003565D03*
X013715Y003562D03*
X013718Y003557D03*
X014315Y003480D03*
X013488Y004272D03*
D258*
X012426Y003355D03*
D259*
X012428Y003357D03*
D260*
X011621Y003672D03*
X011289Y003847D03*
X011286Y004097D03*
X010991Y004015D03*
X010674Y003577D03*
X010566Y004497D03*
X013731Y003525D03*
X013936Y003367D03*
X013939Y003362D03*
X013941Y003360D03*
X013944Y003357D03*
X014356Y003467D03*
D261*
X014223Y003522D03*
X014115Y003370D03*
X014133Y003357D03*
X013553Y003655D03*
X013548Y003657D03*
X013545Y003660D03*
X013543Y003662D03*
X013540Y003665D03*
X013538Y003667D03*
X013323Y003895D03*
X013218Y003792D03*
X013190Y003747D03*
X013078Y003620D03*
X012985Y003737D03*
X012878Y003370D03*
X012535Y004020D03*
X012530Y004017D03*
X012750Y004155D03*
X012753Y004157D03*
X012758Y004160D03*
X012760Y004162D03*
X012075Y004037D03*
X011655Y004345D03*
X011648Y004350D03*
X011645Y004352D03*
X011638Y004357D03*
X011635Y004360D03*
X011628Y004365D03*
X011390Y004017D03*
X011388Y003910D03*
X011290Y003827D03*
X011183Y003917D03*
X011180Y003920D03*
X011178Y003925D03*
X011178Y004010D03*
X011178Y004012D03*
X011180Y004015D03*
X010878Y003957D03*
X010725Y003712D03*
X010473Y003392D03*
X010335Y003367D03*
X010488Y003955D03*
X010230Y004302D03*
X010240Y004310D03*
X010248Y004315D03*
X010250Y004317D03*
X010258Y004322D03*
X010260Y004325D03*
X010265Y004327D03*
X010268Y004330D03*
X010275Y004335D03*
X011278Y003630D03*
X011278Y003627D03*
X011455Y003562D03*
X011640Y003607D03*
X013603Y004232D03*
X013608Y004230D03*
D262*
X012314Y003362D03*
X010906Y004142D03*
D263*
X011608Y003395D03*
X011608Y003392D03*
X011610Y003387D03*
X011610Y003385D03*
X011613Y003380D03*
X011615Y003375D03*
X011618Y003370D03*
X011620Y003365D03*
D264*
X012271Y003427D03*
X012301Y003370D03*
X013421Y003857D03*
X010944Y004152D03*
X010979Y004622D03*
D265*
X010276Y003435D03*
X010279Y003432D03*
X012979Y003372D03*
X012981Y003375D03*
X012986Y003377D03*
X012989Y003380D03*
X013719Y003672D03*
D266*
X013085Y003692D03*
X013083Y003690D03*
X013080Y003687D03*
X013078Y003685D03*
X012298Y003375D03*
X012278Y003415D03*
X012278Y003417D03*
X010955Y004155D03*
D267*
X012279Y003412D03*
X012294Y003380D03*
X012296Y003377D03*
X012816Y003512D03*
X013071Y003677D03*
X013074Y003680D03*
X013076Y003682D03*
X013086Y003695D03*
X013089Y003697D03*
X013091Y003700D03*
X013421Y003862D03*
D268*
X013555Y003770D03*
X012980Y003715D03*
X012473Y003510D03*
X011843Y003457D03*
X011835Y003455D03*
X011283Y003540D03*
X011283Y003542D03*
X011280Y003537D03*
X011280Y003535D03*
X011288Y004107D03*
X012943Y004250D03*
X014308Y003482D03*
X014695Y003385D03*
D269*
X014684Y003387D03*
X013724Y003542D03*
X013211Y003725D03*
X012969Y004257D03*
X012399Y003445D03*
X012114Y003450D03*
X012109Y003452D03*
X011629Y003665D03*
X011266Y003510D03*
X011264Y003507D03*
X010531Y004482D03*
X011334Y004535D03*
D270*
X012284Y003402D03*
X012286Y003397D03*
X012286Y003395D03*
X012289Y003392D03*
X012289Y003390D03*
X013064Y003670D03*
X013066Y003672D03*
X013069Y003675D03*
X013094Y003705D03*
X013421Y003865D03*
D271*
X013770Y003485D03*
X012313Y003967D03*
X011558Y003747D03*
X011285Y004040D03*
X011285Y004042D03*
X010688Y004010D03*
X010738Y004560D03*
X011218Y004562D03*
X011148Y003397D03*
X011145Y003395D03*
D272*
X011288Y003855D03*
X010673Y003592D03*
X010613Y004517D03*
X012378Y003437D03*
X013033Y004272D03*
X013740Y003512D03*
X014393Y003457D03*
X014643Y003397D03*
D273*
X014600Y003407D03*
X014443Y003445D03*
X013750Y003500D03*
X013643Y003642D03*
X013640Y003645D03*
X013063Y004277D03*
X012613Y003637D03*
X011983Y003550D03*
X011508Y003507D03*
X011508Y003505D03*
X011288Y003867D03*
X010673Y003647D03*
X010673Y003645D03*
X010673Y003642D03*
X010673Y003640D03*
X010673Y003637D03*
X010673Y003635D03*
X010673Y003632D03*
X010673Y003630D03*
X011260Y004552D03*
D274*
X011288Y003870D03*
X011505Y003500D03*
X011505Y003497D03*
X011983Y003547D03*
X012613Y003635D03*
X013638Y003647D03*
X013753Y003497D03*
X014455Y003442D03*
X014590Y003410D03*
D275*
X013654Y003415D03*
X013171Y003612D03*
X010596Y004090D03*
D276*
X010689Y004015D03*
X011286Y004062D03*
X011286Y003877D03*
X010701Y004550D03*
X014496Y003432D03*
X014559Y003417D03*
D277*
X013885Y003452D03*
X013880Y003455D03*
X012613Y003622D03*
X011558Y003755D03*
X011285Y004050D03*
X011503Y003475D03*
X011175Y003440D03*
X011173Y003435D03*
X011170Y003432D03*
X011168Y003430D03*
X011168Y003427D03*
X011165Y003425D03*
D278*
X011286Y003880D03*
X011286Y004060D03*
X011239Y004557D03*
X014516Y003427D03*
X014526Y003425D03*
D279*
X013256Y004302D03*
X012269Y003432D03*
X010934Y004150D03*
D280*
X011155Y004200D03*
X011288Y003875D03*
X011560Y003767D03*
X011503Y003487D03*
X011983Y003540D03*
X014485Y003435D03*
D281*
X011981Y003530D03*
X011559Y003757D03*
X011286Y003887D03*
X011286Y004052D03*
X011229Y004560D03*
X011209Y003500D03*
X011206Y003495D03*
X011204Y003490D03*
X011201Y003485D03*
X011199Y003480D03*
X011196Y003475D03*
X011194Y003472D03*
X011191Y003467D03*
X011189Y003462D03*
X011186Y003457D03*
X011184Y003455D03*
X011181Y003450D03*
X011179Y003447D03*
X011179Y003445D03*
X011176Y003442D03*
X011174Y003437D03*
D282*
X011504Y003495D03*
X011561Y003772D03*
X011286Y004070D03*
X010976Y004640D03*
X010686Y004545D03*
X011984Y003545D03*
X012311Y003962D03*
X013261Y004317D03*
X014464Y003440D03*
D283*
X013726Y003537D03*
X012981Y003710D03*
X012616Y003657D03*
X012124Y003445D03*
X012094Y003460D03*
X011984Y003582D03*
X011626Y003667D03*
X011566Y003800D03*
X011286Y004102D03*
X010674Y003570D03*
X013476Y004275D03*
D284*
X012613Y003625D03*
X011503Y003477D03*
X011208Y003497D03*
X011205Y003492D03*
X011203Y003487D03*
X011200Y003482D03*
X011198Y003477D03*
X011193Y003470D03*
X011190Y003465D03*
X011188Y003460D03*
X011183Y003452D03*
X011288Y003885D03*
X011285Y004055D03*
X010688Y004012D03*
X010718Y004555D03*
X013763Y003490D03*
X013875Y003457D03*
D285*
X014414Y003452D03*
X013296Y003820D03*
X013046Y004275D03*
X012311Y003960D03*
X011984Y003560D03*
X011289Y003860D03*
X011286Y004082D03*
X010689Y004020D03*
X010674Y003605D03*
X010674Y003602D03*
X010644Y004530D03*
D286*
X010711Y003765D03*
X010261Y003457D03*
X013294Y003747D03*
X013346Y003795D03*
X013719Y003675D03*
D287*
X013170Y003607D03*
X010673Y003537D03*
X010260Y003460D03*
D288*
X010255Y003467D03*
X013170Y003605D03*
X013308Y003760D03*
X013323Y003772D03*
X013325Y003775D03*
X013328Y003777D03*
X013330Y003780D03*
D289*
X013649Y003637D03*
X013749Y003502D03*
X011521Y003542D03*
X011521Y003545D03*
X011519Y003540D03*
X011519Y003537D03*
X011516Y003532D03*
X011516Y003530D03*
X011514Y003525D03*
X011514Y003522D03*
X011511Y003520D03*
X011511Y003517D03*
X011286Y004077D03*
X010676Y003660D03*
X010674Y003617D03*
X010674Y003615D03*
D290*
X012711Y003515D03*
X012714Y003517D03*
D291*
X011983Y003555D03*
X011518Y003535D03*
X011515Y003527D03*
X011563Y003780D03*
X011288Y003862D03*
X010673Y003612D03*
X010658Y004535D03*
D292*
X012669Y003530D03*
D293*
X012668Y003535D03*
X010980Y004610D03*
D294*
X012666Y003537D03*
D295*
X012668Y003540D03*
D296*
X012666Y003542D03*
D297*
X012668Y003545D03*
X010838Y004110D03*
X010835Y004105D03*
D298*
X010840Y004112D03*
X010843Y004115D03*
X012670Y003552D03*
D299*
X012671Y003555D03*
X012671Y003557D03*
X013254Y004295D03*
X011069Y004167D03*
X010846Y004117D03*
X010979Y004612D03*
D300*
X010850Y004120D03*
X012673Y003560D03*
X012675Y003565D03*
D301*
X012676Y003567D03*
X012674Y003562D03*
X012679Y003572D03*
X010854Y004122D03*
D302*
X011286Y004087D03*
X011564Y003787D03*
X011984Y003565D03*
X012614Y003647D03*
X013664Y003625D03*
X010976Y004642D03*
X010619Y004520D03*
X010674Y003595D03*
D303*
X012678Y003570D03*
X012680Y003575D03*
X012683Y003577D03*
X012683Y003580D03*
X012685Y003582D03*
X012688Y003585D03*
X012690Y003590D03*
D304*
X012689Y003587D03*
X011079Y004170D03*
X010859Y004125D03*
D305*
X013034Y003632D03*
X013036Y003635D03*
D306*
X013049Y003650D03*
X013421Y003872D03*
D307*
X013051Y003655D03*
X010686Y003985D03*
D308*
X011124Y004185D03*
X013054Y003657D03*
X013421Y003870D03*
D309*
X013338Y003787D03*
X013335Y003785D03*
X013300Y003752D03*
X011170Y003777D03*
D310*
X013304Y003755D03*
X013306Y003757D03*
X013334Y003782D03*
D311*
X013255Y004297D03*
X010870Y004130D03*
D312*
X010876Y004132D03*
D313*
X010899Y004140D03*
X013256Y004300D03*
D314*
X010915Y004145D03*
D315*
X010924Y004147D03*
X011109Y004180D03*
D316*
X011089Y004172D03*
D317*
X011103Y004177D03*
D318*
X013251Y004282D03*
D319*
X013251Y004285D03*
D320*
X013254Y004292D03*
D321*
X013258Y004307D03*
D322*
X010980Y004570D03*
D323*
X010980Y004572D03*
D324*
X010980Y004582D03*
D325*
X010980Y004595D03*
D326*
X010980Y004597D03*
D327*
X010980Y004600D03*
D328*
X010997Y005920D02*
X010997Y006146D01*
X011110Y006260D01*
X011223Y006146D01*
X011223Y005920D01*
X011223Y006090D02*
X010997Y006090D01*
X010855Y006260D02*
X010628Y006260D01*
X010742Y006260D02*
X010742Y005920D01*
X010487Y005976D02*
X010430Y005920D01*
X010317Y005920D01*
X010260Y005976D01*
X010317Y006090D02*
X010430Y006090D01*
X010487Y006033D01*
X010487Y005976D01*
X010317Y006090D02*
X010260Y006146D01*
X010260Y006203D01*
X010317Y006260D01*
X010430Y006260D01*
X010487Y006203D01*
X011365Y006260D02*
X011592Y006260D01*
X011478Y006260D02*
X011478Y005920D01*
X011733Y005976D02*
X011733Y006260D01*
X011960Y006260D02*
X011960Y005976D01*
X011903Y005920D01*
X011790Y005920D01*
X011733Y005976D01*
X012102Y005976D02*
X012158Y005920D01*
X012272Y005920D01*
X012328Y005976D01*
X012328Y006033D01*
X012272Y006090D01*
X012158Y006090D01*
X012102Y006146D01*
X012102Y006203D01*
X012158Y006260D01*
X012272Y006260D01*
X012328Y006203D01*
X014310Y005510D02*
X014593Y005510D01*
X014650Y005454D01*
X014650Y005340D01*
X014593Y005283D01*
X014310Y005283D01*
X014310Y005142D02*
X014650Y005142D01*
X014650Y004915D02*
X014310Y004915D01*
X014423Y005029D01*
X014310Y005142D01*
X014310Y004783D02*
X014310Y004670D01*
X014310Y004726D02*
X014650Y004726D01*
X014650Y004670D02*
X014650Y004783D01*
X013298Y008753D02*
X013062Y008753D01*
X013062Y009226D02*
X013298Y009226D01*
X011798Y009426D02*
X011562Y009426D01*
X011562Y008953D02*
X011798Y008953D01*
X009060Y008510D02*
X009060Y011130D01*
X008920Y011270D01*
X006300Y011270D01*
X006300Y008510D01*
X009060Y008510D01*
X008173Y009770D02*
X008060Y009883D01*
X008117Y009883D02*
X007947Y009883D01*
X007947Y009770D02*
X007947Y010110D01*
X008117Y010110D01*
X008173Y010053D01*
X008173Y009940D01*
X008117Y009883D01*
X007805Y009883D02*
X007692Y009770D01*
X007578Y009883D01*
X007578Y010110D01*
X007437Y009996D02*
X007437Y009770D01*
X007437Y009940D02*
X007210Y009940D01*
X007210Y009996D02*
X007210Y009770D01*
X007210Y009996D02*
X007323Y010110D01*
X007437Y009996D01*
X007805Y009883D02*
X007805Y010110D01*
X008619Y010970D02*
X008621Y010993D01*
X008627Y011016D01*
X008636Y011037D01*
X008649Y011057D01*
X008665Y011074D01*
X008683Y011088D01*
X008703Y011099D01*
X008725Y011107D01*
X008748Y011111D01*
X008772Y011111D01*
X008795Y011107D01*
X008817Y011099D01*
X008837Y011088D01*
X008855Y011074D01*
X008871Y011057D01*
X008884Y011037D01*
X008893Y011016D01*
X008899Y010993D01*
X008901Y010970D01*
X008899Y010947D01*
X008893Y010924D01*
X008884Y010903D01*
X008871Y010883D01*
X008855Y010866D01*
X008837Y010852D01*
X008817Y010841D01*
X008795Y010833D01*
X008772Y010829D01*
X008748Y010829D01*
X008725Y010833D01*
X008703Y010841D01*
X008683Y010852D01*
X008665Y010866D01*
X008649Y010883D01*
X008636Y010903D01*
X008627Y010924D01*
X008621Y010947D01*
X008619Y010970D01*
X007998Y011953D02*
X007762Y011953D01*
X007762Y012426D02*
X007998Y012426D01*
X007898Y012653D02*
X007662Y012653D01*
X007662Y013126D02*
X007898Y013126D01*
X008244Y013971D02*
X008244Y014208D01*
X008716Y014208D02*
X008716Y013971D01*
X008844Y013408D02*
X008844Y013171D01*
X009316Y013171D02*
X009316Y013408D01*
X009462Y014253D02*
X009698Y014253D01*
X009698Y014726D02*
X009462Y014726D01*
X009198Y015053D02*
X008962Y015053D01*
X008962Y015526D02*
X009198Y015526D01*
X010844Y016971D02*
X010844Y017208D01*
X011316Y017208D02*
X011316Y016971D01*
X011780Y017090D02*
X011780Y016670D01*
X011782Y016647D01*
X011787Y016624D01*
X011796Y016602D01*
X011809Y016582D01*
X011824Y016564D01*
X011842Y016549D01*
X011862Y016536D01*
X011884Y016527D01*
X011907Y016522D01*
X011930Y016520D01*
X013630Y016520D01*
X013653Y016522D01*
X013676Y016527D01*
X013698Y016536D01*
X013718Y016549D01*
X013736Y016564D01*
X013751Y016582D01*
X013764Y016602D01*
X013773Y016624D01*
X013778Y016647D01*
X013780Y016670D01*
X013780Y017910D01*
X013778Y017933D01*
X013773Y017956D01*
X013764Y017978D01*
X013751Y017998D01*
X013736Y018016D01*
X013718Y018031D01*
X013698Y018044D01*
X013676Y018053D01*
X013653Y018058D01*
X013630Y018060D01*
X011930Y018060D01*
X011907Y018058D01*
X011884Y018053D01*
X011862Y018044D01*
X011842Y018031D01*
X011824Y018016D01*
X011809Y017998D01*
X011796Y017978D01*
X011787Y017956D01*
X011782Y017933D01*
X011780Y017910D01*
X011780Y017490D01*
X011780Y017090D01*
X011807Y017092D01*
X011834Y017097D01*
X011860Y017107D01*
X011884Y017119D01*
X011906Y017135D01*
X011926Y017153D01*
X011943Y017175D01*
X011958Y017198D01*
X011968Y017223D01*
X011976Y017249D01*
X011980Y017276D01*
X011980Y017304D01*
X011976Y017331D01*
X011968Y017357D01*
X011958Y017382D01*
X011943Y017405D01*
X011926Y017427D01*
X011906Y017445D01*
X011884Y017461D01*
X011860Y017473D01*
X011834Y017483D01*
X011807Y017488D01*
X011780Y017490D01*
X012210Y017460D02*
X012437Y017460D01*
X012323Y017460D02*
X012323Y017120D01*
X012578Y017120D02*
X012805Y017120D01*
X012947Y017120D02*
X012947Y017460D01*
X013060Y017346D01*
X013173Y017460D01*
X013173Y017120D01*
X013315Y017120D02*
X013315Y017460D01*
X013485Y017460D01*
X013542Y017403D01*
X013542Y017290D01*
X013485Y017233D01*
X013315Y017233D01*
X012805Y017460D02*
X012578Y017460D01*
X012578Y017120D01*
X012578Y017290D02*
X012692Y017290D01*
X011316Y018271D02*
X011316Y018508D01*
X010844Y018508D02*
X010844Y018271D01*
X009758Y017510D02*
X009758Y017283D01*
X009644Y017170D01*
X009531Y017283D01*
X009531Y017510D01*
X009389Y017453D02*
X009389Y017396D01*
X009333Y017340D01*
X009389Y017283D01*
X009389Y017226D01*
X009333Y017170D01*
X009219Y017170D01*
X009162Y017226D01*
X009035Y017226D02*
X009035Y017170D01*
X008978Y017170D01*
X008978Y017226D01*
X009035Y017226D01*
X008837Y017226D02*
X008780Y017170D01*
X008667Y017170D01*
X008610Y017226D01*
X008723Y017340D02*
X008780Y017340D01*
X008837Y017283D01*
X008837Y017226D01*
X008780Y017340D02*
X008837Y017396D01*
X008837Y017453D01*
X008780Y017510D01*
X008667Y017510D01*
X008610Y017453D01*
X009162Y017453D02*
X009219Y017510D01*
X009333Y017510D01*
X009389Y017453D01*
X009333Y017340D02*
X009276Y017340D01*
X006150Y016078D02*
X006037Y015965D01*
X006037Y016021D02*
X006037Y015851D01*
X006150Y015851D02*
X005810Y015851D01*
X005810Y016021D01*
X005866Y016078D01*
X005980Y016078D01*
X006037Y016021D01*
X006150Y015710D02*
X005810Y015710D01*
X005810Y015483D02*
X006150Y015483D01*
X006037Y015596D01*
X006150Y015710D01*
X005980Y015342D02*
X006037Y015285D01*
X006037Y015115D01*
X006150Y015115D02*
X005810Y015115D01*
X005810Y015285D01*
X005866Y015342D01*
X005980Y015342D01*
X005416Y015771D02*
X005416Y016008D01*
X004944Y016008D02*
X004944Y015771D01*
X003519Y015810D02*
X003519Y015583D01*
X003405Y015470D01*
X003292Y015583D01*
X003292Y015810D01*
X003150Y015810D02*
X002923Y015810D01*
X002923Y015640D01*
X003037Y015696D01*
X003094Y015696D01*
X003150Y015640D01*
X003150Y015526D01*
X003094Y015470D01*
X002980Y015470D01*
X002923Y015526D01*
X002998Y014326D02*
X002762Y014326D01*
X002762Y013853D02*
X002998Y013853D01*
X004062Y013853D02*
X004298Y013853D01*
X004298Y014326D02*
X004062Y014326D01*
X005244Y014208D02*
X005244Y013971D01*
X005716Y013971D02*
X005716Y014208D01*
X005744Y012508D02*
X005744Y012271D01*
X006216Y012271D02*
X006216Y012508D01*
X004000Y010093D02*
X003830Y009923D01*
X003887Y009866D02*
X003660Y010093D01*
X003660Y009866D02*
X004000Y009866D01*
X003943Y009725D02*
X004000Y009668D01*
X004000Y009555D01*
X003943Y009498D01*
X003716Y009498D01*
X003660Y009555D01*
X003660Y009668D01*
X003716Y009725D01*
X003716Y009356D02*
X003660Y009300D01*
X003660Y009186D01*
X003716Y009129D01*
X003943Y009129D01*
X004000Y009186D01*
X004000Y009300D01*
X003943Y009356D01*
X003716Y009356D01*
X004000Y008988D02*
X004000Y008761D01*
X003660Y008761D01*
X003716Y008620D02*
X003660Y008563D01*
X003660Y008393D01*
X004000Y008393D01*
X004000Y008563D01*
X003943Y008620D01*
X003887Y008620D01*
X003830Y008563D01*
X003830Y008393D01*
X003830Y008563D02*
X003773Y008620D01*
X003716Y008620D01*
X003660Y008251D02*
X003887Y008025D01*
X003830Y008081D02*
X004000Y008251D01*
X004000Y008025D02*
X003660Y008025D01*
X003716Y007883D02*
X003660Y007826D01*
X003660Y007713D01*
X003716Y007656D01*
X003943Y007656D01*
X004000Y007713D01*
X004000Y007826D01*
X003943Y007883D01*
X003943Y007515D02*
X003716Y007515D01*
X003660Y007458D01*
X003660Y007345D01*
X003716Y007288D01*
X003943Y007288D01*
X004000Y007345D01*
X004000Y007458D01*
X003943Y007515D01*
X004000Y007146D02*
X003887Y007033D01*
X003887Y007090D02*
X003887Y006920D01*
X004000Y006920D02*
X003660Y006920D01*
X003660Y007090D01*
X003716Y007146D01*
X003830Y007146D01*
X003887Y007090D01*
X004562Y004726D02*
X004798Y004726D01*
X004798Y004253D02*
X004562Y004253D01*
X004580Y003029D02*
X004466Y003029D01*
X004410Y002972D01*
X004410Y002802D01*
X004750Y002802D01*
X004637Y002802D02*
X004637Y002972D01*
X004580Y003029D01*
X004637Y002660D02*
X004693Y002660D01*
X004750Y002604D01*
X004750Y002490D01*
X004693Y002433D01*
X004580Y002490D02*
X004580Y002604D01*
X004637Y002660D01*
X004466Y002660D02*
X004410Y002604D01*
X004410Y002490D01*
X004466Y002433D01*
X004523Y002433D01*
X004580Y002490D01*
X004693Y002292D02*
X004750Y002235D01*
X004750Y002122D01*
X004693Y002065D01*
X004466Y002065D01*
X004410Y002122D01*
X004410Y002235D01*
X004466Y002292D01*
X004410Y001933D02*
X004410Y001820D01*
X004410Y001876D02*
X004750Y001876D01*
X004750Y001820D02*
X004750Y001933D01*
X015144Y014371D02*
X015144Y014608D01*
X015616Y014608D02*
X015616Y014371D01*
X014500Y016528D02*
X014160Y016528D01*
X014160Y016698D01*
X014216Y016755D01*
X014330Y016755D01*
X014387Y016698D01*
X014387Y016528D01*
X014387Y016641D02*
X014500Y016755D01*
X014500Y016896D02*
X014160Y016896D01*
X014160Y017123D01*
X014216Y017265D02*
X014273Y017265D01*
X014330Y017321D01*
X014330Y017435D01*
X014387Y017492D01*
X014443Y017492D01*
X014500Y017435D01*
X014500Y017321D01*
X014443Y017265D01*
X014500Y017123D02*
X014500Y016896D01*
X014330Y016896D02*
X014330Y017010D01*
X014216Y017265D02*
X014160Y017321D01*
X014160Y017435D01*
X014216Y017492D01*
X014160Y017633D02*
X014500Y017633D01*
X014500Y017860D01*
X014330Y017746D02*
X014330Y017633D01*
X014160Y017633D02*
X014160Y017860D01*
X014160Y018001D02*
X014160Y018228D01*
X014160Y018115D02*
X014500Y018115D01*
X016243Y018835D02*
X016243Y018892D01*
X016300Y018892D01*
X016300Y018835D01*
X016243Y018835D01*
D329*
X007934Y018640D02*
X007540Y018640D01*
X007737Y018837D02*
X007737Y018443D01*
X004984Y018640D02*
X004590Y018640D01*
D330*
X006480Y015639D03*
X009880Y006040D03*
D331*
X016530Y012890D02*
X016280Y013140D01*
X016280Y013640D01*
X016530Y013890D01*
X016280Y014140D01*
X016280Y014640D01*
X016530Y014890D01*
X016280Y015140D01*
X016280Y015640D01*
X016530Y015890D01*
X016280Y016140D01*
X016280Y016640D01*
X016530Y016890D01*
X016280Y017140D01*
X016280Y017640D01*
X016530Y017890D01*
X016280Y018140D01*
X016280Y018640D01*
X016530Y018890D01*
X017030Y018890D01*
X017280Y018640D01*
X017280Y018140D01*
X017030Y017890D01*
X017280Y017640D01*
X017280Y017140D01*
X017030Y016890D01*
X017280Y016640D01*
X017280Y016140D01*
X017030Y015890D01*
X017280Y015640D01*
X017280Y015140D01*
X017030Y014890D01*
X017280Y014640D01*
X017280Y014140D01*
X017030Y013890D01*
X017280Y013640D01*
X017280Y013140D01*
X017030Y012890D01*
X016530Y012890D01*
X007964Y013971D02*
X007964Y014208D01*
X007216Y014720D02*
X006744Y014720D01*
X005996Y014208D02*
X005996Y013971D01*
X006744Y013460D02*
X007216Y013460D01*
D332*
X011780Y016660D02*
X013780Y016660D01*
X012650Y013061D02*
X012503Y012914D01*
X012540Y012840D02*
X012503Y012803D01*
X012503Y012730D01*
X012540Y012693D01*
X012613Y012693D01*
X012650Y012730D01*
X012650Y012803D01*
X012613Y012840D01*
X012540Y012840D01*
X012650Y012914D02*
X012503Y013061D01*
X012650Y012619D02*
X012650Y012546D01*
X012650Y012582D02*
X012430Y012582D01*
X012430Y012546D01*
X012540Y012472D02*
X012503Y012435D01*
X012503Y012325D01*
X012430Y012325D02*
X012650Y012325D01*
X012650Y012435D01*
X012613Y012472D01*
X012540Y012472D01*
X012503Y012251D02*
X012650Y012251D01*
X012650Y012140D01*
X012613Y012104D01*
X012503Y012104D01*
X013552Y012077D02*
X013589Y012003D01*
X013662Y011930D01*
X013662Y012040D01*
X013699Y012077D01*
X013736Y012077D01*
X013772Y012040D01*
X013772Y011966D01*
X013736Y011930D01*
X013662Y011930D01*
X013662Y011856D02*
X013662Y011709D01*
X013552Y011635D02*
X013772Y011488D01*
X013772Y011414D02*
X013625Y011414D01*
X013552Y011340D01*
X013625Y011267D01*
X013772Y011267D01*
X013772Y011193D02*
X013552Y011193D01*
X013625Y011119D01*
X013552Y011046D01*
X013772Y011046D01*
X013662Y011267D02*
X013662Y011414D01*
X013552Y011488D02*
X013772Y011635D01*
D333*
X012399Y013145D02*
X012401Y013170D01*
X012407Y013194D01*
X012416Y013217D01*
X012429Y013238D01*
X012446Y013257D01*
X012465Y013274D01*
X012486Y013287D01*
X012509Y013296D01*
X012533Y013302D01*
X012558Y013304D01*
X012583Y013302D01*
X012607Y013296D01*
X012630Y013287D01*
X012651Y013274D01*
X012670Y013257D01*
X012687Y013238D01*
X012700Y013217D01*
X012709Y013194D01*
X012715Y013170D01*
X012717Y013145D01*
X012715Y013120D01*
X012709Y013096D01*
X012700Y013073D01*
X012687Y013052D01*
X012670Y013033D01*
X012651Y013016D01*
X012630Y013003D01*
X012607Y012994D01*
X012583Y012988D01*
X012558Y012986D01*
X012533Y012988D01*
X012509Y012994D01*
X012486Y013003D01*
X012465Y013016D01*
X012446Y013033D01*
X012429Y013052D01*
X012416Y013073D01*
X012407Y013096D01*
X012401Y013120D01*
X012399Y013145D01*
X014789Y016109D02*
X014947Y016109D01*
X014789Y016109D02*
X014769Y016114D01*
X014750Y016123D01*
X014733Y016134D01*
X014718Y016149D01*
X014706Y016166D01*
X014697Y016185D01*
X014691Y016205D01*
X014689Y016226D01*
X014691Y016247D01*
X014691Y016246D02*
X014691Y018372D01*
X014692Y018389D01*
X014697Y018406D01*
X014704Y018421D01*
X014714Y018435D01*
X014726Y018447D01*
X014740Y018457D01*
X014755Y018464D01*
X014772Y018469D01*
X014789Y018470D01*
X014789Y018471D02*
X014947Y018471D01*
X015085Y017880D02*
X015675Y017880D01*
X015675Y016699D01*
X015085Y016699D01*
X015085Y017880D01*
X015813Y018471D02*
X015971Y018471D01*
X015971Y018470D02*
X015988Y018469D01*
X016005Y018464D01*
X016020Y018457D01*
X016034Y018447D01*
X016046Y018435D01*
X016056Y018421D01*
X016063Y018406D01*
X016068Y018389D01*
X016069Y018372D01*
X016069Y016207D01*
X016068Y016190D01*
X016063Y016173D01*
X016056Y016158D01*
X016046Y016144D01*
X016034Y016132D01*
X016020Y016122D01*
X016005Y016115D01*
X015988Y016110D01*
X015971Y016109D01*
X015813Y016109D01*
X018751Y012908D02*
X020263Y012908D01*
X020263Y012514D01*
X020853Y012514D01*
X020853Y012908D02*
X025196Y012691D01*
X025196Y012692D02*
X025263Y012690D01*
X025329Y012684D01*
X025395Y012675D01*
X025460Y012661D01*
X025525Y012644D01*
X025588Y012623D01*
X025650Y012598D01*
X025710Y012570D01*
X025769Y012538D01*
X025826Y012503D01*
X025880Y012465D01*
X025933Y012424D01*
X025982Y012380D01*
X026030Y012332D01*
X026074Y012283D01*
X026115Y012230D01*
X026153Y012176D01*
X026188Y012119D01*
X026220Y012060D01*
X026248Y012000D01*
X026273Y011938D01*
X026294Y011875D01*
X026311Y011810D01*
X026325Y011745D01*
X026334Y011679D01*
X026340Y011613D01*
X026342Y011546D01*
X026341Y011546D02*
X026341Y009034D01*
X026342Y009034D02*
X026340Y008967D01*
X026334Y008901D01*
X026325Y008835D01*
X026311Y008770D01*
X026294Y008705D01*
X026273Y008642D01*
X026248Y008580D01*
X026220Y008520D01*
X026188Y008461D01*
X026153Y008404D01*
X026115Y008350D01*
X026074Y008297D01*
X026030Y008248D01*
X025982Y008200D01*
X025933Y008156D01*
X025880Y008115D01*
X025826Y008077D01*
X025769Y008042D01*
X025710Y008010D01*
X025650Y007982D01*
X025588Y007957D01*
X025525Y007936D01*
X025460Y007919D01*
X025395Y007905D01*
X025329Y007896D01*
X025263Y007890D01*
X025196Y007888D01*
X020853Y007671D01*
X020853Y012908D01*
X020263Y012514D02*
X020263Y008065D01*
X020853Y008065D01*
X020263Y008065D02*
X020263Y007671D01*
X018751Y007671D01*
X018751Y012908D01*
X018751Y012514D02*
X018751Y008065D01*
X017680Y008065D01*
X016314Y008065D01*
X017680Y009049D01*
X017680Y008065D01*
X017680Y009049D02*
X017680Y011530D01*
X016314Y012514D01*
X017680Y012514D01*
X018751Y012514D01*
X017680Y012514D02*
X017680Y011530D01*
X017680Y011077D02*
X017628Y011079D01*
X017577Y011085D01*
X017526Y011094D01*
X017476Y011107D01*
X017427Y011124D01*
X017379Y011144D01*
X017333Y011168D01*
X017289Y011195D01*
X017247Y011225D01*
X017207Y011258D01*
X017170Y011294D01*
X017135Y011332D01*
X017103Y011373D01*
X017075Y011417D01*
X017049Y011462D01*
X017027Y011509D01*
X017009Y011557D01*
X016994Y011607D01*
X016983Y011657D01*
X016975Y011708D01*
X016971Y011760D01*
X016971Y011812D01*
X016975Y011864D01*
X016983Y011915D01*
X016994Y011965D01*
X017009Y012015D01*
X017027Y012063D01*
X017049Y012110D01*
X017075Y012155D01*
X017103Y012199D01*
X017135Y012240D01*
X017170Y012278D01*
X017207Y012314D01*
X017247Y012347D01*
X017289Y012377D01*
X017333Y012404D01*
X017379Y012428D01*
X017427Y012448D01*
X017476Y012465D01*
X017526Y012478D01*
X017577Y012487D01*
X017628Y012493D01*
X017680Y012495D01*
X007280Y016640D02*
X007030Y016640D01*
X006530Y016640D02*
X006280Y016640D01*
X005530Y016640D02*
X005380Y016640D01*
X005780Y018790D02*
X005780Y018940D01*
X005880Y018940D01*
X001280Y004490D02*
X001130Y004490D01*
X014930Y002190D02*
X015080Y002190D01*
D334*
X015511Y009641D02*
X011692Y009641D01*
X011692Y009700D01*
X015511Y009641D02*
X015511Y009700D01*
X015511Y013519D02*
X015511Y013617D01*
X011692Y013617D01*
X011692Y013519D01*
D335*
X007280Y016640D02*
X007030Y016640D01*
X007030Y016890D01*
X006530Y016890D01*
X006530Y016640D01*
X006030Y016640D01*
X006030Y016890D01*
X005530Y016890D01*
X005530Y016640D01*
X005280Y016640D01*
X006280Y016640D01*
X006530Y016640D02*
X007030Y016640D01*
X007280Y016640D02*
X007280Y017790D01*
X007280Y018940D01*
X006280Y018940D01*
X005780Y018940D01*
X005780Y018540D01*
X005880Y018540D01*
X005880Y018940D01*
X005780Y018940D02*
X005280Y018940D01*
X005280Y017790D01*
X005280Y016640D01*
X005880Y018540D02*
X006680Y018540D01*
X006680Y018940D01*
X006780Y018940D02*
X006780Y018540D01*
X006680Y018540D01*
X003430Y012990D02*
X002280Y012990D01*
X001130Y012990D01*
X001130Y006990D01*
X001130Y006490D01*
X001530Y006490D01*
X001530Y004590D01*
X001130Y004590D01*
X001130Y006490D01*
X003180Y006240D02*
X003180Y006740D01*
X003430Y006740D01*
X003430Y010240D01*
X003180Y010240D01*
X003180Y010740D01*
X003430Y010740D01*
X003430Y011240D01*
X003180Y011240D01*
X003180Y011740D01*
X003430Y011740D01*
X003430Y012240D01*
X003180Y012240D01*
X003180Y012740D01*
X003430Y012740D01*
X003430Y012990D01*
X003430Y006940D01*
X003430Y003990D01*
X002280Y003990D01*
X001130Y003990D01*
X001130Y004490D01*
X001530Y004490D01*
X001530Y004590D01*
X001130Y004590D02*
X001130Y004490D01*
X001180Y003490D02*
X004180Y003490D01*
X004180Y001490D01*
X001180Y001490D01*
X001180Y003490D01*
X003180Y004240D02*
X003180Y004740D01*
X003430Y004740D01*
X003430Y005240D01*
X003180Y005240D01*
X003180Y005740D01*
X003430Y005740D01*
X003430Y006240D01*
X003180Y006240D01*
X003180Y007240D02*
X003180Y007740D01*
X003430Y007740D01*
X003430Y008240D02*
X003180Y008240D01*
X003180Y008740D01*
X003430Y008740D01*
X003430Y009240D02*
X003180Y009240D01*
X003180Y009740D01*
X003430Y009740D01*
X001530Y010490D02*
X001530Y012390D01*
X001130Y012390D01*
X001130Y012490D02*
X001530Y012490D01*
X001530Y012390D01*
X001530Y010490D02*
X001130Y010490D01*
X003180Y007240D02*
X003430Y007240D01*
X003430Y004240D02*
X003180Y004240D01*
X003430Y004240D02*
X003430Y004090D01*
X014930Y004690D02*
X014930Y002290D01*
X015330Y002290D01*
X015330Y007090D01*
X014930Y007090D01*
X014930Y007190D02*
X015330Y007190D01*
X015330Y007090D01*
X014930Y007690D02*
X014930Y004690D01*
X016980Y004940D02*
X016980Y005440D01*
X017230Y005440D01*
X017230Y005940D01*
X016980Y005940D01*
X016980Y006440D01*
X017230Y006440D01*
X017230Y006940D01*
X016980Y006940D01*
X016980Y007440D01*
X017230Y007440D01*
X017230Y007690D01*
X017230Y004640D01*
X017230Y001690D01*
X016080Y001690D01*
X014930Y001690D01*
X014930Y002190D01*
X015330Y002190D01*
X015330Y002290D01*
X014930Y002290D02*
X014930Y002190D01*
X016980Y001940D02*
X016980Y002440D01*
X017230Y002440D01*
X017230Y002940D01*
X016980Y002940D01*
X016980Y003440D01*
X017230Y003440D01*
X017230Y003940D01*
X016980Y003940D01*
X016980Y004440D01*
X017230Y004440D01*
X017230Y004940D01*
X016980Y004940D01*
X017230Y007690D02*
X016080Y007690D01*
X014930Y007690D01*
X016980Y001940D02*
X017230Y001940D01*
X017230Y001790D01*
M02*
