%
M48
M72
T01C0.0200
T02C0.0236
T03C0.0400
T04C0.1300
%
T01
X6080Y1990
X14780Y14790
X8780Y5490
X6980Y5490
X7880Y5490
X6480Y5490
T02
X14380Y12990
X14280Y16090
X14280Y14090
X9280Y6490
X12980Y12990
X12980Y12290
X14380Y12290
X14380Y11590
X12980Y11590
X14380Y10890
X12980Y10890
X12980Y10190
X14380Y10190
X16280Y9790
X16280Y10890
X16280Y11390
X16280Y11890
X16280Y12390
X16280Y9290
X7880Y16190
X11080Y16090
X13980Y8390
X10080Y10090
X10080Y10990
X8480Y9790
X8780Y12190
T03
X16780Y13390
X16780Y14390
X16780Y15390
X16780Y16390
X16780Y17390
X16780Y18390
X2280Y10490
X2280Y11490
X2280Y12490
X2280Y4490
X2280Y9490
X2280Y8490
X2280Y5490
X2280Y6490
X2280Y7490
X16080Y2190
X16080Y3190
X16080Y4190
X16080Y5190
X16080Y6190
X16080Y7190
X5780Y17790
X6780Y17790
X3680Y2990
X3680Y1990
X2680Y2990
X2680Y1990
X1680Y2990
X1680Y1990
T04
X2280Y17890
M30
