G75*
G70*
%OFA0B0*%
%FSLAX24Y24*%
%IPPOS*%
%LPD*%
%AMOC8*
5,1,8,0,0,1.08239X$1,22.5*
%
%ADD10R,0.0220X0.0500*%
%ADD11R,0.0500X0.0220*%
%ADD12R,0.0315X0.0315*%
%ADD13R,0.0748X0.0433*%
%ADD14R,0.0472X0.0315*%
%ADD15R,0.0315X0.0472*%
%ADD16R,0.0260X0.0800*%
%ADD17R,0.0630X0.0906*%
%ADD18R,0.0512X0.0591*%
%ADD19R,0.0591X0.0512*%
%ADD20R,0.0709X0.0315*%
%ADD21R,0.0709X0.0276*%
%ADD22R,0.0984X0.0315*%
%ADD23R,0.0984X0.0394*%
%ADD24C,0.0740*%
%ADD25C,0.0600*%
%ADD26R,0.0600X0.0600*%
%ADD27OC8,0.0600*%
%ADD28R,0.0236X0.0866*%
%ADD29R,0.0866X0.0236*%
%ADD30C,0.0100*%
%ADD31C,0.0356*%
%ADD32C,0.0160*%
%ADD33C,0.0320*%
%ADD34C,0.0320*%
D10*
X006578Y008200D03*
X006893Y008200D03*
X007208Y008200D03*
X007523Y008200D03*
X007837Y008200D03*
X008152Y008200D03*
X008467Y008200D03*
X008782Y008200D03*
X008782Y011580D03*
X008467Y011580D03*
X008152Y011580D03*
X007837Y011580D03*
X007523Y011580D03*
X007208Y011580D03*
X006893Y011580D03*
X006578Y011580D03*
D11*
X005990Y010992D03*
X005990Y010677D03*
X005990Y010362D03*
X005990Y010047D03*
X005990Y009732D03*
X005990Y009417D03*
X005990Y009102D03*
X005990Y008787D03*
X009370Y008787D03*
X009370Y009102D03*
X009370Y009417D03*
X009370Y009732D03*
X009370Y010047D03*
X009370Y010362D03*
X009370Y010677D03*
X009370Y010992D03*
D12*
X006480Y015294D03*
X006480Y015885D03*
X009880Y006385D03*
X009880Y005794D03*
D13*
X007708Y013637D03*
X007708Y014542D03*
X006252Y014542D03*
X006252Y013637D03*
D14*
X005480Y013735D03*
X005480Y014444D03*
X005180Y015535D03*
X005180Y016244D03*
X008480Y014444D03*
X008480Y013735D03*
X009080Y013644D03*
X009080Y012935D03*
X005980Y012744D03*
X005980Y012035D03*
X011080Y016735D03*
X011080Y017444D03*
X011080Y018035D03*
X011080Y018744D03*
X015380Y014844D03*
X015380Y014135D03*
D15*
X009934Y014490D03*
X009226Y014490D03*
X009434Y015290D03*
X008726Y015290D03*
X008134Y012890D03*
X007426Y012890D03*
X007526Y012190D03*
X008234Y012190D03*
X004534Y014090D03*
X003826Y014090D03*
X003234Y014090D03*
X002526Y014090D03*
X011326Y009190D03*
X012034Y009190D03*
X012826Y008990D03*
X013534Y008990D03*
X005034Y004490D03*
X004326Y004490D03*
D16*
X012030Y016080D03*
X012530Y016080D03*
X013030Y016080D03*
X013530Y016080D03*
X013530Y018500D03*
X013030Y018500D03*
X012530Y018500D03*
X012030Y018500D03*
D17*
X015380Y018530D03*
X015380Y016049D03*
D18*
X008054Y015290D03*
X007306Y015290D03*
X010806Y008290D03*
X011554Y008290D03*
D19*
X009880Y007864D03*
X009880Y007116D03*
X010680Y010016D03*
X010680Y010764D03*
X010680Y011816D03*
X010680Y012564D03*
X005180Y012764D03*
X004280Y012764D03*
X004280Y012016D03*
X005180Y012016D03*
X004780Y006464D03*
X004780Y005716D03*
X008780Y003564D03*
X008780Y002816D03*
D20*
X011731Y010310D03*
X011731Y010743D03*
X011731Y011176D03*
X011731Y011609D03*
X011731Y012042D03*
X011731Y012475D03*
X011731Y012909D03*
X015471Y012909D03*
X015471Y012475D03*
X015471Y012042D03*
X015471Y011609D03*
X015471Y011176D03*
X015471Y010743D03*
X015471Y010310D03*
D21*
X015471Y009897D03*
X011731Y009897D03*
X011731Y013322D03*
X015471Y013322D03*
D22*
X017180Y010290D03*
D23*
X017180Y009758D03*
X017180Y010841D03*
D24*
X016780Y013390D03*
X016780Y014390D03*
X016780Y015390D03*
X016780Y016390D03*
X016780Y017390D03*
X016780Y018390D03*
D25*
X006780Y018090D02*
X006780Y017490D01*
X005780Y017490D02*
X005780Y018090D01*
X002580Y012490D02*
X001980Y012490D01*
X001980Y011490D02*
X002580Y011490D01*
X002580Y010490D02*
X001980Y010490D01*
X001980Y009490D02*
X002580Y009490D01*
X002580Y008490D02*
X001980Y008490D01*
X001980Y007490D02*
X002580Y007490D01*
X002580Y006490D02*
X001980Y006490D01*
X001980Y005490D02*
X002580Y005490D01*
X002580Y004490D02*
X001980Y004490D01*
X015780Y004190D02*
X016380Y004190D01*
X016380Y005190D02*
X015780Y005190D01*
X015780Y006190D02*
X016380Y006190D01*
X016380Y007190D02*
X015780Y007190D01*
X015780Y003190D02*
X016380Y003190D01*
X016380Y002190D02*
X015780Y002190D01*
D26*
X003680Y002990D03*
D27*
X002680Y002990D03*
X001680Y002990D03*
X001680Y001990D03*
X002680Y001990D03*
X003680Y001990D03*
D28*
X008430Y016266D03*
X008930Y016266D03*
X009430Y016266D03*
X009930Y016266D03*
X009930Y018313D03*
X009430Y018313D03*
X008930Y018313D03*
X008430Y018313D03*
D29*
X004304Y016440D03*
X004304Y015940D03*
X004304Y015440D03*
X004304Y014940D03*
X002256Y014940D03*
X002256Y015440D03*
X002256Y015940D03*
X002256Y016440D03*
D30*
X002180Y001690D02*
X002380Y001490D01*
X016880Y001490D01*
X017380Y001990D01*
X017380Y007990D01*
X016980Y008390D01*
X013980Y008390D01*
X013534Y008990D02*
X013534Y009744D01*
X013580Y009790D01*
X012480Y009890D02*
X012034Y009444D01*
X012034Y009190D01*
X011554Y008961D02*
X011554Y008916D01*
X011780Y008690D01*
X012526Y008690D01*
X012826Y008990D01*
X012826Y008744D01*
X014380Y007190D01*
X016080Y007190D01*
X016680Y007190D01*
X017180Y006690D01*
X017180Y002190D01*
X016680Y001690D01*
X011080Y001690D01*
X010180Y002590D01*
X010180Y004890D01*
X007480Y007590D01*
X007480Y008157D01*
X007523Y008200D01*
X007523Y009147D01*
X007880Y008990D02*
X007880Y008242D01*
X007837Y008200D01*
X007523Y008200D02*
X007523Y008747D01*
X007880Y008990D02*
X008080Y009190D01*
X008080Y011090D01*
X008180Y011190D01*
X008180Y011552D01*
X008152Y011580D01*
X008152Y012108D01*
X008234Y012190D01*
X008980Y012935D01*
X009080Y012935D01*
X009280Y013290D02*
X009580Y013590D01*
X009580Y015144D01*
X009434Y015290D01*
X009430Y015294D01*
X009430Y016266D01*
X009430Y016890D01*
X009330Y016990D01*
X009330Y017040D01*
X009780Y017490D01*
X009480Y017790D01*
X009480Y018263D01*
X009430Y018313D02*
X008930Y018313D01*
X009780Y017490D02*
X010180Y017490D01*
X010726Y018035D01*
X011080Y018035D01*
X011080Y017444D01*
X012934Y017444D01*
X013580Y018090D01*
X013580Y018450D01*
X013530Y018500D01*
X013680Y017090D02*
X013580Y016990D01*
X013680Y016990D01*
X013880Y016790D01*
X013880Y015290D01*
X013480Y014890D01*
X012580Y014890D01*
X011180Y013490D01*
X011180Y013090D01*
X011380Y012890D01*
X011712Y012890D01*
X011731Y012909D01*
X011731Y012475D02*
X011645Y012390D01*
X011280Y012390D01*
X011080Y012190D01*
X010280Y012190D01*
X010080Y011990D01*
X010080Y010990D01*
X009767Y010677D01*
X009370Y010677D01*
X009370Y010362D02*
X009008Y010362D01*
X008680Y010690D01*
X008680Y010890D01*
X009180Y011390D01*
X009180Y012390D01*
X012280Y015490D01*
X013180Y015490D01*
X013280Y015590D01*
X013280Y016690D01*
X013580Y016990D01*
X013680Y017090D02*
X015680Y017090D01*
X015980Y016790D01*
X015980Y015890D01*
X016480Y015390D01*
X016780Y015390D01*
X015380Y014844D02*
X014834Y014844D01*
X014780Y014790D01*
X015380Y014844D02*
X015380Y016049D01*
X014280Y016090D02*
X014280Y014090D01*
X014980Y013390D02*
X012280Y013390D01*
X012280Y009690D01*
X014980Y009690D01*
X014980Y013390D01*
X014980Y013307D02*
X012280Y013307D01*
X012280Y013290D02*
X012248Y013322D01*
X011731Y013322D01*
X012280Y013208D02*
X014980Y013208D01*
X014980Y013110D02*
X012280Y013110D01*
X012280Y013011D02*
X014980Y013011D01*
X014980Y012913D02*
X012280Y012913D01*
X012280Y012814D02*
X014980Y012814D01*
X014980Y012716D02*
X012280Y012716D01*
X012280Y012617D02*
X014980Y012617D01*
X014980Y012519D02*
X012280Y012519D01*
X012280Y012420D02*
X014980Y012420D01*
X014980Y012322D02*
X012280Y012322D01*
X012280Y012223D02*
X014980Y012223D01*
X014980Y012125D02*
X012280Y012125D01*
X012280Y012026D02*
X014980Y012026D01*
X014980Y011928D02*
X012280Y011928D01*
X012280Y011829D02*
X014980Y011829D01*
X014980Y011731D02*
X012280Y011731D01*
X012280Y011632D02*
X014980Y011632D01*
X014980Y011534D02*
X012280Y011534D01*
X012280Y011435D02*
X014980Y011435D01*
X014980Y011337D02*
X012280Y011337D01*
X012280Y011238D02*
X014980Y011238D01*
X014980Y011140D02*
X012280Y011140D01*
X012267Y011176D02*
X012280Y011190D01*
X012267Y011176D02*
X011731Y011176D01*
X011711Y010764D02*
X011731Y010743D01*
X011731Y010310D01*
X011731Y009897D01*
X011326Y009491D01*
X011326Y009190D01*
X011554Y008961D01*
X011554Y008916D02*
X011554Y008290D01*
X011180Y008690D02*
X011180Y006890D01*
X013880Y004190D01*
X016080Y004190D01*
X016580Y003690D02*
X016880Y003990D01*
X016880Y005090D01*
X016780Y005190D01*
X016080Y005190D01*
X016580Y003690D02*
X013880Y003690D01*
X010806Y006764D01*
X010806Y008290D01*
X010780Y008316D01*
X010780Y008790D01*
X010152Y009417D01*
X009370Y009417D01*
X009370Y009732D02*
X010397Y009732D01*
X010680Y010016D01*
X010680Y009190D01*
X011180Y008690D01*
X012280Y009761D02*
X014980Y009761D01*
X014980Y009859D02*
X012280Y009859D01*
X012280Y009958D02*
X014980Y009958D01*
X014980Y010056D02*
X012280Y010056D01*
X012280Y010155D02*
X014980Y010155D01*
X014980Y010253D02*
X012280Y010253D01*
X012280Y010352D02*
X014980Y010352D01*
X014980Y010450D02*
X012280Y010450D01*
X012280Y010549D02*
X014980Y010549D01*
X014980Y010647D02*
X012280Y010647D01*
X012280Y010746D02*
X014980Y010746D01*
X014934Y010743D02*
X014880Y010690D01*
X014680Y010690D01*
X014934Y010743D02*
X015471Y010743D01*
X016782Y010743D01*
X016880Y010841D01*
X017180Y010841D01*
X017132Y010844D02*
X016605Y010844D01*
X016608Y010857D02*
X016608Y010881D01*
X016580Y010881D01*
X016580Y010889D01*
X017132Y010889D01*
X017132Y010792D01*
X016595Y010792D01*
X016595Y010794D01*
X016608Y010857D01*
X016580Y010844D02*
X015980Y010844D01*
X015980Y010746D02*
X016580Y010746D01*
X016580Y010647D02*
X015980Y010647D01*
X015980Y010580D02*
X015980Y012990D01*
X016180Y012990D01*
X016380Y012790D01*
X016580Y012790D01*
X016580Y010580D01*
X015980Y010580D01*
X015980Y010943D02*
X016580Y010943D01*
X016580Y011041D02*
X015980Y011041D01*
X015980Y011140D02*
X016580Y011140D01*
X016580Y011238D02*
X015980Y011238D01*
X015980Y011337D02*
X016580Y011337D01*
X016580Y011435D02*
X015980Y011435D01*
X015980Y011534D02*
X016580Y011534D01*
X016580Y011632D02*
X015980Y011632D01*
X015980Y011731D02*
X016580Y011731D01*
X016580Y011829D02*
X015980Y011829D01*
X015980Y011928D02*
X016580Y011928D01*
X016580Y012026D02*
X015980Y012026D01*
X015980Y012125D02*
X016580Y012125D01*
X016580Y012223D02*
X015980Y012223D01*
X015980Y012322D02*
X016580Y012322D01*
X016580Y012420D02*
X015980Y012420D01*
X015980Y012519D02*
X016580Y012519D01*
X016580Y012617D02*
X015980Y012617D01*
X015980Y012716D02*
X016580Y012716D01*
X016355Y012814D02*
X015980Y012814D01*
X015980Y012913D02*
X016257Y012913D01*
X016480Y013390D02*
X015780Y014090D01*
X015426Y014090D01*
X015380Y014135D01*
X016480Y013390D02*
X016780Y013390D01*
X014980Y011041D02*
X012280Y011041D01*
X012280Y010943D02*
X014980Y010943D01*
X014980Y010844D02*
X012280Y010844D01*
X011711Y010764D02*
X010680Y010764D01*
X010680Y011816D01*
X010680Y012564D02*
X010654Y012590D01*
X009680Y012590D01*
X009370Y012280D01*
X009370Y010992D01*
X008782Y011580D02*
X008780Y011582D01*
X008780Y012190D01*
X008234Y012190D02*
X008134Y012290D01*
X008134Y012890D01*
X008134Y012944D01*
X008480Y013290D01*
X009280Y013290D01*
X009080Y013644D02*
X009080Y013890D01*
X008880Y014090D01*
X008826Y014090D01*
X008853Y014117D01*
X008880Y014090D01*
X008853Y014117D02*
X009226Y014490D01*
X009080Y014490D01*
X008680Y014890D01*
X008680Y015244D01*
X008726Y015290D01*
X008726Y016062D01*
X008930Y016266D01*
X007956Y016266D01*
X007880Y016190D01*
X008430Y016266D02*
X008930Y016266D01*
X009330Y016990D02*
X008080Y016990D01*
X007280Y016190D01*
X006480Y016190D01*
X005980Y016690D01*
X005780Y016890D01*
X005780Y017790D01*
X005980Y016690D02*
X005980Y016390D01*
X005530Y015940D01*
X005530Y014494D01*
X005480Y014444D01*
X005480Y013735D02*
X006153Y013735D01*
X006252Y013637D01*
X006578Y013311D01*
X006578Y011580D01*
X006893Y011580D02*
X006893Y014202D01*
X007180Y014490D01*
X007656Y014490D01*
X007708Y014542D01*
X008382Y014542D01*
X008480Y014444D01*
X008826Y014090D02*
X007380Y014090D01*
X007080Y013790D01*
X007080Y013290D01*
X007380Y012990D01*
X007380Y012790D01*
X007180Y012590D01*
X007180Y011552D01*
X007208Y011580D01*
X007208Y012671D01*
X007426Y012890D01*
X007426Y012944D01*
X007380Y012990D01*
X007426Y012890D02*
X007803Y012512D01*
X007526Y012235D01*
X007526Y012190D01*
X007837Y012478D02*
X007803Y012512D01*
X007837Y012478D02*
X007837Y011580D01*
X007523Y011580D02*
X007523Y011247D01*
X007680Y011090D01*
X008080Y011090D01*
X007523Y010747D02*
X007180Y011090D01*
X007180Y011552D01*
X008467Y011580D02*
X008467Y009802D01*
X008480Y009790D01*
X009370Y010047D02*
X009413Y010090D01*
X010080Y010090D01*
X008680Y008890D02*
X009680Y007890D01*
X009854Y007890D01*
X009880Y007864D01*
X009880Y007116D02*
X009880Y006385D01*
X009880Y005890D02*
X009580Y005890D01*
X009280Y006190D01*
X009280Y006490D01*
X009880Y005890D02*
X009880Y005794D01*
X008780Y005490D02*
X008780Y003564D01*
X008606Y002990D02*
X007680Y002990D01*
X007280Y003390D01*
X007280Y006590D01*
X005980Y007890D01*
X005980Y008777D01*
X005990Y008787D01*
X005977Y009090D02*
X005480Y009090D01*
X005280Y008890D01*
X005280Y008290D01*
X006980Y006590D01*
X006980Y005490D01*
X006480Y005490D02*
X006480Y005790D01*
X005780Y006490D01*
X004806Y006490D01*
X004780Y006464D01*
X004780Y009090D01*
X005108Y009417D01*
X005990Y009417D01*
X005990Y009732D02*
X005123Y009732D01*
X003380Y007990D01*
X003380Y006190D01*
X002680Y005490D01*
X002280Y005490D01*
X002280Y006490D02*
X003080Y007290D01*
X003080Y007990D01*
X005137Y010047D01*
X005990Y010047D01*
X005990Y010362D02*
X005152Y010362D01*
X002280Y007490D01*
X004780Y005716D02*
X004780Y004744D01*
X005034Y004490D01*
X005034Y004144D01*
X004680Y003790D01*
X003680Y003790D01*
X003180Y003290D01*
X003180Y002690D01*
X003380Y002490D01*
X005580Y002490D01*
X006080Y001990D01*
X003680Y001990D01*
X003680Y002990D02*
X007680Y002990D01*
X008606Y002990D02*
X008780Y002816D01*
X009580Y001690D02*
X010180Y002290D01*
X010180Y002590D01*
X009580Y001690D02*
X006380Y001690D01*
X006080Y001990D01*
X004326Y004490D02*
X002280Y004490D01*
X001680Y002990D02*
X002180Y002490D01*
X002180Y001690D01*
X007880Y005490D02*
X007980Y005590D01*
X007980Y006390D01*
X006578Y007792D01*
X006578Y008200D01*
X006880Y008212D02*
X006893Y008200D01*
X006893Y007977D01*
X007280Y007590D01*
X007480Y007590D01*
X007523Y008200D02*
X007523Y010747D01*
X007208Y010362D02*
X005980Y011590D01*
X005980Y012035D01*
X005960Y012016D01*
X005180Y012016D01*
X004280Y012016D01*
X003880Y012390D02*
X006180Y012390D01*
X006380Y012590D01*
X006380Y012990D01*
X006180Y013190D01*
X005080Y013190D01*
X004480Y013790D01*
X004480Y014035D01*
X004534Y014090D01*
X004534Y014135D01*
X004480Y014190D01*
X004480Y014763D01*
X004304Y014940D01*
X004304Y015440D01*
X005084Y015440D01*
X005180Y015535D01*
X005530Y015940D02*
X004304Y015940D01*
X002256Y015940D01*
X002256Y015440D01*
X002306Y015490D01*
X002580Y015490D01*
X003234Y014835D01*
X003234Y014090D01*
X003826Y014090D01*
X003854Y014090D01*
X005180Y012764D01*
X005960Y012764D01*
X005980Y012744D01*
X004280Y012764D02*
X003852Y012764D01*
X002526Y014090D01*
X002280Y012490D02*
X003780Y012490D01*
X003880Y012390D01*
X002778Y010992D02*
X002280Y011490D01*
X002778Y010992D02*
X005990Y010992D01*
X005990Y010677D02*
X002467Y010677D01*
X002280Y010490D01*
X005977Y009090D02*
X005990Y009102D01*
X007208Y008200D02*
X007208Y010362D01*
X008380Y008890D02*
X008680Y008890D01*
X008380Y008890D02*
X008152Y008662D01*
X008152Y008200D01*
X010680Y012564D02*
X010680Y013390D01*
X012380Y015090D01*
X013180Y015090D01*
X013580Y015490D01*
X013580Y016030D01*
X013530Y016080D01*
X013030Y016080D02*
X013030Y016440D01*
X012680Y016790D01*
X011134Y016790D01*
X011080Y016735D01*
X011080Y016090D01*
X009930Y016266D02*
X009930Y014494D01*
X009934Y014490D01*
X008726Y015290D02*
X008054Y015290D01*
X007306Y015290D02*
X006485Y015290D01*
X006480Y015294D01*
X006480Y015885D02*
X006480Y016190D01*
X005180Y016244D02*
X004984Y016440D01*
X004304Y016440D01*
X008480Y013735D02*
X008480Y013290D01*
X014780Y009890D02*
X014880Y009890D01*
X014887Y009897D01*
X015471Y009897D01*
X016073Y009897D01*
X016080Y009890D01*
X015980Y009859D02*
X016580Y009859D01*
X016580Y009761D02*
X015980Y009761D01*
X015980Y009662D02*
X016580Y009662D01*
X016580Y009564D02*
X015980Y009564D01*
X015980Y009465D02*
X016580Y009465D01*
X016580Y009457D02*
X016596Y009441D01*
X016630Y009421D01*
X016668Y009411D01*
X017132Y009411D01*
X017132Y009710D01*
X017228Y009710D01*
X017228Y009411D01*
X017600Y009411D01*
X017600Y009090D01*
X016580Y009090D01*
X016580Y009156D01*
X016595Y009194D01*
X016608Y009257D01*
X016608Y009281D01*
X016580Y009281D01*
X016580Y009299D01*
X016608Y009299D01*
X016608Y009322D01*
X016595Y009385D01*
X016580Y009423D01*
X016580Y009457D01*
X016580Y009367D02*
X015980Y009367D01*
X015980Y009268D02*
X016580Y009268D01*
X016608Y009268D02*
X017600Y009268D01*
X017600Y009170D02*
X016585Y009170D01*
X016580Y009170D02*
X015980Y009170D01*
X015980Y009090D02*
X015980Y010000D01*
X016580Y010000D01*
X016580Y009090D01*
X015980Y009090D01*
X016599Y009367D02*
X017600Y009367D01*
X017228Y009465D02*
X017132Y009465D01*
X017132Y009564D02*
X017228Y009564D01*
X017228Y009662D02*
X017132Y009662D01*
X016580Y009958D02*
X015980Y009958D01*
X015520Y018390D02*
X015380Y018530D01*
X015520Y018390D02*
X016780Y018390D01*
D31*
X014280Y016090D03*
X014280Y014090D03*
X014380Y012990D03*
X014380Y012290D03*
X014380Y011590D03*
X014380Y010890D03*
X014380Y010190D03*
X012980Y010190D03*
X012980Y010890D03*
X012980Y011590D03*
X012980Y012290D03*
X012980Y012990D03*
X010080Y010990D03*
X010080Y010090D03*
X008480Y009790D03*
X008780Y012190D03*
X007880Y016190D03*
X011080Y016090D03*
X016280Y012390D03*
X016280Y011890D03*
X016280Y011390D03*
X016280Y010890D03*
X016280Y009790D03*
X016280Y009290D03*
X013980Y008390D03*
X009280Y006490D03*
D32*
X014680Y010690D02*
X014780Y010690D01*
X014780Y010743D01*
X006780Y017790D02*
X006780Y017990D01*
X007104Y018313D01*
X008430Y018313D01*
X008430Y018740D01*
X008580Y018890D01*
X009780Y018890D01*
X009880Y018790D01*
X009980Y018890D01*
X010934Y018890D01*
X011080Y018744D01*
X009880Y018790D02*
X009880Y018363D01*
X009930Y018313D01*
X009480Y018313D02*
X009480Y018263D01*
X009480Y018313D02*
X009430Y018313D01*
X006780Y018090D02*
X006780Y017990D01*
X006780Y018090D02*
X006280Y018590D01*
X005080Y018590D01*
X002930Y016440D01*
X002256Y016440D01*
X001730Y016440D01*
X001480Y016190D01*
X001480Y015190D01*
X001780Y014890D01*
X002206Y014890D01*
X002256Y014940D01*
X002256Y014359D01*
X002526Y014090D01*
D33*
X006480Y005490D03*
X006980Y005490D03*
X007880Y005490D03*
X008780Y005490D03*
X006080Y001990D03*
X014780Y014790D03*
D34*
X015471Y010310D02*
X015492Y010290D01*
X017180Y010290D01*
M02*
